<?xml version="1.0" standalone="no"?>
<!DOCTYPE svg PUBLIC "-//W3C//DTD SVG 1.1//EN" "http://www.w3.org/Graphics/SVG/1.1/DTD/svg11.dtd" >
<svg xmlns="http://www.w3.org/2000/svg" xmlns:xlink="http://www.w3.org/1999/xlink" version="1.1">
<metadata>
Created by FontForge 20161003 at Wed May 17 13:20:14 2017
 By www-data
Copyright (c) Heineken, 2000. ALL RIGHTS RESERVED. Produced for Heineken by Visualogik Technology &#38; Design, 2000. Unauthorised use strictly prohibited. 
</metadata>
<defs>
<font id="HeinekenSans" horiz-adv-x="1188" >
  <font-face 
    font-family="Heineken Sans"
    font-weight="400"
    font-stretch="normal"
    units-per-em="2048"
    panose-1="2 11 6 4 2 2 2 2 2 4"
    ascent="1638"
    descent="-410"
    x-height="1120"
    cap-height="1532"
    bbox="-173 -451 2257 1939"
    underline-thickness="140"
    underline-position="-560"
    unicode-range="U+0020-F8FF"
  />
<missing-glyph horiz-adv-x="1024" 
d="M104 0v1532h816v-1532h-816zM877 43v1446h-730v-1446h730z" />
    <glyph glyph-name=".notdef" horiz-adv-x="1024" 
d="M104 0v1532h816v-1532h-816zM877 43v1446h-730v-1446h730z" />
    <glyph glyph-name=".null" horiz-adv-x="1024" 
 />
    <glyph glyph-name="nonmarkingreturn" horiz-adv-x="1024" 
 />
    <glyph glyph-name="space" unicode=" " horiz-adv-x="532" 
 />
    <glyph glyph-name="exclam" unicode="!" horiz-adv-x="600" 
d="M322 256q28 0 53 -10.5t43.5 -29.5t29.5 -44t11 -53q0 -29 -11 -53.5t-29.5 -43.5t-43.5 -29.5t-53 -10.5q-29 0 -54 10.5t-43.5 29.5t-29.5 43.5t-11 53.5q0 28 11 53t29.5 44t43.5 29.5t54 10.5zM205 1482q0 21 15 35.5t36 14.5h123q21 0 37 -14.5t16 -35.5v-3
l-39 -1059q0 -9 -6.5 -15t-15.5 -6h-101q-9 0 -15.5 6t-6.5 15l-43 1059v3z" />
    <glyph glyph-name="quotedbl" unicode="&#x22;" horiz-adv-x="715" 
d="M416 1438q-1 2 -1 9v10q0 42 25 66.5t74 24.5h27q51 0 72.5 -25.5t21.5 -67.5q0 -7 -0.5 -13.5t-1.5 -14.5l-45 -362q-3 -45 -39 -45h-45q-17 0 -25.5 9t-11.5 34zM78 1438q-1 5 -1.5 10.5t-0.5 10.5q0 42 26 65.5t74 23.5h27q51 0 72.5 -26t21.5 -69q0 -6 -0.5 -12.5
t-1.5 -13.5l-45 -362q-3 -45 -41 -45h-45q-16 0 -24 9t-11 34z" />
    <glyph glyph-name="numbersign" unicode="#" 
d="M428 606h281l49 326h-281zM166 932q-12 0 -19.5 6t-7.5 20v68q0 16 10.5 22.5t22.5 6.5h180l66 438q3 17 10.5 28t26.5 11h80q29 0 29 -30q0 -8 -1 -9l-65 -438h272l68 442q3 16 14.5 25.5t30.5 9.5h71q34 0 34 -31q0 -7 -1 -8l-65 -438h168q26 0 26 -29v-68
q0 -14 -10 -20t-23 -6h-182l-49 -326h162q12 0 19 -5.5t7 -20.5v-70q0 -14 -9 -20.5t-21 -6.5h-172l-68 -444q-3 -17 -12.5 -28t-26.5 -11h-80q-29 0 -29 27q0 10 1 12l67 444h-278l-68 -444q-3 -17 -13.5 -28t-27.5 -11h-74q-31 0 -31 31q0 7 1 8l67 444h-168
q-12 0 -20 6.5t-8 20.5v70q0 15 10 20.5t22 5.5h183l49 326h-168z" />
    <glyph glyph-name="dollar" unicode="$" 
d="M643 -231q0 -13 -8 -21t-21 -8h-96q-12 0 -20.5 8t-8.5 21v227q-148 11 -246.5 77t-148.5 169q-7 13 -7 25q0 19 24 28l120 55q7 3 15 3q17 0 28 -21q34 -79 105 -126.5t180 -47.5q64 0 114 19.5t83.5 52.5t51 77t17.5 94q0 35 -7.5 69.5t-29 67.5t-61.5 63t-104 56
l-125 52q-88 35 -150 75t-101.5 88t-58 105.5t-18.5 126.5q0 75 25 138.5t79 117.5q42 40 94 65.5t121 36.5v217q0 13 8.5 21t20.5 8h96q13 0 21 -8t8 -21v-213q102 -9 180 -58t127 -153q9 -20 9 -31q0 -13 -8 -19.5t-19 -10.5l-101 -43q-8 -3 -15 -3q-19 0 -30 23
q-27 72 -78 105t-133 33q-50 0 -87.5 -15t-62.5 -40.5t-37.5 -59.5t-12.5 -72q0 -43 11 -75.5t35.5 -59t64.5 -49.5t98 -47l125 -51q91 -36 153 -82.5t100.5 -100.5t55 -113.5t16.5 -121.5q0 -176 -121 -303q-51 -51 -118 -79.5t-152 -39.5v-231z" />
    <glyph glyph-name="percent" unicode="%" horiz-adv-x="1554" 
d="M1128 584q-34 0 -61.5 -10.5t-52.5 -34.5q-26 -26 -43 -76.5t-17 -116.5q0 -72 16 -121.5t38 -70.5q31 -31 60.5 -40.5t64.5 -9.5q37 0 64.5 11.5t51.5 36.5q25 24 40.5 73.5t15.5 118.5q0 72 -15 119.5t-41 73.5q-24 24 -51.5 35.5t-69.5 11.5zM1126 -20
q-66 0 -129.5 19t-111.5 67q-53 52 -76 117.5t-23 158.5q0 54 8 97t21 77t30 59t36 43q49 51 115.5 71t136.5 20q33 0 66.5 -5t65 -15t59 -25.5t48.5 -36.5t39 -46t32 -58.5t22 -76.5t8 -100t-8.5 -100t-22 -76.5t-31.5 -58t-37 -43.5q-45 -45 -111.5 -66.5t-136.5 -21.5z
M416 1423q-34 0 -62 -10t-53 -35q-26 -26 -42.5 -76t-16.5 -116q0 -72 15.5 -121.5t37.5 -71.5q31 -31 61 -40t64 -9q37 0 64.5 11t52.5 36q24 25 39.5 74.5t15.5 118.5q0 72 -14.5 119t-40.5 73q-25 25 -53 36t-68 11zM414 819q-66 0 -130 19t-112 67q-53 53 -75.5 118.5
t-22.5 158.5q0 54 8 97t21 77t30 59t35 43q49 50 116 70t136 20q33 0 66.5 -5t65 -15t59 -25.5t48.5 -36.5t39.5 -46t32 -58t21.5 -76t8 -100t-8 -100.5t-21.5 -77t-31.5 -58t-37 -43.5q-45 -45 -112 -66.5t-136 -21.5zM340 -12q-7 -13 -24 -13q-7 0 -15 5l-61 36
q-17 9 -17 26q0 9 4 13l973 1489q10 13 27 13q8 0 16 -5l60 -36q15 -11 15 -27q0 -6 -3 -12z" />
    <glyph glyph-name="ampersand" unicode="&#x26;" horiz-adv-x="1497" 
d="M1024 434q25 85 31 170.5t6 173.5q0 20 8 29.5t31 9.5h114q33 0 33 -33q0 -87 -7 -158t-20.5 -132.5t-33.5 -116t-45 -107.5q43 -60 79.5 -92.5t73.5 -32.5q28 0 47.5 7.5t40.5 27.5q13 13 25 13t25 -13l45 -43q6 -6 6 -19q0 -11 -4 -18q-47 -65 -98.5 -92.5
t-116.5 -27.5q-84 0 -144 38t-108 107q-91 -82 -190 -113.5t-210 -31.5q-72 0 -130 9.5t-104.5 27t-83.5 42t-67 54.5q-57 57 -82.5 130t-25.5 158q0 93 27.5 165.5t73 130.5t104 105t120.5 89q-44 64 -73 108.5t-46 83t-23.5 78t-6.5 94.5q0 52 23 104t66.5 94t106.5 68.5
t144 26.5q91 0 154 -23.5t102.5 -62.5t57.5 -90.5t18 -107.5q0 -108 -64 -204t-201 -188zM539 766q-52 -38 -90.5 -74t-64.5 -76.5t-39 -88t-13 -107.5t19 -114t57 -91q74 -74 215 -74q78 0 154 28.5t134 88.5zM612 997q76 54 124 118t48 142q0 76 -41 113t-110 37
q-37 0 -65 -12.5t-47.5 -33t-29.5 -46.5t-10 -53q0 -35 8 -63t24 -57t40.5 -63t58.5 -82z" />
    <glyph glyph-name="quotesingle" unicode="'" horiz-adv-x="342" 
d="M53 1438q-1 5 -1.5 10t-0.5 10q0 42 27.5 66t81.5 24h28q55 0 79 -25.5t24 -68.5q0 -7 -0.5 -13.5t-1.5 -13.5l-49 -362q-3 -45 -43 -45h-50q-17 0 -26 9t-12 34z" />
    <glyph glyph-name="parenleft" unicode="(" horiz-adv-x="635" 
d="M455 -449q-6 -1 -10.5 -1.5t-9.5 -0.5q-13 0 -20.5 5t-15.5 16q-48 80 -92 197t-77.5 256t-53.5 293t-20 309q0 161 20 318t53.5 297t78.5 257t95 199q14 20 33 20q12 0 19 -4l39 -14q23 -9 23 -40q0 -10 -3 -20q-37 -113 -68.5 -230.5t-54.5 -240.5t-36 -252t-13 -266
q0 -150 13 -287.5t36 -264.5t54 -245t67 -229q2 -11 3.5 -18.5t1.5 -12.5q0 -12 -5 -20.5t-18 -11.5z" />
    <glyph glyph-name="parenright" unicode=")" horiz-adv-x="635" 
d="M180 1716q6 1 10.5 1.5t9.5 0.5q13 0 20.5 -5t15.5 -15q48 -80 92 -197t77.5 -256t53.5 -293.5t20 -308.5q0 -161 -20 -318t-54 -297t-79 -257t-95 -199q-12 -21 -31 -21q-5 0 -20 5l-39 14q-23 11 -23 39q0 9 3 20q37 113 68.5 230.5t54.5 240.5t36 252t13 266
q0 151 -13 288.5t-36 264.5t-54 245t-67 229q-5 22 -5 31q0 12 5 20.5t18 11.5z" />
    <glyph glyph-name="asterisk" unicode="*" 
d="M594 936l-234 -172q-17 -14 -32 -14q-14 0 -23.5 9t-9.5 23q0 3 1 8.5t3 10.5l92 282l-241 174q-19 13 -19 33q0 14 10 23.5t27 9.5h301l92 285q9 26 33 26t33 -26l94 -285h299q17 0 27 -9.5t10 -23.5q0 -20 -19 -33l-239 -174l90 -282q2 -5 3 -10.5t1 -8.5
q0 -14 -9.5 -23t-23.5 -9q-13 0 -33 14z" />
    <glyph glyph-name="plus" unicode="+" 
d="M104 553q-17 0 -25.5 9.5t-8.5 25.5v82q0 32 34 32h375q33 0 33 33v365q0 15 9.5 25t25.5 10h90q15 0 26 -10t11 -25v-367q0 -15 7 -23t24 -8h376q16 0 25.5 -8.5t9.5 -23.5v-82q0 -16 -9.5 -25.5t-25.5 -9.5h-376q-16 0 -23.5 -7t-7.5 -24v-364q0 -16 -11 -25.5
t-26 -9.5h-90q-16 0 -25.5 9.5t-9.5 25.5v364q0 31 -35 31h-373z" />
    <glyph glyph-name="comma" unicode="," horiz-adv-x="549" 
d="M94 -293q-17 0 -25 9.5t-14 29.5q-4 11 -4 25q0 15 7 22.5t20 9.5q32 6 56 19.5t39.5 31.5t23.5 38.5t8 41.5q0 31 -16.5 49t-36 37t-36 45.5t-16.5 73.5q0 28 11 54.5t30.5 46t45.5 31.5t55 12q32 0 61.5 -13.5t51.5 -40t35 -66t13 -91.5q0 -64 -15 -116t-40.5 -92.5
t-57.5 -70t-66.5 -48.5t-68 -28.5t-61.5 -9.5z" />
    <glyph glyph-name="hyphen" unicode="-" horiz-adv-x="627" 
d="M119 547q-19 0 -30 10t-11 29v88q0 20 11 28.5t30 8.5h387q18 0 29.5 -8.5t11.5 -28.5v-88q0 -19 -11.5 -29t-29.5 -10h-387z" />
    <glyph glyph-name="period" unicode="." horiz-adv-x="539" 
d="M236 283q31 0 58.5 -12t48 -32.5t32.5 -48.5t12 -59q0 -32 -12 -59.5t-32.5 -47.5t-48 -32t-58.5 -12q-32 0 -59.5 12t-48 32t-32.5 47.5t-12 59.5q0 31 12 59t32.5 48.5t48 32.5t59.5 12z" />
    <glyph glyph-name="slash" unicode="/" horiz-adv-x="1024" 
d="M860 1749q9 20 32 20q6 0 12.5 -2t13.5 -4l77 -30q13 -5 18.5 -15.5t5.5 -21.5q0 -10 -3 -17l-873 -1900q-11 -21 -33 -21q-15 0 -22 4l-80 33q-12 5 -17.5 15t-5.5 21q0 9 3 15z" />
    <glyph glyph-name="zero" unicode="0" 
d="M594 1337q-74 0 -132 -35t-97.5 -108.5t-60.5 -186t-21 -266.5q0 -310 78 -457t241 -147q74 0 132 35.5t97.5 108.5t60.5 185.5t21 266.5q0 310 -78 457t-241 147zM594 -20q-141 0 -240 48.5t-161.5 144t-91.5 236t-29 324.5q0 185 31.5 327.5t97 239t165 146t236.5 49.5
q141 0 240 -48.5t161.5 -144t91.5 -236.5t29 -325q0 -185 -31.5 -327t-97 -238.5t-165.5 -146t-236 -49.5z" />
    <glyph glyph-name="one" unicode="1" 
d="M696 225q0 -55 54 -55h237q11 0 18 -9t7 -20v-123q0 -18 -25 -18h-799q-22 0 -22 14v127q0 13 8 21t21 8h247q54 0 54 55v983q0 16 -4 16q-3 0 -13 -7l-225 -164q-11 -9 -25 -9q-13 0 -20 9l-72 90q-7 10 -7 19t9 18l373 278q12 9 18.5 13t14.5 4h119q17 0 24.5 -9.5
t7.5 -21.5v-1219z" />
    <glyph glyph-name="two" unicode="2" 
d="M113 199q83 107 167.5 191.5t163 155t146.5 132t118.5 125t79.5 132.5t29 155q0 128 -60.5 190.5t-178.5 62.5q-53 0 -97 -14.5t-79 -46.5t-60.5 -82t-40.5 -121q-8 -35 -40 -35q-9 0 -19 3l-95 26q-27 6 -27 35q0 10 3 22q23 82 60.5 149.5t92.5 115.5t130.5 74
t175.5 26q106 0 190 -27t141 -90q54 -57 77.5 -128t23.5 -152q0 -98 -31.5 -179t-85.5 -153.5t-124.5 -139.5t-149 -136.5t-159 -145.5t-153.5 -166h721q17 0 28 -8t11 -27v-100q0 -23 -8 -33t-27 -10h-874q-14 0 -21.5 5t-13.5 24l-27 86q-6 18 -6 34q0 25 19 50z" />
    <glyph glyph-name="three" unicode="3" 
d="M578 1495q100 0 178.5 -26.5t133 -72t83 -107.5t28.5 -134q0 -261 -243 -334v-2q85 -18 145 -57.5t98.5 -92t56 -114.5t17.5 -125q0 -98 -38.5 -180.5t-107.5 -142.5t-164 -93.5t-208 -33.5q-92 0 -169 21t-138 56t-105 81.5t-71 97.5q-9 15 -9 27q0 18 27 32l98 51
q7 4 14 4q15 0 32 -24q23 -37 54 -70.5t71 -59t89.5 -40.5t108.5 -15q70 0 127.5 19t98.5 54.5t64 87.5t23 118q0 78 -28.5 135t-77 94t-112 54.5t-132.5 17.5h-104q-35 0 -35 35v88q0 14 8 23.5t25 9.5h90q53 0 106.5 14t96 44.5t69.5 79.5t27 118q0 51 -17 90t-47 65.5
t-72 40.5t-91 14q-61 0 -105 -14.5t-75 -40t-51 -60t-32 -73.5q-5 -18 -28 -18q-13 0 -21 4l-110 33q-21 6 -21 28q0 9 8 33q25 59 63.5 107t92 82t123 52.5t156.5 18.5z" />
    <glyph glyph-name="four" unicode="4" 
d="M702 1292h-4l-460 -825h434q20 2 25 12t5 27v786zM109 293q-23 0 -29 22l-35 105q-3 10 -3 20q0 15 5 23l551 985q9 15 18.5 21t24.5 6h217q14 0 22.5 -9t8.5 -24v-934q0 -25 6 -32t23 -9h161q16 0 25.5 -7.5t9.5 -21.5v-100q0 -19 -8 -32t-25 -13h-163q-13 0 -21 -5
t-8 -24v-231q0 -33 -31 -33h-121q-35 0 -35 33v225q0 16 -5 25.5t-23 9.5h-565z" />
    <glyph glyph-name="five" unicode="5" 
d="M543 -20q-84 0 -158 19.5t-133.5 55.5t-102 86t-63.5 111q-4 8 -4 18q0 12 8.5 19t22.5 12l112 41l7.5 1.5t3.5 0.5q17 0 26 -22q38 -85 110.5 -134t178.5 -49q73 0 129.5 22.5t94.5 64t57.5 101t19.5 134.5q0 158 -72 239.5t-223 81.5q-65 0 -111 -14t-78.5 -31
t-55.5 -31t-42 -14q-11 0 -18 4t-16 11l-56 34q-12 15 -12 29q0 5 0.5 9.5t1.5 11.5l88 651q3 20 12.5 26.5t32.5 6.5h588q12 0 22.5 -6.5t10.5 -24.5v-111q0 -21 -8.5 -27t-26.5 -6h-477q-20 0 -23 -18l-53 -410q24 15 55 27t65.5 21t71 13.5t70.5 4.5q115 0 201 -30
t149 -93q57 -57 85 -139.5t28 -200.5q0 -109 -31.5 -199.5t-97.5 -156.5q-38 -38 -83 -64.5t-94.5 -43t-103 -24t-108.5 -7.5z" />
    <glyph glyph-name="six" unicode="6" 
d="M608 829q-71 0 -124.5 -23t-89.5 -66t-54 -104.5t-18 -137.5q0 -96 20 -164t56.5 -111.5t88 -63.5t115.5 -20q65 0 117 18.5t88 59t55 106t19 160.5q0 346 -273 346zM594 -20q-94 0 -178.5 29.5t-153.5 99.5q-40 40 -69.5 90.5t-49 115.5t-29.5 146.5t-10 183.5
q0 236 50.5 407t164.5 283q76 77 181 118.5t250 41.5q52 0 106.5 -8.5t114.5 -28.5q11 -4 15 -12t4 -17q0 -11 -5 -24l-24 -70q-8 -24 -36 -24q-13 0 -24 4q-35 9 -74.5 15.5t-74.5 6.5q-59 0 -104 -8.5t-80.5 -24t-63 -36.5t-51.5 -45q-29 -29 -53 -71.5t-42 -93.5
t-30 -108t-17 -114q19 32 51 59.5t75 47.5t96 31t114 11q97 0 177.5 -27.5t140.5 -87.5q62 -62 93.5 -149t31.5 -211q0 -126 -35.5 -224.5t-101 -166.5t-157 -103.5t-202.5 -35.5z" />
    <glyph glyph-name="seven" unicode="7" 
d="M582 39q0 -19 -9 -29t-20 -10h-145q-18 0 -25.5 8.5t-7.5 30.5v10q7 180 46.5 352t105 331t154 302.5t193.5 265.5h-12h-735q-17 0 -26 9.5t-9 23.5v109q0 14 8.5 23.5t24.5 9.5h864q17 0 25.5 -8t11.5 -17l35 -121q4 -11 4 -25q0 -10 -3.5 -17t-10.5 -15
q-122 -133 -210.5 -279t-146 -301.5t-85 -319.5t-27.5 -333z" />
    <glyph glyph-name="eight" unicode="8" 
d="M606 889q49 27 89.5 55t69 59t44.5 66.5t16 77.5q0 88 -61 139t-170 51q-53 0 -94.5 -13.5t-70 -38.5t-43.5 -59t-15 -75q0 -47 17 -84.5t48 -68.5t74 -57.5t96 -51.5zM567 705q-70 -38 -121 -73.5t-84 -73.5t-49 -80t-16 -93q0 -128 78.5 -188t218.5 -60q75 0 130 18.5
t90 50.5t52 76.5t17 96.5q0 101 -79.5 178.5t-236.5 147.5zM764 813q61 -30 121 -67.5t108 -88t77.5 -116.5t29.5 -154q0 -78 -27 -149.5t-78 -122.5q-69 -69 -172 -102t-233 -33q-133 0 -235.5 28t-168.5 94q-48 48 -73 120t-25 153q0 76 28 137t74 110.5t105 89t121 72.5
q-50 27 -95 61t-79.5 77t-55 96t-20.5 119t23 131.5t69 111.5q109 115 344 115q121 0 202 -27.5t132 -81.5q43 -45 64.5 -105.5t21.5 -123.5q0 -61 -21 -112t-56.5 -93.5t-82.5 -77t-98 -61.5z" />
    <glyph glyph-name="nine" unicode="9" 
d="M580 645q71 0 124.5 23t89.5 66t54 104.5t18 138.5q0 93 -20 160.5t-56.5 111.5t-88 65t-115.5 21t-115.5 -20t-88 -62t-56 -107t-19.5 -155q0 -346 273 -346zM598 1495q94 0 177.5 -29t152.5 -98q40 -40 69 -90.5t48 -116t28.5 -148t9.5 -184.5q0 -117 -10.5 -220.5
t-34 -192t-62 -161.5t-95.5 -130q-41 -41 -86.5 -68.5t-93 -44.5t-96 -24.5t-95.5 -7.5q-112 0 -199.5 25t-156.5 63q-12 6 -17 15.5t-5 19.5q0 8 3 16l33 76q12 25 31 25q15 0 28 -7q63 -29 132 -50.5t147 -21.5q66 0 124.5 22t104.5 68q34 34 58.5 80.5t41.5 100t27 111.5
t15 116q-20 -32 -52 -59.5t-75 -47.5t-95.5 -31.5t-113.5 -11.5q-97 0 -177.5 27.5t-140.5 87.5q-62 62 -93.5 149.5t-31.5 211.5q0 123 35 221.5t100.5 167t158 105t206.5 36.5z" />
    <glyph glyph-name="colon" unicode=":" horiz-adv-x="618" 
d="M315 1012q31 0 59 -12t48.5 -32.5t32.5 -48.5t12 -59q0 -32 -12 -59.5t-32.5 -47.5t-48.5 -32t-59 -12q-32 0 -59.5 12t-47.5 32t-32 47.5t-12 59.5q0 31 12 59t32 48.5t47.5 32.5t59.5 12zM315 283q31 0 59 -12t48.5 -32.5t32.5 -48.5t12 -59q0 -32 -12 -59.5
t-32.5 -47.5t-48.5 -32t-59 -12q-32 0 -59.5 12t-47.5 32t-32 47.5t-12 59.5q0 31 12 59t32 48.5t47.5 32.5t59.5 12z" />
    <glyph glyph-name="semicolon" unicode=";" horiz-adv-x="629" 
d="M168 -293q-17 0 -25 9.5t-14 29.5q-4 11 -4 25q0 15 7 22.5t20 9.5q32 6 56 19.5t39.5 31.5t23.5 38.5t8 41.5q0 31 -16.5 49t-36 37t-36 45.5t-16.5 73.5q0 28 11 54.5t30.5 46t45 31.5t54.5 12q32 0 61.5 -13.5t52 -40t35.5 -66t13 -91.5q0 -64 -15 -116t-40.5 -92.5
t-57.5 -70t-66.5 -48.5t-68 -28.5t-61.5 -9.5zM315 1012q31 0 59 -12t48.5 -32.5t32.5 -48.5t12 -59q0 -32 -12 -59.5t-32.5 -47.5t-48.5 -32t-59 -12q-32 0 -59.5 12t-47.5 32t-32 47.5t-12 59.5q0 31 12 59t32 48.5t47.5 32.5t59.5 12z" />
    <glyph glyph-name="less" unicode="&#x3c;" 
d="M104 535q-22 9 -22 36v103q0 25 22 35l920 376q7 3 15 3q19 0 28 -17l31 -63q4 -8 4 -18q0 -25 -19 -32l-815 -329l815 -332q11 -5 15.5 -13.5t4.5 -19.5q0 -9 -3 -16l-33 -76q-4 -8 -11.5 -11.5t-15.5 -3.5q-9 0 -16 3z" />
    <glyph glyph-name="equal" unicode="=" 
d="M106 360q-34 0 -34 35v80q0 16 8.5 25.5t25.5 9.5h975q16 0 25.5 -9.5t9.5 -25.5v-80q0 -17 -9.5 -26t-25.5 -9h-975zM106 752q-17 0 -25.5 9.5t-8.5 24.5v80q0 16 8.5 25.5t25.5 9.5h975q16 0 25.5 -9.5t9.5 -25.5v-80q0 -15 -9.5 -24.5t-25.5 -9.5h-975z" />
    <glyph glyph-name="greater" unicode="&#x3e;" 
d="M1081 723q23 -9 23 -37v-102q0 -26 -23 -35l-919 -377q-8 -3 -15 -3q-19 0 -28 17l-31 64q-4 8 -4 17q0 24 18 32l816 330l-816 332q-19 9 -19 32q0 8 3 17l33 75q7 16 26 16q8 0 17 -3z" />
    <glyph glyph-name="question" unicode="?" horiz-adv-x="936" 
d="M457 256q28 0 53 -10.5t43.5 -29.5t29.5 -44t11 -53q0 -29 -11 -53.5t-29.5 -43.5t-43.5 -29.5t-53 -10.5q-29 0 -54 10.5t-43.5 29.5t-29.5 43.5t-11 53.5q0 28 11 53t29.5 44t43.5 29.5t54 10.5zM537 430q0 -31 -33 -31h-92q-16 0 -25.5 9t-9.5 24v152q0 98 22.5 163.5
t56 112t73 81.5t73 71.5t56 81.5t22.5 112q0 91 -54.5 142t-154.5 51q-106 0 -155.5 -51.5t-49.5 -139.5q0 -17 -9.5 -25.5t-23.5 -8.5h-122q-35 0 -35 26q0 75 24 138.5t73 110t124 73t176 26.5q102 0 176 -27.5t121.5 -73t70.5 -105.5t23 -125v-3q0 -67 -14 -116
t-37 -85.5t-52.5 -64.5t-60 -54t-60 -53t-52.5 -62t-37 -81t-14 -110v-158z" />
    <glyph glyph-name="at" unicode="@" horiz-adv-x="1837" 
d="M944 989q-37 0 -70 -20t-58.5 -59t-40.5 -95.5t-15 -128.5q0 -57 9 -96t25.5 -63t41 -35t55.5 -11q29 0 62 18.5t61 57t46.5 98t18.5 140.5q0 94 -33 144t-102 50zM1120 1081q6 37 41 37h78q12 0 18.5 -8.5t6.5 -28.5l-37 -430q-1 -12 -1.5 -24t-0.5 -23q0 -55 18 -89
t68 -34q37 0 70.5 27t59 81t40 134.5t14.5 187.5q0 249 -126.5 370.5t-364.5 121.5q-90 0 -174 -25t-157.5 -73t-135 -116.5t-105 -155.5t-68 -190.5t-24.5 -221.5q0 -146 38.5 -256t105.5 -184.5t157.5 -112t194.5 -37.5q91 0 169 24t138 66q13 7 22 7q14 0 23 -15l41 -66
q2 -8 2 -9q0 -8 -5 -18t-16 -18q-78 -57 -173.5 -90t-221.5 -33q-134 0 -255.5 44.5t-213 136t-145.5 231t-54 330.5q0 139 31.5 262t88 226t135.5 184.5t174.5 138t204.5 86.5t225 30q330 0 498.5 -158.5t168.5 -459.5q0 -135 -28.5 -244t-79 -185.5t-119.5 -117.5
t-150 -41q-38 0 -71.5 10.5t-59 31t-41 51t-16.5 71.5q-18 -39 -44.5 -69.5t-58.5 -51.5t-68.5 -32t-74.5 -11q-139 0 -210.5 84t-71.5 250q0 105 26.5 188.5t74 142t112 90t139.5 31.5q146 0 182 -110z" />
    <glyph glyph-name="A" unicode="A" horiz-adv-x="1362" 
d="M856 657q21 0 21 12q0 5 -3 13l-200 575h-2l-209 -575q-3 -8 -3 -13q0 -12 21 -12h375zM586 1509q5 13 10.5 18t17.5 5h136q12 0 18.5 -6.5t9.5 -16.5l547 -1464q2 -8 2 -12q0 -13 -9 -23t-24 -10h-151q-14 0 -23 5.5t-14 19.5l-158 450q-6 16 -14.5 21.5t-22.5 5.5h-485
q-30 0 -39 -27l-162 -448q-9 -27 -37 -27h-125q-13 0 -22 10.5t-9 25.5q0 8 3 17z" />
    <glyph glyph-name="B" unicode="B" horiz-adv-x="1212" 
d="M414 764q-29 0 -29 -29v-547q0 -28 29 -28h168q169 0 252.5 74t83.5 208q0 72 -18 131t-59.5 101.5t-108.5 66t-165 23.5h-153zM414 1376q-29 0 -29 -28v-400q0 -28 29 -28h129q64 0 113 17t82 47.5t50 73t17 93.5q0 50 -14.5 91.5t-46 71t-80.5 46t-117 16.5h-133z
M209 0q-14 0 -23.5 9.5t-9.5 23.5v1466q0 14 9.5 23.5t23.5 9.5h342q91 0 164 -16t133 -50q85 -49 123.5 -123.5t38.5 -177.5q0 -55 -15 -104t-43.5 -89t-70 -69.5t-95.5 -44.5l-18 -4l18 -4q75 -14 137.5 -48.5t107 -85t69 -116t24.5 -141.5q0 -114 -41 -199.5t-114 -143.5
t-175 -87t-223 -29h-362z" />
    <glyph glyph-name="C" unicode="C" horiz-adv-x="1264" 
d="M1026 1114q-11 -3 -18 -3q-23 0 -29 24q-35 113 -106 178t-185 65q-91 0 -161 -42t-117.5 -121t-72 -192t-24.5 -255q0 -147 21 -261t67 -192.5t118 -119.5t173 -41q129 0 220.5 61t142.5 182q12 29 32 29q10 0 17 -4l82 -39q18 -8 18 -30q0 -14 -4 -21q-27 -79 -75 -144
t-114.5 -111t-150.5 -71.5t-184 -25.5q-85 0 -160 18.5t-137 54t-110 87t-79 118.5q-28 60 -47 119.5t-30 120t-16 124t-5 132.5q0 147 21 268.5t75 224.5q34 66 83 121.5t112 95t139.5 62t165.5 22.5q93 0 171.5 -25t139.5 -71t103 -112t63 -148q1 -2 1 -12t-3.5 -18.5
t-11.5 -10.5z" />
    <glyph glyph-name="D" unicode="D" horiz-adv-x="1350" 
d="M387 195q0 -20 7 -27.5t30 -7.5h160q120 0 207.5 44.5t144.5 125.5t84 193t27 247q0 162 -36.5 276.5t-100 186.5t-149 105.5t-183.5 33.5h-154q-23 0 -30 -7.5t-7 -27.5v-1142zM219 0q-18 0 -30.5 10t-12.5 35v1450q0 16 8.5 26.5t28.5 10.5h358q176 0 305 -57.5
t214 -158t126 -238.5t41 -298q0 -167 -41.5 -309.5t-126 -247t-212.5 -164t-302 -59.5h-356z" />
    <glyph glyph-name="E" unicode="E" horiz-adv-x="1130" 
d="M209 0q-17 0 -25 10.5t-8 26.5v1450q0 22 10 33.5t35 11.5h756q35 0 35 -37v-86q0 -37 -37 -37h-561q-27 0 -27 -20v-402q0 -17 5 -23.5t24 -6.5h452q14 0 23.5 -9.5t9.5 -23.5v-90q0 -14 -9.5 -23.5t-23.5 -9.5h-448q-20 0 -26.5 -6.5t-6.5 -22.5v-549q0 -26 25 -26h589
q14 0 23.5 -9.5t9.5 -23.5v-94q0 -14 -9.5 -23.5t-23.5 -9.5h-792z" />
    <glyph glyph-name="F" unicode="F" horiz-adv-x="1051" 
d="M213 0q-22 0 -29.5 10.5t-7.5 26.5v1454q0 17 12 29t27 12h743q17 0 27 -9.5t10 -25.5v-90q0 -17 -9 -26t-23 -9h-549q-27 0 -27 -20v-402q0 -17 5 -23.5t24 -6.5h436q14 0 23.5 -9.5t9.5 -23.5v-90q0 -14 -9.5 -23.5t-23.5 -9.5h-432q-20 0 -26.5 -6.5t-6.5 -22.5v-700
q0 -14 -8 -24.5t-27 -10.5h-139z" />
    <glyph glyph-name="G" unicode="G" horiz-adv-x="1352" 
d="M1178 139q-97 -72 -220.5 -115.5t-263.5 -43.5q-122 0 -231 38t-191.5 128t-131 239t-48.5 371q0 139 21 265.5t77 229.5q36 64 83.5 118.5t109 94t138 62t171.5 22.5q94 0 173.5 -24t141 -69t105.5 -110t68 -147q3 -11 3 -19q0 -12 -6.5 -18.5t-19.5 -11.5l-110 -37
q-9 -3 -17 -3q-24 0 -35 26q-15 52 -40 96.5t-62 77t-87.5 51t-117.5 18.5q-93 0 -164.5 -41t-120 -119t-73.5 -191t-25 -257q0 -160 25.5 -276.5t76 -192.5t126.5 -112.5t178 -36.5q78 0 154 19t134 56q10 7 13.5 15t3.5 20v363q0 26 -21 26h-256q-12 0 -22 9t-10 24v90
q0 16 9.5 24.5t24.5 8.5h424q17 0 28 -9.5t11 -31.5v-567q0 -22 -7 -36t-19 -24z" />
    <glyph glyph-name="H" unicode="H" horiz-adv-x="1417" 
d="M1030 731q0 31 -31 31h-581q-31 0 -31 -31v-698q0 -14 -9.5 -23.5t-23.5 -9.5h-145q-14 0 -23.5 9.5t-9.5 23.5v1466q0 14 9.5 23.5t23.5 9.5h145q14 0 23.5 -9.5t9.5 -23.5v-547q0 -30 31 -30h581q31 0 31 30v547q0 14 9.5 23.5t23.5 9.5h145q14 0 23.5 -9.5t9.5 -23.5
v-1466q0 -14 -9.5 -23.5t-23.5 -9.5h-145q-14 0 -23.5 9.5t-9.5 23.5v698z" />
    <glyph glyph-name="I" unicode="I" horiz-adv-x="563" 
d="M203 0q-27 0 -27 25v1482q0 25 27 25h157q13 0 20 -7.5t7 -17.5v-1482q0 -25 -27 -25h-157z" />
    <glyph glyph-name="J" unicode="J" horiz-adv-x="637" 
d="M121 -305q-41 0 -75 5.5t-63 16t-55 25.5t-51 33q-11 8 -11 25t7 24l53 74q9 12 26 12q12 0 23 -8q17 -13 47 -25t68 -12q160 0 160 176v1458q0 14 9.5 23.5t23.5 9.5h145q14 0 23.5 -9.5t9.5 -23.5v-1433q0 -63 -7 -110.5t-24 -84.5q-37 -85 -118.5 -130.5t-190.5 -45.5
z" />
    <glyph glyph-name="K" unicode="K" horiz-adv-x="1268" 
d="M1014 0q-14 0 -22 4t-13 12l-461 725q-7 13 -19 13q-11 0 -20 -11l-78 -84q-14 -14 -14 -28v-598q0 -14 -9.5 -23.5t-23.5 -9.5h-145q-14 0 -23.5 9.5t-9.5 23.5v1466q0 14 9.5 23.5t23.5 9.5h145q14 0 23.5 -9.5t9.5 -23.5v-637l10 10l580 648q6 6 12 9t19 3h141
q16 0 25 -8.5t9 -20.5q0 -14 -12 -26l-505 -545q-8 -11 -8 -21q0 -11 6 -18l561 -844q6 -11 6 -20q0 -12 -8 -20.5t-25 -8.5h-184z" />
    <glyph glyph-name="L" unicode="L" horiz-adv-x="979" 
d="M950 33q0 -14 -9 -23.5t-23 -9.5h-693q-26 0 -37.5 12.5t-11.5 34.5v1452q0 14 9.5 23.5t23.5 9.5h145q14 0 23.5 -9.5t9.5 -23.5v-1304q0 -23 23 -23h508q14 0 23 -9.5t9 -23.5v-106z" />
    <glyph glyph-name="M" unicode="M" horiz-adv-x="1632" 
d="M1282 0q-17 0 -25 9.5t-8 23.5v1239h-2l-340 -879q-9 -24 -33 -24h-120q-22 0 -29 18l-354 885h-2v-1239q0 -13 -7 -23t-24 -10h-129q-14 0 -23.5 7.5t-9.5 23.5v1466q0 16 8.5 25.5t24.5 9.5h250q15 0 23.5 -9t13.5 -20l317 -792q9 -23 14 -23q4 0 15 23l305 780
q11 29 20 35t25 6h231q16 0 24.5 -9.5t8.5 -23.5v-1466q0 -16 -9.5 -24.5t-23.5 -8.5h-141z" />
    <glyph glyph-name="N" unicode="N" horiz-adv-x="1374" 
d="M1198 33q0 -16 -9.5 -24.5t-25.5 -8.5h-143q-26 0 -41 7t-31 36l-534 1057l-49 106v-1173q0 -19 -9 -26t-24 -7h-123q-12 0 -22.5 8t-10.5 25v1464q0 16 8.5 25.5t24.5 9.5h166q25 0 36.5 -7.5t22.5 -29.5l516 -1006l60 -127v1147q0 14 6 18.5t20 4.5h131q11 0 21 -5
t10 -24v-1470z" />
    <glyph glyph-name="O" unicode="O" horiz-adv-x="1427" 
d="M711 1393q-153 0 -246 -95q-39 -39 -68.5 -94.5t-49 -123t-29 -146.5t-9.5 -166q0 -188 38.5 -324t117.5 -215q49 -49 112.5 -70.5t141.5 -21.5q75 0 135.5 24t108.5 70q78 79 116.5 216t38.5 315q0 186 -38.5 322t-116.5 214q-51 51 -114 73t-138 22zM709 -20
q-121 0 -229 33.5t-189 115.5q-45 45 -81.5 103.5t-62.5 135t-40.5 173.5t-14.5 219q0 124 15 222t41.5 175.5t63.5 135.5t81 102q83 83 192 118t234 35q124 0 230 -34t188 -115q44 -45 80.5 -103.5t62.5 -135t40.5 -173.5t14.5 -219q0 -124 -15 -222t-42 -175.5
t-63.5 -135.5t-79.5 -102q-85 -84 -192.5 -118.5t-233.5 -34.5z" />
    <glyph glyph-name="P" unicode="P" horiz-adv-x="1161" 
d="M412 1372q-14 0 -19.5 -5t-5.5 -19v-574q0 -14 5.5 -19t19.5 -5h176q148 0 222.5 85.5t74.5 235.5q0 66 -18.5 121.5t-55.5 95t-93 62t-130 22.5h-176zM412 590q-14 0 -19.5 -5.5t-5.5 -19.5v-532q0 -14 -9.5 -23.5t-23.5 -9.5h-145q-14 0 -23.5 9.5t-9.5 23.5v1456
q0 43 43 43h365q88 0 162 -11.5t137 -43.5q106 -57 162.5 -153t56.5 -243q0 -87 -16 -154.5t-45 -119.5t-71 -90t-93 -66q-60 -32 -133 -46.5t-158 -14.5h-174z" />
    <glyph glyph-name="Q" unicode="Q" horiz-adv-x="1427" 
d="M711 1393q-153 0 -246 -95q-39 -39 -68.5 -94.5t-49 -123t-29 -146.5t-9.5 -166q0 -188 38.5 -324t117.5 -215q49 -49 112.5 -70.5t141.5 -21.5q75 0 135.5 24t108.5 70q78 79 116.5 216t38.5 315q0 186 -38.5 322t-116.5 214q-51 51 -114 73t-138 22zM821 -41
q0 -49 22 -82t79 -33q32 0 68.5 11t68.5 28q10 7 21 7q18 0 28 -19l35 -55q6 -11 6 -22q0 -14 -12 -23q-48 -39 -114 -61.5t-144 -22.5q-77 0 -129 16t-84 47t-46 77.5t-14 106.5v52q-91 11 -170 44t-145 99q-45 45 -81.5 103.5t-62.5 135t-40.5 173.5t-14.5 219
q0 124 15 222t41.5 175.5t63.5 135.5t81 102q83 83 192 118t234 35q124 0 230 -34t188 -115q44 -45 80.5 -103.5t62.5 -135t40.5 -173.5t14.5 -219q0 -124 -15 -222t-42 -175.5t-63.5 -135.5t-79.5 -102q-63 -63 -143 -99t-171 -48v-27z" />
    <glyph glyph-name="R" unicode="R" horiz-adv-x="1229" 
d="M414 1372q-27 0 -27 -26v-451q0 -14 5.5 -19.5t19.5 -5.5h147q77 0 130 18.5t85.5 53t47 83.5t14.5 110q0 113 -64 175t-197 62h-161zM1092 33q0 -2 0.5 -2.5t0.5 -2.5q0 -12 -11 -20t-23 -8h-146q-14 0 -21.5 9.5t-10.5 23.5q-11 42 -16 93t-5 91v211q0 67 -9.5 120
t-38 90t-80.5 56t-136 19h-184q-14 0 -19.5 -5.5t-5.5 -19.5v-655q0 -14 -9.5 -23.5t-23.5 -9.5h-145q-14 0 -23.5 9.5t-9.5 23.5v1466q0 14 8.5 23.5t24.5 9.5h383q97 0 176.5 -17t142.5 -59q70 -45 107 -124.5t37 -182.5q0 -58 -11.5 -110t-37 -95.5t-66.5 -77t-100 -53.5
v-4q72 -10 117 -44.5t70.5 -85t34.5 -112.5t9 -127v-219q0 -42 5 -94t16 -94z" />
    <glyph glyph-name="S" unicode="S" horiz-adv-x="1110" 
d="M498 -20q-90 0 -164.5 18.5t-134 52.5t-103 81.5t-71.5 105.5q-8 21 -8 27q0 18 26 30l125 57q9 3 16 3q18 0 29 -23q35 -82 109 -131t188 -49q67 0 119 20.5t87.5 56t53.5 82t18 99.5q0 36 -8 72.5t-31 72t-64 69t-107 62.5l-132 57q-90 39 -154.5 82t-106 94t-61.5 111
t-20 133q0 79 26 147.5t83 125.5q57 55 135.5 85.5t190.5 30.5q64 0 120.5 -12t105 -38t87.5 -68t68 -103q9 -21 9 -33q0 -14 -8 -20.5t-20 -11.5l-106 -47q-8 -3 -14 -3q-9 0 -17.5 6.5t-13.5 20.5q-29 75 -83 109t-139 34q-52 0 -91.5 -17t-66 -45t-40 -64.5t-13.5 -75.5
q0 -45 12 -80t38 -64t68 -54.5t102 -51.5l131 -57q94 -41 158.5 -91.5t105 -107.5t58.5 -120t18 -128q0 -91 -32 -171.5t-95 -143.5q-69 -69 -165.5 -102t-217.5 -33z" />
    <glyph glyph-name="T" unicode="T" 
d="M483 1348q0 26 -28 26h-398q-14 0 -23 9.5t-9 23.5v92q0 14 9 23.5t23 9.5h1073q14 0 23.5 -9.5t9.5 -23.5v-92q0 -14 -9.5 -23.5t-23.5 -9.5h-409q-14 0 -20.5 -5.5t-6.5 -20.5v-1315q0 -14 -9 -23.5t-23 -9.5h-146q-14 0 -23.5 9.5t-9.5 23.5v1315z" />
    <glyph glyph-name="U" unicode="U" horiz-adv-x="1354" 
d="M676 -20q-249 0 -374.5 123.5t-125.5 375.5v1020q0 14 9.5 23.5t23.5 9.5h145q14 0 23.5 -9.5t9.5 -23.5v-1018q0 -84 17 -148.5t53.5 -108t94.5 -65.5t140 -22q295 0 295 332v1030q0 14 9.5 23.5t23.5 9.5h125q14 0 23.5 -9.5t9.5 -23.5v-1014q0 -134 -35.5 -229.5
t-101 -156.5t-158.5 -90t-207 -29z" />
    <glyph glyph-name="V" unicode="V" horiz-adv-x="1194" 
d="M731 25q-3 -13 -12.5 -19t-20.5 -6h-137q-24 0 -31 25l-497 1462q-3 7 -3 15q0 12 8 21t23 9h156q24 0 33 -25l385 -1194h2l326 1196q6 23 30 23h137q17 0 24.5 -10t7.5 -21q0 -7 -1 -8z" />
    <glyph glyph-name="W" unicode="W" horiz-adv-x="1759" 
d="M63 1495q-1 1 -1 8q0 13 8 21t22 8h162q12 0 22 -6.5t13 -20.5l211 -964l41 -215l47 227l207 950q6 29 41 29h116q17 0 25.5 -6.5t11.5 -20.5l219 -977l41 -202l43 215l201 960q3 16 11.5 23.5t27.5 7.5h137q31 0 31 -32q0 -7 -2 -15l-357 -1460q-6 -25 -30 -25h-144
q-21 0 -28 25l-221 938l-37 178l-37 -180l-213 -936q-6 -25 -31 -25h-149q-22 0 -29 25z" />
    <glyph glyph-name="X" unicode="X" horiz-adv-x="1245" 
d="M612 655l-362 -635q-5 -8 -13 -14t-20 -6h-166q-13 0 -21.5 8.5t-8.5 20.5q0 9 6 18l481 762l-410 676q-6 10 -6 19q0 13 9.5 20.5t21.5 7.5h176q23 0 33 -19l297 -509l295 507q10 21 32 21h148q30 0 30 -23q0 -10 -8 -24l-393 -641l477 -791q8 -14 8 -25q0 -28 -34 -28
h-180q-20 0 -31 20z" />
    <glyph glyph-name="Y" unicode="Y" horiz-adv-x="1122" 
d="M674 33q0 -14 -9.5 -23.5t-23.5 -9.5h-145q-14 0 -23.5 9.5t-9.5 23.5v606l-436 838q-8 18 -8 27q0 14 9.5 21t24.5 7h168q13 0 21 -7t14 -20l334 -684l323 680q7 16 15.5 23.5t25.5 7.5h136q13 0 20.5 -7.5t7.5 -18.5q0 -9 -6 -21l-438 -846v-606z" />
    <glyph glyph-name="Z" unicode="Z" horiz-adv-x="1069" 
d="M297 166h653q17 0 26 -8.5t9 -28.5v-100q0 -11 -8.5 -20t-24.5 -9h-839q-30 0 -33 27l-14 108q-1 5 -1.5 9t-0.5 6q0 13 4 20l659 1200h-612q-14 0 -24.5 8.5t-10.5 22.5v102q0 10 7.5 19.5t23.5 9.5h837q26 0 29 -25l9 -66q0 -17 -7 -30z" />
    <glyph glyph-name="bracketleft" unicode="[" horiz-adv-x="717" 
d="M379 -291q0 -16 16 -16h158q15 0 25 -8t10 -25v-55q0 -17 -10 -26t-25 -9h-305q-17 0 -27 12.5t-10 32.5v2054q0 14 10 25.5t27 11.5h305q15 0 25 -9t10 -26v-55q0 -17 -10 -25t-25 -8h-156q-18 0 -18 -18v-1856z" />
    <glyph glyph-name="backslash" unicode="\" horiz-adv-x="1024" 
d="M1016 -154q3 -6 3 -15q0 -11 -5.5 -21t-18.5 -15l-80 -33q-7 -4 -21 -4q-24 0 -34 21l-872 1900q-3 7 -3 17q0 11 5.5 21.5t17.5 15.5l78 30q7 2 13.5 4t12.5 2q22 0 31 -20z" />
    <glyph glyph-name="bracketright" unicode="]" horiz-adv-x="717" 
d="M338 1567q0 16 -16 16h-158q-16 0 -25.5 8t-9.5 25v55q0 17 9.5 26t25.5 9h305q17 0 27 -12.5t10 -32.5v-2054q0 -14 -10 -25.5t-27 -11.5h-305q-16 0 -25.5 9t-9.5 26v55q0 17 9.5 25t25.5 8h155q19 0 19 18v1856z" />
    <glyph glyph-name="asciicircum" unicode="^" 
d="M1053 815q4 -8 4 -15q0 -19 -19 -28l-73 -37q-7 -4 -18 -4q-21 0 -34 21l-327 622l-330 -622q-10 -19 -33 -19q-10 0 -18 4l-64 35q-16 10 -16 27q0 9 4 16l375 707q13 22 37 22h102q24 0 37 -22z" />
    <glyph glyph-name="underscore" unicode="_" 
d="M27 -430q-27 0 -27 24v91q0 28 27 28h1132q29 0 29 -28v-88q0 -27 -29 -27h-1132z" />
    <glyph glyph-name="grave" unicode="`" horiz-adv-x="600" 
d="M125 1391q-47 30 -47 64q0 30 35 65l8 8q39 39 72 39q17 0 31.5 -9t29.5 -26l195 -221q11 -11 11 -26q0 -12 -9 -21l-29 -29q-6 -6 -12 -10t-14 -4q-10 0 -17 6z" />
    <glyph glyph-name="a" unicode="a" horiz-adv-x="1122" 
d="M770 549q-12 -8 -33 -14t-43 -9l-88 -12q-96 -13 -155.5 -34t-92 -48t-44 -58t-11.5 -65q0 -81 45.5 -125.5t130.5 -44.5q73 0 127.5 26t91 65.5t54.5 85.5t18 87v146zM774 139q-21 -32 -54.5 -61t-76 -51t-93 -34.5t-104.5 -12.5q-79 0 -144.5 20t-112.5 60t-73 99.5
t-26 137.5q0 67 24.5 123.5t79 101t140.5 76.5t209 51l129 21q55 9 76.5 31.5t21.5 56.5v8q0 104 -50 162.5t-161 58.5q-95 0 -147.5 -44t-75.5 -118q-9 -30 -32 -30q-2 0 -6 0.5t-9 1.5l-119 30q-20 6 -20 28q0 10 8 34q97 252 407 252q96 0 176.5 -28.5t128.5 -76.5
q47 -48 67.5 -108t20.5 -144v-757q0 -14 -5.5 -20.5t-20.5 -6.5h-121q-22 0 -29.5 8t-7.5 25v106z" />
    <glyph glyph-name="b" unicode="b" horiz-adv-x="1210" 
d="M643 981q-62 0 -115.5 -25.5t-93 -77.5t-62 -131t-22.5 -186q0 -108 22.5 -187.5t61.5 -132t91.5 -78.5t113.5 -26q148 0 217.5 108.5t69.5 309.5q0 209 -69 317.5t-214 108.5zM657 -20q-50 0 -96.5 11t-86.5 30.5t-71 46.5t-51 59v-92q0 -16 -9.5 -25.5t-25.5 -9.5h-120
q-14 0 -23.5 9.5t-9.5 25.5v1554q0 25 26 25h136q14 0 20 -5.5t6 -19.5v-612q22 34 54.5 63.5t73.5 52t89.5 35.5t102.5 13q106 0 182 -34t133 -91q66 -66 103.5 -181.5t37.5 -275.5q0 -148 -36.5 -262t-114.5 -193q-60 -59 -137.5 -91.5t-182.5 -32.5z" />
    <glyph glyph-name="c" unicode="c" horiz-adv-x="1077" 
d="M995 238q-30 -65 -74.5 -113t-100 -80.5t-119 -48.5t-132.5 -16q-145 0 -249 61.5t-164 173.5q-39 72 -56.5 159t-17.5 181q0 97 16 180t52 152q66 123 171.5 188.5t258.5 65.5q156 0 259.5 -71.5t139.5 -213.5q2 -8 2 -10v-9q0 -12 -5 -20.5t-18 -11.5l-104 -27
q-11 -3 -21 -3q-11 0 -20 5t-12 17q-26 99 -84.5 143.5t-143.5 44.5q-60 0 -112.5 -25.5t-91 -78t-60.5 -131.5t-22 -187q0 -115 23.5 -195.5t64 -131.5t95.5 -74t118 -23q91 0 161.5 42.5t110.5 123.5q12 26 32 26q10 0 23 -7l58 -29q11 -5 19 -15t8 -23q0 -4 -5 -19z" />
    <glyph glyph-name="d" unicode="d" horiz-adv-x="1210" 
d="M571 983q-147 0 -216.5 -108t-69.5 -310q0 -209 69 -317.5t213 -108.5q62 0 115.5 25.5t93 77.5t62 131t22.5 186q0 108 -22.5 187.5t-61.5 132t-91.5 78.5t-113.5 26zM858 1579q0 15 10 25t27 10h115q17 0 27 -10t10 -25v-1544q0 -16 -10 -25.5t-25 -9.5h-119
q-16 0 -25.5 9.5t-9.5 25.5v104q-15 -29 -47 -57.5t-74.5 -51t-93.5 -36.5t-104 -14q-107 0 -183.5 34.5t-132.5 89.5q-66 67 -103.5 182t-37.5 275q0 298 145 449q58 60 136 95.5t190 35.5q51 0 97.5 -11.5t86 -31t70.5 -47t51 -58.5v586z" />
    <glyph glyph-name="e" unicode="e" horiz-adv-x="1151" 
d="M594 991q-70 0 -126 -27.5t-95.5 -79t-60.5 -127t-21 -171.5q0 -18 4.5 -27t20.5 -9q7 0 16.5 2t23.5 5q49 13 104.5 29.5t111 35t107.5 38t93 38.5q32 16 42.5 31t10.5 35q0 35 -14.5 75t-43.5 73.5t-72 56t-101 22.5zM1073 211q-169 -229 -467 -229q-150 0 -265.5 66
t-184.5 190q-38 66 -56 147.5t-18 175.5q0 85 17 160.5t48 138.5q66 136 182.5 207.5t274.5 71.5q73 0 134.5 -18t111.5 -48t88.5 -69.5t64.5 -82t39 -85.5t13 -80q0 -23 -5.5 -41t-18 -33t-32 -28.5t-47.5 -28.5q-44 -24 -112.5 -53.5t-148.5 -59t-166 -57.5t-165 -49
q-31 -10 -31 -36q0 -8 1 -10q12 -46 40.5 -86t69.5 -70t92 -47.5t107 -17.5q57 0 102 10.5t84 31t74.5 50.5t73.5 70q14 14 30 14q14 0 23 -10l47 -49q8 -11 8 -21q0 -7 -2.5 -13t-5.5 -11z" />
    <glyph glyph-name="f" unicode="f" horiz-adv-x="692" 
d="M719 1413q-14 -9 -22 -9q-14 0 -27 19q-17 23 -47 39.5t-70 16.5q-78 0 -115 -54t-37 -151v-129q0 -25 27 -25h178q16 0 25.5 -9.5t9.5 -25.5v-77q0 -16 -9 -25.5t-26 -9.5h-180q-12 0 -18.5 -5.5t-6.5 -19.5v-913q0 -16 -9.5 -25.5t-24.5 -9.5h-119q-16 0 -25.5 9.5
t-9.5 25.5v907q0 14 -5.5 22.5t-19.5 8.5h-108q-16 0 -25.5 9.5t-9.5 25.5v77q0 16 9.5 25.5t25.5 9.5h108q16 0 20.5 6t4.5 19v119q0 88 24.5 156.5t70 115t109.5 70.5t142 24q79 0 142.5 -28t97.5 -76q13 -16 13 -32q0 -14 -15 -26z" />
    <glyph glyph-name="g" unicode="g" horiz-adv-x="1190" 
d="M557 188q62 0 114 24t89.5 72.5t58.5 123t21 176.5t-21 177t-58 124.5t-88 73.5t-112 24q-71 0 -123 -27.5t-86 -79t-50.5 -125t-16.5 -165.5q0 -201 65.5 -299.5t206.5 -98.5zM1026 -12q0 -110 -33.5 -192t-94.5 -137t-145 -82.5t-186 -27.5t-184 27.5t-139 74.5
t-88 109t-31 131q0 16 9.5 25.5t25.5 9.5h119q17 0 23 -6.5t9 -23.5q8 -44 26.5 -80.5t50.5 -63t77.5 -41t107.5 -14.5q130 0 197.5 71.5t67.5 204.5v205q-16 -31 -46.5 -58t-71 -47.5t-89.5 -32t-103 -11.5q-51 0 -94 8.5t-79 23.5t-66.5 36t-57.5 46q-71 68 -110 174
t-39 265q0 139 39 251.5t115 184.5q63 60 135.5 91.5t171.5 31.5q50 0 96.5 -11t85.5 -30.5t68 -45.5t45 -57v90q0 14 9.5 23.5t24.5 9.5h121q14 0 23.5 -9.5t9.5 -23.5v-1099z" />
    <glyph glyph-name="h" unicode="h" horiz-adv-x="1174" 
d="M856 0q-15 0 -25 9.5t-10 25.5v725q0 51 -8.5 92t-28.5 70t-53.5 45t-83.5 16q-58 0 -111.5 -24t-94 -64t-65 -92t-24.5 -107v-661q0 -16 -9.5 -25.5t-25.5 -9.5h-118q-16 0 -25.5 9.5t-9.5 25.5v1554q0 13 4.5 19t19.5 6h140q11 0 17.5 -5.5t6.5 -19.5v-608
q28 35 64.5 64.5t80 50.5t93 33t102.5 12q59 0 106.5 -14t84 -38t62 -56.5t40.5 -69.5q25 -65 25 -189v-739q0 -16 -10 -25.5t-25 -9.5h-119z" />
    <glyph glyph-name="i" unicode="i" horiz-adv-x="516" 
d="M258 1274q-29 0 -53.5 10.5t-42.5 29.5t-28.5 43.5t-10.5 53.5q0 28 10.5 53t28.5 43t42.5 28.5t53.5 10.5q28 0 52.5 -10.5t43 -28.5t29 -43t10.5 -53q0 -29 -10.5 -53.5t-29 -43.5t-43 -29.5t-52.5 -10.5zM184 0q-20 0 -20 25v1071q0 12 5.5 18t20.5 6h136
q15 0 20.5 -5t5.5 -19v-1071q0 -13 -5 -19t-19 -6h-144z" />
    <glyph glyph-name="j" unicode="j" horiz-adv-x="526" 
d="M268 1274q-28 0 -52.5 10.5t-43 29.5t-29 43.5t-10.5 53.5q0 28 10.5 53t29 43t43 28.5t52.5 10.5t52.5 -10.5t43 -28.5t29 -43t10.5 -53q0 -29 -10.5 -53.5t-29 -43.5t-43 -29.5t-52.5 -10.5zM84 -449q-72 0 -126 23t-97 68q-13 10 -13 23t13 26l51 55q6 6 12 10.5
t13 4.5q9 0 20 -11q22 -20 49 -32.5t57 -12.5q60 0 85.5 43.5t25.5 124.5v1223q0 24 21 24h147q14 0 17 -6t3 -18v-1186q0 -37 -3 -76t-11 -74q-12 -56 -38.5 -95.5t-62 -65t-78 -37t-85.5 -11.5z" />
    <glyph glyph-name="k" unicode="k" horiz-adv-x="1012" 
d="M315 1614q17 0 27 -10t10 -25v-854l10 12l359 371q6 6 12.5 9t20.5 3h147q15 0 22 -7t7 -17q0 -15 -12 -27l-324 -311q-7 -7 -7 -19q0 -10 5 -18l407 -678q4 -4 4 -16q0 -10 -5.5 -18.5t-18.5 -8.5h-145q-22 0 -31 8t-19 25l-327 557q-9 13 -22 13q-12 0 -21 -9l-52 -49
q-10 -10 -10 -27v-483q0 -16 -9.5 -25.5t-25.5 -9.5h-118q-16 0 -25.5 9.5t-9.5 25.5v1544q0 15 10 25t27 10h114z" />
    <glyph glyph-name="l" unicode="l" horiz-adv-x="516" 
d="M186 0q-22 0 -22 25v1564q0 14 6 19.5t18 5.5h142q9 0 15.5 -7t6.5 -18v-1564q0 -13 -6.5 -19t-15.5 -6h-144z" />
    <glyph glyph-name="m" unicode="m" horiz-adv-x="1802" 
d="M313 1120q17 0 27 -9.5t10 -25.5v-106q57 72 143.5 117t192.5 45q108 0 176 -44.5t105 -121.5q29 34 68 64t85.5 52.5t99 36t109.5 13.5q58 0 104.5 -14t81.5 -38t59.5 -56.5t39.5 -69.5q24 -65 24 -187v-741q0 -16 -9.5 -25.5t-24.5 -9.5h-119q-16 0 -25.5 9.5
t-9.5 25.5v725q0 51 -7 92t-26 70t-51 45t-82 16q-59 0 -111 -24t-92 -64t-63 -92.5t-23 -108.5v-659q0 -16 -9.5 -25.5t-24.5 -9.5h-119q-16 0 -25.5 9.5t-9.5 25.5v725q0 51 -7 92t-26 70t-51 45t-82 16q-59 0 -111 -24t-92 -64t-63 -92.5t-23 -108.5v-659
q0 -16 -9.5 -25.5t-25.5 -9.5h-118q-16 0 -25.5 9.5t-9.5 25.5v1050q0 16 9.5 25.5t25.5 9.5h114z" />
    <glyph glyph-name="n" unicode="n" horiz-adv-x="1174" 
d="M1010 35q0 -16 -10 -25.5t-25 -9.5h-119q-15 0 -25 9.5t-10 25.5v725q0 51 -8.5 92t-28.5 70t-53.5 45t-83.5 16q-58 0 -111.5 -24t-94 -64t-65 -92.5t-24.5 -108.5v-659q0 -16 -9.5 -25.5t-25.5 -9.5h-118q-16 0 -25.5 9.5t-9.5 25.5v1050q0 16 9.5 25.5t25.5 9.5h114
q17 0 27 -9.5t10 -25.5v-106q28 36 65 66t81 51t93.5 33t102.5 12q59 0 106.5 -14t84 -38t62 -56.5t40.5 -69.5q25 -65 25 -189v-739z" />
    <glyph glyph-name="o" unicode="o" horiz-adv-x="1192" 
d="M594 987q-60 0 -108 -18.5t-87 -57.5q-51 -51 -78.5 -140.5t-27.5 -207.5q0 -124 26.5 -210.5t77.5 -137.5q42 -40 88 -60t115 -20q57 0 106 19.5t87 56.5q51 51 78.5 139t27.5 209q0 244 -104 348q-80 80 -201 80zM592 -20q-118 0 -208.5 36.5t-156.5 102.5
q-32 32 -59 72.5t-46 93.5t-29.5 120t-10.5 152q0 153 38 259t109 177q75 75 164.5 111.5t206.5 36.5q120 0 208 -36.5t155 -103.5q39 -39 67 -84t45.5 -98.5t26 -117t8.5 -138.5q0 -291 -145 -436q-76 -75 -167 -111t-206 -36z" />
    <glyph glyph-name="p" unicode="p" horiz-adv-x="1210" 
d="M643 981q-62 0 -115.5 -25.5t-93 -77.5t-62 -131t-22.5 -186q0 -108 22.5 -187.5t61.5 -132t91.5 -78.5t113.5 -26q148 0 217.5 108.5t69.5 309.5q0 209 -69 317.5t-214 108.5zM352 -395q0 -16 -9.5 -25.5t-25.5 -9.5h-118q-16 0 -25.5 9.5t-9.5 25.5v1480q0 16 9.5 25.5
t25.5 9.5h116q16 0 25.5 -9.5t9.5 -25.5v-104q54 72 133.5 116t188.5 44q106 0 182 -34t133 -91q66 -66 103.5 -181.5t37.5 -275.5q0 -148 -36.5 -262t-114.5 -193q-60 -59 -137.5 -91.5t-182.5 -32.5q-50 0 -96.5 11t-86.5 30.5t-71 46.5t-51 59v-522z" />
    <glyph glyph-name="q" unicode="q" horiz-adv-x="1210" 
d="M567 139q62 0 115.5 25.5t93 77.5t62 131t22.5 186q0 108 -22.5 187.5t-61.5 132t-91.5 78.5t-113.5 26q-147 0 -216.5 -108t-69.5 -310q0 -209 69 -317.5t213 -108.5zM553 1141q51 0 97.5 -11.5t86 -31t70.5 -47t51 -58.5v92q0 16 9.5 25.5t25.5 9.5h121q14 0 23.5 -9.5
t9.5 -25.5v-1491q0 -24 -27 -24h-135q-14 0 -20.5 5t-6.5 19v545q-15 -29 -47 -57.5t-74.5 -51t-93.5 -36.5t-104 -14q-107 0 -183.5 34.5t-132.5 89.5q-66 67 -103.5 182t-37.5 275q0 149 36.5 262.5t114.5 192.5q60 60 137 92.5t183 32.5z" />
    <glyph glyph-name="r" unicode="r" horiz-adv-x="836" 
d="M350 969q60 81 123 125.5t141 44.5q90 0 136.5 -51t66.5 -154q1 -2 1 -13q0 -12 -4.5 -18t-14.5 -10l-123 -41q-11 -3 -17 -3q-18 0 -20 17q-18 97 -80 97q-32 0 -68 -24t-67 -62.5t-51.5 -86.5t-20.5 -96v-659q0 -16 -9.5 -25.5t-25.5 -9.5h-118q-16 0 -25.5 9.5
t-9.5 25.5v1050q0 16 9.5 25.5t25.5 9.5h116q16 0 25.5 -9.5t9.5 -25.5v-116z" />
    <glyph glyph-name="s" unicode="s" horiz-adv-x="911" 
d="M838 324q0 -75 -30.5 -137.5t-85.5 -107.5t-131 -70t-167 -25q-69 0 -130 13.5t-110.5 39t-85 61t-53.5 80.5q-5 17 -5 22q0 18 23 29l99 39q15 5 18 5q18 0 31 -25q63 -113 221 -113q45 0 82.5 13t64.5 35t41.5 51t14.5 61t-10.5 59t-34.5 50.5t-64 45.5t-98 44l-104 38
q-56 21 -99 48t-72.5 62.5t-45 81.5t-15.5 105q0 66 25 123t71.5 99t112.5 66t148 24q65 0 119 -15.5t95 -42.5t68 -64t39 -79l2 -10q0 -7 -4.5 -13.5t-15.5 -11.5l-101 -39q-9 -3 -15 -3q-21 0 -28 24q-20 51 -59 77.5t-105 26.5q-40 0 -70 -11t-50.5 -30.5t-30.5 -46
t-10 -57.5q0 -25 7 -46.5t24 -40.5t45.5 -36t72.5 -33l105 -39q153 -55 227 -135t74 -192z" />
    <glyph glyph-name="t" unicode="t" horiz-adv-x="741" 
d="M213 944q0 16 -5.5 22.5t-21.5 6.5h-106q-16 0 -25.5 9.5t-9.5 25.5v77q0 16 9.5 25.5t25.5 9.5h110q23 0 23 25v282q0 16 3.5 24.5t25.5 8.5h127q21 0 26.5 -7.5t5.5 -29.5v-274q0 -17 5 -23t22 -6h178q16 0 25.5 -9.5t9.5 -25.5v-77q0 -16 -9 -25.5t-26 -9.5h-182
q-23 0 -23 -27v-690q0 -60 25.5 -90.5t67.5 -30.5q27 0 50 12t52 41q14 14 25 14q7 0 12.5 -4t11.5 -10l45 -43q6 -6 6 -19q0 -10 -4 -17q-45 -63 -105 -94t-126 -31q-51 0 -96.5 14t-79 45.5t-53 81t-19.5 121.5v698z" />
    <glyph glyph-name="u" unicode="u" horiz-adv-x="1174" 
d="M164 1085q0 16 9.5 25.5t25.5 9.5h118q16 0 25.5 -9.5t9.5 -25.5v-725q0 -51 8.5 -92t28.5 -70t53.5 -45t83.5 -16q58 0 111.5 24t94.5 64t65 92.5t24 108.5v659q0 16 10 25.5t25 9.5h119q15 0 25 -9.5t10 -25.5v-1050q0 -16 -10 -25.5t-25 -9.5h-115q-17 0 -27 9.5
t-10 25.5v106q-27 -36 -64 -65.5t-81 -51t-94 -33t-103 -11.5q-58 0 -105.5 13.5t-84 37.5t-62.5 56.5t-41 70.5q-12 32 -18 80t-6 108v739z" />
    <glyph glyph-name="v" unicode="v" horiz-adv-x="1038" 
d="M625 25q-3 -10 -11.5 -17.5t-23.5 -7.5h-113q-23 0 -33 25l-415 1050q-5 15 -5 20q0 25 31 25h146q23 0 32 -22l306 -822l6 -14l4 14l264 818q5 14 13 20t24 6h129q17 0 24.5 -8t7.5 -20q0 -8 -3 -17z" />
    <glyph glyph-name="w" unicode="w" horiz-adv-x="1536" 
d="M1221 29q-3 -16 -12.5 -22.5t-20.5 -6.5h-125q-12 0 -21 6t-12 17l-254 819l-223 -822q-8 -20 -31 -20h-131q-23 0 -31 20l-305 1057q-2 8 -2 9v8q0 26 33 26h123q14 0 23 -6.5t14 -23.5l229 -822l213 822q5 17 12.5 23.5t26.5 6.5h115q17 0 25 -5t12 -17l247 -813
l172 807q7 28 37 28h115q12 0 19.5 -7.5t7.5 -19.5q0 -1 -0.5 -4t-1.5 -8z" />
    <glyph glyph-name="x" unicode="x" horiz-adv-x="1085" 
d="M864 0q-23 0 -34 7t-23 26l-277 418l-270 -422q-11 -17 -20 -23t-29 -6h-143q-30 0 -30 22q0 11 9 23l379 537l-334 495q-7 10 -7 20t7.5 16.5t22.5 6.5h147q19 0 29 -5t22 -23l232 -367l223 360q15 23 25.5 29t31.5 6h140q12 0 18.5 -7.5t6.5 -17.5q0 -8 -5 -16
l-342 -485l387 -543q10 -13 10 -26q0 -12 -9 -18.5t-21 -6.5h-146z" />
    <glyph glyph-name="y" unicode="y" horiz-adv-x="1057" 
d="M33 1077q-3 9 -3 17q0 11 6.5 18.5t20.5 7.5h156q22 0 31 -22l309 -817l6 -15l4 15l262 817q5 14 15 18t22 4h133q11 0 18.5 -7t7.5 -19q0 -8 -3 -15l-453 -1269q-23 -64 -50 -112.5t-60.5 -81t-76.5 -49t-97 -16.5q-63 0 -117.5 23t-89.5 68q-11 14 -11 25q0 13 15 28
l47 51q11 11 25 11q12 0 26 -11q47 -41 103 -41q38 0 63.5 27t48.5 90l72 196z" />
    <glyph glyph-name="z" unicode="z" horiz-adv-x="1008" 
d="M299 150h584q15 0 25 -10t10 -25v-80q0 -16 -10 -25.5t-25 -9.5h-772q-19 0 -26 10t-9 21l-6 53q-1 2 -1 12q0 17 7 27l600 850h-537q-15 0 -25 9.5t-10 25.5v77q0 16 10 25.5t25 9.5h723q16 0 24.5 -8t10.5 -20l8 -56q0 -3 0.5 -5.5t0.5 -4.5q0 -17 -7 -27z" />
    <glyph glyph-name="braceleft" unicode="{" horiz-adv-x="737" 
d="M408 846q0 -72 -35.5 -115t-89.5 -61l-13 -4l15 -4q25 -9 47.5 -21.5t39 -31.5t26.5 -44.5t10 -60.5v-649q0 -47 4 -78t16 -50t35.5 -26.5t62.5 -7.5h56q22 0 22 -25v-84q0 -8 -6.5 -11t-15.5 -3h-64q-74 0 -126.5 14t-86 47.5t-49.5 89t-16 138.5v635q0 52 -19.5 78
t-70.5 26h-37q-11 0 -18 8t-7 21v78q0 26 23 26h36q48 0 70.5 24.5t22.5 86.5v575q0 83 16 138.5t49.5 89t86 47.5t126.5 14h64q9 0 15.5 -3t6.5 -11v-84q0 -25 -22 -25h-56q-39 0 -62.5 -7.5t-35.5 -26.5t-16 -50t-4 -78v-575z" />
    <glyph glyph-name="bar" unicode="|" horiz-adv-x="881" 
d="M518 -385q0 -23 -11 -34t-30 -11h-80q-17 0 -27 12.5t-10 32.5v2128q0 14 10 25.5t27 11.5h80q19 0 30 -10.5t11 -28.5v-2126z" />
    <glyph glyph-name="braceright" unicode="}" horiz-adv-x="737" 
d="M330 483q0 72 35.5 115t89.5 61l12 5l-14 4q-26 8 -48 20.5t-39 31.5t-26.5 44.5t-9.5 60.5v596q0 47 -4 78t-16.5 50t-36 26.5t-62.5 7.5h-55q-23 0 -23 25v84q0 8 6.5 11t16.5 3h63q74 0 127 -14t86.5 -47.5t49.5 -89t16 -138.5v-581q0 -54 19.5 -79.5t70.5 -25.5h37
q11 0 17.5 -8t6.5 -21v-77q0 -27 -22 -27h-37q-48 0 -70 -24.5t-22 -86.5v-628q0 -83 -16 -138.5t-49.5 -89t-86.5 -47.5t-127 -14h-63q-10 0 -16.5 3t-6.5 11v84q0 25 23 25h55q39 0 62.5 7.5t36 26.5t16.5 50t4 78v628z" />
    <glyph glyph-name="asciitilde" unicode="~" 
d="M530 1149q-28 54 -51 89.5t-44 56t-43 28.5t-48 8q-41 0 -68 -16t-43 -44.5t-23 -68.5t-7 -88q0 -25 -11.5 -35t-35.5 -10l-66 2q-22 0 -33.5 12.5t-11.5 32.5q0 70 16.5 135.5t52.5 115.5t93.5 80t138.5 30q45 0 86 -12.5t79.5 -40.5t74.5 -72t71 -107q28 -50 50.5 -85
t43.5 -57t43 -32t48 -10q45 0 72.5 16.5t43.5 46t21.5 69.5t5.5 87t39 47h74q21 0 33 -14t12 -33q0 -75 -20.5 -141t-58.5 -115t-94 -77.5t-126 -28.5q-48 0 -89.5 11.5t-79.5 38.5t-73.5 71.5t-71.5 109.5z" />
    <glyph glyph-name="nonbreakingspace" unicode="&#xa0;" horiz-adv-x="532" 
 />
    <glyph glyph-name="exclamdown" unicode="&#xa1;" horiz-adv-x="600" 
d="M279 1022q-29 0 -54 10.5t-43.5 29.5t-29.5 43.5t-11 53.5q0 28 11 53t29.5 44t43.5 29.5t54 10.5q28 0 53 -10.5t43.5 -29.5t29.5 -44t11 -53q0 -29 -11 -53.5t-29.5 -43.5t-43.5 -29.5t-53 -10.5zM395 -204q0 -21 -15 -35.5t-36 -14.5h-123q-20 0 -36.5 14.5
t-16.5 35.5v3l39 1055q0 9 6.5 14.5t15.5 5.5h101q9 0 15.5 -5.5t6.5 -14.5l43 -1055v-3z" />
    <glyph glyph-name="cent" unicode="&#xa2;" 
d="M694 1290q129 -15 212 -82t114 -194q2 -8 2 -10v-9q0 -12 -5 -20.5t-18 -11.5l-104 -27q-11 -3 -21 -3q-11 0 -20 5t-12 16q-26 99 -84.5 144t-143.5 45q-60 0 -112.5 -23t-91 -72.5t-60.5 -126t-22 -184.5q0 -115 23.5 -193t64 -125.5t95.5 -68t118 -20.5
q91 0 161.5 42.5t110.5 123.5q12 25 32 25q10 0 23 -7l58 -29q11 -5 19 -14.5t8 -22.5q0 -5 -5 -20q-51 -109 -140.5 -170t-201.5 -78v-248q0 -12 -8 -20t-20 -8h-95q-12 0 -20 8t-8 20v246q-121 11 -207.5 63t-138.5 152q-39 72 -56.5 157t-17.5 179q0 97 16 178t51 150
q57 106 144.5 162.5t208.5 70.5v252q0 13 8 21t20 8h95q12 0 20 -8t8 -21v-252z" />
    <glyph glyph-name="sterling" unicode="&#xa3;" 
d="M135 0q-20 0 -20 18v107q0 11 4 19.5t16 13.5q57 23 103 59t78.5 81t50.5 96t18 104q0 63 -27 125h-219q-15 0 -18.5 7.5t-3.5 18.5v96q0 8 6.5 14.5t15.5 6.5h160q-59 98 -84 179.5t-25 158.5q0 82 29 153.5t83.5 124t133 83t176.5 30.5q83 0 146 -19t110 -52t80.5 -79
t57.5 -100q4 -9 4 -23q0 -18 -17 -26l-92 -39q-12 -6 -28 -6q-9 0 -17 3t-10 11q-32 88 -86 132t-146 44q-57 0 -100 -18t-71 -49.5t-42 -73t-14 -88.5q0 -81 29 -166.5t86 -179.5h286q10 0 16.5 -6.5t6.5 -14.5v-100q0 -11 -3.5 -16.5t-19.5 -5.5h-233q19 -63 19 -129
q0 -100 -46 -182t-137 -142h649q25 0 25 -20v-127q0 -10 -6 -16.5t-17 -6.5h-907z" />
    <glyph glyph-name="currency" unicode="&#xa4;" 
d="M575 942q-53 0 -97.5 -19t-77.5 -56t-51.5 -91t-18.5 -123q0 -82 19 -147t53 -110t80.5 -69t101.5 -24q51 0 96 18.5t78 56t52 93.5t19 131t-19 137.5t-52.5 107.5t-80.5 70t-102 25zM168 137q-12 -12 -25 -12q-12 0 -24 12l-53 53q-12 12 -12 24t12 24l159 147
q-53 98 -53 231q0 70 13 132t42 114l-166 152q-11 11 -11 25q0 15 11 26l58 55q12 13 27 13q13 0 24 -11l156 -145q52 38 115.5 60t142.5 22q75 0 141.5 -24t120.5 -72l166 157q12 12 23 12q12 0 26 -12l55 -47q12 -11 12 -22q0 -13 -12 -25l-184 -170q29 -48 42 -105.5
t13 -123.5t-10 -122t-33 -104l170 -161q10 -10 10 -24t-14 -28l-57 -53q-14 -11 -26 -11q-14 0 -23 11l-154 144q-54 -45 -121 -69t-145 -24q-79 0 -147 23.5t-122 66.5z" />
    <glyph glyph-name="yen" unicode="&#xa5;" 
d="M453 344q14 0 19 5.5t5 21.5v100q0 14 -5.5 19.5t-20.5 5.5h-220q-15 0 -18.5 6t-3.5 18v96q0 10 6.5 16.5t15.5 6.5h226q13 0 13 9q0 4 -3 9l-401 762q-5 8 -6.5 15t-1.5 13q0 14 9.5 21t24.5 7h168q12 0 20.5 -7.5t14.5 -19.5l309 -627l299 623q6 14 15 22.5t26 8.5
h135q29 0 29 -26q0 -10 -6 -22l-402 -765q-5 -8 -5 -14q0 -9 16 -9h223q9 0 15.5 -6.5t6.5 -16.5v-96q0 -12 -3.5 -18t-18.5 -6h-221q-14 0 -19.5 -4.5t-5.5 -20.5v-102q0 -14 4.5 -19.5t20.5 -5.5h221q9 0 15.5 -6.5t6.5 -15.5v-97q0 -12 -3.5 -18t-18.5 -6h-221
q-14 0 -19.5 -4.5t-5.5 -20.5v-143q0 -14 -9.5 -23.5t-23.5 -9.5h-145q-14 0 -23.5 9.5t-9.5 23.5v143q0 14 -5.5 19.5t-20.5 5.5h-220q-15 0 -18.5 6t-3.5 18v97q0 9 6.5 15.5t15.5 6.5h222z" />
    <glyph glyph-name="brokenbar" unicode="&#xa6;" 
d="M668 -385q0 -23 -11.5 -34t-29.5 -11h-80q-17 0 -27 12.5t-10 32.5v815q0 14 10 25.5t27 11.5h80q18 0 29.5 -10t11.5 -29v-813zM668 948q0 -23 -11.5 -34t-29.5 -11h-80q-17 0 -27 12.5t-10 32.5v795q0 14 10 25.5t27 11.5h80q18 0 29.5 -10.5t11.5 -28.5v-793z" />
    <glyph glyph-name="section" unicode="&#xa7;" 
d="M813 500q0 34 -9 67.5t-30 63.5t-55.5 56.5t-85.5 47.5l-174 74q-35 -28 -56.5 -65.5t-21.5 -77.5q0 -39 12 -68.5t37 -54.5t64 -47.5t94 -46.5l186 -84q39 55 39 135zM1014 512q0 -72 -23 -134.5t-71 -119.5q51 -48 76.5 -112t25.5 -158q0 -72 -30.5 -138t-89 -117
t-142.5 -81.5t-191 -30.5q-146 0 -257 58t-173 184q-7 13 -7 23q0 16 24 28l114 51q7 3 15 3q20 0 26 -21q32 -80 98.5 -125t174.5 -45q56 0 99 16t72.5 44t44.5 65.5t15 79.5q0 57 -19.5 97t-53 70t-77.5 52.5t-92 44.5l-133 59q-51 23 -97.5 53t-82 69.5t-56 91
t-20.5 118.5q0 78 34 148.5t91 119.5q-60 69 -89.5 137t-29.5 154q0 80 30.5 145t85 111t129 71t163.5 25q138 0 232 -46t145 -122q13 -19 13 -32q0 -10 -5.5 -15.5t-13.5 -9.5l-95 -59q-4 -2 -7 -4t-7 -2q-10 0 -24 20q-19 24 -42 46t-51.5 38.5t-64 26.5t-80.5 10
q-53 0 -92.5 -17.5t-66 -45t-39.5 -62.5t-13 -70q0 -53 17 -92.5t46.5 -70t69 -53.5t84.5 -42l137 -59q137 -58 205 -147t68 -228z" />
    <glyph glyph-name="dieresis" unicode="&#xa8;" horiz-adv-x="1057" 
d="M754 1526q26 0 49 -10t40.5 -27.5t27.5 -40.5t10 -49t-10 -49.5t-27.5 -40.5t-40.5 -27t-49 -10t-49.5 10t-40.5 27t-27 40.5t-10 49.5t10 49t27 40.5t40.5 27.5t49.5 10zM303 1526q26 0 49 -10t40.5 -27.5t27.5 -40.5t10 -49t-10 -49.5t-27.5 -40.5t-40.5 -27t-49 -10
t-49.5 10t-40.5 27t-27 40.5t-10 49.5t10 49t27 40.5t40.5 27.5t49.5 10z" />
    <glyph glyph-name="copyright" unicode="&#xa9;" horiz-adv-x="1876" 
d="M719 778q0 -86 17 -145.5t46.5 -97t70 -54t87.5 -16.5q66 0 119 31.5t82 91.5q8 17 22 17q4 0 17 -5l59 -31q8 -5 14 -12.5t6 -17.5q0 -8 -4 -15q-23 -50 -57.5 -87.5t-77 -62.5t-92 -37.5t-102.5 -12.5q-112 0 -193 48t-129 136q-29 54 -43 123t-14 141q0 75 12.5 138.5
t40.5 117.5q51 97 133.5 147t200.5 50q121 0 201 -55t108 -164q1 -5 1.5 -8.5t0.5 -7.5q0 -19 -18 -25l-90 -29q-5 -1 -9 -1.5t-6 -0.5q-9 0 -16 3.5t-10 12.5q-20 73 -62.5 106.5t-105.5 33.5q-44 0 -82 -19t-66.5 -58t-44.5 -97.5t-16 -137.5zM1602 772q0 100 -23.5 189.5
t-67 165.5t-104 137.5t-134.5 104.5t-158.5 66t-176.5 23q-137 0 -257.5 -51t-210.5 -142.5t-142 -217t-52 -275.5t52 -276.5t142 -218t210.5 -142.5t257.5 -51q92 0 176.5 23t158.5 66t134.5 104.5t104 138t67 166.5t23.5 190zM1749 772q0 -118 -29 -224t-81.5 -196.5
t-127 -163.5t-164.5 -124.5t-193.5 -79t-215.5 -27.5t-215.5 27.5t-193.5 79t-164 124.5t-126.5 163.5t-81 196.5t-28.5 224q0 117 28.5 223t81 196.5t126.5 163t164 124t193.5 79t215.5 27.5t215.5 -27.5t193.5 -79t164.5 -124t127 -163t81.5 -196.5t29 -223z" />
    <glyph glyph-name="ordfeminine" unicode="&#xaa;" horiz-adv-x="819" 
d="M504 1260q-6 -5 -17 -8t-22 -5l-49 -6q-51 -8 -83 -19t-49.5 -25t-23.5 -30t-6 -34q0 -42 24.5 -66.5t69.5 -24.5q39 0 68.5 13.5t49 34.5t29 45.5t9.5 46.5v78zM510 1020q-28 -40 -79 -66t-114 -26q-49 0 -89.5 12.5t-69 36.5t-44.5 60t-16 83q0 42 14.5 77.5t48 63.5
t88 48t134.5 32l70 9q29 5 40 17.5t11 29.5v4q0 57 -26.5 87t-86.5 30q-51 0 -77.5 -23t-39.5 -61q-8 -18 -20 -18q-8 0 -10 1l-92 25q-13 3 -13 19q0 12 4 20q29 72 91 110.5t167 38.5q54 0 107 -16t84 -45q29 -29 42 -66.5t13 -91.5v-450q0 -19 -18 -19h-97q-12 0 -17 4
t-5 15v59zM139 651q-11 0 -18.5 7.5t-7.5 19.5v82q0 12 7.5 18t18.5 6h498q12 0 19.5 -6t7.5 -18v-82q0 -12 -7.5 -19.5t-19.5 -7.5h-498z" />
    <glyph glyph-name="guillemotleft" unicode="&#xab;" horiz-adv-x="922" 
d="M432 600q-9 13 -9 28t9 29l203 336q8 14 17 22t22 8q11 0 24 -7l31 -17q16 -7 16 -27q0 -9 -8 -30l-141 -301l149 -301q3 -6 4 -12.5t1 -12.5q0 -12 -4.5 -23t-14.5 -16l-43 -22q-13 -5 -21 -5q-11 0 -18.5 6.5t-15.5 20.5zM100 600q-8 14 -8 29q0 14 8 28l232 390
q7 14 17.5 21t21.5 7t22 -6l35 -14q18 -11 18 -33q0 -6 -1.5 -13t-6.5 -14l-174 -354l178 -354q7 -13 7 -30q0 -25 -19 -34l-41 -22q-14 -8 -22 -8q-11 0 -19 8t-16 22z" />
    <glyph glyph-name="logicalnot" unicode="&#xac;" 
d="M104 553q-15 0 -24.5 9.5t-9.5 25.5v82q0 17 9.5 24.5t24.5 7.5h971q16 0 25.5 -7.5t9.5 -24.5v-416q0 -17 -10.5 -26t-26.5 -9h-90q-15 0 -25 9t-10 26v264q0 16 -9 25.5t-26 9.5h-809z" />
    <glyph glyph-name="sfthyphen" unicode="&#xad;" horiz-adv-x="627" 
d="M119 547q-19 0 -30 10t-11 29v88q0 20 11 28.5t30 8.5h387q18 0 29.5 -8.5t11.5 -28.5v-88q0 -19 -11.5 -29t-29.5 -10h-387z" />
    <glyph glyph-name="registered" unicode="&#xae;" horiz-adv-x="1397" 
d="M817 1208q0 60 -33.5 84.5t-87.5 24.5h-73q-11 0 -16 -6.5t-5 -14.5v-168q0 -9 5 -15.5t16 -6.5h51q75 0 109 23.5t34 78.5zM936 1214q0 -57 -30.5 -99t-96.5 -54q31 -11 50 -25t28.5 -35t12.5 -51.5t3 -75.5q0 -26 6.5 -34.5t16.5 -8.5q6 0 11 2t11 5q8 2 7 2
q11 0 16 -9l22 -38l2 -8q0 -9 -6 -15q-20 -17 -41 -30t-52 -13q-5 0 -10.5 0.5t-11.5 1.5q-45 8 -65.5 41t-20.5 104q0 72 -26.5 102t-89.5 30h-49q-11 0 -16 -6t-5 -15v-219q0 -11 -6 -16t-14 -5h-80q-8 0 -14.5 5t-6.5 16v618q0 31 29 31h190q115 0 175.5 -46.5
t60.5 -154.5zM1137 1063q0 94 -32 177t-90.5 145t-140.5 97.5t-182 35.5t-181.5 -35.5t-139.5 -97.5t-89.5 -145t-31.5 -177q0 -95 31.5 -178t89.5 -144.5t139.5 -97t181.5 -35.5t182 35.5t140.5 97t90.5 144.5t32 178zM1264 1063q0 -117 -42 -221t-118 -181t-181 -122
t-231 -45t-230.5 45t-180 122t-117 181t-41.5 221t41.5 220t117 180t180 122t230.5 45t231 -45t181 -122t118 -180t42 -220z" />
    <glyph glyph-name="macron" unicode="&#xaf;" horiz-adv-x="872" 
d="M141 1309q-30 0 -30 30v84q0 29 30 29h639q31 0 31 -29v-84q0 -30 -31 -30h-639z" />
    <glyph glyph-name="macron" unicode="&#x2c9;" horiz-adv-x="872" 
d="M141 1309q-30 0 -30 30v84q0 29 30 29h639q31 0 31 -29v-84q0 -30 -31 -30h-639z" />
    <glyph glyph-name="degree" unicode="&#xb0;" horiz-adv-x="711" 
d="M479 1376q0 25 -10 47.5t-27 39.5t-40 26.5t-48 9.5t-47.5 -9.5t-40 -25.5t-27.5 -38.5t-10 -47.5t10 -47.5t27.5 -39t40 -26.5t47.5 -10t48 10t40 26.5t27 38.5t10 46zM602 1378q0 -51 -20 -95t-53.5 -76.5t-78.5 -51t-96 -18.5t-96 18.5t-79.5 51t-54.5 76t-20 93.5
q0 49 20 93t54.5 76.5t79.5 51.5t96 19t96 -19t78.5 -51t53.5 -75.5t20 -92.5z" />
    <glyph glyph-name="plusminus" unicode="&#xb1;" 
d="M104 764q-17 0 -25.5 9.5t-8.5 25.5v82q0 32 34 32h371q37 0 37 37v312q0 15 9.5 24.5t25.5 9.5h90q15 0 26 -9.5t11 -24.5v-314q0 -15 9 -25t26 -10h372q16 0 25.5 -8.5t9.5 -23.5v-82q0 -16 -9.5 -25.5t-25.5 -9.5h-372q-16 0 -25.5 -9t-9.5 -26v-317q0 -16 -11 -25.5
t-26 -9.5h-90q-16 0 -25.5 9.5t-9.5 25.5v317q0 16 -10 25.5t-29 9.5h-369zM100 0q-30 0 -30 31v75q0 31 30 31h987q31 0 31 -31v-75q0 -31 -31 -31h-987z" />
    <glyph glyph-name="twosuperior" unicode="&#xb2;" horiz-adv-x="655" 
d="M39 958q53 55 101.5 93.5t90.5 67.5t76.5 51.5t59 45t38 47.5t13.5 60q0 40 -28 65t-73 25q-51 0 -77.5 -30t-40.5 -87q-2 -11 -10 -16t-18 -5q-8 0 -9 1l-103 27q-18 4 -18 22q0 2 0.5 5.5t1.5 8.5q13 45 37 83t58 65t78 42t97 15q60 0 114.5 -17t88.5 -52
q31 -31 50.5 -67t19.5 -93q0 -46 -18.5 -83.5t-48 -68.5t-66.5 -57t-74 -48.5t-70.5 -43t-56.5 -41.5h338q24 0 24 -21v-90q0 -14 -5 -19t-17 -5h-520q-10 0 -15 2.5t-8 13.5l-18 57q-4 7 -4 19q0 14 12 28z" />
    <glyph glyph-name="threesuperior" unicode="&#xb3;" horiz-adv-x="645" 
d="M436 1200q75 -6 114.5 -50.5t39.5 -113.5q0 -44 -19.5 -83.5t-55 -68.5t-84.5 -46t-109 -17q-53 0 -98 15t-80 41t-58.5 61t-34.5 76q-1 5 -1.5 9t-0.5 8q0 19 14 24l84 24q4 1 7 1.5t7 0.5q9 0 16 -3.5t9 -12.5q13 -48 48.5 -82.5t97.5 -34.5q51 0 80.5 27t29.5 67
q0 48 -37.5 70.5t-97.5 22.5h-22q-29 0 -29 26v68q0 24 27 24h22q51 0 83 25t32 70q0 37 -25 56t-65 19q-48 0 -77 -28t-40 -68q-2 -8 -10 -11.5t-17 -3.5q-10 0 -12 1l-86 22q-16 4 -16 22q0 11 4 19q26 81 90.5 125.5t161.5 44.5q51 0 94.5 -12t75.5 -36t50.5 -59
t18.5 -81q0 -57 -32.5 -98t-98.5 -58v-2z" />
    <glyph glyph-name="acute" unicode="&#xb4;" horiz-adv-x="600" 
d="M223 1227q-8 -6 -17 -6q-8 0 -14 4t-12 10l-28 29q-10 9 -10 21q0 14 12 26l194 221q30 35 61 35t72 -39l8 -8q35 -35 35 -65q0 -34 -47 -64z" />
    <glyph glyph-name="mu" unicode="&#xb5;" 
d="M350 -397q0 -14 -10.5 -23.5t-26.5 -9.5h-118q-31 0 -31 43v1474q0 13 8.5 23t24.5 10h118q19 0 28 -9.5t9 -25.5v-731q0 -58 13 -99t37.5 -67.5t59 -38.5t77.5 -12q66 0 118.5 26t88.5 69.5t55.5 100t19.5 116.5v636q0 16 10 25.5t25 9.5h119q15 0 25 -9.5t10 -25.5
v-903q0 -31 9 -42t28 -11q16 0 38 16q10 7 19 7q13 0 24 -15l27 -43q6 -9 6 -20q0 -5 -1.5 -11.5t-6.5 -11.5q-34 -38 -77 -54.5t-91 -16.5q-72 0 -114 36.5t-50 122.5q-51 -72 -121 -115.5t-151 -43.5q-31 0 -62 4t-58.5 14.5t-50 29.5t-36.5 48z" />
    <glyph glyph-name="paragraph" unicode="&#xb6;" horiz-adv-x="1270" 
d="M1085 -322q0 -30 -30 -30h-88q-31 0 -31 30v1704q0 13 -8 20t-21 7h-92q-12 0 -21.5 -7t-9.5 -20v-1704q0 -30 -30 -30h-88q-31 0 -31 30v934q0 25 -27 25q-119 0 -205 38.5t-142 103t-82.5 149t-26.5 176.5q0 86 30 163.5t88 136.5t143.5 93.5t196.5 34.5h449
q26 0 26 -27v-1827z" />
    <glyph glyph-name="glyph121" unicode="&#xb7;" 
d="M594 782q31 0 59 -12t49 -33t33.5 -49t12.5 -59q0 -32 -12.5 -60t-33.5 -49t-49 -33t-59 -12q-32 0 -60 12t-49 33t-33 49t-12 60q0 31 12 59t33 49t49 33t60 12z" />
    <glyph glyph-name="cedilla" unicode="&#xb8;" horiz-adv-x="594" 
d="M178 -446q-48 0 -83.5 8.5t-63.5 23.5q-23 12 -23 28q0 10 10 26l31 47q8 11 14.5 15.5t14.5 4.5t17.5 -3.5t22 -7.5t28.5 -7.5t38 -3.5q45 0 60.5 18t15.5 41q0 13 -7.5 26.5t-18 26t-23 23t-21.5 18.5q-17 14 -26 23.5t-9 20.5q0 9 7 22l55 96h115l-31 -47
q42 -30 68.5 -57t42.5 -51t22 -46t6 -41q0 -41 -17.5 -78t-51 -65t-82.5 -44.5t-111 -16.5z" />
    <glyph glyph-name="onesuperior" unicode="&#xb9;" horiz-adv-x="528" 
d="M354 860q0 -9 -7 -15.5t-15 -6.5h-105q-9 0 -15.5 6.5t-6.5 15.5v512q0 22 -10 32t-33 13l-101 19q-5 2 -9.5 4.5t-4.5 9.5v4l6 66q0 12 19 12h252q12 0 21 -8t9 -21v-643z" />
    <glyph glyph-name="ordmasculine" unicode="&#xba;" horiz-adv-x="819" 
d="M399 1513q-65 0 -104 -40q-28 -28 -42.5 -77t-14.5 -112q0 -66 14.5 -114t40.5 -74q22 -23 47.5 -34t62.5 -11q64 0 105 41q28 27 42.5 75.5t14.5 114.5q0 129 -57 188q-43 43 -109 43zM397 934q-69 0 -124 22t-93 60q-20 20 -36 44.5t-27.5 56t-18 72t-6.5 91.5
q0 91 23 155t65 107q45 45 99.5 66.5t123.5 21.5q72 0 124 -22t94 -62q48 -46 68 -108.5t20 -153.5q0 -176 -86 -262q-48 -46 -102.5 -67t-123.5 -21zM129 653q-11 0 -19 7.5t-8 19.5v82q0 12 8 18t19 6h547q29 0 29 -24v-82q0 -12 -7.5 -19.5t-21.5 -7.5h-547z" />
    <glyph glyph-name="guillemotright" unicode="&#xbb;" horiz-adv-x="922" 
d="M489 670q5 -8 7.5 -14.5t2.5 -14.5q0 -16 -10 -29l-202 -336q-8 -13 -17.5 -21t-22.5 -8q-11 0 -24 7l-30 16q-16 7 -16 29q0 16 7 29l142 301l-150 301q-5 15 -5 23q0 13 5 24t14 16l43 23q13 5 21 5q11 0 18.5 -7t16.5 -21zM821 670q4 -8 6.5 -15t2.5 -15q0 -13 -9 -28
l-231 -389q-15 -28 -40 -28q-12 0 -22 6l-34 14q-19 9 -19 32q0 13 8 27l174 355l-178 354q-7 14 -7 29q0 24 20 35l40 22q10 7 22 7q19 0 36 -29z" />
    <glyph glyph-name="onequarter" unicode="&#xbc;" horiz-adv-x="1298" 
d="M956 551h-4l-178 -281h158q15 2 19.5 9.5t4.5 21.5v250zM664 133q-11 0 -15.5 4.5t-7.5 14.5l-23 81q-1 5 -1.5 8.5t-0.5 5.5q0 16 5 21l243 398q8 12 15.5 17t19.5 5h182q25 0 25 -26v-359q0 -20 4 -25.5t18 -7.5h64q12 0 20.5 -5.5t8.5 -16.5v-80q0 -14 -6.5 -24.5
t-20.5 -10.5h-66q-11 0 -16.5 -4t-5.5 -18v-84q0 -27 -25 -27h-98q-27 0 -27 27v77q0 13 -4 21t-18 8h-270zM1061 1544q9 14 21 14q8 0 22 -8l61 -37q14 -8 14 -23q0 -7 -5 -15l-973 -1487q-7 -13 -22 -13q-9 0 -17 5l-64 36q-13 10 -13 26q0 8 3 13zM395 860q0 -9 -7 -15.5
t-15 -6.5h-105q-9 0 -15.5 6.5t-6.5 15.5v512q0 22 -10 32t-33 13l-101 19q-5 2 -9.5 4.5t-4.5 9.5v4l6 66q0 12 19 12h252q12 0 21 -8t9 -21v-643z" />
    <glyph glyph-name="onehalf" unicode="&#xbd;" horiz-adv-x="1405" 
d="M702 121q53 55 101.5 93.5t90.5 67.5t76.5 51t59 44.5t38 47.5t13.5 60q0 42 -27.5 66t-72.5 24q-25 0 -44.5 -9.5t-34 -25t-24.5 -36.5t-16 -45q-2 -11 -9.5 -16.5t-17.5 -5.5q-9 0 -10 1l-102 27q-18 4 -18 22q0 2 0.5 6t1.5 9q13 45 37 83t58 65t78 42t97 15
q60 0 114.5 -17.5t88.5 -52.5q31 -31 48 -66.5t17 -91.5q0 -47 -18 -85t-47 -69t-65 -56.5t-73 -48t-70.5 -43.5t-56.5 -42h338q25 0 25 -20v-90q0 -14 -5 -19.5t-18 -5.5h-520q-9 0 -14 2.5t-8 13.5l-19 58q-4 7 -4 18q0 14 12 29zM1061 1544q9 14 24 14q8 0 19 -6l59 -36
q16 -10 16 -28q0 -7 -3 -11l-975 -1489q-7 -13 -24 -13q-7 0 -15 5l-62 36q-16 10 -16 27q0 5 4 12zM408 860q0 -9 -7.5 -15.5t-15.5 -6.5h-104q-10 0 -16.5 6.5t-6.5 15.5v512q0 22 -10 32t-33 13l-100 19q-6 2 -10.5 4.5t-4.5 9.5v4l6 66q0 12 19 12h252q12 0 21.5 -8
t9.5 -21v-643z" />
    <glyph glyph-name="threequarters" unicode="&#xbe;" horiz-adv-x="1366" 
d="M1038 551h-4l-178 -281h158q15 2 19.5 9.5t4.5 21.5v250zM745 133q-11 0 -15 4.5t-7 14.5l-23 81q-1 5 -1.5 9t-0.5 6q0 8 1.5 13t2.5 7l244 398q8 12 15.5 17t19.5 5h182q25 0 25 -26v-359q0 -20 4 -25.5t18 -7.5h64q12 0 20.5 -5.5t8.5 -16.5v-80q0 -14 -6.5 -24.5
t-20.5 -10.5h-66q-11 0 -16.5 -4t-5.5 -18v-84q0 -27 -25 -27h-98q-27 0 -27 27v77q0 13 -4 21t-18 8h-271zM1126 1544q9 15 24 15q9 0 19 -7l62 -39q13 -7 13 -22q0 -8 -5 -16l-973 -1487q-7 -13 -23 -13q-8 0 -16 5l-63 36q-14 11 -14 26q0 9 4 13zM436 1200
q75 -6 114.5 -50.5t39.5 -113.5q0 -44 -19.5 -83.5t-55 -68.5t-84.5 -46t-109 -17q-53 0 -98 15t-80 41t-58.5 61t-34.5 76q-1 5 -1.5 9t-0.5 8q0 19 14 24l84 24q4 1 7 1.5t7 0.5q9 0 16 -3.5t9 -12.5q13 -48 48.5 -82.5t97.5 -34.5q51 0 80.5 27t29.5 67q0 48 -37.5 70.5
t-97.5 22.5h-22q-29 0 -29 26v68q0 24 27 24h22q51 0 83 25t32 70q0 37 -25 56t-65 19q-48 0 -77 -28t-40 -68q-2 -8 -10 -11.5t-17 -3.5q-10 0 -12 1l-86 22q-16 4 -16 22q0 11 4 19q26 81 90.5 125.5t161.5 44.5q51 0 94.5 -12t75.5 -36t50.5 -59t18.5 -81
q0 -57 -32.5 -98t-98.5 -58v-2z" />
    <glyph glyph-name="questiondown" unicode="&#xbf;" horiz-adv-x="936" 
d="M479 1022q-29 0 -53.5 10.5t-43.5 29.5t-29.5 43.5t-10.5 53.5q0 28 10.5 53t29.5 44t43.5 29.5t53.5 10.5q28 0 53 -10.5t44 -29.5t29.5 -44t10.5 -53q0 -29 -10.5 -53.5t-29.5 -43.5t-44 -29.5t-53 -10.5zM399 848q0 31 33 31h92q16 0 25.5 -9t9.5 -24v-152
q0 -98 -22.5 -163.5t-56 -112t-73 -81.5t-73 -71.5t-56 -81.5t-22.5 -112q0 -91 54.5 -142t154.5 -51q106 0 155.5 51.5t49.5 139.5q0 17 9 25.5t23 8.5h123q35 0 35 -26q0 -75 -24 -138.5t-73 -110t-124 -73t-176 -26.5q-102 0 -176 27t-122 73t-70.5 106t-22.5 125v3
q0 67 14 116t37 85.5t52.5 64.5t60 54t60 53t52.5 62t37 81t14 110v158z" />
    <glyph glyph-name="Agrave" unicode="&#xc0;" horiz-adv-x="1362" 
d="M856 657q21 0 21 12q0 5 -3 13l-200 575h-2l-209 -575q-3 -8 -3 -13q0 -12 21 -12h375zM586 1509q5 13 10.5 18t17.5 5h136q12 0 18.5 -6.5t9.5 -16.5l547 -1464q2 -8 2 -12q0 -13 -9 -23t-24 -10h-151q-14 0 -23 5.5t-14 19.5l-158 450q-6 16 -14.5 21.5t-22.5 5.5h-485
q-30 0 -39 -27l-162 -448q-9 -27 -37 -27h-125q-13 0 -22 10.5t-9 25.5q0 8 3 17zM441 1749q-62 20 -62 65q0 27 19 58l6 10q33 55 72 55q13 0 26.5 -5.5t28.5 -14.5l265 -172q18 -11 18 -31q0 -7 -4 -14l-23 -35q-5 -8 -11 -14t-16 -6q-1 0 -4 0.5t-8 1.5z" />
    <glyph glyph-name="Aacute" unicode="&#xc1;" horiz-adv-x="1362" 
d="M856 657q21 0 21 12q0 5 -3 13l-200 575h-2l-209 -575q-3 -8 -3 -13q0 -12 21 -12h375zM586 1509q5 13 10.5 18t17.5 5h136q12 0 18.5 -6.5t9.5 -16.5l547 -1464q2 -8 2 -12q0 -13 -9 -23t-24 -10h-151q-14 0 -23 5.5t-14 19.5l-158 450q-6 16 -14.5 21.5t-22.5 5.5h-485
q-30 0 -39 -27l-162 -448q-9 -27 -37 -27h-125q-13 0 -22 10.5t-9 25.5q0 8 3 17zM623 1647q-5 -1 -8 -1.5t-4 -0.5q-10 0 -16 6t-11 14l-22 35q-4 7 -4 14q0 20 18 31l264 172q15 9 28.5 14.5t26.5 5.5q39 0 72 -55l7 -10q18 -33 18 -58q0 -46 -61 -65z" />
    <glyph glyph-name="Acircumflex" unicode="&#xc2;" horiz-adv-x="1362" 
d="M856 657q21 0 21 12q0 5 -3 13l-200 575h-2l-209 -575q-3 -8 -3 -13q0 -12 21 -12h375zM586 1509q5 13 10.5 18t17.5 5h136q12 0 18.5 -6.5t9.5 -16.5l547 -1464q2 -8 2 -12q0 -13 -9 -23t-24 -10h-151q-14 0 -23 5.5t-14 19.5l-158 450q-6 16 -14.5 21.5t-22.5 5.5h-485
q-30 0 -39 -27l-162 -448q-9 -27 -37 -27h-125q-13 0 -22 10.5t-9 25.5q0 8 3 17zM971 1745q8 -5 13.5 -13.5t5.5 -17.5q0 -10 -4 -14l-23 -35q-5 -8 -10.5 -14.5t-15.5 -6.5q-6 0 -13 3l-246 102l-245 -102q-8 -3 -13 -3q-10 0 -15.5 6.5t-10.5 14.5l-23 35q-4 4 -4 14
q0 9 5.5 17.5t13.5 13.5l239 172q15 10 27.5 15t25.5 5q22 0 54 -20z" />
    <glyph glyph-name="Atilde" unicode="&#xc3;" horiz-adv-x="1362" 
d="M856 657q21 0 21 12q0 5 -3 13l-200 575h-2l-209 -575q-3 -8 -3 -13q0 -12 21 -12h375zM586 1509q5 13 10.5 18t17.5 5h136q12 0 18.5 -6.5t9.5 -16.5l547 -1464q2 -8 2 -12q0 -13 -9 -23t-24 -10h-151q-14 0 -23 5.5t-14 19.5l-158 450q-6 16 -14.5 21.5t-22.5 5.5h-485
q-30 0 -39 -27l-162 -448q-9 -27 -37 -27h-125q-13 0 -22 10.5t-9 25.5q0 8 3 17zM527 1737q-37 0 -63 -15.5t-54 -52.5q-12 -15 -25 -15q-11 0 -26 9l-37 23q-16 10 -16 28q0 16 12 37q18 32 44 59t56.5 46t63.5 29.5t66 10.5q53 0 85 -12.5t56.5 -28t47.5 -28t59 -12.5
q37 0 62.5 15t53.5 52q12 16 26 16q12 0 25 -10l37 -22q16 -10 16 -29q0 -18 -12 -37q-18 -32 -44 -59t-56 -46t-63 -29.5t-66 -10.5q-53 0 -85 13t-56.5 28t-48 28t-58.5 13z" />
    <glyph glyph-name="Adieresis" unicode="&#xc4;" horiz-adv-x="1362" 
d="M856 657q21 0 21 12q0 5 -3 13l-200 575h-2l-209 -575q-3 -8 -3 -13q0 -12 21 -12h375zM586 1509q5 13 10.5 18t17.5 5h136q12 0 18.5 -6.5t9.5 -16.5l547 -1464q2 -8 2 -12q0 -13 -9 -23t-24 -10h-151q-14 0 -23 5.5t-14 19.5l-158 450q-6 16 -14.5 21.5t-22.5 5.5h-485
q-30 0 -39 -27l-162 -448q-9 -27 -37 -27h-125q-13 0 -22 10.5t-9 25.5q0 8 3 17zM915 1903q26 0 49 -10t40.5 -27.5t27.5 -40.5t10 -49t-10 -49.5t-27.5 -40.5t-40.5 -27t-49 -10t-49.5 10t-40.5 27t-27 40.5t-10 49.5t10 49t27 40.5t40.5 27.5t49.5 10zM444 1903
q26 0 49 -10t40.5 -27.5t27.5 -40.5t10 -49t-10 -49.5t-27.5 -40.5t-40.5 -27t-49 -10t-49.5 10t-40.5 27t-27 40.5t-10 49.5t10 49t27 40.5t40.5 27.5t49.5 10z" />
    <glyph glyph-name="Aring" unicode="&#xc5;" horiz-adv-x="1362" 
d="M856 657q21 0 21 12q0 5 -3 13l-200 575h-2l-209 -575q-3 -8 -3 -13q0 -12 21 -12h375zM586 1509q5 13 10.5 18t17.5 5h136q12 0 18.5 -6.5t9.5 -16.5l547 -1464q2 -8 2 -12q0 -13 -9 -23t-24 -10h-151q-14 0 -23 5.5t-14 19.5l-158 450q-6 16 -14.5 21.5t-22.5 5.5h-485
q-30 0 -39 -27l-162 -448q-9 -27 -37 -27h-125q-13 0 -22 10.5t-9 25.5q0 8 3 17zM672 1849q-35 0 -57.5 -22.5t-22.5 -73.5t24.5 -73.5t59.5 -22.5t57.5 23.5t22.5 72.5q0 53 -24.5 74.5t-59.5 21.5zM672 1567q-39 0 -74.5 10t-62.5 31.5t-43.5 56.5t-16.5 86q0 49 15 84.5
t42 58.5t63.5 34t80.5 11q39 0 75 -10t63 -32t43.5 -57.5t16.5 -86.5q0 -48 -15.5 -83.5t-42.5 -58t-64 -33.5t-80 -11z" />
    <glyph glyph-name="AE" unicode="&#xc6;" horiz-adv-x="1798" 
d="M844 383q-4 31 -39 31h-377q-15 0 -28 -5t-19 -16l-176 -350q-11 -20 -19 -31.5t-22 -11.5h-141q-13 0 -21 9t-8 23q0 10 6 21l758 1456q6 13 11 18t17 5h846q26 0 36.5 -8.5t10.5 -34.5v-74q0 -26 -10.5 -34.5t-36.5 -8.5h-551q-26 0 -26 -20v-402q0 -17 5 -23.5
t23 -6.5h453q14 0 23.5 -9.5t9.5 -23.5v-90q0 -14 -9.5 -23.5t-23.5 -9.5h-449q-20 0 -26 -6.5t-6 -22.5v-549q0 -26 24 -26h574q28 0 37.5 -7.5t11.5 -35.5v-74q0 -26 -10.5 -34.5t-38.5 -8.5h-779q-17 0 -23.5 10.5t-6.5 26.5v346zM844 1298h-2l-346 -684q-7 -10 -7 -22
q0 -10 6 -16.5t19 -6.5h301q17 0 23 6t6 29v694z" />
    <glyph glyph-name="Ccedilla" unicode="&#xc7;" horiz-adv-x="1264" 
d="M575 -14q-136 20 -233.5 88.5t-151.5 183.5q-28 60 -47 119.5t-30 120t-16 124t-5 132.5q0 147 21 268.5t75 224.5q34 66 83 121.5t112 95t139.5 62t165.5 22.5q93 0 171.5 -25t139.5 -71t103 -112t63 -148q1 -2 1 -12t-3.5 -18.5t-11.5 -10.5l-125 -37q-11 -3 -18 -3
q-23 0 -29 24q-35 113 -106 178t-185 65q-91 0 -161 -42t-117.5 -121t-72 -192t-24.5 -255q0 -147 21 -261t67 -192.5t118 -119.5t173 -41q129 0 220.5 61t142.5 182q12 29 32 29q10 0 17 -4l82 -39q18 -8 18 -30q0 -14 -4 -21q-27 -78 -74 -142.5t-112.5 -110.5t-148.5 -72
t-181 -27l-16 -27q41 -30 68 -57t42.5 -51t22 -46t6.5 -41q0 -41 -17.5 -78t-51 -65t-82.5 -44.5t-111 -16.5q-48 0 -84 8.5t-64 23.5q-22 13 -22 28q0 10 10 26l31 47q8 12 15 16.5t15 4.5t17 -3.5t21.5 -8t28.5 -8t38 -3.5q44 0 60 18t16 41q0 13 -7.5 26.5t-18 26t-23 23
t-21.5 18.5q-17 14 -26.5 23.5t-9.5 20.5q0 9 7 22z" />
    <glyph glyph-name="Egrave" unicode="&#xc8;" horiz-adv-x="1130" 
d="M209 0q-17 0 -25 10.5t-8 26.5v1450q0 22 10 33.5t35 11.5h756q35 0 35 -37v-86q0 -37 -37 -37h-561q-27 0 -27 -20v-402q0 -17 5 -23.5t24 -6.5h452q14 0 23.5 -9.5t9.5 -23.5v-90q0 -14 -9.5 -23.5t-23.5 -9.5h-448q-20 0 -26.5 -6.5t-6.5 -22.5v-549q0 -26 25 -26h589
q14 0 23.5 -9.5t9.5 -23.5v-94q0 -14 -9.5 -23.5t-23.5 -9.5h-792zM323 1749q-62 20 -62 65q0 27 19 58l6 10q33 55 72 55q13 0 26.5 -5.5t28.5 -14.5l265 -172q18 -11 18 -31q0 -7 -4 -14l-23 -35q-5 -8 -11 -14t-16 -6q-1 0 -4 0.5t-8 1.5z" />
    <glyph glyph-name="Eacute" unicode="&#xc9;" horiz-adv-x="1130" 
d="M209 0q-17 0 -25 10.5t-8 26.5v1450q0 22 10 33.5t35 11.5h756q35 0 35 -37v-86q0 -37 -37 -37h-561q-27 0 -27 -20v-402q0 -17 5 -23.5t24 -6.5h452q14 0 23.5 -9.5t9.5 -23.5v-90q0 -14 -9.5 -23.5t-23.5 -9.5h-448q-20 0 -26.5 -6.5t-6.5 -22.5v-549q0 -26 25 -26h589
q14 0 23.5 -9.5t9.5 -23.5v-94q0 -14 -9.5 -23.5t-23.5 -9.5h-792zM567 1647q-5 -1 -8 -1.5t-4 -0.5q-10 0 -16 6t-11 14l-22 35q-4 7 -4 14q0 20 18 31l264 172q15 9 28.5 14.5t26.5 5.5q39 0 72 -55l7 -10q18 -33 18 -58q0 -46 -61 -65z" />
    <glyph glyph-name="Ecircumflex" unicode="&#xca;" horiz-adv-x="1130" 
d="M209 0q-17 0 -25 10.5t-8 26.5v1450q0 22 10 33.5t35 11.5h756q35 0 35 -37v-86q0 -37 -37 -37h-561q-27 0 -27 -20v-402q0 -17 5 -23.5t24 -6.5h452q14 0 23.5 -9.5t9.5 -23.5v-90q0 -14 -9.5 -23.5t-23.5 -9.5h-448q-20 0 -26.5 -6.5t-6.5 -22.5v-549q0 -26 25 -26h589
q14 0 23.5 -9.5t9.5 -23.5v-94q0 -14 -9.5 -23.5t-23.5 -9.5h-792zM884 1745q8 -5 13.5 -13.5t5.5 -17.5q0 -10 -4 -14l-23 -35q-5 -8 -10.5 -14.5t-15.5 -6.5q-6 0 -13 3l-246 102l-245 -102q-8 -3 -13 -3q-10 0 -15.5 6.5t-10.5 14.5l-23 35q-4 4 -4 14q0 9 5.5 17.5
t13.5 13.5l239 172q15 10 27.5 15t25.5 5q22 0 54 -20z" />
    <glyph glyph-name="Edieresis" unicode="&#xcb;" horiz-adv-x="1130" 
d="M209 0q-17 0 -25 10.5t-8 26.5v1450q0 22 10 33.5t35 11.5h756q35 0 35 -37v-86q0 -37 -37 -37h-561q-27 0 -27 -20v-402q0 -17 5 -23.5t24 -6.5h452q14 0 23.5 -9.5t9.5 -23.5v-90q0 -14 -9.5 -23.5t-23.5 -9.5h-448q-20 0 -26.5 -6.5t-6.5 -22.5v-549q0 -26 25 -26h589
q14 0 23.5 -9.5t9.5 -23.5v-94q0 -14 -9.5 -23.5t-23.5 -9.5h-792zM832 1903q26 0 49 -10t40.5 -27.5t27.5 -40.5t10 -49t-10 -49.5t-27.5 -40.5t-40.5 -27t-49 -10t-49.5 10t-40.5 27t-27 40.5t-10 49.5t10 49t27 40.5t40.5 27.5t49.5 10zM361 1903q26 0 49 -10t40.5 -27.5
t27.5 -40.5t10 -49t-10 -49.5t-27.5 -40.5t-40.5 -27t-49 -10t-49.5 10t-40.5 27t-27 40.5t-10 49.5t10 49t27 40.5t40.5 27.5t49.5 10z" />
    <glyph glyph-name="Igrave" unicode="&#xcc;" horiz-adv-x="563" 
d="M203 0q-27 0 -27 25v1482q0 25 27 25h157q13 0 20 -7.5t7 -17.5v-1482q0 -25 -27 -25h-157zM47 1749q-62 20 -62 65q0 27 19 58l6 10q33 55 72 55q13 0 26.5 -5.5t28.5 -14.5l265 -172q18 -11 18 -31q0 -7 -4 -14l-23 -35q-5 -8 -11 -14t-16 -6q-1 0 -4 0.5t-8 1.5z" />
    <glyph glyph-name="Iacute" unicode="&#xcd;" horiz-adv-x="563" 
d="M203 0q-27 0 -27 25v1482q0 25 27 25h157q13 0 20 -7.5t7 -17.5v-1482q0 -25 -27 -25h-157zM204 1647q-5 -1 -8 -1.5t-4 -0.5q-10 0 -16 6t-11 14l-22 35q-4 7 -4 14q0 20 18 31l264 172q15 9 28.5 14.5t26.5 5.5q39 0 72 -55l7 -10q18 -33 18 -58q0 -46 -61 -65z" />
    <glyph glyph-name="Icircumflex" unicode="&#xce;" horiz-adv-x="563" 
d="M203 0q-27 0 -27 25v1482q0 25 27 25h157q13 0 20 -7.5t7 -17.5v-1482q0 -25 -27 -25h-157zM577 1745q8 -5 13.5 -13.5t5.5 -17.5q0 -10 -4 -14l-23 -35q-5 -8 -10.5 -14.5t-15.5 -6.5q-6 0 -13 3l-246 102l-245 -102q-8 -3 -13 -3q-10 0 -15.5 6.5t-10.5 14.5l-23 35
q-4 4 -4 14q0 9 5.5 17.5t13.5 13.5l239 172q15 10 27.5 15t25.5 5q22 0 54 -20z" />
    <glyph glyph-name="Idieresis" unicode="&#xcf;" horiz-adv-x="563" 
d="M203 0q-27 0 -27 25v1482q0 25 27 25h157q13 0 20 -7.5t7 -17.5v-1482q0 -25 -27 -25h-157zM520 1903q26 0 49 -10t40.5 -27.5t27.5 -40.5t10 -49t-10 -49.5t-27.5 -40.5t-40.5 -27t-49 -10t-49 10t-40.5 27t-27.5 40.5t-10 49.5t10 49t27.5 40.5t40.5 27.5t49 10z
M49 1903q26 0 49 -10t40.5 -27.5t27.5 -40.5t10 -49t-10 -49.5t-27.5 -40.5t-40.5 -27t-49 -10t-49 10t-40.5 27t-27.5 40.5t-10 49.5t10 49t27.5 40.5t40.5 27.5t49 10z" />
    <glyph glyph-name="Eth" unicode="&#xd0;" horiz-adv-x="1384" 
d="M725 891q9 0 16 -6.5t7 -16.5v-108q0 -13 -4 -19t-19 -6h-262q-23 0 -30 -7.5t-7 -27.5v-505q0 -20 7 -27.5t30 -7.5h158q120 0 206.5 45t143 126.5t83.5 196t27 254.5q0 157 -36.5 269t-101.5 183.5t-154 104.5t-193 33h-133q-23 0 -30 -7.5t-7 -27.5v-411
q0 -20 7 -27.5t30 -7.5h262zM63 735q-15 0 -18.5 6t-3.5 19v108q0 10 6.5 16.5t15.5 6.5h111q23 0 30 7.5t7 27.5v561q0 22 12 33.5t43 11.5h340q127 0 227 -28.5t176 -78.5t130 -119.5t88 -152t49.5 -174.5t15.5 -188q0 -171 -43.5 -315.5t-129 -250.5t-213.5 -165.5
t-296 -59.5h-342q-26 0 -41.5 13t-15.5 42v645q0 20 -7 27.5t-30 7.5h-111z" />
    <glyph glyph-name="Ntilde" unicode="&#xd1;" horiz-adv-x="1374" 
d="M1198 33q0 -16 -9.5 -24.5t-25.5 -8.5h-143q-26 0 -41 7t-31 36l-534 1057l-49 106v-1173q0 -19 -9 -26t-24 -7h-123q-12 0 -22.5 8t-10.5 25v1464q0 16 8.5 25.5t24.5 9.5h166q25 0 36.5 -7.5t22.5 -29.5l516 -1006l60 -127v1147q0 14 6 18.5t20 4.5h131q11 0 21 -5
t10 -24v-1470zM575 1737q-37 0 -63 -15.5t-54 -52.5q-12 -15 -25 -15q-11 0 -26 9l-37 23q-16 10 -16 28q0 16 12 37q18 32 44 59t56.5 46t63.5 29.5t66 10.5q53 0 85 -12.5t56.5 -28t47.5 -28t59 -12.5q37 0 62.5 15t53.5 52q12 16 26 16q12 0 25 -10l37 -22q16 -10 16 -29
q0 -18 -12 -37q-18 -32 -44 -59t-56 -46t-63 -29.5t-66 -10.5q-53 0 -85 13t-56.5 28t-48 28t-58.5 13z" />
    <glyph glyph-name="Ograve" unicode="&#xd2;" horiz-adv-x="1427" 
d="M711 1393q-153 0 -246 -95q-39 -39 -68.5 -94.5t-49 -123t-29 -146.5t-9.5 -166q0 -188 38.5 -324t117.5 -215q49 -49 112.5 -70.5t141.5 -21.5q75 0 135.5 24t108.5 70q78 79 116.5 216t38.5 315q0 186 -38.5 322t-116.5 214q-51 51 -114 73t-138 22zM709 -20
q-121 0 -229 33.5t-189 115.5q-45 45 -81.5 103.5t-62.5 135t-40.5 173.5t-14.5 219q0 124 15 222t41.5 175.5t63.5 135.5t81 102q83 83 192 118t234 35q124 0 230 -34t188 -115q44 -45 80.5 -103.5t62.5 -135t40.5 -173.5t14.5 -219q0 -124 -15 -222t-42 -175.5
t-63.5 -135.5t-79.5 -102q-85 -84 -192.5 -118.5t-233.5 -34.5zM434 1749q-62 20 -62 65q0 27 19 58l6 10q33 55 72 55q13 0 26.5 -5.5t28.5 -14.5l265 -172q18 -11 18 -31q0 -7 -4 -14l-23 -35q-5 -8 -11 -14t-16 -6q-1 0 -4 0.5t-8 1.5z" />
    <glyph glyph-name="Oacute" unicode="&#xd3;" horiz-adv-x="1427" 
d="M711 1393q-153 0 -246 -95q-39 -39 -68.5 -94.5t-49 -123t-29 -146.5t-9.5 -166q0 -188 38.5 -324t117.5 -215q49 -49 112.5 -70.5t141.5 -21.5q75 0 135.5 24t108.5 70q78 79 116.5 216t38.5 315q0 186 -38.5 322t-116.5 214q-51 51 -114 73t-138 22zM709 -20
q-121 0 -229 33.5t-189 115.5q-45 45 -81.5 103.5t-62.5 135t-40.5 173.5t-14.5 219q0 124 15 222t41.5 175.5t63.5 135.5t81 102q83 83 192 118t234 35q124 0 230 -34t188 -115q44 -45 80.5 -103.5t62.5 -135t40.5 -173.5t14.5 -219q0 -124 -15 -222t-42 -175.5
t-63.5 -135.5t-79.5 -102q-85 -84 -192.5 -118.5t-233.5 -34.5zM704 1647q-5 -1 -8 -1.5t-4 -0.5q-10 0 -16 6t-11 14l-22 35q-4 7 -4 14q0 20 18 31l264 172q15 9 28.5 14.5t26.5 5.5q39 0 72 -55l7 -10q18 -33 18 -58q0 -46 -61 -65z" />
    <glyph glyph-name="Ocircumflex" unicode="&#xd4;" horiz-adv-x="1427" 
d="M711 1393q-153 0 -246 -95q-39 -39 -68.5 -94.5t-49 -123t-29 -146.5t-9.5 -166q0 -188 38.5 -324t117.5 -215q49 -49 112.5 -70.5t141.5 -21.5q75 0 135.5 24t108.5 70q78 79 116.5 216t38.5 315q0 186 -38.5 322t-116.5 214q-51 51 -114 73t-138 22zM709 -20
q-121 0 -229 33.5t-189 115.5q-45 45 -81.5 103.5t-62.5 135t-40.5 173.5t-14.5 219q0 124 15 222t41.5 175.5t63.5 135.5t81 102q83 83 192 118t234 35q124 0 230 -34t188 -115q44 -45 80.5 -103.5t62.5 -135t40.5 -173.5t14.5 -219q0 -124 -15 -222t-42 -175.5
t-63.5 -135.5t-79.5 -102q-85 -84 -192.5 -118.5t-233.5 -34.5zM998 1745q8 -5 13.5 -13.5t5.5 -17.5q0 -10 -4 -14l-23 -35q-5 -8 -10.5 -14.5t-15.5 -6.5q-6 0 -13 3l-246 102l-245 -102q-8 -3 -13 -3q-10 0 -15.5 6.5t-10.5 14.5l-23 35q-4 4 -4 14q0 9 5.5 17.5
t13.5 13.5l239 172q15 10 27.5 15t25.5 5q22 0 54 -20z" />
    <glyph glyph-name="Otilde" unicode="&#xd5;" horiz-adv-x="1427" 
d="M711 1393q-153 0 -246 -95q-39 -39 -68.5 -94.5t-49 -123t-29 -146.5t-9.5 -166q0 -188 38.5 -324t117.5 -215q49 -49 112.5 -70.5t141.5 -21.5q75 0 135.5 24t108.5 70q78 79 116.5 216t38.5 315q0 186 -38.5 322t-116.5 214q-51 51 -114 73t-138 22zM709 -20
q-121 0 -229 33.5t-189 115.5q-45 45 -81.5 103.5t-62.5 135t-40.5 173.5t-14.5 219q0 124 15 222t41.5 175.5t63.5 135.5t81 102q83 83 192 118t234 35q124 0 230 -34t188 -115q44 -45 80.5 -103.5t62.5 -135t40.5 -173.5t14.5 -219q0 -124 -15 -222t-42 -175.5
t-63.5 -135.5t-79.5 -102q-85 -84 -192.5 -118.5t-233.5 -34.5zM555 1737q-37 0 -63 -15.5t-54 -52.5q-12 -15 -25 -15q-11 0 -26 9l-37 23q-16 10 -16 28q0 16 12 37q18 32 44 59t56.5 46t63.5 29.5t66 10.5q53 0 85 -12.5t56.5 -28t47.5 -28t59 -12.5q37 0 62.5 15
t53.5 52q12 16 26 16q12 0 25 -10l37 -22q16 -10 16 -29q0 -18 -12 -37q-18 -32 -44 -59t-56 -46t-63 -29.5t-66 -10.5q-53 0 -85 13t-56.5 28t-48 28t-58.5 13z" />
    <glyph glyph-name="Odieresis" unicode="&#xd6;" horiz-adv-x="1427" 
d="M711 1393q-153 0 -246 -95q-39 -39 -68.5 -94.5t-49 -123t-29 -146.5t-9.5 -166q0 -188 38.5 -324t117.5 -215q49 -49 112.5 -70.5t141.5 -21.5q75 0 135.5 24t108.5 70q78 79 116.5 216t38.5 315q0 186 -38.5 322t-116.5 214q-51 51 -114 73t-138 22zM709 -20
q-121 0 -229 33.5t-189 115.5q-45 45 -81.5 103.5t-62.5 135t-40.5 173.5t-14.5 219q0 124 15 222t41.5 175.5t63.5 135.5t81 102q83 83 192 118t234 35q124 0 230 -34t188 -115q44 -45 80.5 -103.5t62.5 -135t40.5 -173.5t14.5 -219q0 -124 -15 -222t-42 -175.5
t-63.5 -135.5t-79.5 -102q-85 -84 -192.5 -118.5t-233.5 -34.5zM943 1903q26 0 49 -10t40.5 -27.5t27.5 -40.5t10 -49t-10 -49.5t-27.5 -40.5t-40.5 -27t-49 -10t-49.5 10t-40.5 27t-27 40.5t-10 49.5t10 49t27 40.5t40.5 27.5t49.5 10zM472 1903q26 0 49 -10t40.5 -27.5
t27.5 -40.5t10 -49t-10 -49.5t-27.5 -40.5t-40.5 -27t-49 -10t-49.5 10t-40.5 27t-27 40.5t-10 49.5t10 49t27 40.5t40.5 27.5t49.5 10z" />
    <glyph glyph-name="multiply" unicode="&#xd7;" 
d="M465 604q11 11 11 25q0 13 -9 22l-315 314q-11 11 -11 24q0 14 11 25l53 51q12 12 28 12q15 0 25 -10l317 -315q13 -12 27 -12q12 0 21 10l313 315q11 11 24 11q11 0 25 -11l53 -51q12 -11 12 -23q0 -14 -12 -24l-313 -312q-9 -9 -9 -20q0 -13 9 -23l322 -323
q10 -10 10 -25q0 -16 -13 -28l-57 -56q-11 -11 -25 -11q-13 0 -24 11l-326 324q-11 11 -23 11q-13 0 -24 -11l-321 -320q-14 -12 -25 -12q-12 0 -24 12l-52 49q-12 13 -12 26q0 12 10 22z" />
    <glyph glyph-name="Oslash" unicode="&#xd8;" horiz-adv-x="1427" 
d="M946 1315q-48 40 -107 59t-128 19q-153 0 -246 -95q-39 -39 -68.5 -94.5t-49 -123t-29 -146.5t-9.5 -166q0 -151 24 -267t75 -198zM508 195q45 -31 96.5 -44.5t114.5 -13.5q75 0 135.5 24t108.5 70q78 79 116.5 216t38.5 315q0 135 -19 242t-61 188zM1145 1391
q43 -45 78 -103.5t60 -134t38.5 -171t13.5 -214.5q0 -124 -15 -222t-42 -175.5t-63.5 -135.5t-79.5 -102q-85 -84 -192.5 -118.5t-233.5 -34.5q-78 0 -148.5 13t-136.5 44l-125 -232q-8 -17 -28 -17q-9 0 -17 5l-64 31q-19 9 -19 29q0 8 3 14l133 248q-48 43 -87.5 100
t-68 134.5t-44 178.5t-15.5 232q0 124 15 222t41.5 175.5t63.5 135.5t81 102q83 83 192 118t234 35q88 0 166 -16.5t147 -54.5l123 229q4 8 12 12.5t17 4.5q10 0 18 -5l62 -30q10 -5 14.5 -13.5t4.5 -16.5q0 -7 -3 -13z" />
    <glyph glyph-name="Ugrave" unicode="&#xd9;" horiz-adv-x="1354" 
d="M676 -20q-249 0 -374.5 123.5t-125.5 375.5v1020q0 14 9.5 23.5t23.5 9.5h145q14 0 23.5 -9.5t9.5 -23.5v-1018q0 -84 17 -148.5t53.5 -108t94.5 -65.5t140 -22q295 0 295 332v1030q0 14 9.5 23.5t23.5 9.5h125q14 0 23.5 -9.5t9.5 -23.5v-1014q0 -134 -35.5 -229.5
t-101 -156.5t-158.5 -90t-207 -29zM387 1749q-62 20 -62 65q0 27 19 58l6 10q33 55 72 55q13 0 26.5 -5.5t28.5 -14.5l265 -172q18 -11 18 -31q0 -7 -4 -14l-23 -35q-5 -8 -11 -14t-16 -6q-1 0 -4 0.5t-8 1.5z" />
    <glyph glyph-name="Uacute" unicode="&#xda;" horiz-adv-x="1354" 
d="M676 -20q-249 0 -374.5 123.5t-125.5 375.5v1020q0 14 9.5 23.5t23.5 9.5h145q14 0 23.5 -9.5t9.5 -23.5v-1018q0 -84 17 -148.5t53.5 -108t94.5 -65.5t140 -22q295 0 295 332v1030q0 14 9.5 23.5t23.5 9.5h125q14 0 23.5 -9.5t9.5 -23.5v-1014q0 -134 -35.5 -229.5
t-101 -156.5t-158.5 -90t-207 -29zM698 1647q-5 -1 -8 -1.5t-4 -0.5q-10 0 -16 6t-11 14l-22 35q-4 7 -4 14q0 20 18 31l264 172q15 9 28.5 14.5t26.5 5.5q39 0 72 -55l7 -10q18 -33 18 -58q0 -46 -61 -65z" />
    <glyph glyph-name="Ucircumflex" unicode="&#xdb;" horiz-adv-x="1354" 
d="M676 -20q-249 0 -374.5 123.5t-125.5 375.5v1020q0 14 9.5 23.5t23.5 9.5h145q14 0 23.5 -9.5t9.5 -23.5v-1018q0 -84 17 -148.5t53.5 -108t94.5 -65.5t140 -22q295 0 295 332v1030q0 14 9.5 23.5t23.5 9.5h125q14 0 23.5 -9.5t9.5 -23.5v-1014q0 -134 -35.5 -229.5
t-101 -156.5t-158.5 -90t-207 -29zM988 1745q8 -5 13.5 -13.5t5.5 -17.5q0 -10 -4 -14l-23 -35q-5 -8 -10.5 -14.5t-15.5 -6.5q-6 0 -13 3l-246 102l-245 -102q-8 -3 -13 -3q-10 0 -15.5 6.5t-10.5 14.5l-23 35q-4 4 -4 14q0 9 5.5 17.5t13.5 13.5l239 172q15 10 27.5 15
t25.5 5q22 0 54 -20z" />
    <glyph glyph-name="Udieresis" unicode="&#xdc;" horiz-adv-x="1354" 
d="M676 -20q-249 0 -374.5 123.5t-125.5 375.5v1020q0 14 9.5 23.5t23.5 9.5h145q14 0 23.5 -9.5t9.5 -23.5v-1018q0 -84 17 -148.5t53.5 -108t94.5 -65.5t140 -22q295 0 295 332v1030q0 14 9.5 23.5t23.5 9.5h125q14 0 23.5 -9.5t9.5 -23.5v-1014q0 -134 -35.5 -229.5
t-101 -156.5t-158.5 -90t-207 -29zM911 1903q26 0 49 -10t40.5 -27.5t27.5 -40.5t10 -49t-10 -49.5t-27.5 -40.5t-40.5 -27t-49 -10t-49.5 10t-40.5 27t-27 40.5t-10 49.5t10 49t27 40.5t40.5 27.5t49.5 10zM440 1903q26 0 49 -10t40.5 -27.5t27.5 -40.5t10 -49t-10 -49.5
t-27.5 -40.5t-40.5 -27t-49 -10t-49.5 10t-40.5 27t-27 40.5t-10 49.5t10 49t27 40.5t40.5 27.5t49.5 10z" />
    <glyph glyph-name="Yacute" unicode="&#xdd;" horiz-adv-x="1122" 
d="M674 33q0 -14 -9.5 -23.5t-23.5 -9.5h-145q-14 0 -23.5 9.5t-9.5 23.5v606l-436 838q-8 18 -8 27q0 14 9.5 21t24.5 7h168q13 0 21 -7t14 -20l334 -684l323 680q7 16 15.5 23.5t25.5 7.5h136q13 0 20.5 -7.5t7.5 -18.5q0 -9 -6 -21l-438 -846v-606zM577 1647
q-5 -1 -8 -1.5t-4 -0.5q-10 0 -16 6t-11 14l-22 35q-4 7 -4 14q0 20 18 31l264 172q15 9 28.5 14.5t26.5 5.5q39 0 72 -55l7 -10q18 -33 18 -58q0 -46 -61 -65z" />
    <glyph glyph-name="Thorn" unicode="&#xde;" horiz-adv-x="1161" 
d="M885 831q0 66 -18.5 121.5t-55.5 95.5t-93 62.5t-130 22.5h-176q-14 0 -19.5 -5.5t-5.5 -19.5v-573q0 -14 5.5 -19.5t19.5 -5.5h176q74 0 130 22.5t93 64t55.5 101t18.5 133.5zM1102 842q0 -87 -16 -155t-45 -120t-71 -90t-93 -65q-60 -32 -133 -47t-158 -15h-174
q-14 0 -19.5 -5t-5.5 -19v-293q0 -14 -9.5 -23.5t-23.5 -9.5h-145q-14 0 -23.5 9.5t-9.5 23.5v1466q0 14 9.5 23.5t23.5 9.5h149q14 0 23.5 -9.5t9.5 -23.5v-174q0 -14 9.5 -23.5t23.5 -9.5h160q88 0 162 -11.5t137 -43.5q105 -56 162 -153t57 -242z" />
    <glyph glyph-name="germandbls" unicode="&#xdf;" horiz-adv-x="1178" 
d="M784 877q0 -23 4 -41.5t13 -35t23.5 -33t35.5 -36.5l78 -72q94 -88 139 -167t45 -164q0 -77 -22 -140t-65.5 -108.5t-108.5 -70.5t-150 -25q-66 0 -127.5 18.5t-107.5 52.5q-16 12 -16 30q0 9 5 17l54 82q9 15 22 15q11 0 27 -13q28 -21 62.5 -34t76.5 -13q38 0 67.5 13
t49 35.5t29.5 53.5t10 66q0 33 -10.5 63t-29 58t-43.5 54.5t-54 52.5l-78 69q-52 46 -87.5 107.5t-35.5 148.5q0 45 13.5 82t33.5 70.5t44 65t44 65.5t33.5 73t13.5 87q0 34 -11 66t-33 56.5t-55.5 39t-78.5 14.5q-48 0 -84 -16.5t-60 -47t-36.5 -73.5t-12.5 -95v-1212
q0 -16 -9.5 -25.5t-24.5 -9.5h-119q-16 0 -25.5 9.5t-9.5 25.5v911q0 14 -3 20.5t-17 6.5h-113q-16 0 -25.5 9.5t-9.5 25.5v77q0 16 9.5 25.5t25.5 9.5h102q20 0 25.5 6t5.5 19v92q0 98 27.5 172t78.5 123t123 73.5t162 24.5q84 0 151 -24.5t113.5 -66t71.5 -96t25 -114.5
q0 -62 -13.5 -111t-33.5 -89t-43.5 -72.5t-43.5 -62t-33.5 -58t-13.5 -59.5z" />
    <glyph glyph-name="agrave" unicode="&#xe0;" horiz-adv-x="1122" 
d="M770 549q-12 -8 -33 -14t-43 -9l-88 -12q-96 -13 -155.5 -34t-92 -48t-44 -58t-11.5 -65q0 -81 45.5 -125.5t130.5 -44.5q73 0 127.5 26t91 65.5t54.5 85.5t18 87v146zM774 139q-21 -32 -54.5 -61t-76 -51t-93 -34.5t-104.5 -12.5q-79 0 -144.5 20t-112.5 60t-73 99.5
t-26 137.5q0 67 24.5 123.5t79 101t140.5 76.5t209 51l129 21q55 9 76.5 31.5t21.5 56.5v8q0 104 -50 162.5t-161 58.5q-95 0 -147.5 -44t-75.5 -118q-9 -30 -32 -30q-2 0 -6 0.5t-9 1.5l-119 30q-20 6 -20 28q0 10 8 34q97 252 407 252q96 0 176.5 -28.5t128.5 -76.5
q47 -48 67.5 -108t20.5 -144v-757q0 -14 -5.5 -20.5t-20.5 -6.5h-121q-22 0 -29.5 8t-7.5 25v106zM266 1391q-47 30 -47 64q0 30 35 65l8 8q39 39 72 39q17 0 31.5 -9t29.5 -26l195 -221q11 -11 11 -26q0 -12 -9 -21l-29 -29q-6 -6 -12 -10t-14 -4q-10 0 -17 6z" />
    <glyph glyph-name="aacute" unicode="&#xe1;" horiz-adv-x="1122" 
d="M770 549q-12 -8 -33 -14t-43 -9l-88 -12q-96 -13 -155.5 -34t-92 -48t-44 -58t-11.5 -65q0 -81 45.5 -125.5t130.5 -44.5q73 0 127.5 26t91 65.5t54.5 85.5t18 87v146zM774 139q-21 -32 -54.5 -61t-76 -51t-93 -34.5t-104.5 -12.5q-79 0 -144.5 20t-112.5 60t-73 99.5
t-26 137.5q0 67 24.5 123.5t79 101t140.5 76.5t209 51l129 21q55 9 76.5 31.5t21.5 56.5v8q0 104 -50 162.5t-161 58.5q-95 0 -147.5 -44t-75.5 -118q-9 -30 -32 -30q-2 0 -6 0.5t-9 1.5l-119 30q-20 6 -20 28q0 10 8 34q97 252 407 252q96 0 176.5 -28.5t128.5 -76.5
q47 -48 67.5 -108t20.5 -144v-757q0 -14 -5.5 -20.5t-20.5 -6.5h-121q-22 0 -29.5 8t-7.5 25v106zM567 1227q-8 -6 -17 -6q-8 0 -14 4t-12 10l-28 29q-10 9 -10 21q0 14 12 26l194 221q30 35 61 35t72 -39l8 -8q35 -35 35 -65q0 -34 -47 -64z" />
    <glyph glyph-name="acircumflex" unicode="&#xe2;" horiz-adv-x="1122" 
d="M770 549q-12 -8 -33 -14t-43 -9l-88 -12q-96 -13 -155.5 -34t-92 -48t-44 -58t-11.5 -65q0 -81 45.5 -125.5t130.5 -44.5q73 0 127.5 26t91 65.5t54.5 85.5t18 87v146zM774 139q-21 -32 -54.5 -61t-76 -51t-93 -34.5t-104.5 -12.5q-79 0 -144.5 20t-112.5 60t-73 99.5
t-26 137.5q0 67 24.5 123.5t79 101t140.5 76.5t209 51l129 21q55 9 76.5 31.5t21.5 56.5v8q0 104 -50 162.5t-161 58.5q-95 0 -147.5 -44t-75.5 -118q-9 -30 -32 -30q-2 0 -6 0.5t-9 1.5l-119 30q-20 6 -20 28q0 10 8 34q97 252 407 252q96 0 176.5 -28.5t128.5 -76.5
q47 -48 67.5 -108t20.5 -144v-757q0 -14 -5.5 -20.5t-20.5 -6.5h-121q-22 0 -29.5 8t-7.5 25v106zM809 1313q11 -14 11 -27q0 -11 -9 -20l-29 -29q-12 -12 -28 -12q-8 0 -15 4l-186 139l-188 -139q-8 -5 -16 -5q-14 0 -27 13l-29 29q-9 9 -9 21t11 26l195 221q28 34 62 34
q32 0 62 -34z" />
    <glyph glyph-name="atilde" unicode="&#xe3;" horiz-adv-x="1122" 
d="M770 549q-12 -8 -33 -14t-43 -9l-88 -12q-96 -13 -155.5 -34t-92 -48t-44 -58t-11.5 -65q0 -81 45.5 -125.5t130.5 -44.5q73 0 127.5 26t91 65.5t54.5 85.5t18 87v146zM774 139q-21 -32 -54.5 -61t-76 -51t-93 -34.5t-104.5 -12.5q-79 0 -144.5 20t-112.5 60t-73 99.5
t-26 137.5q0 67 24.5 123.5t79 101t140.5 76.5t209 51l129 21q55 9 76.5 31.5t21.5 56.5v8q0 104 -50 162.5t-161 58.5q-95 0 -147.5 -44t-75.5 -118q-9 -30 -32 -30q-2 0 -6 0.5t-9 1.5l-119 30q-20 6 -20 28q0 10 8 34q97 252 407 252q96 0 176.5 -28.5t128.5 -76.5
q47 -48 67.5 -108t20.5 -144v-757q0 -14 -5.5 -20.5t-20.5 -6.5h-121q-22 0 -29.5 8t-7.5 25v106zM426 1350q-37 0 -63 -19.5t-53 -56.5q-12 -16 -26 -16q-13 0 -26 10l-37 22q-16 10 -16 29q0 16 12 37q19 32 45 60t56 48.5t63 32.5t66 12q53 0 85 -14t56.5 -31t47.5 -31
t59 -14q37 0 62.5 19.5t53.5 56.5q7 8 12.5 12t13.5 4q9 0 25 -10l37 -22q16 -10 16 -29q0 -18 -12 -37q-18 -32 -44 -60t-56 -48.5t-63 -32.5t-66 -12q-53 0 -85 14t-56.5 31t-48 31t-58.5 14z" />
    <glyph glyph-name="adieresis" unicode="&#xe4;" horiz-adv-x="1122" 
d="M770 549q-12 -8 -33 -14t-43 -9l-88 -12q-96 -13 -155.5 -34t-92 -48t-44 -58t-11.5 -65q0 -81 45.5 -125.5t130.5 -44.5q73 0 127.5 26t91 65.5t54.5 85.5t18 87v146zM774 139q-21 -32 -54.5 -61t-76 -51t-93 -34.5t-104.5 -12.5q-79 0 -144.5 20t-112.5 60t-73 99.5
t-26 137.5q0 67 24.5 123.5t79 101t140.5 76.5t209 51l129 21q55 9 76.5 31.5t21.5 56.5v8q0 104 -50 162.5t-161 58.5q-95 0 -147.5 -44t-75.5 -118q-9 -30 -32 -30q-2 0 -6 0.5t-9 1.5l-119 30q-20 6 -20 28q0 10 8 34q97 252 407 252q96 0 176.5 -28.5t128.5 -76.5
q47 -48 67.5 -108t20.5 -144v-757q0 -14 -5.5 -20.5t-20.5 -6.5h-121q-22 0 -29.5 8t-7.5 25v106zM789 1528q26 0 49 -10t40.5 -27.5t27.5 -40.5t10 -49t-10 -49.5t-27.5 -40.5t-40.5 -27t-49 -10t-49.5 10t-40.5 27t-27 40.5t-10 49.5t10 49t27 40.5t40.5 27.5t49.5 10z
M338 1528q26 0 49 -10t40.5 -27.5t27.5 -40.5t10 -49t-10 -49.5t-27.5 -40.5t-40.5 -27t-49 -10t-49.5 10t-40.5 27t-27 40.5t-10 49.5t10 49t27 40.5t40.5 27.5t49.5 10z" />
    <glyph glyph-name="aring" unicode="&#xe5;" horiz-adv-x="1122" 
d="M770 549q-12 -8 -33 -14t-43 -9l-88 -12q-96 -13 -155.5 -34t-92 -48t-44 -58t-11.5 -65q0 -81 45.5 -125.5t130.5 -44.5q73 0 127.5 26t91 65.5t54.5 85.5t18 87v146zM774 139q-21 -32 -54.5 -61t-76 -51t-93 -34.5t-104.5 -12.5q-79 0 -144.5 20t-112.5 60t-73 99.5
t-26 137.5q0 67 24.5 123.5t79 101t140.5 76.5t209 51l129 21q55 9 76.5 31.5t21.5 56.5v8q0 104 -50 162.5t-161 58.5q-95 0 -147.5 -44t-75.5 -118q-9 -30 -32 -30q-2 0 -6 0.5t-9 1.5l-119 30q-20 6 -20 28q0 10 8 34q97 252 407 252q96 0 176.5 -28.5t128.5 -76.5
q47 -48 67.5 -108t20.5 -144v-757q0 -14 -5.5 -20.5t-20.5 -6.5h-121q-22 0 -29.5 8t-7.5 25v106zM567 1528q-40 0 -65 -26t-25 -83q0 -59 27 -83.5t67 -24.5q42 0 66.5 26.5t24.5 81.5q0 59 -27 84t-68 25zM567 1208q-44 0 -84 11t-71 36t-49.5 65t-18.5 97q0 55 17.5 95.5
t48 66.5t72 38.5t89.5 12.5q44 0 84.5 -11t71.5 -36t49.5 -65.5t18.5 -98.5q0 -54 -17.5 -94t-48 -66t-72.5 -38.5t-90 -12.5z" />
    <glyph glyph-name="ae" unicode="&#xe6;" horiz-adv-x="1819" 
d="M1262 991q-71 0 -127 -27.5t-95.5 -79t-60.5 -127t-21 -171.5q0 -18 4.5 -27t21.5 -9q8 0 17 2t23 5q49 13 104.5 29.5t111 35t107 38t93.5 38.5q32 16 42.5 31t10.5 35q0 35 -14.5 75t-43.5 73.5t-72.5 56t-100.5 22.5zM770 549q-12 -8 -33 -14t-43 -9l-88 -12
q-96 -13 -155.5 -34t-92 -48t-44 -58t-11.5 -65q0 -81 45.5 -125.5t130.5 -44.5q73 0 127.5 26t91 65.5t54.5 85.5t18 87v146zM852 190q-26 -47 -66.5 -85.5t-92.5 -66.5t-114.5 -43t-132.5 -15q-79 0 -144.5 20t-112.5 60t-73 99.5t-26 137.5q0 67 24.5 123.5t79 101
t140.5 76.5t209 51l129 21q55 9 76.5 31.5t21.5 56.5v8q0 104 -50 162.5t-161 58.5q-95 0 -147.5 -44t-75.5 -118q-9 -30 -32 -30q-2 0 -6 0.5t-9 1.5l-119 30q-20 6 -20 28q0 10 8 34q97 252 407 252q121 0 208 -39t132 -111q69 72 160.5 110t206.5 38q73 0 134.5 -18
t111.5 -48t88 -69.5t64 -82t39 -85.5t13 -80q0 -23 -5.5 -41t-17.5 -33t-31.5 -28.5t-47.5 -28.5q-44 -24 -112.5 -53.5t-149 -59t-166.5 -57.5t-164 -49q-14 -5 -23 -13.5t-9 -22.5q0 -9 1 -10q12 -46 41 -86t70 -70t92 -47.5t107 -17.5q57 0 102 10.5t84 31t74 50.5t73 70
q14 14 30 14q15 0 24 -10l47 -49q8 -11 8 -21q0 -7 -2.5 -13t-5.5 -11q-170 -229 -467 -229q-136 0 -243 54t-179 154z" />
    <glyph glyph-name="ccedilla" unicode="&#xe7;" horiz-adv-x="1077" 
d="M596 -47q42 -30 68.5 -57t42.5 -51t22 -46t6 -41q0 -41 -17.5 -78t-51 -65t-82.5 -44.5t-111 -16.5q-48 0 -84 8.5t-63 23.5q-23 12 -23 28q0 10 10 26l31 47q8 11 14.5 15.5t14.5 4.5t17.5 -3.5t22 -7.5t28.5 -7.5t38 -3.5q45 0 60.5 18t15.5 41q0 13 -7.5 26.5t-18 26
t-23 23t-21.5 18.5q-17 14 -26 23.5t-9 20.5q0 9 7 22l45 80q-121 14 -207.5 72.5t-138.5 158.5q-39 72 -56.5 159t-17.5 181q0 97 16 180t52 152q66 123 171.5 188.5t258.5 65.5q156 0 259.5 -71.5t139.5 -213.5q2 -8 2 -10v-9q0 -12 -5 -20.5t-18 -11.5l-104 -27
q-11 -3 -21 -3q-11 0 -20 5t-12 17q-26 99 -84.5 143.5t-143.5 44.5q-60 0 -112.5 -25.5t-91 -78t-60.5 -131.5t-22 -187q0 -115 23.5 -195.5t64 -131.5t95.5 -74t118 -23q91 0 161.5 42.5t110.5 123.5q12 26 32 26q10 0 23 -7l58 -29q11 -5 19 -15t8 -23q0 -4 -5 -19
q-27 -59 -67 -105t-89.5 -78t-107 -50.5t-119.5 -22.5z" />
    <glyph glyph-name="egrave" unicode="&#xe8;" horiz-adv-x="1151" 
d="M594 991q-70 0 -126 -27.5t-95.5 -79t-60.5 -127t-21 -171.5q0 -18 4.5 -27t20.5 -9q7 0 16.5 2t23.5 5q49 13 104.5 29.5t111 35t107.5 38t93 38.5q32 16 42.5 31t10.5 35q0 35 -14.5 75t-43.5 73.5t-72 56t-101 22.5zM1073 211q-169 -229 -467 -229q-150 0 -265.5 66
t-184.5 190q-38 66 -56 147.5t-18 175.5q0 85 17 160.5t48 138.5q66 136 182.5 207.5t274.5 71.5q73 0 134.5 -18t111.5 -48t88.5 -69.5t64.5 -82t39 -85.5t13 -80q0 -23 -5.5 -41t-18 -33t-32 -28.5t-47.5 -28.5q-44 -24 -112.5 -53.5t-148.5 -59t-166 -57.5t-165 -49
q-31 -10 -31 -36q0 -8 1 -10q12 -46 40.5 -86t69.5 -70t92 -47.5t107 -17.5q57 0 102 10.5t84 31t74.5 50.5t73.5 70q14 14 30 14q14 0 23 -10l47 -49q8 -11 8 -21q0 -7 -2.5 -13t-5.5 -11zM350 1391q-47 30 -47 64q0 30 35 65l8 8q39 39 72 39q17 0 31.5 -9t29.5 -26
l195 -221q11 -11 11 -26q0 -12 -9 -21l-29 -29q-6 -6 -12 -10t-14 -4q-10 0 -17 6z" />
    <glyph glyph-name="eacute" unicode="&#xe9;" horiz-adv-x="1151" 
d="M594 991q-70 0 -126 -27.5t-95.5 -79t-60.5 -127t-21 -171.5q0 -18 4.5 -27t20.5 -9q7 0 16.5 2t23.5 5q49 13 104.5 29.5t111 35t107.5 38t93 38.5q32 16 42.5 31t10.5 35q0 35 -14.5 75t-43.5 73.5t-72 56t-101 22.5zM1073 211q-169 -229 -467 -229q-150 0 -265.5 66
t-184.5 190q-38 66 -56 147.5t-18 175.5q0 85 17 160.5t48 138.5q66 136 182.5 207.5t274.5 71.5q73 0 134.5 -18t111.5 -48t88.5 -69.5t64.5 -82t39 -85.5t13 -80q0 -23 -5.5 -41t-18 -33t-32 -28.5t-47.5 -28.5q-44 -24 -112.5 -53.5t-148.5 -59t-166 -57.5t-165 -49
q-31 -10 -31 -36q0 -8 1 -10q12 -46 40.5 -86t69.5 -70t92 -47.5t107 -17.5q57 0 102 10.5t84 31t74.5 50.5t73.5 70q14 14 30 14q14 0 23 -10l47 -49q8 -11 8 -21q0 -7 -2.5 -13t-5.5 -11zM557 1227q-8 -6 -17 -6q-8 0 -14 4t-12 10l-28 29q-10 9 -10 21q0 14 12 26
l194 221q30 35 61 35t72 -39l8 -8q35 -35 35 -65q0 -34 -47 -64z" />
    <glyph glyph-name="ecircumflex" unicode="&#xea;" horiz-adv-x="1151" 
d="M594 991q-70 0 -126 -27.5t-95.5 -79t-60.5 -127t-21 -171.5q0 -18 4.5 -27t20.5 -9q7 0 16.5 2t23.5 5q49 13 104.5 29.5t111 35t107.5 38t93 38.5q32 16 42.5 31t10.5 35q0 35 -14.5 75t-43.5 73.5t-72 56t-101 22.5zM1073 211q-169 -229 -467 -229q-150 0 -265.5 66
t-184.5 190q-38 66 -56 147.5t-18 175.5q0 85 17 160.5t48 138.5q66 136 182.5 207.5t274.5 71.5q73 0 134.5 -18t111.5 -48t88.5 -69.5t64.5 -82t39 -85.5t13 -80q0 -23 -5.5 -41t-18 -33t-32 -28.5t-47.5 -28.5q-44 -24 -112.5 -53.5t-148.5 -59t-166 -57.5t-165 -49
q-31 -10 -31 -36q0 -8 1 -10q12 -46 40.5 -86t69.5 -70t92 -47.5t107 -17.5q57 0 102 10.5t84 31t74.5 50.5t73.5 70q14 14 30 14q14 0 23 -10l47 -49q8 -11 8 -21q0 -7 -2.5 -13t-5.5 -11zM854 1313q11 -14 11 -27q0 -11 -9 -20l-29 -29q-12 -12 -28 -12q-8 0 -15 4
l-186 139l-188 -139q-8 -5 -16 -5q-14 0 -27 13l-29 29q-9 9 -9 21t11 26l195 221q28 34 62 34q32 0 62 -34z" />
    <glyph glyph-name="edieresis" unicode="&#xeb;" horiz-adv-x="1151" 
d="M594 991q-70 0 -126 -27.5t-95.5 -79t-60.5 -127t-21 -171.5q0 -18 4.5 -27t20.5 -9q7 0 16.5 2t23.5 5q49 13 104.5 29.5t111 35t107.5 38t93 38.5q32 16 42.5 31t10.5 35q0 35 -14.5 75t-43.5 73.5t-72 56t-101 22.5zM1073 211q-169 -229 -467 -229q-150 0 -265.5 66
t-184.5 190q-38 66 -56 147.5t-18 175.5q0 85 17 160.5t48 138.5q66 136 182.5 207.5t274.5 71.5q73 0 134.5 -18t111.5 -48t88.5 -69.5t64.5 -82t39 -85.5t13 -80q0 -23 -5.5 -41t-18 -33t-32 -28.5t-47.5 -28.5q-44 -24 -112.5 -53.5t-148.5 -59t-166 -57.5t-165 -49
q-31 -10 -31 -36q0 -8 1 -10q12 -46 40.5 -86t69.5 -70t92 -47.5t107 -17.5q57 0 102 10.5t84 31t74.5 50.5t73.5 70q14 14 30 14q14 0 23 -10l47 -49q8 -11 8 -21q0 -7 -2.5 -13t-5.5 -11zM828 1526q26 0 49 -10t40.5 -27.5t27.5 -40.5t10 -49t-10 -49.5t-27.5 -40.5
t-40.5 -27t-49 -10t-49.5 10t-40.5 27t-27 40.5t-10 49.5t10 49t27 40.5t40.5 27.5t49.5 10zM377 1526q26 0 49 -10t40.5 -27.5t27.5 -40.5t10 -49t-10 -49.5t-27.5 -40.5t-40.5 -27t-49 -10t-49.5 10t-40.5 27t-27 40.5t-10 49.5t10 49t27 40.5t40.5 27.5t49.5 10z" />
    <glyph glyph-name="igrave" unicode="&#xec;" horiz-adv-x="516" 
d="M184 0q-20 0 -20 25v1071q0 12 5.5 18t20.5 6h136q15 0 20.5 -5t5.5 -19v-1071q0 -13 -5 -19t-19 -6h-144zM32 1391q-47 30 -47 64q0 30 35 65l8 8q39 39 72 39q17 0 31.5 -9t29.5 -26l195 -221q11 -11 11 -26q0 -12 -9 -21l-29 -29q-6 -6 -12 -10t-14 -4q-10 0 -17 6z
" />
    <glyph glyph-name="iacute" unicode="&#xed;" horiz-adv-x="516" 
d="M184 0q-20 0 -20 25v1071q0 12 5.5 18t20.5 6h136q15 0 20.5 -5t5.5 -19v-1071q0 -13 -5 -19t-19 -6h-144zM185 1227q-8 -6 -17 -6q-8 0 -14 4t-12 10l-28 29q-10 9 -10 21q0 14 12 26l194 221q30 35 61 35t72 -39l8 -8q35 -35 35 -65q0 -34 -47 -64z" />
    <glyph glyph-name="icircumflex" unicode="&#xee;" horiz-adv-x="516" 
d="M184 0q-20 0 -20 25v1071q0 12 5.5 18t20.5 6h136q15 0 20.5 -5t5.5 -19v-1071q0 -13 -5 -19t-19 -6h-144zM513 1313q11 -14 11 -27q0 -11 -9 -20l-29 -29q-12 -12 -28 -12q-8 0 -15 4l-186 139l-188 -139q-8 -5 -16 -5q-14 0 -27 13l-29 29q-9 9 -9 21t11 26l195 221
q28 34 62 34q32 0 62 -34z" />
    <glyph glyph-name="idieresis" unicode="&#xef;" horiz-adv-x="516" 
d="M184 0q-20 0 -20 25v1071q0 12 5.5 18t20.5 6h136q15 0 20.5 -5t5.5 -19v-1071q0 -13 -5 -19t-19 -6h-144zM487 1526q26 0 49 -10t40.5 -27.5t27.5 -40.5t10 -49t-10 -49.5t-27.5 -40.5t-40.5 -27t-49 -10t-49.5 10t-40.5 27t-27 40.5t-10 49.5t10 49t27 40.5t40.5 27.5
t49.5 10zM36 1526q26 0 49 -10t40.5 -27.5t27.5 -40.5t10 -49t-10 -49.5t-27.5 -40.5t-40.5 -27t-49 -10t-49.5 10t-40.5 27t-27 40.5t-10 49.5t10 49t27 40.5t40.5 27.5t49.5 10z" />
    <glyph glyph-name="eth" unicode="&#xf0;" horiz-adv-x="1210" 
d="M594 987q-60 0 -108 -18.5t-87 -57.5q-51 -51 -78.5 -140.5t-27.5 -207.5q0 -124 26.5 -210.5t77.5 -137.5q42 -40 88 -60t115 -20q57 0 106 19.5t87 56.5q51 51 78.5 139t27.5 209q0 244 -104 348q-80 80 -201 80zM438 1212q-8 -3 -15 -3q-18 0 -32 20l-43 65
q-5 8 -5 17q0 20 22 30l161 84q-65 52 -135 93q-9 5 -15 12.5t-6 15.5q0 12 17 23l98 53q19 8 31 8q15 0 27 -6q82 -43 157 -106l207 106q9 3 16 3q21 0 31 -19l41 -68q5 -8 5 -16q0 -19 -19 -29l-168 -88q70 -79 125 -173t93 -199t58.5 -220t20.5 -235q0 -67 -9 -132.5
t-27 -124.5t-45 -109t-64 -87q-76 -75 -167 -111t-206 -36q-118 0 -208.5 36.5t-156.5 102.5q-32 32 -59 72.5t-46 93.5t-29.5 120t-10.5 152q0 154 42 263.5t118 185.5q66 66 149.5 100.5t192.5 34.5q57 0 114.5 -15t108.5 -53q-28 66 -70 127.5t-96 118.5z" />
    <glyph glyph-name="ntilde" unicode="&#xf1;" horiz-adv-x="1174" 
d="M1010 35q0 -16 -10 -25.5t-25 -9.5h-119q-15 0 -25 9.5t-10 25.5v725q0 51 -8.5 92t-28.5 70t-53.5 45t-83.5 16q-58 0 -111.5 -24t-94 -64t-65 -92.5t-24.5 -108.5v-659q0 -16 -9.5 -25.5t-25.5 -9.5h-118q-16 0 -25.5 9.5t-9.5 25.5v1050q0 16 9.5 25.5t25.5 9.5h114
q17 0 27 -9.5t10 -25.5v-106q28 36 65 66t81 51t93.5 33t102.5 12q59 0 106.5 -14t84 -38t62 -56.5t40.5 -69.5q25 -65 25 -189v-739zM438 1350q-37 0 -63 -19.5t-53 -56.5q-12 -16 -26 -16q-13 0 -26 10l-37 22q-16 10 -16 29q0 16 12 37q19 32 45 60t56 48.5t63 32.5
t66 12q53 0 85 -14t56.5 -31t47.5 -31t59 -14q37 0 62.5 19.5t53.5 56.5q7 8 12.5 12t13.5 4q9 0 25 -10l37 -22q16 -10 16 -29q0 -18 -12 -37q-18 -32 -44 -60t-56 -48.5t-63 -32.5t-66 -12q-53 0 -85 14t-56.5 31t-48 31t-58.5 14z" />
    <glyph glyph-name="ograve" unicode="&#xf2;" horiz-adv-x="1192" 
d="M594 987q-60 0 -108 -18.5t-87 -57.5q-51 -51 -78.5 -140.5t-27.5 -207.5q0 -124 26.5 -210.5t77.5 -137.5q42 -40 88 -60t115 -20q57 0 106 19.5t87 56.5q51 51 78.5 139t27.5 209q0 244 -104 348q-80 80 -201 80zM592 -20q-118 0 -208.5 36.5t-156.5 102.5
q-32 32 -59 72.5t-46 93.5t-29.5 120t-10.5 152q0 153 38 259t109 177q75 75 164.5 111.5t206.5 36.5q120 0 208 -36.5t155 -103.5q39 -39 67 -84t45.5 -98.5t26 -117t8.5 -138.5q0 -291 -145 -436q-76 -75 -167 -111t-206 -36zM391 1391q-47 30 -47 64q0 30 35 65l8 8
q39 39 72 39q17 0 31.5 -9t29.5 -26l195 -221q11 -11 11 -26q0 -12 -9 -21l-29 -29q-6 -6 -12 -10t-14 -4q-10 0 -17 6z" />
    <glyph glyph-name="oacute" unicode="&#xf3;" horiz-adv-x="1192" 
d="M594 987q-60 0 -108 -18.5t-87 -57.5q-51 -51 -78.5 -140.5t-27.5 -207.5q0 -124 26.5 -210.5t77.5 -137.5q42 -40 88 -60t115 -20q57 0 106 19.5t87 56.5q51 51 78.5 139t27.5 209q0 244 -104 348q-80 80 -201 80zM592 -20q-118 0 -208.5 36.5t-156.5 102.5
q-32 32 -59 72.5t-46 93.5t-29.5 120t-10.5 152q0 153 38 259t109 177q75 75 164.5 111.5t206.5 36.5q120 0 208 -36.5t155 -103.5q39 -39 67 -84t45.5 -98.5t26 -117t8.5 -138.5q0 -291 -145 -436q-76 -75 -167 -111t-206 -36zM545 1227q-8 -6 -17 -6q-8 0 -14 4t-12 10
l-28 29q-10 9 -10 21q0 14 12 26l194 221q30 35 61 35t72 -39l8 -8q35 -35 35 -65q0 -34 -47 -64z" />
    <glyph glyph-name="ocircumflex" unicode="&#xf4;" horiz-adv-x="1192" 
d="M594 987q-60 0 -108 -18.5t-87 -57.5q-51 -51 -78.5 -140.5t-27.5 -207.5q0 -124 26.5 -210.5t77.5 -137.5q42 -40 88 -60t115 -20q57 0 106 19.5t87 56.5q51 51 78.5 139t27.5 209q0 244 -104 348q-80 80 -201 80zM592 -20q-118 0 -208.5 36.5t-156.5 102.5
q-32 32 -59 72.5t-46 93.5t-29.5 120t-10.5 152q0 153 38 259t109 177q75 75 164.5 111.5t206.5 36.5q120 0 208 -36.5t155 -103.5q39 -39 67 -84t45.5 -98.5t26 -117t8.5 -138.5q0 -291 -145 -436q-76 -75 -167 -111t-206 -36zM858 1313q11 -14 11 -27q0 -11 -9 -20
l-29 -29q-12 -12 -28 -12q-8 0 -15 4l-186 139l-188 -139q-8 -5 -16 -5q-14 0 -27 13l-29 29q-9 9 -9 21t11 26l195 221q28 34 62 34q32 0 62 -34z" />
    <glyph glyph-name="otilde" unicode="&#xf5;" horiz-adv-x="1192" 
d="M594 987q-60 0 -108 -18.5t-87 -57.5q-51 -51 -78.5 -140.5t-27.5 -207.5q0 -124 26.5 -210.5t77.5 -137.5q42 -40 88 -60t115 -20q57 0 106 19.5t87 56.5q51 51 78.5 139t27.5 209q0 244 -104 348q-80 80 -201 80zM592 -20q-118 0 -208.5 36.5t-156.5 102.5
q-32 32 -59 72.5t-46 93.5t-29.5 120t-10.5 152q0 153 38 259t109 177q75 75 164.5 111.5t206.5 36.5q120 0 208 -36.5t155 -103.5q39 -39 67 -84t45.5 -98.5t26 -117t8.5 -138.5q0 -291 -145 -436q-76 -75 -167 -111t-206 -36zM456 1350q-37 0 -63 -19.5t-53 -56.5
q-12 -16 -26 -16q-13 0 -26 10l-37 22q-16 10 -16 29q0 16 12 37q19 32 45 60t56 48.5t63 32.5t66 12q53 0 85 -14t56.5 -31t47.5 -31t59 -14q37 0 62.5 19.5t53.5 56.5q7 8 12.5 12t13.5 4q9 0 25 -10l37 -22q16 -10 16 -29q0 -18 -12 -37q-18 -32 -44 -60t-56 -48.5
t-63 -32.5t-66 -12q-53 0 -85 14t-56.5 31t-48 31t-58.5 14z" />
    <glyph glyph-name="odieresis" unicode="&#xf6;" horiz-adv-x="1192" 
d="M594 987q-60 0 -108 -18.5t-87 -57.5q-51 -51 -78.5 -140.5t-27.5 -207.5q0 -124 26.5 -210.5t77.5 -137.5q42 -40 88 -60t115 -20q57 0 106 19.5t87 56.5q51 51 78.5 139t27.5 209q0 244 -104 348q-80 80 -201 80zM592 -20q-118 0 -208.5 36.5t-156.5 102.5
q-32 32 -59 72.5t-46 93.5t-29.5 120t-10.5 152q0 153 38 259t109 177q75 75 164.5 111.5t206.5 36.5q120 0 208 -36.5t155 -103.5q39 -39 67 -84t45.5 -98.5t26 -117t8.5 -138.5q0 -291 -145 -436q-76 -75 -167 -111t-206 -36zM820 1526q26 0 49 -10t40.5 -27.5t27.5 -40.5
t10 -49t-10 -49.5t-27.5 -40.5t-40.5 -27t-49 -10t-49.5 10t-40.5 27t-27 40.5t-10 49.5t10 49t27 40.5t40.5 27.5t49.5 10zM369 1526q26 0 49 -10t40.5 -27.5t27.5 -40.5t10 -49t-10 -49.5t-27.5 -40.5t-40.5 -27t-49 -10t-49.5 10t-40.5 27t-27 40.5t-10 49.5t10 49
t27 40.5t40.5 27.5t49.5 10z" />
    <glyph glyph-name="divide" unicode="&#xf7;" 
d="M592 1120q31 0 59 -12t48 -32t32 -48t12 -59q0 -32 -12 -59.5t-32 -48t-48 -32.5t-59 -12q-32 0 -59.5 12t-48 32.5t-32.5 48t-12 59.5q0 31 12 59t32.5 48t48 32t59.5 12zM592 406q31 0 59 -12t48 -32.5t32 -48.5t12 -59q0 -32 -12 -59.5t-32 -48t-48 -32.5t-59 -12
q-32 0 -59.5 12t-48 32.5t-32.5 48t-12 59.5q0 31 12 59t32.5 48.5t48 32.5t59.5 12zM104 553q-15 0 -24.5 9.5t-9.5 25.5v80q0 15 9.5 24.5t24.5 9.5h977q16 0 25.5 -9.5t9.5 -24.5v-80q0 -16 -9.5 -25.5t-25.5 -9.5h-977z" />
    <glyph glyph-name="oslash" unicode="&#xf8;" horiz-adv-x="1192" 
d="M469 162q28 -14 59.5 -20.5t71.5 -6.5q57 0 106 19.5t87 56.5q51 51 78.5 139t27.5 209q0 187 -61 293zM733 954q-31 17 -66 25t-73 8q-60 0 -108 -18.5t-87 -57.5q-51 -51 -78.5 -140.5t-27.5 -207.5q0 -199 69 -305zM268 82q-100 78 -143 195t-43 280q0 153 38 259
t109 177q75 75 164.5 111.5t206.5 36.5q63 0 115 -10.5t98 -28.5l105 196q7 18 28 18q6 0 19 -5l61 -31q20 -9 20 -29q0 -10 -4 -14l-110 -207q51 -41 85 -91.5t54.5 -109.5t29.5 -126t9 -140q0 -291 -145 -436q-76 -75 -167 -111t-206 -36q-114 0 -201 34l-117 -217
q-8 -17 -28 -17q-4 0 -17 5l-63 31q-20 9 -20 28q0 8 4 15z" />
    <glyph glyph-name="ugrave" unicode="&#xf9;" horiz-adv-x="1174" 
d="M164 1085q0 16 9.5 25.5t25.5 9.5h118q16 0 25.5 -9.5t9.5 -25.5v-725q0 -51 8.5 -92t28.5 -70t53.5 -45t83.5 -16q58 0 111.5 24t94.5 64t65 92.5t24 108.5v659q0 16 10 25.5t25 9.5h119q15 0 25 -9.5t10 -25.5v-1050q0 -16 -10 -25.5t-25 -9.5h-115q-17 0 -27 9.5
t-10 25.5v106q-27 -36 -64 -65.5t-81 -51t-94 -33t-103 -11.5q-58 0 -105.5 13.5t-84 37.5t-62.5 56.5t-41 70.5q-12 32 -18 80t-6 108v739zM334 1391q-47 30 -47 64q0 30 35 65l8 8q39 39 72 39q17 0 31.5 -9t29.5 -26l195 -221q11 -11 11 -26q0 -12 -9 -21l-29 -29
q-6 -6 -12 -10t-14 -4q-10 0 -17 6z" />
    <glyph glyph-name="uacute" unicode="&#xfa;" horiz-adv-x="1174" 
d="M164 1085q0 16 9.5 25.5t25.5 9.5h118q16 0 25.5 -9.5t9.5 -25.5v-725q0 -51 8.5 -92t28.5 -70t53.5 -45t83.5 -16q58 0 111.5 24t94.5 64t65 92.5t24 108.5v659q0 16 10 25.5t25 9.5h119q15 0 25 -9.5t10 -25.5v-1050q0 -16 -10 -25.5t-25 -9.5h-115q-17 0 -27 9.5
t-10 25.5v106q-27 -36 -64 -65.5t-81 -51t-94 -33t-103 -11.5q-58 0 -105.5 13.5t-84 37.5t-62.5 56.5t-41 70.5q-12 32 -18 80t-6 108v739zM571 1227q-8 -6 -17 -6q-8 0 -14 4t-12 10l-28 29q-10 9 -10 21q0 14 12 26l194 221q30 35 61 35t72 -39l8 -8q35 -35 35 -65
q0 -34 -47 -64z" />
    <glyph glyph-name="ucircumflex" unicode="&#xfb;" horiz-adv-x="1174" 
d="M164 1085q0 16 9.5 25.5t25.5 9.5h118q16 0 25.5 -9.5t9.5 -25.5v-725q0 -51 8.5 -92t28.5 -70t53.5 -45t83.5 -16q58 0 111.5 24t94.5 64t65 92.5t24 108.5v659q0 16 10 25.5t25 9.5h119q15 0 25 -9.5t10 -25.5v-1050q0 -16 -10 -25.5t-25 -9.5h-115q-17 0 -27 9.5
t-10 25.5v106q-27 -36 -64 -65.5t-81 -51t-94 -33t-103 -11.5q-58 0 -105.5 13.5t-84 37.5t-62.5 56.5t-41 70.5q-12 32 -18 80t-6 108v739zM840 1313q11 -14 11 -27q0 -11 -9 -20l-29 -29q-12 -12 -28 -12q-8 0 -15 4l-186 139l-188 -139q-8 -5 -16 -5q-14 0 -27 13l-29 29
q-9 9 -9 21t11 26l195 221q28 34 62 34q32 0 62 -34z" />
    <glyph glyph-name="udieresis" unicode="&#xfc;" horiz-adv-x="1174" 
d="M164 1085q0 16 9.5 25.5t25.5 9.5h118q16 0 25.5 -9.5t9.5 -25.5v-725q0 -51 8.5 -92t28.5 -70t53.5 -45t83.5 -16q58 0 111.5 24t94.5 64t65 92.5t24 108.5v659q0 16 10 25.5t25 9.5h119q15 0 25 -9.5t10 -25.5v-1050q0 -16 -10 -25.5t-25 -9.5h-115q-17 0 -27 9.5
t-10 25.5v106q-27 -36 -64 -65.5t-81 -51t-94 -33t-103 -11.5q-58 0 -105.5 13.5t-84 37.5t-62.5 56.5t-41 70.5q-12 32 -18 80t-6 108v739zM805 1526q26 0 49 -10t40.5 -27.5t27.5 -40.5t10 -49t-10 -49.5t-27.5 -40.5t-40.5 -27t-49 -10t-49.5 10t-40.5 27t-27 40.5
t-10 49.5t10 49t27 40.5t40.5 27.5t49.5 10zM354 1526q26 0 49 -10t40.5 -27.5t27.5 -40.5t10 -49t-10 -49.5t-27.5 -40.5t-40.5 -27t-49 -10t-49.5 10t-40.5 27t-27 40.5t-10 49.5t10 49t27 40.5t40.5 27.5t49.5 10z" />
    <glyph glyph-name="yacute" unicode="&#xfd;" horiz-adv-x="1057" 
d="M33 1077q-3 9 -3 17q0 11 6.5 18.5t20.5 7.5h156q22 0 31 -22l309 -817l6 -15l4 15l262 817q5 14 15 18t22 4h133q11 0 18.5 -7t7.5 -19q0 -8 -3 -15l-453 -1269q-23 -64 -50 -112.5t-60.5 -81t-76.5 -49t-97 -16.5q-63 0 -117.5 23t-89.5 68q-11 14 -11 25q0 13 15 28
l47 51q11 11 25 11q12 0 26 -11q47 -41 103 -41q38 0 63.5 27t48.5 90l72 196zM553 1227q-8 -6 -17 -6q-8 0 -14 4t-12 10l-28 29q-10 9 -10 21q0 14 12 26l194 221q30 35 61 35t72 -39l8 -8q35 -35 35 -65q0 -34 -47 -64z" />
    <glyph glyph-name="thorn" unicode="&#xfe;" horiz-adv-x="1210" 
d="M643 981q-62 0 -115.5 -25.5t-93 -77.5t-62 -131t-22.5 -186q0 -108 22.5 -187.5t61.5 -132t91.5 -78.5t113.5 -26q148 0 217.5 108.5t69.5 309.5q0 209 -69 317.5t-214 108.5zM164 1589q0 25 26 25h136q14 0 20 -5.5t6 -19.5v-606q51 72 131 115t189 43q106 0 182 -34
t133 -91q66 -66 103.5 -181.5t37.5 -275.5q0 -148 -36.5 -262t-114.5 -193q-60 -59 -137.5 -91.5t-182.5 -32.5q-50 0 -96.5 11t-86.5 30.5t-71 46.5t-51 59v-522q0 -16 -9.5 -25.5t-25.5 -9.5h-118q-16 0 -25.5 9.5t-9.5 25.5v1984z" />
    <glyph glyph-name="ydieresis" unicode="&#xff;" horiz-adv-x="1057" 
d="M33 1077q-3 9 -3 17q0 11 6.5 18.5t20.5 7.5h156q22 0 31 -22l309 -817l6 -15l4 15l262 817q5 14 15 18t22 4h133q11 0 18.5 -7t7.5 -19q0 -8 -3 -15l-453 -1269q-23 -64 -50 -112.5t-60.5 -81t-76.5 -49t-97 -16.5q-63 0 -117.5 23t-89.5 68q-11 14 -11 25q0 13 15 28
l47 51q11 11 25 11q12 0 26 -11q47 -41 103 -41q38 0 63.5 27t48.5 90l72 196zM760 1526q26 0 49 -10t40.5 -27.5t27.5 -40.5t10 -49t-10 -49.5t-27.5 -40.5t-40.5 -27t-49 -10t-49.5 10t-40.5 27t-27 40.5t-10 49.5t10 49t27 40.5t40.5 27.5t49.5 10zM309 1526q26 0 49 -10
t40.5 -27.5t27.5 -40.5t10 -49t-10 -49.5t-27.5 -40.5t-40.5 -27t-49 -10t-49.5 10t-40.5 27t-27 40.5t-10 49.5t10 49t27 40.5t40.5 27.5t49.5 10z" />
    <glyph glyph-name="dotlessi" unicode="&#x131;" horiz-adv-x="516" 
d="M184 0q-20 0 -20 25v1071q0 12 5.5 18t20.5 6h136q15 0 20.5 -5t5.5 -19v-1071q0 -13 -5 -19t-19 -6h-144z" />
    <glyph glyph-name="Lslash" unicode="&#x141;" horiz-adv-x="1014" 
d="M135 676q-10 -7 -20 -7q-14 0 -23 17l-41 72q-5 13 -5 17q0 8 4.5 15t10.5 11l150 98v600q0 14 9.5 23.5t23.5 9.5h145q14 0 23.5 -9.5t9.5 -23.5v-461l223 148q10 7 19 7q15 0 26 -17l41 -70q7 -13 7 -22q0 -8 -4 -12.5t-9 -8.5l-303 -201v-667q0 -23 22 -23h508
q14 0 23.5 -9.5t9.5 -23.5v-106q0 -14 -9.5 -23.5t-23.5 -9.5h-692q-26 0 -37.5 12.5t-11.5 34.5v678z" />
    <glyph glyph-name="lslash" unicode="&#x142;" horiz-adv-x="569" 
d="M385 33q0 -16 -9 -24.5t-22 -8.5h-127q-17 0 -23.5 10t-6.5 23v719l-62 -41q-7 -7 -18 -7q-14 0 -25 17l-41 74q-5 13 -5 16q0 8 4.5 15t10.5 12l136 90v661q0 14 6 19.5t18 5.5h141q10 0 16.5 -7t6.5 -18v-536l61 41q10 6 19 6q15 0 24 -17l41 -73q5 -13 5 -17
q0 -8 -4.5 -15t-10.5 -11l-135 -90v-844z" />
    <glyph glyph-name="OE" unicode="&#x152;" horiz-adv-x="1991" 
d="M1036 1225q-31 48 -68 80t-79 51.5t-87 28t-91 8.5q-153 0 -246 -95q-39 -39 -68.5 -94.5t-49 -123t-29 -146.5t-9.5 -166q0 -188 38.5 -324t117.5 -215q49 -49 112.5 -70.5t141.5 -21.5q55 0 103 13.5t88.5 36.5t72 54.5t53.5 67.5v916zM1036 70q-72 -51 -154 -70.5
t-173 -19.5q-121 0 -229 33.5t-189 115.5q-45 45 -81.5 103.5t-62.5 135t-40.5 173.5t-14.5 219q0 124 15 222t41.5 175.5t63.5 135.5t81 102q83 83 192 118t234 35q87 0 167.5 -18t149.5 -68v25q0 22 10.5 33.5t34.5 11.5h756q35 0 35 -37v-86q0 -17 -8.5 -27t-28.5 -10
h-561q-27 0 -27 -20v-402q0 -17 5 -23.5t24 -6.5h453q14 0 23 -9.5t9 -23.5v-90q0 -14 -9 -23.5t-23 -9.5h-449q-20 0 -26.5 -6.5t-6.5 -22.5v-549q0 -26 25 -26h590q14 0 23 -9.5t9 -23.5v-94q0 -14 -9 -23.5t-23 -9.5h-793q-17 0 -25 10.5t-8 26.5v33z" />
    <glyph glyph-name="oe" unicode="&#x153;" horiz-adv-x="1968" 
d="M1411 991q-70 0 -126 -27.5t-95.5 -79t-60.5 -127t-21 -171.5q0 -18 4 -27t21 -9q8 0 17.5 2t23.5 5q49 13 104.5 29.5t111 35t107 38t92.5 38.5q32 16 42.5 31t10.5 35q0 35 -14.5 75t-43.5 73.5t-72 56t-101 22.5zM594 987q-60 0 -108 -18.5t-87 -57.5
q-51 -51 -78.5 -140.5t-27.5 -207.5q0 -124 26.5 -210.5t77.5 -137.5q42 -40 88 -60t115 -20q57 0 106 19.5t87 56.5q51 51 78.5 139t27.5 209q0 244 -104 348q-80 80 -201 80zM1010 190q-27 -40 -64.5 -77.5t-88.5 -67t-116.5 -47.5t-148.5 -18q-118 0 -208.5 36.5
t-156.5 102.5q-32 32 -59 72.5t-46 93.5t-29.5 120t-10.5 152q0 153 38 259t109 177q75 75 164.5 111.5t206.5 36.5q81 0 144.5 -16.5t114 -45t88.5 -66.5t67 -81q69 103 172 155t235 52q73 0 134.5 -18t111.5 -48t88.5 -69.5t64.5 -82t39 -85.5t13 -80q0 -23 -5.5 -41
t-18 -33t-32 -28.5t-47.5 -28.5q-44 -24 -112 -53.5t-148.5 -59t-166 -57.5t-164.5 -49q-14 -5 -23 -13.5t-9 -22.5q0 -8 1 -10q12 -46 41 -86t70 -70t91.5 -47.5t106.5 -17.5q57 0 102 10.5t84 31t74.5 50.5t73.5 70q14 14 30 14q14 0 23 -10l47 -49q8 -8 8 -20
q0 -7 -2.5 -13.5t-5.5 -11.5q-169 -229 -467 -229q-132 0 -236.5 52.5t-176.5 155.5z" />
    <glyph glyph-name="Scaron" unicode="&#x160;" horiz-adv-x="1110" 
d="M498 -20q-90 0 -164.5 18.5t-134 52.5t-103 81.5t-71.5 105.5q-8 21 -8 27q0 18 26 30l125 57q9 3 16 3q18 0 29 -23q35 -82 109 -131t188 -49q67 0 119 20.5t87.5 56t53.5 82t18 99.5q0 36 -8 72.5t-31 72t-64 69t-107 62.5l-132 57q-90 39 -154.5 82t-106 94t-61.5 111
t-20 133q0 79 26 147.5t83 125.5q57 55 135.5 85.5t190.5 30.5q64 0 120.5 -12t105 -38t87.5 -68t68 -103q9 -21 9 -33q0 -14 -8 -20.5t-20 -11.5l-106 -47q-8 -3 -14 -3q-9 0 -17.5 6.5t-13.5 20.5q-29 75 -83 109t-139 34q-52 0 -91.5 -17t-66 -45t-40 -64.5t-13.5 -75.5
q0 -45 12 -80t38 -64t68 -54.5t102 -51.5l131 -57q94 -41 158.5 -91.5t105 -107.5t58.5 -120t18 -128q0 -91 -32 -171.5t-95 -143.5q-69 -69 -165.5 -102t-217.5 -33zM252 1835q-8 5 -13.5 13.5t-5.5 17.5q0 10 4 14l23 35q5 8 10.5 14.5t15.5 6.5q5 0 13 -3l245 -102
l246 102q7 3 13 3q10 0 15.5 -6.5t10.5 -14.5l23 -35q4 -4 4 -14q0 -9 -5.5 -17.5t-13.5 -13.5l-239 -172q-32 -20 -54 -20q-24 0 -53 20z" />
    <glyph glyph-name="scaron" unicode="&#x161;" horiz-adv-x="911" 
d="M838 324q0 -75 -30.5 -137.5t-85.5 -107.5t-131 -70t-167 -25q-69 0 -130 13.5t-110.5 39t-85 61t-53.5 80.5q-5 17 -5 22q0 18 23 29l99 39q15 5 18 5q18 0 31 -25q63 -113 221 -113q45 0 82.5 13t64.5 35t41.5 51t14.5 61t-10.5 59t-34.5 50.5t-64 45.5t-98 44l-104 38
q-56 21 -99 48t-72.5 62.5t-45 81.5t-15.5 105q0 66 25 123t71.5 99t112.5 66t148 24q65 0 119 -15.5t95 -42.5t68 -64t39 -79l2 -10q0 -7 -4.5 -13.5t-15.5 -11.5l-101 -39q-9 -3 -15 -3q-21 0 -28 24q-20 51 -59 77.5t-105 26.5q-40 0 -70 -11t-50.5 -30.5t-30.5 -46
t-10 -57.5q0 -25 7 -46.5t24 -40.5t45.5 -36t72.5 -33l105 -39q153 -55 227 -135t74 -192zM201 1479q-11 14 -11 26q0 10 9 21l29 28q13 13 28 13q8 0 15 -4l186 -140l188 140q8 5 16 5q13 0 27 -14l29 -28q9 -9 9 -21t-11 -26l-194 -222q-28 -34 -62 -34q-33 0 -63 34z" />
    <glyph glyph-name="Ydieresis" unicode="&#x178;" horiz-adv-x="1122" 
d="M674 33q0 -14 -9.5 -23.5t-23.5 -9.5h-145q-14 0 -23.5 9.5t-9.5 23.5v606l-436 838q-8 18 -8 27q0 14 9.5 21t24.5 7h168q13 0 21 -7t14 -20l334 -684l323 680q7 16 15.5 23.5t25.5 7.5h136q13 0 20.5 -7.5t7.5 -18.5q0 -9 -6 -21l-438 -846v-606zM817 1903q26 0 49 -10
t40.5 -27.5t27.5 -40.5t10 -49t-10 -49.5t-27.5 -40.5t-40.5 -27t-49 -10t-49.5 10t-40.5 27t-27 40.5t-10 49.5t10 49t27 40.5t40.5 27.5t49.5 10zM346 1903q26 0 49 -10t40.5 -27.5t27.5 -40.5t10 -49t-10 -49.5t-27.5 -40.5t-40.5 -27t-49 -10t-49.5 10t-40.5 27
t-27 40.5t-10 49.5t10 49t27 40.5t40.5 27.5t49.5 10z" />
    <glyph glyph-name="Zcaron" unicode="&#x17d;" horiz-adv-x="1069" 
d="M297 166h653q17 0 26 -8.5t9 -28.5v-100q0 -11 -8.5 -20t-24.5 -9h-839q-30 0 -33 27l-14 108q-1 5 -1.5 9t-0.5 6q0 13 4 20l659 1200h-612q-14 0 -24.5 8.5t-10.5 22.5v102q0 10 7.5 19.5t23.5 9.5h837q26 0 29 -25l9 -66q0 -17 -7 -30zM246 1835q-8 5 -13.5 13.5
t-5.5 17.5q0 10 4 14l23 35q5 8 10.5 14.5t15.5 6.5q5 0 13 -3l245 -102l246 102q7 3 13 3q10 0 15.5 -6.5t10.5 -14.5l23 -35q4 -4 4 -14q0 -9 -5.5 -17.5t-13.5 -13.5l-239 -172q-32 -20 -54 -20q-24 0 -53 20z" />
    <glyph glyph-name="zcaron" unicode="&#x17e;" horiz-adv-x="1008" 
d="M299 150h584q15 0 25 -10t10 -25v-80q0 -16 -10 -25.5t-25 -9.5h-772q-19 0 -26 10t-9 21l-6 53q-1 2 -1 12q0 17 7 27l600 850h-537q-15 0 -25 9.5t-10 25.5v77q0 16 10 25.5t25 9.5h723q16 0 24.5 -8t10.5 -20l8 -56q0 -3 0.5 -5.5t0.5 -4.5q0 -17 -7 -27zM250 1479
q-11 14 -11 26q0 10 9 21l29 28q13 13 28 13q8 0 15 -4l186 -140l188 140q8 5 16 5q13 0 27 -14l29 -28q9 -9 9 -21t-11 -26l-194 -222q-28 -34 -62 -34q-33 0 -63 34z" />
    <glyph glyph-name="florin" unicode="&#x192;" 
d="M467 55q-14 -84 -39.5 -151t-67.5 -114t-103 -72t-146 -25q-49 0 -92 11t-78.5 29.5t-61.5 43.5t-41 53q-9 18 -9 30q0 18 17 27l84 45q12 6 21 6q17 0 29 -22q17 -29 50 -50.5t76 -21.5q37 0 65.5 12.5t49.5 39.5t35.5 69.5t24.5 102.5l110 665q0 3 -0.5 6.5t-5.5 3.5
h-205q-15 0 -25 10t-10 25v78q0 16 10 25.5t25 9.5h228q6 0 8 2.5t4 7.5l47 285q14 84 39.5 151t67.5 114t103 72t146 25q48 0 91.5 -11t79 -30t61.5 -43.5t41 -52.5q9 -17 9 -30q0 -18 -18 -27l-83 -45q-12 -6 -21 -6q-17 0 -29 22q-17 29 -49.5 50.5t-77.5 21.5
q-69 0 -112.5 -52.5t-59.5 -152.5l-47 -289q-1 -1 -1 -6q0 -6 7 -6h279q15 0 25 -9.5t10 -25.5v-78q0 -15 -9 -25t-26 -10h-303q-7 0 -10 -10z" />
    <glyph glyph-name="circumflex" unicode="&#x2c6;" horiz-adv-x="819" 
d="M557 1313q11 -14 11 -27q0 -11 -9 -20l-29 -29q-12 -12 -28 -12q-8 0 -15 4l-186 139l-188 -139q-8 -5 -16 -5q-14 0 -27 13l-29 29q-9 9 -9 21t11 26l195 221q28 34 62 34q32 0 62 -34z" />
    <glyph glyph-name="caron" unicode="&#x2c7;" horiz-adv-x="819" 
d="M45 1479q-11 14 -11 26q0 10 9 21l29 28q13 13 28 13q8 0 15 -4l186 -140l188 140q8 5 16 5q13 0 27 -14l29 -28q9 -9 9 -21t-11 -26l-194 -222q-28 -34 -62 -34q-33 0 -63 34z" />
    <glyph glyph-name="breve" unicode="&#x2d8;" horiz-adv-x="731" 
d="M367 1223q-65 0 -119.5 20t-94.5 54t-62.5 78.5t-22.5 94.5q0 11 6.5 17t15.5 6h78q9 0 13 -6.5t9 -16.5q23 -49 67 -78.5t110 -29.5t109.5 29.5t66.5 78.5q5 10 9 16.5t13 6.5h78q9 0 16 -6t7 -17q0 -48 -21.5 -93t-61 -79t-94.5 -54.5t-122 -20.5z" />
    <glyph glyph-name="dotaccent" unicode="&#x2d9;" horiz-adv-x="600" 
d="M295 1262q-29 0 -53.5 10.5t-42.5 29.5t-28.5 43.5t-10.5 53.5q0 28 10.5 53t28.5 43t42.5 28.5t53.5 10.5q28 0 52.5 -10.5t43 -28.5t29 -43t10.5 -53q0 -29 -10.5 -53.5t-29 -43.5t-43 -29.5t-52.5 -10.5z" />
    <glyph glyph-name="ring" unicode="&#x2da;" horiz-adv-x="635" 
d="M313 1528q-40 0 -65 -26t-25 -83q0 -59 27 -83.5t67 -24.5q42 0 66.5 26.5t24.5 81.5q0 59 -27 84t-68 25zM313 1208q-44 0 -84 11t-71 36t-49.5 65t-18.5 97q0 55 17.5 95.5t48 66.5t72 38.5t89.5 12.5q44 0 84.5 -11t71.5 -36t49.5 -65.5t18.5 -98.5q0 -54 -17.5 -94
t-48 -66t-72.5 -38.5t-90 -12.5z" />
    <glyph glyph-name="ogonek" unicode="&#x2db;" horiz-adv-x="819" 
d="M698 -336q-38 -49 -99 -82t-148 -33q-57 0 -106.5 12t-86 37.5t-57.5 66t-21 97.5q0 72 39.5 133.5t114.5 104.5h155q-26 -18 -48.5 -42t-39.5 -50.5t-26.5 -54t-9.5 -52.5q0 -45 25 -71.5t79 -26.5q40 0 68 12t57 41q13 13 25 13q14 0 24 -13l47 -47q13 -12 13 -28
q0 -9 -5 -17z" />
    <glyph glyph-name="tilde" unicode="&#x2dc;" horiz-adv-x="1057" 
d="M395 1350q-37 0 -63 -19.5t-53 -56.5q-12 -16 -26 -16q-13 0 -26 10l-37 22q-16 10 -16 29q0 16 12 37q19 32 45 60t56 48.5t63 32.5t66 12q53 0 85 -14t56.5 -31t47.5 -31t59 -14q37 0 62.5 19.5t53.5 56.5q7 8 12.5 12t13.5 4q9 0 25 -10l37 -22q16 -10 16 -29
q0 -18 -12 -37q-18 -32 -44 -60t-56 -48.5t-63 -32.5t-66 -12q-53 0 -85 14t-56.5 31t-48 31t-58.5 14z" />
    <glyph glyph-name="hungarumlaut" unicode="&#x2dd;" horiz-adv-x="1079" 
d="M627 1214q-10 -7 -19 -7q-8 0 -13.5 4.5t-10.5 9.5l-29 32q-11 9 -11 21q0 15 11 26l178 209q42 49 77 49q31 0 69 -38l8 -7q37 -36 37 -67q0 -36 -45 -64zM168 1217q-7 -7 -18 -7q-8 0 -13.5 4.5t-11.5 10.5l-29 28q-8 8 -8 21q0 16 10 26l164 216q41 53 78 53
q33 0 70 -37l8 -8q34 -34 34 -62q0 -33 -46 -67z" />
    <glyph glyph-name="Delta" unicode="&#x394;" horiz-adv-x="1407" 
d="M45 0q-26 0 -26 20q0 9 6 23l579 1470q5 11 13 15t14 4h139q11 0 19.5 -4t13.5 -15l579 -1470q5 -17 5 -22q0 -21 -25 -21h-1317zM1077 178q16 0 24 8.5t8 19.5q0 7 -3 13l-414 1084l-424 -1086q-5 -17 -5 -22q0 -17 16 -17h798z" />
    <glyph glyph-name="Omega" unicode="&#x3a9;" horiz-adv-x="1434" 
d="M872 168q126 57 185 202.5t59 377.5q0 149 -26 268.5t-77 203t-126.5 128.5t-175.5 45q-98 0 -172.5 -43.5t-125 -124t-76.5 -194t-26 -253.5q0 -117 16 -215.5t48 -176t79.5 -132.5t110.5 -84q11 -5 15 -13.5t4 -19.5v-119q0 -11 -6 -14.5t-15 -3.5h-416q-22 0 -22 23
v104q0 23 25 23h210q-61 54 -110.5 114.5t-84.5 133.5t-54 160t-19 194q0 190 48 338.5t132 250t198.5 154.5t248.5 53q124 0 236 -42.5t196.5 -135t134 -239t49.5 -353.5q0 -106 -15.5 -193.5t-47 -163t-79.5 -142t-112 -129.5h205q25 0 25 -23v-104q0 -23 -23 -23h-416
q-9 0 -14.5 3.5t-5.5 14.5v117q0 9 4.5 18.5t15.5 14.5z" />
    <glyph glyph-name="pi" unicode="&#x3c0;" horiz-adv-x="1159" 
d="M174 926q0 30 -33 30h-65q-31 0 -31 31v105q0 28 31 28h989q31 0 31 -28v-105q0 -31 -31 -31h-68q-30 0 -30 -32v-760q0 -20 10.5 -27.5t26.5 -7.5q8 0 14.5 2.5t11.5 5.5l12 8q10 7 19 7q13 0 24 -15l27 -43q6 -9 6 -20q0 -5 -1.5 -11.5t-6.5 -11.5q-34 -38 -77 -54.5
t-91 -16.5q-57 0 -92 20q-72 43 -72 162v764q0 30 -30 30h-355q-31 0 -31 -30v-895q0 -14 -9 -22.5t-23 -8.5h-125q-31 0 -31 31v895z" />
    <glyph glyph-name="endash" unicode="&#x2013;" 
d="M35 553q-16 0 -25.5 10t-9.5 27v80q0 17 9.5 24.5t25.5 7.5h1114q39 0 39 -32v-80q0 -37 -39 -37h-1114z" />
    <glyph glyph-name="emdash" unicode="&#x2014;" horiz-adv-x="2048" 
d="M199 553q-16 0 -25.5 10t-9.5 27v80q0 17 9.5 24.5t25.5 7.5h1646q39 0 39 -32v-80q0 -37 -39 -37h-1646z" />
    <glyph glyph-name="quoteleft" unicode="&#x2018;" horiz-adv-x="512" 
d="M418 1630q17 0 25 -9.5t14 -29.5q4 -11 4 -25q0 -15 -7 -22.5t-20 -9.5q-32 -6 -56 -19.5t-40 -31.5t-23.5 -38.5t-7.5 -41.5q0 -31 16.5 -49t36 -37t36 -45.5t16.5 -73.5q0 -29 -11 -54.5t-30.5 -45.5t-45.5 -31.5t-55 -11.5q-32 0 -61.5 13.5t-51.5 39.5t-35 65.5
t-13 92.5q0 64 15 116t40.5 92.5t57.5 69.5t66.5 48.5t68 28.5t61.5 9z" />
    <glyph glyph-name="quoteright" unicode="&#x2019;" horiz-adv-x="512" 
d="M94 1055q-17 0 -25 9.5t-14 29.5q-4 9 -4 24q0 28 27 33q32 6 56 19.5t39.5 31.5t23.5 38.5t8 41.5q0 31 -16.5 49t-36 37t-36 45.5t-16.5 73.5q0 28 11 54t30.5 46t45.5 31.5t55 11.5q32 0 61.5 -13.5t51.5 -39.5t35 -66t13 -92q0 -64 -15 -116t-40.5 -92.5t-57.5 -69.5
t-66.5 -48.5t-68 -28.5t-61.5 -9z" />
    <glyph glyph-name="quotesinglbase" unicode="&#x201a;" horiz-adv-x="512" 
d="M94 -293q-17 0 -25 9.5t-14 29.5q-4 11 -4 25q0 15 7 22.5t20 9.5q32 6 56 19.5t39.5 31.5t23.5 38.5t8 41.5q0 31 -16.5 49t-36 37t-36 45.5t-16.5 73.5q0 28 11 54.5t30.5 46t45.5 31.5t55 12q32 0 61.5 -13.5t51.5 -40t35 -66t13 -91.5q0 -64 -15 -116t-40.5 -92.5
t-57.5 -70t-66.5 -48.5t-68 -28.5t-61.5 -9.5z" />
    <glyph glyph-name="quotedblleft" unicode="&#x201c;" horiz-adv-x="897" 
d="M406 1630q17 0 24 -8.5t12 -28.5q4 -9 4 -24q0 -28 -24 -29q-32 -6 -55 -20.5t-38 -33.5t-22.5 -40.5t-7.5 -40.5q0 -30 15.5 -47.5t34.5 -35.5t34.5 -43.5t15.5 -70.5q0 -27 -10.5 -51.5t-29 -43.5t-43 -30.5t-52.5 -11.5q-31 0 -59 13t-49.5 38.5t-34 63.5t-12.5 88
q0 91 31.5 158.5t77 111t97 65t91.5 21.5zM803 1630q17 0 25 -8.5t14 -28.5q3 -14 3 -22q0 -29 -26 -31q-31 -6 -54 -20.5t-38.5 -33.5t-23 -40.5t-7.5 -40.5q0 -30 16 -47.5t34.5 -35.5t34.5 -43.5t16 -70.5q0 -27 -10.5 -51.5t-29 -43.5t-43 -30.5t-52.5 -11.5
q-31 0 -59 13t-49.5 38.5t-34.5 63.5t-13 88q0 91 31.5 158.5t77 111t97 65t91.5 21.5z" />
    <glyph glyph-name="quotedblright" unicode="&#x201d;" horiz-adv-x="897" 
d="M492 1071q-17 0 -24.5 8.5t-12.5 28.5q-4 11 -4 24q0 27 24 29q31 6 54.5 21t38.5 34t22.5 40t7.5 40q0 30 -15.5 47.5t-34.5 35.5t-34.5 43.5t-15.5 70.5q0 27 10.5 52t29 43.5t43 30t52.5 11.5q31 0 59 -13t49.5 -38.5t34 -63.5t12.5 -88q0 -91 -31.5 -158t-77 -111
t-96.5 -65.5t-91 -21.5zM94 1071q-17 0 -25 8.5t-14 28.5q-3 13 -3 23q0 28 26 30q31 6 54 21t38.5 34t23 40t7.5 40q0 30 -16 47.5t-34.5 35.5t-34.5 43.5t-16 70.5q0 27 10.5 52t29 43.5t43 30t53.5 11.5q30 0 58 -13t49.5 -38.5t34.5 -63.5t13 -88q0 -91 -31.5 -158
t-77 -111t-97 -65.5t-91.5 -21.5z" />
    <glyph glyph-name="quotedblbase" unicode="&#x201e;" horiz-adv-x="897" 
d="M492 -276q-17 0 -24.5 8t-12.5 28q-4 11 -4 25q0 27 24 29q31 6 54.5 20.5t38.5 33.5t22.5 40t7.5 41q0 30 -15.5 47.5t-34.5 35.5t-34.5 43t-15.5 70q0 27 10.5 52t29 44t43 30.5t52.5 11.5q31 0 59 -13t49.5 -38.5t34 -63.5t12.5 -88q0 -92 -31.5 -159t-77 -110.5
t-96.5 -65t-91 -21.5zM94 -276q-17 0 -25 8t-14 28q-3 13 -3 23q0 29 26 31q31 6 54 20.5t38.5 33.5t23 40t7.5 41q0 30 -16 47.5t-34.5 35.5t-34.5 43t-16 70q0 27 10.5 52t29 44t43 30.5t53.5 11.5q30 0 58 -13t49.5 -38.5t34.5 -63.5t13 -88q0 -92 -31.5 -159t-77 -110.5
t-97 -65t-91.5 -21.5z" />
    <glyph glyph-name="dagger" unicode="&#x2020;" 
d="M666 233q0 -15 -11 -24.5t-26 -9.5h-70q-15 0 -25 9.5t-10 24.5l-20 504l20 170q0 17 -6 24t-29 7l-344 -20h-5q-14 0 -21.5 10t-7.5 24v101q0 14 8 23t22 9h4l349 -20q18 0 24 6t6 23l-20 149l20 182q2 16 11 25.5t24 9.5h70q15 0 24.5 -9.5t12.5 -25.5l20 -182
l-20 -147q0 -19 6 -25t26 -6l351 20h4q14 0 22 -9t8 -23v-101q0 -14 -7.5 -24t-21.5 -10h-5l-347 20q-24 0 -30 -7t-6 -26l20 -170z" />
    <glyph glyph-name="daggerdbl" unicode="&#x2021;" 
d="M522 907q0 17 -6 24t-29 7l-342 -20h-5q-14 0 -21.5 10t-7.5 24v101q0 14 8 23t22 9h4l347 -20q18 0 24 6t6 23l-20 149l20 182q2 16 11 25.5t24 9.5h70q15 0 24 -9.5t13 -25.5l20 -182l-20 -147q0 -19 6 -25t26 -6l353 20h4q14 0 22 -9t8 -23v-101q0 -14 -7.5 -24
t-21.5 -10h-5l-349 20q-24 0 -30 -7t-6 -26l20 -170l-20 -164q0 -18 6 -25t30 -7l349 20h3q14 0 22.5 -10t8.5 -25v-100q0 -15 -8 -24t-22 -9h-4l-353 21q-20 0 -26 -6t-6 -25l20 -148l-20 -182q-4 -15 -13 -25t-24 -10h-70q-15 0 -24 10t-11 25l-20 182l20 150q0 17 -6 23
t-24 6l-347 -21h-4q-14 0 -22 9t-8 24v100q0 15 8.5 25t22.5 10h3l342 -20q23 0 29 6.5t6 23.5l-20 168z" />
    <glyph glyph-name="bullet" unicode="&#x2022;" 
d="M594 981q71 0 134.5 -27.5t111 -75t75 -111t27.5 -134.5q0 -72 -27.5 -135t-75 -110.5t-111 -75t-134.5 -27.5q-72 0 -135 27.5t-110.5 75t-75 110.5t-27.5 135q0 71 27.5 134.5t75 111t110.5 75t135 27.5z" />
    <glyph glyph-name="ellipsis" unicode="&#x2026;" horiz-adv-x="1878" 
d="M1659 283q31 0 59 -12t48 -32.5t32 -48.5t12 -59q0 -32 -12 -59.5t-32 -47.5t-48 -32t-59 -12q-32 0 -59.5 12t-48 32t-32.5 47.5t-12 59.5q0 31 12 59t32.5 48.5t48 32.5t59.5 12zM938 283q31 0 59 -12t48.5 -32.5t32.5 -48.5t12 -59q0 -32 -12 -59.5t-32.5 -47.5
t-48.5 -32t-59 -12q-32 0 -59.5 12t-48 32t-32.5 47.5t-12 59.5q0 31 12 59t32.5 48.5t48 32.5t59.5 12zM217 283q31 0 59 -12t48.5 -32.5t32.5 -48.5t12 -59q0 -32 -12 -59.5t-32.5 -47.5t-48.5 -32t-59 -12q-32 0 -59.5 12t-47.5 32t-32 47.5t-12 59.5q0 31 12 59t32 48.5
t47.5 32.5t59.5 12z" />
    <glyph glyph-name="perthousand" unicode="&#x2030;" horiz-adv-x="2339" 
d="M1913 584q-34 0 -62 -10.5t-53 -34.5q-26 -26 -42.5 -76.5t-16.5 -116.5q0 -72 15.5 -121.5t37.5 -70.5q31 -31 61 -40.5t64 -9.5q37 0 64.5 11.5t52.5 36.5q24 24 39.5 73.5t15.5 118.5q0 72 -14.5 119.5t-40.5 73.5q-25 24 -53 35.5t-68 11.5zM1911 -20q-66 0 -130 19
t-112 67q-53 52 -75.5 117.5t-22.5 158.5q0 54 8 97t21 77t30 59t35 43q51 51 117 71t135 20q33 0 66.5 -5t65.5 -15.5t59.5 -25.5t48.5 -36t39 -46t31.5 -58.5t21.5 -76.5t8 -100t-8 -100t-21.5 -76.5t-31.5 -58t-37 -43.5q-45 -45 -112 -66.5t-136 -21.5zM1128 584
q-34 0 -61.5 -10.5t-52.5 -34.5q-26 -26 -43 -76.5t-17 -116.5q0 -72 16 -121.5t38 -70.5q31 -31 60.5 -40.5t64.5 -9.5q37 0 64.5 11.5t51.5 36.5q25 24 40.5 73.5t15.5 118.5q0 72 -15 119.5t-41 73.5q-24 24 -51.5 35.5t-69.5 11.5zM1126 -20q-66 0 -129.5 19t-111.5 67
q-53 52 -76 117.5t-23 158.5q0 54 8 97t21 77t30 59t36 43q49 51 115.5 71t136.5 20q33 0 66.5 -5t65 -15t59 -25.5t48.5 -36.5t39 -46t32 -58.5t22 -76.5t8 -100t-8.5 -100t-22 -76.5t-31.5 -58t-37 -43.5q-45 -45 -111.5 -66.5t-136.5 -21.5zM416 1423q-34 0 -62 -10
t-53 -35q-26 -26 -42.5 -76t-16.5 -116q0 -72 15.5 -121.5t37.5 -71.5q31 -31 61 -40t64 -9q37 0 64.5 11t52.5 36q24 25 39.5 74.5t15.5 118.5q0 72 -14.5 119t-40.5 73q-25 25 -53 36t-68 11zM414 819q-66 0 -130 19t-112 67q-53 53 -75.5 118.5t-22.5 158.5q0 54 8 97
t21 77t30 59t35 43q49 50 116 70t136 20q33 0 66.5 -5t65 -15t59 -25.5t48.5 -36.5t39.5 -46t32 -58t21.5 -76t8 -100t-8 -100.5t-21.5 -77t-31.5 -58t-37 -43.5q-45 -45 -112 -66.5t-136 -21.5zM340 -12q-7 -13 -24 -13q-7 0 -15 5l-61 36q-17 9 -17 26q0 9 4 13l973 1489
q10 13 27 13q8 0 16 -5l60 -36q15 -11 15 -27q0 -6 -3 -12z" />
    <glyph glyph-name="guilsinglleft" unicode="&#x2039;" horiz-adv-x="625" 
d="M100 600q-8 14 -8 29q0 14 8 28l232 390q7 14 17.5 21t21.5 7t22 -6l35 -14q18 -11 18 -33q0 -6 -1.5 -13t-6.5 -14l-174 -354l178 -354q7 -13 7 -30q0 -25 -19 -34l-41 -22q-14 -8 -22 -8q-11 0 -19 8t-16 22z" />
    <glyph glyph-name="guilsinglright" unicode="&#x203a;" horiz-adv-x="625" 
d="M524 670q9 -15 9 -29t-9 -29l-231 -389q-7 -14 -17.5 -21t-22.5 -7t-22 6l-34 14q-19 9 -19 32q0 13 8 27l174 355l-178 354q-7 14 -7 29q0 24 20 35l41 22q10 7 22 7q18 0 35 -29z" />
    <glyph glyph-name="fraction" unicode="&#x2044;" horiz-adv-x="819" 
d="M809 1608q6 13 21 13q12 0 22 -7l66 -41q12 -8 12 -23q0 -9 -4 -16l-934 -1548q-5 -12 -20 -12q-12 0 -19 6l-68 40q-12 9 -12 25q0 2 0.5 5.5t1.5 8.5z" />
    <glyph glyph-name="eurocurrency" unicode="&#x20a0;" 
d="M844 963q9 0 15.5 -7t6.5 -16v-96q0 -13 -3.5 -19t-18.5 -6h-455q-1 -14 -1.5 -28t-0.5 -28v-36v-49q0 -11 0.5 -24t1.5 -27h455q9 0 15.5 -7t6.5 -16v-96q0 -12 -3.5 -18.5t-18.5 -6.5h-436q31 -161 113 -249.5t227 -88.5q103 0 171.5 36t108.5 93q15 21 28 21
q8 0 19 -8l72 -51q14 -11 14 -27q0 -11 -8 -25q-23 -41 -62 -77.5t-92 -65t-119 -45t-143 -16.5q-170 0 -286 75.5t-183 210.5q-12 25 -22.5 53.5t-18.5 57.5t-14 56t-10 50h-172q-16 0 -19.5 6.5t-3.5 18.5v96q0 9 6.5 16t16.5 7h153q-1 13 -1.5 25.5t-0.5 23.5v49v35
q0 14 0.5 29t1.5 30h-153q-16 0 -19.5 6t-3.5 19v96q0 9 6.5 16t16.5 7h170q9 55 26.5 118t46.5 123q31 62 73.5 115.5t99 92.5t127 61t157.5 22q78 0 140 -15.5t110 -42.5t83 -64.5t60 -82.5q5 -8 5 -15q0 -14 -13 -24l-102 -63q-10 -7 -21 -7q-17 0 -24 13
q-25 41 -49.5 68t-52.5 43.5t-61 23t-75 6.5q-70 0 -124 -25t-94.5 -73t-67.5 -117t-42 -157h441z" />
    <glyph glyph-name="Euro" unicode="&#x20ac;" 
d="M844 963q9 0 15.5 -7t6.5 -16v-96q0 -13 -3.5 -19t-18.5 -6h-455q-1 -14 -1.5 -28t-0.5 -28v-36v-49q0 -11 0.5 -24t1.5 -27h455q9 0 15.5 -7t6.5 -16v-96q0 -12 -3.5 -18.5t-18.5 -6.5h-436q31 -161 113 -249.5t227 -88.5q103 0 171.5 36t108.5 93q15 21 28 21
q8 0 19 -8l72 -51q14 -11 14 -27q0 -11 -8 -25q-23 -41 -62 -77.5t-92 -65t-119 -45t-143 -16.5q-170 0 -286 75.5t-183 210.5q-12 25 -22.5 53.5t-18.5 57.5t-14 56t-10 50h-172q-16 0 -19.5 6.5t-3.5 18.5v96q0 9 6.5 16t16.5 7h153q-1 13 -1.5 25.5t-0.5 23.5v49v35
q0 14 0.5 29t1.5 30h-153q-16 0 -19.5 6t-3.5 19v96q0 9 6.5 16t16.5 7h170q9 55 26.5 118t46.5 123q31 62 73.5 115.5t99 92.5t127 61t157.5 22q78 0 140 -15.5t110 -42.5t83 -64.5t60 -82.5q5 -8 5 -15q0 -14 -13 -24l-102 -63q-10 -7 -21 -7q-17 0 -24 13
q-25 41 -49.5 68t-52.5 43.5t-61 23t-75 6.5q-70 0 -124 -25t-94.5 -73t-67.5 -117t-42 -157h441z" />
    <glyph glyph-name="trademark" unicode="&#x2122;" horiz-adv-x="1489" 
d="M1229 879q-23 0 -23 20v492h-2l-153 -365q-5 -11 -10.5 -14.5t-14.5 -3.5h-51q-8 0 -11.5 4t-7.5 10l-165 375h-3v-498q0 -8 -4.5 -14t-15.5 -6h-86q-20 0 -20 20v612q0 21 20 21h168q15 0 22 -19l129 -288q3 -8 8 -8q4 0 7 8l117 282q9 17 14 21t16 4h158q22 0 22 -19
v-614q0 -9 -6.5 -14.5t-15.5 -5.5h-92zM559 1532q21 0 21 -19v-79q0 -21 -21 -21h-147q-23 0 -23 -22v-492q0 -20 -18 -20h-88q-8 0 -14.5 5.5t-6.5 14.5v492q0 22 -22 22h-148q-20 0 -20 21v79q0 19 20 19h467z" />
    <glyph glyph-name="partialdiff" unicode="&#x2202;" horiz-adv-x="1149" 
d="M598 987q-60 0 -109.5 -18.5t-91.5 -57.5q-35 -32 -61.5 -77.5t-44 -101t-26.5 -119.5t-9 -132q0 -182 78 -266q37 -40 82 -60t114 -20q57 0 108 19.5t91 56.5q66 63 103.5 174.5t37.5 259.5q0 176 -77 262q-74 80 -195 80zM819 1073q-24 67 -62 130.5t-87 120.5
t-107 106.5t-121 87.5q-19 9 -19 25q0 14 19 26l86 53q14 8 31 8q15 0 27 -6q114 -64 205.5 -160t156.5 -217t100 -262t35 -295q0 -105 -16 -192.5t-43 -158t-62.5 -123.5t-74.5 -89q-82 -75 -173.5 -111t-205.5 -36q-118 0 -205 34.5t-147 100.5q-59 65 -85 149t-26 199
q0 186 50 319.5t153 227.5q72 66 158.5 98.5t195.5 32.5q57 0 114 -15t103 -53z" />
    <glyph glyph-name="product" unicode="&#x220f;" horiz-adv-x="1151" 
d="M786 1343q0 14 -5 19.5t-17 5.5h-381q-21 0 -21 -25v-1533q0 -17 -10.5 -27t-27.5 -10h-109q-15 0 -26 10t-11 27v1536q0 22 -20 22h-74q-31 0 -31 31v104q0 29 31 29h989q31 0 31 -29v-104q0 -31 -31 -31h-80q-14 0 -18 -5.5t-4 -19.5v-1533q0 -37 -37 -37h-109
q-17 0 -28 10t-11 27v1533z" />
    <glyph glyph-name="summation" unicode="&#x2211;" 
d="M348 1368l459 -674q8 -14 8 -26q0 -10 -6 -19l-483 -710h714q16 0 25.5 -9t9.5 -26v-97q0 -15 -9.5 -24.5t-25.5 -9.5h-903q-12 0 -21.5 8t-9.5 20v93q0 9 4.5 20t10.5 20l473 676q10 13 10 29q0 12 -6 20l-477 701q-6 9 -10.5 20.5t-4.5 22.5v106q0 23 25 23h909
q16 0 25.5 -8.5t9.5 -24.5v-94q0 -16 -9.5 -26.5t-25.5 -10.5h-692z" />
    <glyph glyph-name="minus" unicode="&#x2212;" 
d="M104 553q-15 0 -24.5 9.5t-9.5 25.5v78q0 17 9.5 26.5t24.5 9.5h977q16 0 25.5 -9.5t9.5 -26.5v-78q0 -16 -9.5 -25.5t-25.5 -9.5h-977z" />
    <glyph glyph-name="periodcentered" unicode="&#x2219;" 
d="M594 782q31 0 59 -12t49 -33t33.5 -49t12.5 -59q0 -32 -12.5 -60t-33.5 -49t-49 -33t-59 -12q-32 0 -60 12t-49 33t-33 49t-12 60q0 31 12 59t33 49t49 33t60 12z" />
    <glyph glyph-name="radical" unicode="&#x221a;" horiz-adv-x="1262" 
d="M59 846q-15 0 -24.5 9.5t-9.5 25.5v92q0 15 9.5 25t24.5 10h240q11 0 18.5 -8t10.5 -19l239 -748l445 1352q6 17 24 17q7 0 25 -5l90 -30q9 -3 12.5 -10.5t3.5 -17.5q0 -15 -4 -23l-506 -1498q-3 -11 -11.5 -14.5t-14.5 -3.5h-139q-11 0 -20.5 3.5t-12.5 14.5l-269 797
q-5 12 -12 20.5t-18 10.5h-101z" />
    <glyph glyph-name="infinity" unicode="&#x221e;" horiz-adv-x="1489" 
d="M844 623q34 -33 64 -60.5t60.5 -47t66 -30t81.5 -10.5q36 0 64 12t47.5 32.5t30 47.5t10.5 58q0 30 -10.5 57.5t-30 49t-47.5 34t-64 12.5q-45 0 -80.5 -11.5t-66.5 -32t-61 -49t-64 -62.5zM741 518q-44 -42 -87 -75t-87 -55.5t-92 -34t-102 -11.5q-73 0 -131 20t-98 58
t-61.5 93t-21.5 126q0 62 25 115.5t67.5 92.5t99 61t120.5 22q57 0 106.5 -13t94.5 -37.5t86 -59.5t81 -79q44 42 86.5 75t87.5 55.5t93 34.5t102 12q149 0 230 -76.5t81 -220.5q0 -62 -24.5 -115.5t-67 -92.5t-99 -61t-120.5 -22q-113 0 -201 49.5t-168 138.5zM639 637
q-35 33 -64.5 60t-60.5 46.5t-66 30t-81 10.5q-36 0 -64.5 -12t-48 -32t-29.5 -47t-10 -58q0 -30 10 -58t29.5 -49t48 -34t64.5 -13q45 0 80.5 11.5t67 32t61 49t63.5 63.5z" />
    <glyph glyph-name="integral" unicode="&#x222b;" horiz-adv-x="662" 
d="M240 1151q0 100 25.5 174.5t71.5 124t110.5 74t142.5 24.5q85 0 146 -29.5t89 -72.5q13 -19 13 -34q0 -16 -15 -26l-82 -55q-12 -9 -22 -9q-12 0 -25 19q-14 22 -41.5 39t-70.5 17q-39 0 -67.5 -15t-48 -42t-29 -65t-9.5 -83v-1225q0 -100 -25.5 -174.5t-72 -124
t-111.5 -74t-143 -24.5q-85 0 -146.5 29.5t-89.5 72.5q-13 19 -13 34q0 14 15 26l82 55q13 9 22 9q13 0 25 -19q14 -22 42 -39t71 -17q38 0 67.5 15t49 42t29.5 65t10 83v1225z" />
    <glyph glyph-name="approxequal" unicode="&#x2248;" 
d="M797 285q-47 0 -83.5 10.5t-68 26t-59.5 34t-57 34t-61.5 26t-72.5 10.5q-26 0 -53 -8.5t-53 -22.5t-49 -32.5t-41 -38.5q-17 -17 -32 -17q-14 0 -32 12l-39 29q-14 8 -14 27q0 20 12 37q21 30 51.5 57.5t69.5 48t85 33t97 12.5q48 0 87.5 -10.5t73 -26t62 -34t56.5 -34
t56 -26t59 -10.5q28 0 56 8t54 22t49 32.5t41 39.5q16 19 31 19q13 0 31 -15l45 -36q11 -11 11 -23q0 -15 -15 -37q-22 -29 -52.5 -56t-68 -47t-82 -32t-94.5 -12zM797 645q-47 0 -83.5 10.5t-68 26t-59.5 34t-57 34t-61.5 26t-72.5 10.5q-26 0 -53 -8.5t-53 -22.5
t-49 -32.5t-41 -38.5q-16 -16 -32 -16q-14 0 -32 12l-39 29q-14 8 -14 27t12 36q21 30 51.5 57.5t69.5 48.5t85 33.5t97 12.5q48 0 87 -10.5t72.5 -26.5t62.5 -34t57 -34t56 -26.5t59 -10.5q28 0 56 8t54 22.5t49 33t41 39.5q15 18 31 18q11 0 31 -14l45 -37q11 -11 11 -22
q0 -15 -15 -37q-22 -29 -52.5 -56t-68 -47.5t-82 -32.5t-94.5 -12z" />
    <glyph glyph-name="notequal" unicode="&#x2260;" 
d="M842 1141q9 14 23 14q11 0 22 -8l51 -35q13 -7 13 -22q0 -6 -5 -19l-102 -168h237q16 0 25.5 -9.5t9.5 -25.5v-80q0 -15 -9.5 -24.5t-25.5 -9.5h-327l-146 -242h473q16 0 25.5 -9.5t9.5 -25.5v-80q0 -17 -9.5 -26t-25.5 -9h-563l-151 -249q-8 -12 -24 -12q-9 0 -17 5
l-54 35q-16 10 -16 27q0 10 4 14l109 180h-263q-34 0 -34 35v80q0 16 8.5 25.5t25.5 9.5h355l145 242h-500q-17 0 -25.5 9.5t-8.5 24.5v80q0 16 8.5 25.5t25.5 9.5h592z" />
    <glyph glyph-name="lessequal" unicode="&#x2264;" 
d="M115 750q-23 9 -23 36v103q0 26 23 35l919 376q7 3 16 3q18 0 27 -17l31 -69q4 -8 4 -18q0 -25 -18 -32l-815 -329l815 -332q19 -9 19 -32q0 -10 -3 -17l-33 -70q-8 -15 -26 -15q-8 0 -17 3zM98 0q-30 0 -30 31v75q0 31 30 31h987q31 0 31 -31v-75q0 -31 -31 -31h-987z
" />
    <glyph glyph-name="greaterequal" unicode="&#x2265;" 
d="M1096 924q22 -9 22 -37v-103q0 -25 -22 -34l-920 -377q-8 -3 -14 -3q-20 0 -29 17l-31 70q-4 8 -4 17q0 11 5 20t14 12l815 330l-815 331q-11 5 -15.5 13.5t-4.5 19.5q0 9 3 17l33 69q7 16 26 16q9 0 17 -4zM96 0q-30 0 -30 31v75q0 31 30 31h987q31 0 31 -31v-75
q0 -31 -31 -31h-987z" />
    <glyph glyph-name="lozenge" unicode="&#x25ca;" horiz-adv-x="1227" 
d="M672 -2q-6 -8 -13 -13t-18 -5h-88q-19 0 -31 18l-497 745q-8 11 -8 22q0 9 6 17l528 748q6 8 13 13t18 5h88q11 0 17.5 -4.5t12.5 -13.5l500 -742q7 -10 7 -21q0 -9 -5 -17zM606 182l391 547q9 10 9 22q0 10 -7 17l-383 580l-389 -545q-7 -10 -7 -22q0 -9 5 -17z" />
    <glyph glyph-name="fi" unicode="&#xf001;" horiz-adv-x="1202" 
d="M944 1274q-29 0 -53.5 10.5t-42.5 29.5t-28.5 43.5t-10.5 53.5q0 28 10.5 53t28.5 43t42.5 28.5t53.5 10.5q28 0 52.5 -10.5t43 -28.5t29 -43t10.5 -53q0 -29 -10.5 -53.5t-29 -43.5t-43 -29.5t-52.5 -10.5zM719 1589q25 -13 25 -34q0 -7 -5 -19l-39 -74q-12 -21 -26 -21
q-9 0 -19 7q-49 31 -108 31q-72 0 -109 -51.5t-37 -145.5v-137q0 -25 27 -25h569q19 0 30 -12t11 -31v-1044q0 -14 -9.5 -23.5t-24.5 -9.5h-119q-16 0 -25.5 9.5t-9.5 25.5v907q0 16 -5.5 23.5t-19.5 7.5h-399q-12 0 -18.5 -5.5t-6.5 -19.5v-913q0 -16 -9.5 -25.5
t-24.5 -9.5h-119q-16 0 -25.5 9.5t-9.5 25.5v907q0 14 -5.5 22.5t-19.5 8.5h-108q-16 0 -25.5 9.5t-9.5 25.5v77q0 16 9.5 25.5t25.5 9.5h108q16 0 20.5 6t4.5 19v119q0 90 24 158t68.5 114.5t107 70t140.5 23.5q43 0 86 -10.5t80 -30.5z" />
    <glyph glyph-name="fi" unicode="&#xfb01;" horiz-adv-x="1202" 
d="M944 1274q-29 0 -53.5 10.5t-42.5 29.5t-28.5 43.5t-10.5 53.5q0 28 10.5 53t28.5 43t42.5 28.5t53.5 10.5q28 0 52.5 -10.5t43 -28.5t29 -43t10.5 -53q0 -29 -10.5 -53.5t-29 -43.5t-43 -29.5t-52.5 -10.5zM719 1589q25 -13 25 -34q0 -7 -5 -19l-39 -74q-12 -21 -26 -21
q-9 0 -19 7q-49 31 -108 31q-72 0 -109 -51.5t-37 -145.5v-137q0 -25 27 -25h569q19 0 30 -12t11 -31v-1044q0 -14 -9.5 -23.5t-24.5 -9.5h-119q-16 0 -25.5 9.5t-9.5 25.5v907q0 16 -5.5 23.5t-19.5 7.5h-399q-12 0 -18.5 -5.5t-6.5 -19.5v-913q0 -16 -9.5 -25.5
t-24.5 -9.5h-119q-16 0 -25.5 9.5t-9.5 25.5v907q0 14 -5.5 22.5t-19.5 8.5h-108q-16 0 -25.5 9.5t-9.5 25.5v77q0 16 9.5 25.5t25.5 9.5h108q16 0 20.5 6t4.5 19v119q0 90 24 158t68.5 114.5t107 70t140.5 23.5q43 0 86 -10.5t80 -30.5z" />
    <glyph glyph-name="fl" unicode="&#xf002;" horiz-adv-x="1202" 
d="M999 1589q20 -5 29.5 -14.5t9.5 -32.5v-1509q0 -14 -9.5 -23.5t-24.5 -9.5h-119q-16 0 -25.5 9.5t-9.5 25.5v1386q0 17 -5.5 24t-15.5 9q-50 10 -103 16.5t-91 6.5q-70 0 -115 -16.5t-71.5 -46t-37 -69.5t-10.5 -88v-112q0 -14 6.5 -19.5t20.5 -5.5h156q37 0 37 -45v-69
q0 -14 -8 -23.5t-23 -9.5h-164q-12 0 -18.5 -5.5t-6.5 -19.5v-913q0 -16 -9.5 -25.5t-24.5 -9.5h-119q-16 0 -25.5 9.5t-9.5 25.5v907q0 14 -5.5 22.5t-19.5 8.5h-108q-16 0 -25.5 9t-9.5 26v77q0 17 9.5 26t25.5 9h108q16 0 20.5 6t4.5 19v110q0 99 31 170t87 116t133.5 66
t170.5 21q46 0 94.5 -2.5t95.5 -8t91.5 -12.5t82.5 -16z" />
    <glyph glyph-name="fl" unicode="&#xfb02;" horiz-adv-x="1202" 
d="M999 1589q20 -5 29.5 -14.5t9.5 -32.5v-1509q0 -14 -9.5 -23.5t-24.5 -9.5h-119q-16 0 -25.5 9.5t-9.5 25.5v1386q0 17 -5.5 24t-15.5 9q-50 10 -103 16.5t-91 6.5q-70 0 -115 -16.5t-71.5 -46t-37 -69.5t-10.5 -88v-112q0 -14 6.5 -19.5t20.5 -5.5h156q37 0 37 -45v-69
q0 -14 -8 -23.5t-23 -9.5h-164q-12 0 -18.5 -5.5t-6.5 -19.5v-913q0 -16 -9.5 -25.5t-24.5 -9.5h-119q-16 0 -25.5 9.5t-9.5 25.5v907q0 14 -5.5 22.5t-19.5 8.5h-108q-16 0 -25.5 9t-9.5 26v77q0 17 9.5 26t25.5 9h108q16 0 20.5 6t4.5 19v110q0 99 31 170t87 116t133.5 66
t170.5 21q46 0 94.5 -2.5t95.5 -8t91.5 -12.5t82.5 -16z" />
    <glyph glyph-name="Acute" unicode="&#xf6c9;" horiz-adv-x="1057" 
d="M483 1647q-5 -1 -8 -1.5t-4 -0.5q-10 0 -16 6t-11 14l-22 35q-4 7 -4 14q0 20 18 31l264 172q15 9 28.5 14.5t26.5 5.5q39 0 72 -55l7 -10q18 -33 18 -58q0 -46 -61 -65z" />
    <glyph glyph-name="Caron" unicode="&#xf6ca;" horiz-adv-x="1057" 
d="M236 1835q-8 5 -13.5 13.5t-5.5 17.5q0 10 4 14l23 35q5 8 10.5 14.5t15.5 6.5q5 0 13 -3l245 -102l246 102q7 3 13 3q10 0 15.5 -6.5t10.5 -14.5l23 -35q4 -4 4 -14q0 -9 -5.5 -17.5t-13.5 -13.5l-239 -172q-32 -20 -54 -20q-24 0 -53 20z" />
    <glyph glyph-name="Dieresis" unicode="&#xf6cb;" horiz-adv-x="1057" 
d="M764 1903q26 0 49 -10t40.5 -27.5t27.5 -40.5t10 -49t-10 -49.5t-27.5 -40.5t-40.5 -27t-49 -10t-49.5 10t-40.5 27t-27 40.5t-10 49.5t10 49t27 40.5t40.5 27.5t49.5 10zM293 1903q26 0 49 -10t40.5 -27.5t27.5 -40.5t10 -49t-10 -49.5t-27.5 -40.5t-40.5 -27t-49 -10
t-49.5 10t-40.5 27t-27 40.5t-10 49.5t10 49t27 40.5t40.5 27.5t49.5 10z" />
    <glyph glyph-name="Grave" unicode="&#xf6ce;" horiz-adv-x="1057" 
d="M266 1749q-62 20 -62 65q0 27 19 58l6 10q33 55 72 55q13 0 26.5 -5.5t28.5 -14.5l265 -172q18 -11 18 -31q0 -7 -4 -14l-23 -35q-5 -8 -11 -14t-16 -6q-1 0 -4 0.5t-8 1.5z" />
    <glyph glyph-name="zerooldstyle" unicode="&#xf730;" horiz-adv-x="1294" 
d="M645 1051q-74 0 -136.5 -30t-108 -88t-71.5 -142.5t-26 -192.5q0 -109 24 -194.5t69.5 -145t110.5 -90.5t146 -31q74 0 136.5 30t108.5 88t71.5 142.5t25.5 192.5q0 109 -24 194.5t-69.5 145t-110.5 90.5t-146 31zM645 -20q-141 0 -245 43.5t-172.5 123t-102 192.5
t-33.5 251q0 139 36.5 253t107.5 195t175.5 125.5t241.5 44.5q141 0 245 -43.5t172.5 -123t102 -192.5t33.5 -251q0 -139 -36.5 -253t-107.5 -195t-176 -125.5t-241 -44.5z" />
    <glyph glyph-name="oneoldstyle" unicode="&#xf731;" horiz-adv-x="674" 
d="M487 35q0 -16 -8.5 -25.5t-25.5 -9.5h-131q-16 0 -25.5 9.5t-9.5 25.5v966q0 16 -5.5 22.5t-21.5 6.5h-149q-16 0 -25.5 9.5t-9.5 25.5v88q0 16 9.5 25.5t25.5 9.5h342q15 0 24.5 -9.5t9.5 -25.5v-1118z" />
    <glyph glyph-name="twooldstyle" unicode="&#xf732;" horiz-adv-x="1081" 
d="M106 170q73 86 145.5 153.5t139.5 123.5t124.5 104.5t100 98.5t67 104.5t24.5 122.5q0 94 -47 137t-138 43q-161 0 -207 -195q-7 -28 -37 -28h-8l-8 2l-106 24q-27 6 -27 31q0 12 4 20q19 66 55 120.5t87 94t116.5 61t143.5 21.5q94 0 166.5 -22.5t121.5 -73.5
q48 -46 67 -102.5t19 -122.5q0 -75 -27.5 -139.5t-73.5 -122.5t-106.5 -112t-127 -107.5t-134.5 -110t-129 -119.5h619q14 0 23.5 -6.5t9.5 -22.5v-112q0 -35 -31 -35h-780q-13 0 -19.5 4.5t-11.5 18.5l-27 79q-5 15 -5 27q0 21 17 41z" />
    <glyph glyph-name="threeoldstyle" unicode="&#xf733;" horiz-adv-x="1098" 
d="M520 1208q94 0 167 -26.5t123 -72t75.5 -107.5t25.5 -134q0 -133 -61 -215.5t-182 -120.5v-2q85 -18 145 -57.5t98.5 -92.5t56 -115t17.5 -126q0 -98 -34.5 -181t-98 -143t-153 -94t-199.5 -34q-89 0 -160 21t-126.5 56t-96 81.5t-68.5 97.5q-8 19 -8 27q0 18 27 32
l98 51q7 4 14 4q17 0 31 -24q23 -37 50.5 -70.5t63 -59t79 -40.5t98.5 -15q64 0 115.5 19t88 55.5t56.5 88.5t20 118q0 78 -23.5 135.5t-66 94.5t-100.5 55t-127 18h-55q-35 0 -35 35v88q0 14 8 23.5t25 9.5h41q53 0 101 14.5t85 45.5t58.5 80t21.5 118q0 51 -14.5 90
t-40.5 66t-62 41t-78 14q-56 0 -94 -15t-64 -40.5t-42.5 -60t-28.5 -73.5q-5 -18 -29 -18q-12 0 -20 4l-111 33q-21 6 -21 28q0 13 9 33q24 59 59.5 107t84.5 82t112.5 52.5t144.5 18.5z" />
    <glyph glyph-name="fouroldstyle" unicode="&#xf734;" horiz-adv-x="1225" 
d="M713 1006h-4l-461 -832h434q20 2 25.5 12t5.5 27v793zM119 0q-23 0 -29 23l-35 104q-3 10 -3 20q0 15 5 23l551 991q10 16 19 21.5t24 5.5h217q31 0 31 -33v-940q0 -25 6 -32t23 -9h162q15 0 24.5 -7.5t9.5 -21.5v-100q0 -19 -7.5 -32t-24.5 -13h-164q-13 0 -21 -5
t-8 -24v-231q0 -33 -31 -33h-120q-35 0 -35 33v225q0 16 -5 25.5t-24 9.5h-565z" />
    <glyph glyph-name="fiveoldstyle" unicode="&#xf735;" horiz-adv-x="1133" 
d="M522 -313q-84 0 -156.5 19.5t-129.5 55.5t-98 86t-62 111q-4 8 -4 18q0 12 8 19t22 12l113 41l7.5 1.5l2.5 0.5q18 0 27 -22q38 -83 106 -133t172 -50q70 0 122.5 22.5t88 64t53 101t17.5 134.5q0 159 -65.5 241.5t-208.5 82.5q-66 0 -110 -14t-75 -31.5t-52 -31.5
t-40 -14q-11 0 -18 4.5t-17 10.5l-55 35q-12 13 -12 28q0 5 0.5 9.5t1.5 11.5l88 655q3 20 12.5 26.5t32.5 6.5h557q12 0 22.5 -6t10.5 -25v-110q0 -22 -8.5 -27.5t-26.5 -5.5h-447q-19 0 -22 -19l-53 -413q48 31 109 48t130 17q109 0 194 -30t148 -93q113 -111 113 -342
q0 -109 -31.5 -199.5t-97.5 -156.5q-75 -75 -170.5 -107t-198.5 -32z" />
    <glyph glyph-name="sixoldstyle" unicode="&#xf736;" horiz-adv-x="1200" 
d="M614 813q-71 0 -124.5 -23.5t-89.5 -66t-54 -103t-18 -135.5q0 -96 20 -162.5t56.5 -107.5t88 -59.5t115.5 -18.5q65 0 117 17.5t88 58t55 105t19 159.5q0 172 -68.5 254t-204.5 82zM600 -23q-94 0 -178.5 30t-153.5 99q-40 40 -69.5 90.5t-49 115.5t-29 147t-9.5 184
q0 229 47 393t147 264q78 78 180.5 120t241.5 42q114 0 215 -37q11 -4 14.5 -11.5t3.5 -16.5q0 -17 -4 -25l-20 -69q-7 -25 -35 -25q-15 0 -24 4q-35 9 -73.5 16t-80.5 7q-98 0 -162 -28.5t-112 -78.5q-60 -60 -91 -159t-41 -220q16 27 46 54t73 49t97.5 35.5t119.5 13.5
q97 0 177.5 -25.5t140.5 -85.5q61 -62 93 -147.5t32 -208.5q0 -126 -35.5 -224t-101 -165.5t-157 -102.5t-202.5 -35z" />
    <glyph glyph-name="sevenoldstyle" unicode="&#xf737;" horiz-adv-x="1075" 
d="M530 -254q0 -19 -8.5 -29t-19.5 -10h-146q-17 0 -24.5 8.5t-7.5 30.5v10q7 180 43.5 353t98 333.5t147 305t190.5 266.5h-12h-674q-17 0 -26 9.5t-9 23.5v108q0 14 8.5 23.5t24.5 9.5h803q17 0 25 -7.5t11 -17.5l35 -121q4 -11 4 -24q0 -10 -3.5 -17.5t-10.5 -15.5
q-122 -133 -207 -279.5t-139 -303.5t-78.5 -322t-24.5 -334z" />
    <glyph glyph-name="eightoldstyle" unicode="&#xf738;" horiz-adv-x="1161" 
d="M596 870q42 24 79 50.5t64 56.5t42.5 65.5t15.5 77.5q0 44 -15.5 78.5t-43.5 58t-67 36t-87 12.5q-47 0 -84.5 -13t-64.5 -36.5t-41.5 -57t-14.5 -74.5q0 -47 17 -84t46 -67.5t69 -55.5t85 -47zM557 690q-51 -28 -96.5 -58.5t-80 -68t-55 -83.5t-20.5 -103
q0 -64 20 -109.5t56.5 -74.5t88 -42.5t114.5 -13.5q68 0 119 17t84.5 47.5t50 73.5t16.5 96q0 63 -24.5 109.5t-65.5 83.5t-95 67t-112 59zM754 797q60 -30 117.5 -66.5t101.5 -85.5t71 -114t27 -152q0 -79 -27.5 -146t-76.5 -118q-70 -68 -171.5 -101.5t-215.5 -33.5
q-118 0 -218.5 28.5t-166.5 93.5q-48 48 -73.5 116t-25.5 149q0 76 25.5 135.5t68.5 107.5t99 86.5t117 71.5q-48 27 -90 59.5t-73.5 73.5t-50 92.5t-18.5 116.5q0 66 23 128t69 110q54 55 138.5 84.5t187.5 29.5q106 0 185 -28t130 -80q45 -45 65.5 -103t20.5 -121
q0 -60 -18.5 -109t-51 -89.5t-76 -73.5t-93.5 -61z" />
    <glyph glyph-name="nineoldstyle" unicode="&#xf739;" horiz-adv-x="1200" 
d="M594 352q71 0 125 23.5t90 67.5t54 106t18 139q0 93 -20 161t-57 112.5t-88.5 66t-115.5 21.5t-115.5 -20.5t-87.5 -63t-55.5 -108t-19.5 -155.5q0 -350 272 -350zM612 1208q94 0 177.5 -27.5t152.5 -97.5q40 -40 69.5 -92t48.5 -119t28.5 -150t9.5 -185
q0 -118 -10.5 -221.5t-34 -192t-62.5 -161.5t-96 -130q-41 -41 -86.5 -68.5t-93 -44.5t-96 -24.5t-95.5 -7.5q-112 0 -199.5 25.5t-156.5 62.5q-12 6 -17 15t-5 19q0 9 4 17l32 76q12 25 32 25q14 0 28 -7q63 -29 131.5 -50.5t146.5 -21.5q66 0 124 21.5t106 69.5
q34 34 58.5 80.5t41 99.5t26.5 111t15 116q-19 -32 -51 -59.5t-75 -47.5t-96 -31t-114 -11q-97 0 -177 27t-140 87q-63 63 -94 151t-31 214q0 124 35 222.5t100 167.5t157.5 105.5t206.5 36.5z" />
    <glyph glyph-name="apple" unicode="&#xf8ff;" horiz-adv-x="1913" 
d="M1206 1032h566q37 0 60 -19t23 -55q0 -21 -10.5 -39t-36.5 -36l-448 -326l172 -526q3 -10 6.5 -22t3.5 -23q0 -35 -24 -53.5t-52 -18.5q-32 0 -63 25l-447 325l-446 -325q-17 -13 -32 -19t-32 -6q-27 0 -51 18.5t-24 53.5q0 11 3.5 23t6.5 22l172 526l-449 326
q-26 18 -36.5 36t-10.5 39q0 36 23.5 55t60.5 19h566l172 531q4 10 9.5 22t14.5 22t22 16.5t31 6.5q19 0 31.5 -5.5t21.5 -15t14.5 -21.5t10.5 -25zM766 950h-614l495 -360l-190 -590l499 365l500 -365l-190 590l495 360h-614l-191 588z" />
    <glyph glyph-name="uniE002" horiz-adv-x="1024" 
 />
    <glyph glyph-name="Circumflex" horiz-adv-x="1057" 
d="M821 1745q8 -5 13.5 -13.5t5.5 -17.5q0 -10 -4 -14l-23 -35q-5 -8 -10.5 -14.5t-15.5 -6.5q-6 0 -13 3l-246 102l-245 -102q-8 -3 -13 -3q-10 0 -15.5 6.5t-10.5 14.5l-23 35q-4 4 -4 14q0 9 5.5 17.5t13.5 13.5l239 172q15 10 27.5 15t25.5 5q22 0 54 -20z" />
    <glyph glyph-name="Tilde" horiz-adv-x="1057" 
d="M393 1737q-37 0 -63 -15.5t-54 -52.5q-12 -15 -25 -15q-11 0 -26 9l-37 23q-16 10 -16 28q0 16 12 37q18 32 44 59t56.5 46t63.5 29.5t66 10.5q53 0 85 -12.5t56.5 -28t47.5 -28t59 -12.5q37 0 62.5 15t53.5 52q12 16 26 16q12 0 25 -10l37 -22q16 -10 16 -29
q0 -18 -12 -37q-18 -32 -44 -59t-56 -46t-63 -29.5t-66 -10.5q-53 0 -85 13t-56.5 28t-48 28t-58.5 13z" />
    <glyph glyph-name="Ring" horiz-adv-x="1362" 
d="M672 1849q-35 0 -57.5 -22.5t-22.5 -73.5t24.5 -73.5t59.5 -22.5t57.5 23.5t22.5 72.5q0 53 -24.5 74.5t-59.5 21.5zM672 1567q-39 0 -74.5 10t-62.5 31.5t-43.5 56.5t-16.5 86q0 49 15 84.5t42 58.5t63.5 34t80.5 11q39 0 75 -10t63 -32t43.5 -57.5t16.5 -86.5
q0 -48 -15.5 -83.5t-42.5 -58t-64 -33.5t-80 -11z" />
    <glyph glyph-name="Dieresiscondensed" horiz-adv-x="563" 
d="M520 1903q26 0 49 -10t40.5 -27.5t27.5 -40.5t10 -49t-10 -49.5t-27.5 -40.5t-40.5 -27t-49 -10t-49 10t-40.5 27t-27.5 40.5t-10 49.5t10 49t27.5 40.5t40.5 27.5t49 10zM49 1903q26 0 49 -10t40.5 -27.5t27.5 -40.5t10 -49t-10 -49.5t-27.5 -40.5t-40.5 -27t-49 -10
t-49 10t-40.5 27t-27.5 40.5t-10 49.5t10 49t27.5 40.5t40.5 27.5t49 10z" />
    <glyph glyph-name="DEL" horiz-adv-x="1024" 
 />
    <glyph glyph-name="foundryicon" horiz-adv-x="0" 
 />
    </font>
</defs>
</svg>
