<?xml version="1.0" standalone="no"?>
<!DOCTYPE svg PUBLIC "-//W3C//DTD SVG 1.1//EN" "http://www.w3.org/Graphics/SVG/1.1/DTD/svg11.dtd" >
<svg xmlns="http://www.w3.org/2000/svg" xmlns:xlink="http://www.w3.org/1999/xlink" version="1.1">
<metadata>
Created by FontForge 20161003 at Wed May 17 13:20:20 2017
 By www-data
Copyright (c) Heineken, 2000. ALL RIGHTS RESERVED. Produced for Heineken by Visualogik Technology &#38; Design, 2000. Unauthorised use strictly prohibited. 
</metadata>
<defs>
<font id="HeinekenSans-Bold" horiz-adv-x="1188" >
  <font-face 
    font-family="Heineken Sans"
    font-weight="700"
    font-stretch="normal"
    units-per-em="2048"
    panose-1="2 11 7 4 2 2 2 2 2 4"
    ascent="1638"
    descent="-410"
    x-height="1130"
    cap-height="1532"
    bbox="-193 -444 2232 1964"
    underline-thickness="175"
    underline-position="-611"
    unicode-range="U+0020-FFE6"
  />
<missing-glyph horiz-adv-x="1024" 
d="M104 0v1544h816v-1544h-816zM877 43v1458h-730v-1458h730z" />
    <glyph glyph-name=".notdef" horiz-adv-x="1024" 
d="M104 0v1544h816v-1544h-816zM877 43v1458h-730v-1458h730z" />
    <glyph glyph-name=".null" unicode="&#xffe6;" horiz-adv-x="1024" 
 />
    <glyph glyph-name="nonmarkingreturn" horiz-adv-x="1024" 
 />
    <glyph glyph-name="space" unicode=" " horiz-adv-x="532" 
 />
    <glyph glyph-name="exclam" unicode="!" horiz-adv-x="600" 
d="M322 319q37 0 69.5 -12.5t56 -35.5t37 -54.5t13.5 -69.5q0 -37 -13.5 -68t-37 -53.5t-56 -35.5t-69.5 -13q-38 0 -70.5 13t-56 35.5t-37 53.5t-13.5 68q0 38 13.5 69.5t37 54.5t56 35.5t70.5 12.5zM162 1483q0 21 14 35t35 14h217q21 0 35 -14t14 -35v-4l-37 -1022
q-5 -33 -34 -33h-170q-13 0 -23 8t-12 25l-39 1022v4z" />
    <glyph glyph-name="quotedbl" unicode="&#x22;" horiz-adv-x="791" 
d="M442 1430q-1 1 -1 10v10q0 48 32 76t92 28h35q63 0 90 -28t27 -76v-16q0 -2 -0.5 -6t-1.5 -9l-51 -407q-3 -51 -50 -51h-67q-20 0 -31 10.5t-14 38.5zM76 1430q-1 6 -1.5 12t-0.5 12q0 46 32.5 73t92.5 27h32q65 0 91 -28.5t26 -76.5q0 -8 -0.5 -15t-1.5 -15l-49 -407
q-6 -51 -51 -51h-70q-18 0 -29 10.5t-14 38.5z" />
    <glyph glyph-name="numbersign" unicode="#" 
d="M453 627h239l43 284h-239zM150 911q-27 0 -27 27v109q0 15 10 21.5t23 6.5h159l64 418q3 17 10.5 28t26.5 11h139q30 0 30 -30q0 -8 -1 -9l-64 -418h236l65 422q3 16 15 25.5t30 9.5h127q34 0 34 -31q0 -7 -1 -8l-61 -418h141q12 0 19.5 -6.5t7.5 -21.5v-109
q0 -14 -10.5 -20.5t-22.5 -6.5h-162l-43 -284h135q13 0 20 -5.5t7 -21.5v-111q0 -14 -9.5 -20t-21.5 -6h-154l-63 -424q-3 -17 -12.5 -28t-26.5 -11h-139q-30 0 -30 28q0 10 1 11l66 424h-240l-63 -424q-4 -17 -14 -28t-27 -11h-134q-31 0 -31 31q0 7 1 8l63 424h-141
q-12 0 -20.5 6t-8.5 20v111q0 16 10.5 21.5t22.5 5.5h162l43 284h-141z" />
    <glyph glyph-name="dollar" unicode="$" 
d="M686 -217q0 -16 -11 -26.5t-28 -10.5h-145q-17 0 -27 10.5t-10 26.5v205q-140 12 -237 76.5t-160 193.5q-9 16 -9 28q0 20 25 29l186 78q10 3 18 3q11 0 17.5 -6t13.5 -19q32 -76 89.5 -118t148.5 -42q53 0 94 15.5t68.5 42t42 62t14.5 75.5q0 25 -6 52t-22.5 52.5
t-46.5 49t-78 42.5l-134 53q-93 37 -159 80t-107.5 95t-60.5 113.5t-19 135.5q0 160 109 275q43 42 95 67t118 39v197q0 15 10 26t27 11h145q17 0 28 -11t11 -26v-197q90 -14 164.5 -66.5t122.5 -154.5q8 -21 8 -31q0 -13 -7.5 -20t-19.5 -12l-143 -60q-9 -3 -17 -3
q-11 0 -21 5.5t-15 18.5q-23 60 -65 87t-111 27q-40 0 -70.5 -12t-50.5 -32t-30.5 -46.5t-10.5 -54.5q0 -35 8 -61t27.5 -47.5t52 -40.5t82.5 -39l135 -54q97 -37 164 -85t107.5 -103.5t58.5 -117.5t18 -126q0 -184 -131 -315q-54 -51 -119 -80.5t-137 -40.5v-213z" />
    <glyph glyph-name="percent" unicode="%" horiz-adv-x="1554" 
d="M416 1372q-26 0 -47 -8.5t-41 -28.5t-32.5 -59t-12.5 -90q0 -57 12 -96t29 -56q23 -25 46.5 -32t49.5 -7q28 0 49 9.5t41 27.5q19 20 30 59t11 93q0 107 -41 151q-20 19 -41.5 28t-52.5 9zM414 813q-66 0 -131 19.5t-113 68.5q-54 54 -77 120.5t-23 160.5q0 55 8 99
t21 78t30.5 59.5t36.5 43.5q49 51 117 71.5t137 20.5q33 0 67 -5t66 -15.5t60 -26t49 -37.5q21 -21 40 -46.5t32.5 -59t21.5 -77t8 -101.5t-8 -102t-22 -78t-32 -59t-38 -44q-45 -46 -113 -68t-137 -22zM1128 535q-26 0 -47 -8.5t-41 -28.5t-32.5 -59.5t-12.5 -90.5
q0 -57 12 -95.5t29 -55.5q23 -25 47 -32t50 -7q27 0 48.5 9.5t41.5 29.5q18 18 29.5 56.5t11.5 92.5q0 57 -11 93t-29.5 57t-43 29.5t-52.5 9.5zM1126 -25q-66 0 -130.5 19.5t-112.5 68.5q-53 53 -77 120t-24 161q0 55 8 99t21.5 78t31 59.5t36.5 44.5q49 50 116.5 71
t137.5 21q33 0 67 -5.5t66 -16t59.5 -26t48.5 -36.5t39.5 -46.5t33 -59t22.5 -77.5t8 -102q0 -57 -8.5 -101.5t-23 -78t-32.5 -58.5t-37 -44q-45 -47 -112.5 -69t-137.5 -22zM375 -12q-10 -13 -30 -13q-13 0 -21 5l-93 53q-20 12 -20 33q0 11 6 20l952 1456q15 15 34 15
q12 0 20 -5l92 -57q9 -5 13 -14t4 -18q0 -11 -5 -19z" />
    <glyph glyph-name="ampersand" unicode="&#x26;" horiz-adv-x="1497" 
d="M522 715q-38 -32 -66.5 -63t-47.5 -64.5t-28 -71.5t-9 -84q0 -51 17 -94t48 -74q29 -29 74.5 -46t105.5 -17q66 0 128.5 21t105.5 63zM999 518q10 32 16.5 70t10 77t5 76.5t1.5 69.5q0 20 8 29.5t31 9.5h174q33 0 33 -33q0 -173 -29.5 -300.5t-77.5 -221.5
q31 -43 60 -68.5t57 -25.5q25 0 42.5 6.5t37.5 21.5q14 11 26 11q19 0 31 -17l62 -80q8 -11 8 -22q0 -12 -8 -23q-42 -60 -101.5 -91.5t-128.5 -31.5q-48 0 -86.5 7.5t-70 23t-57 39t-48.5 55.5q-85 -66 -184 -95.5t-217 -29.5q-145 0 -240 34t-155 93q-65 65 -91 143.5
t-26 162.5q0 83 22.5 150t64 123.5t98.5 105t126 94.5q-41 54 -69 98.5t-45.5 86t-25 83.5t-7.5 92q0 62 25 119t74 100t119.5 68.5t162.5 25.5q103 0 174 -24.5t115 -66t63.5 -96t19.5 -114.5q0 -109 -60.5 -204t-199.5 -187zM612 1026q66 46 102 100t36 117q0 57 -33.5 86
t-87.5 29q-30 0 -53 -9.5t-38.5 -25.5t-23.5 -37t-8 -43q0 -26 7 -49.5t20.5 -49t33 -54t45.5 -64.5z" />
    <glyph glyph-name="quotesingle" unicode="'" horiz-adv-x="406" 
d="M61 1430q-1 1 -1 10v10q0 48 32.5 76t95.5 28h35q67 0 95 -29t28 -78q0 -7 -0.5 -13.5t-1.5 -14.5l-53 -407q-6 -51 -51 -51h-72q-20 0 -31 10.5t-14 38.5z" />
    <glyph glyph-name="parenleft" unicode="(" horiz-adv-x="645" 
d="M446 -440q-9 -4 -25 -4q-20 0 -34 20q-54 81 -104 197.5t-87.5 255t-60 292t-22.5 308.5q0 161 22.5 318t61 296.5t88.5 256.5t104 198q12 18 34 18q16 0 23 -4l91 -33q21 -11 21 -41q0 -12 -3 -22q-38 -106 -70 -220.5t-55.5 -235.5t-37 -248t-13.5 -259
q0 -144 13.5 -278t37 -259t55 -240.5t68.5 -221.5q5 -22 5 -30q0 -30 -23 -38z" />
    <glyph glyph-name="parenright" unicode=")" horiz-adv-x="645" 
d="M199 1716q12 3 22 3q22 0 37 -21q54 -81 103 -197.5t86.5 -255t60 -292t22.5 -308.5q0 -161 -22.5 -318t-60 -296.5t-87.5 -256.5t-104 -198q-12 -18 -34 -18q-16 0 -23 4l-90 32q-22 10 -22 41q0 11 3 23q37 107 69 221.5t56 235t37.5 247.5t13.5 259q0 144 -13.5 278.5
t-37 259.5t-55 240.5t-68.5 220.5q-5 22 -5 30q0 27 24 38z" />
    <glyph glyph-name="asterisk" unicode="*" 
d="M817 1077l92 -286q6 -20 6 -27q0 -19 -12 -30t-29 -11q-11 0 -21 4.5t-24 13.5l-235 174l-236 -174q-14 -9 -24 -13.5t-21 -4.5q-17 0 -29 11t-12 30q0 13 7 27l92 286l-248 178q-23 18 -23 41q0 19 13 31t34 12h310l96 297q11 35 41 35t41 -35l96 -297h309
q22 0 34.5 -12t12.5 -31q0 -25 -22 -41z" />
    <glyph glyph-name="plus" unicode="+" 
d="M104 522q-18 0 -29.5 12t-11.5 29v133q0 19 11.5 30t29.5 11h340q33 0 33 33v332q0 17 11.5 29t29.5 12h150q17 0 29 -12t12 -29v-334q0 -15 6.5 -23t23.5 -8h342q17 0 29 -11t12 -30v-133q0 -17 -12 -29t-29 -12h-342q-15 0 -22.5 -6.5t-7.5 -23.5v-332q0 -17 -12 -29
t-29 -12h-150q-18 0 -29.5 12t-11.5 29v332q0 30 -35 30h-338z" />
    <glyph glyph-name="comma" unicode="," horiz-adv-x="549" 
d="M96 -317q-23 0 -32 11.5t-17 33.5q-4 12 -4 28q0 35 35 43q33 7 57.5 21t41 32t24.5 39.5t8 42.5q0 36 -17.5 56t-38 40t-38 49t-17.5 83q0 32 12.5 61t33.5 51t50 35t62 13q36 0 69 -14.5t58 -44t40 -74t15 -103.5q0 -107 -33.5 -183.5t-84.5 -125t-111 -71.5t-113 -23z
" />
    <glyph glyph-name="hyphen" unicode="-" horiz-adv-x="627" 
d="M96 520q-20 0 -31.5 11.5t-11.5 29.5v137q0 43 43 43h434q19 0 31 -11.5t12 -31.5v-137q0 -18 -12 -29.5t-31 -11.5h-434z" />
    <glyph glyph-name="period" unicode="." horiz-adv-x="543" 
d="M258 322q35 0 66.5 -13.5t55 -37t37 -55t13.5 -66.5q0 -36 -13.5 -67t-37 -54t-55 -36t-66.5 -13t-66.5 13t-55 36t-37 54t-13.5 67q0 35 13.5 66.5t37 55t55 37t66.5 13.5z" />
    <glyph glyph-name="slash" unicode="/" horiz-adv-x="1024" 
d="M821 1753q9 20 32 20q6 0 12.5 -2t13.5 -4l143 -57q24 -11 24 -36q0 -10 -4 -17l-849 -1893q-5 -11 -14 -15.5t-20 -4.5q-15 0 -22 4l-145 59q-13 5 -18.5 15t-5.5 21q0 8 3 16z" />
    <glyph glyph-name="zero" unicode="0" 
d="M594 1264q-62 0 -108 -29.5t-77.5 -92.5t-47 -162.5t-15.5 -238.5q0 -141 14.5 -241.5t45 -164.5t78.5 -94t116 -30q61 0 107 29t77 92t46.5 162t15.5 239q0 141 -14.5 242t-45 165t-78 94t-114.5 30zM592 -25q-149 0 -252.5 48t-168 143t-93.5 237t-29 330
q0 189 31.5 332.5t98.5 239.5t171 145t250 49q150 0 253.5 -48t168 -143t93 -237t28.5 -330q0 -189 -31.5 -332t-98.5 -239.5t-171.5 -145.5t-249.5 -49z" />
    <glyph glyph-name="one" unicode="1" 
d="M754 297q0 -57 53 -57h205q11 0 18.5 -12t7.5 -27v-168q0 -14 -9.5 -23.5t-24.5 -9.5h-818q-15 0 -24.5 8t-9.5 21v172q0 14 9 26.5t27 12.5h220q53 0 53 55v825q0 16 -7 16q-3 0 -14 -8l-186 -135q-11 -8 -25 -8q-19 0 -30 14l-95 127q-8 11 -8 23q0 17 15 29l368 276
q17 12 27 16.5t24 4.5h183q20 0 30.5 -12t10.5 -27v-1139z" />
    <glyph glyph-name="two" unicode="2" 
d="M94 248q85 102 168.5 181.5t159 146t139.5 124t111 116t73.5 123t26.5 144.5q0 94 -49.5 149.5t-151.5 55.5q-183 0 -229 -223q-2 -15 -12.5 -24t-26.5 -9h-8l-2 0.5l-6 1.5l-164 41q-14 4 -21 14.5t-7 25.5q0 10 3 22q24 85 64.5 152.5t100 114t138.5 71t181 24.5
q114 0 198.5 -26.5t155.5 -86.5q57 -51 89 -126t32 -166q0 -100 -28.5 -181t-77.5 -151t-112.5 -132t-134.5 -123t-143.5 -124.5t-138.5 -136.5h637q18 0 30.5 -11.5t12.5 -29.5v-160q0 -45 -41 -45h-907q-17 0 -27 7.5t-16 27.5l-31 129q-4 12 -4 32q0 26 18 52z" />
    <glyph glyph-name="three" unicode="3" 
d="M578 1499q106 0 189.5 -25t142 -71.5t89.5 -112.5t31 -147q0 -121 -52 -199t-161 -123v-2q76 -18 132 -55.5t92 -87.5t53.5 -110t17.5 -124q0 -107 -41 -193.5t-115.5 -147.5t-179 -93.5t-231.5 -32.5q-99 0 -179.5 20t-143.5 56t-110.5 85t-80.5 108q-8 14 -8 25
q0 23 28 36l164 82q13 5 20 5q22 0 35 -25q21 -36 48 -66t61.5 -52.5t77 -35t94.5 -12.5q60 0 108 15.5t82 45t52 72.5t18 98q0 64 -22.5 110t-62 76t-92.5 44t-114 14h-114q-20 0 -32 11.5t-12 31.5v143q0 16 10 27.5t31 11.5h101q45 0 90 11.5t81 36t58.5 64.5t22.5 97
q0 88 -51.5 134t-139.5 46q-54 0 -91.5 -12t-63 -33.5t-42 -51t-28.5 -65.5q-5 -27 -36 -27q-8 0 -17 3l-162 49q-26 6 -26 35q0 16 7 29q28 68 69.5 120.5t99 88.5t132.5 54.5t171 18.5z" />
    <glyph glyph-name="four" unicode="4" 
d="M670 1212h-4l-353 -696h332q16 2 20.5 9.5t4.5 21.5v665zM98 276q-25 0 -28 23l-41 160l-2 10v10q0 16 4 23l489 946q9 15 18.5 21t24.5 6h361q14 0 22 -9t8 -24v-885q0 -25 6 -32t23 -9h123q15 0 25 -7.5t10 -21.5v-165q0 -19 -8 -32.5t-25 -13.5h-125q-12 0 -20.5 -5
t-8.5 -23v-215q0 -33 -30 -33h-219q-35 0 -35 33v209q0 15 -5 24.5t-24 9.5h-543z" />
    <glyph glyph-name="five" unicode="5" 
d="M549 -25q-90 0 -169.5 22t-143 61t-109.5 92.5t-70 117.5q-4 7 -4 18q0 13 9.5 19.5t23.5 11.5l193 64l7.5 1.5t1.5 0.5q12 0 23 -21q32 -75 94 -119t150 -44q62 0 110 19t80.5 53.5t49 84t16.5 111.5q0 131 -59.5 198.5t-186.5 67.5q-59 0 -100 -15.5t-70.5 -33.5
t-49.5 -33.5t-36 -15.5q-8 0 -13 2.5t-13 7.5l-136 78q-12 13 -12 28q0 5 0.5 10t1.5 11l94 670q4 20 13.5 26.5t34.5 6.5h649q14 0 25.5 -6.5t11.5 -24.5v-189q0 -18 -9.5 -23t-29.5 -5h-469q-18 0 -21 -17l-41 -307q45 26 109 40.5t133 14.5q109 0 198 -29.5t152 -92.5
q63 -66 94 -152t31 -203q0 -115 -35.5 -206.5t-107.5 -157.5q-85 -76 -192 -109t-228 -33z" />
    <glyph glyph-name="six" unicode="6" 
d="M608 768q-59 0 -103 -19t-73.5 -54.5t-44 -86t-14.5 -112.5q0 -153 62 -224t167 -71q53 0 95 16t71.5 50t45 87.5t15.5 128.5q0 285 -221 285zM592 -25q-103 0 -193.5 30t-165.5 99q-43 40 -75 91.5t-53 118t-31.5 149t-10.5 184.5q0 235 53.5 406t176.5 286
q85 81 191 120.5t237 39.5q81 0 156 -12.5t141 -38.5q13 -5 18 -14.5t5 -20.5q0 -9 -3 -16l-49 -129q-6 -25 -33 -25q-16 0 -24 4q-37 14 -85 23.5t-97 9.5q-89 0 -147 -23t-101 -63q-57 -57 -87.5 -140t-39.5 -177q35 52 113.5 85t193.5 33q196 0 311 -112
q69 -66 103 -156.5t34 -216.5q0 -125 -38 -224.5t-108.5 -168.5t-170 -105.5t-221.5 -36.5z" />
    <glyph glyph-name="seven" unicode="7" 
d="M621 41q0 -16 -11 -28.5t-26 -12.5h-219q-41 0 -41 41v6q7 178 44 342.5t98.5 313.5t144.5 280.5t182 243.5h-11h-669q-19 0 -30 12t-11 29v166q0 17 11 29t30 12h907q18 0 29 -9.5t14 -23.5l39 -176q3 -12 3 -19q0 -17 -15 -35q-119 -133 -207.5 -269.5t-146.5 -281
t-86.5 -298.5t-28.5 -322z" />
    <glyph glyph-name="eight" unicode="8" 
d="M602 924q39 21 71 43.5t55 48t35.5 55t12.5 64.5q0 72 -49.5 114.5t-134.5 42.5q-42 0 -74.5 -11.5t-55 -32t-34.5 -48.5t-12 -61q0 -39 13.5 -70t38.5 -56.5t59 -47t75 -41.5zM571 653q-103 -55 -159 -117.5t-56 -148.5q0 -104 64.5 -153.5t173.5 -49.5q59 0 102.5 15
t72 41.5t42.5 63t14 79.5q0 45 -18 83t-51 71t-80 61.5t-105 54.5zM807 813q58 -30 116 -67.5t104 -88t74.5 -116.5t28.5 -154q0 -78 -27.5 -150.5t-78.5 -123.5q-66 -66 -174 -102t-260 -36q-81 0 -145.5 7.5t-117 23t-94 39t-75.5 55.5q-51 48 -76 121t-25 154
q0 76 27 137t71.5 110.5t101.5 89t116 72.5q-46 27 -88.5 61t-75.5 77t-52.5 96.5t-19.5 118.5q0 66 23 131.5t71 111.5q28 28 63 50t80.5 37.5t101.5 23.5t126 8q131 0 219 -29.5t142 -83.5q45 -45 66.5 -105.5t21.5 -123.5q0 -61 -20.5 -112t-54 -93t-77.5 -76.5
t-92 -62.5z" />
    <glyph glyph-name="nine" unicode="9" 
d="M580 711q59 0 103 19t73.5 54t44 85t14.5 112q0 151 -62 222t-167 71t-166.5 -67.5t-61.5 -213.5q0 -282 222 -282zM598 1499q103 0 192 -29t164 -98q44 -41 76 -92.5t53 -117.5t31 -148.5t10 -184.5q0 -117 -11.5 -220t-37 -191t-67.5 -161.5t-103 -131.5
q-88 -82 -188.5 -116t-212.5 -34q-121 0 -218.5 25.5t-172.5 67.5q-13 7 -18 16.5t-5 20.5q0 4 2 14l60 133q11 23 30 23q11 0 29 -9q60 -29 123.5 -49t138.5 -20q63 0 116.5 16t96.5 53q31 27 53 63.5t37 79.5t23.5 91.5t13.5 99.5q-35 -54 -115 -87.5t-192 -33.5
q-100 0 -175.5 29t-135.5 86q-70 66 -104 156.5t-34 216.5q0 123 38 221.5t108.5 167.5t170.5 106t224 37z" />
    <glyph glyph-name="colon" unicode=":" horiz-adv-x="618" 
d="M313 1034q36 0 67 -13.5t54.5 -37t37 -55t13.5 -66.5t-13.5 -66.5t-37 -55t-54.5 -37t-67 -13.5q-35 0 -66.5 13.5t-55 37t-37 55t-13.5 66.5t13.5 66.5t37 55t55 37t66.5 13.5zM313 322q36 0 67 -13.5t54.5 -37t37 -55t13.5 -66.5q0 -36 -13.5 -67t-37 -54t-54.5 -36
t-67 -13q-35 0 -66.5 13t-55 36t-37 54t-13.5 67q0 35 13.5 66.5t37 55t55 37t66.5 13.5z" />
    <glyph glyph-name="semicolon" unicode=";" horiz-adv-x="629" 
d="M145 -317q-23 0 -32 11.5t-17 33.5q-4 12 -4 28q0 35 35 43q33 7 57.5 21t41 32t24.5 39.5t8 42.5q0 36 -17.5 56t-38 40t-38 49t-17.5 83q0 32 12.5 61t33.5 51t50 35t62 13q36 0 69 -14.5t58 -44t40 -74t15 -103.5q0 -107 -33.5 -183.5t-84.5 -125t-111 -71.5t-113 -23
zM313 1034q36 0 67 -13.5t54.5 -37t37 -55t13.5 -66.5t-13.5 -66.5t-37 -55t-54.5 -37t-67 -13.5q-35 0 -66.5 13.5t-55 37t-37 55t-13.5 66.5t13.5 66.5t37 55t55 37t66.5 13.5z" />
    <glyph glyph-name="less" unicode="&#x3c;" 
d="M115 502q-33 13 -33 51v145q0 36 33 50l884 362q9 3 19 3q27 0 41 -23l43 -91q6 -12 6 -25q0 -14 -6.5 -26.5t-18.5 -17.5l-739 -295l739 -297q15 -5 22 -18t7 -28t-4 -22l-47 -108q-12 -22 -37 -22q-7 0 -25 5z" />
    <glyph glyph-name="equal" unicode="=" 
d="M106 309q-15 0 -24.5 10t-9.5 27v129q0 37 37 37h968q39 0 39 -37v-129q0 -37 -39 -37h-971zM106 752q-15 0 -24.5 9.5t-9.5 24.5v129q0 17 9 28t28 11h968q19 0 29 -11t10 -28v-129q0 -15 -10 -24.5t-29 -9.5h-971z" />
    <glyph glyph-name="greater" unicode="&#x3e;" 
d="M1071 758q33 -14 33 -51v-146q0 -36 -33 -49l-885 -360q-17 -5 -22 -5q-12 0 -22.5 6t-16.5 19l-43 88q-4 7 -4 24q0 15 6 28t18 18l738 295l-740 297q-13 5 -20 18.5t-7 27.5q0 6 5 23l45 107q6 12 16.5 17t21.5 5q16 0 23 -4z" />
    <glyph glyph-name="question" unicode="?" horiz-adv-x="936" 
d="M463 319q37 0 69 -12.5t56 -35.5t37.5 -54.5t13.5 -69.5q0 -37 -13.5 -68t-37.5 -53.5t-56 -35.5t-69 -13q-38 0 -70 13t-55.5 35.5t-37 53.5t-13.5 68q0 38 13.5 69.5t37 54.5t55.5 35.5t70 12.5zM586 455q0 -31 -33 -31h-180q-16 0 -25.5 8.5t-9.5 24.5v166
q0 81 21.5 140t53 104.5t69 81.5t69 72t53 76.5t21.5 94.5q0 69 -42 109t-120 40q-82 0 -121 -43.5t-39 -121.5q0 -14 -8 -20.5t-19 -6.5h-186q-37 0 -37 27q0 90 26 160t78.5 118.5t132 74t187.5 25.5t187 -28.5t130.5 -75.5t76 -109t24.5 -129q0 -69 -13.5 -118.5
t-35 -86.5t-49.5 -65t-56.5 -54t-56.5 -52.5t-49.5 -60.5t-35 -79t-13.5 -108v-133z" />
    <glyph glyph-name="at" unicode="@" horiz-adv-x="1837" 
d="M938 942q-30 0 -57.5 -16.5t-48.5 -48t-33.5 -78t-12.5 -105.5q0 -92 29 -129t80 -37q24 0 51 15t50 46.5t38 79.5t15 115q0 76 -27 117t-84 41zM1104 1092q4 36 41 36h117q26 0 26 -30v-6l-37 -441q-1 -2 -1 -10v-10v-17q0 -51 14.5 -76.5t56.5 -25.5q28 0 55 23.5
t47 72.5t32.5 124t12.5 179q0 117 -32 203.5t-92 144t-146 85.5t-194 28q-127 0 -242.5 -54t-203.5 -153t-140.5 -237.5t-52.5 -306.5q0 -138 37 -243t100 -176t148 -107t181 -36q88 0 166 21.5t133 58.5q14 8 25 8q20 0 33 -22l51 -96q3 -8 3 -15q0 -21 -19 -37
q-76 -54 -179.5 -86t-228.5 -32q-145 0 -274.5 44.5t-227 138t-154.5 237.5t-57 342q0 144 32 270.5t91 232t141.5 188t183 140t216 87.5t240.5 30q183 0 317.5 -48t222 -133t130 -202t42.5 -256t-30.5 -252.5t-86.5 -194t-135.5 -124.5t-177.5 -44q-37 0 -71 10.5t-60 31
t-42 51t-17 71.5q-18 -38 -44 -68.5t-58 -51.5t-68 -32.5t-74 -11.5q-145 0 -223 90t-78 271q0 108 27 194.5t76 147.5t116 94t148 33q69 0 114.5 -28t65.5 -79z" />
    <glyph glyph-name="A" unicode="A" horiz-adv-x="1374" 
d="M825 641q16 0 16 13q0 9 -1 10l-158 493h-2l-166 -493q-1 -1 -1 -10q0 -13 17 -13h295zM526 1503q7 16 15.5 22.5t23.5 6.5h248q16 0 25 -8t14 -21l504 -1450q1 -4 1.5 -7t0.5 -6q0 -16 -10.5 -28t-28.5 -12h-238q-32 0 -43 29l-114 358q-5 14 -14 18.5t-21 4.5h-426
q-24 0 -35 -23l-119 -356q-7 -31 -43 -31h-211q-17 0 -28.5 12t-11.5 29q0 9 3 18z" />
    <glyph glyph-name="B" unicode="B" horiz-adv-x="1225" 
d="M461 709q-23 0 -23 -23v-430q0 -23 23 -23h133q137 0 201.5 57.5t64.5 166.5q0 56 -14.5 102.5t-47.5 79.5t-86 51.5t-130 18.5h-121zM461 1300q-23 0 -23 -24v-313q0 -21 23 -21h102q100 0 153.5 49.5t53.5 130.5q0 39 -11.5 72t-36 56.5t-63 36.5t-92.5 13h-106zM170 0
q-14 0 -23.5 9.5t-9.5 23.5v1466q0 14 9.5 23.5t23.5 9.5h416q118 0 194 -16t131 -50q82 -49 120 -123.5t38 -177.5q0 -55 -14.5 -104t-42 -89t-67.5 -69.5t-91 -44.5l-16 -4l16 -4q72 -14 131 -48t101 -85t65 -116.5t23 -141.5q0 -114 -41 -199.5t-115 -143.5t-177.5 -87
t-228.5 -29h-442z" />
    <glyph glyph-name="C" unicode="C" horiz-adv-x="1278" 
d="M995 1061q-8 -3 -15 -3q-31 0 -38 25q-15 47 -37 86.5t-53 68t-70.5 44.5t-89.5 16q-78 0 -138 -36.5t-100.5 -105t-61.5 -166.5t-21 -222q0 -128 18 -227t57 -166.5t100 -103t148 -35.5q55 0 102 16.5t85.5 46.5t68 71t49.5 89q12 28 39 28q12 0 19 -4l172 -75
q12 -5 17.5 -15t5.5 -22q0 -8 -3 -17q-29 -84 -79.5 -153.5t-121.5 -119.5t-161.5 -78t-198.5 -28q-193 0 -326 73.5t-202 215.5q-59 115 -81 234t-22 256q0 146 23 269t82 228q36 67 88 123t119.5 96t150 62t180.5 22q104 0 190 -28t152 -78t111 -121t66 -156q1 -1 1 -10
q0 -32 -24 -39z" />
    <glyph glyph-name="D" unicode="D" horiz-adv-x="1368" 
d="M438 268q0 -18 6.5 -24t26.5 -6h137q103 0 178 39t123.5 109t71.5 168t23 216q0 141 -31 241t-85.5 163.5t-128 92.5t-157.5 29h-131q-20 0 -26.5 -6t-6.5 -26v-996zM182 0q-18 0 -31.5 12t-13.5 35v1442q0 18 11.5 30.5t31.5 12.5h418q189 0 324 -57.5t221.5 -158
t127 -238.5t40.5 -298q0 -167 -41 -309.5t-127 -247t-221 -164t-322 -59.5h-418z" />
    <glyph glyph-name="E" unicode="E" horiz-adv-x="1141" 
d="M178 0q-18 0 -29.5 12t-11.5 31v1442q0 21 12 34t35 13h826q18 0 30.5 -12.5t12.5 -30.5v-150q0 -18 -11.5 -29.5t-31.5 -11.5h-551q-21 0 -21 -18v-326q0 -22 23 -22h444q17 0 29 -12t12 -29v-150q0 -17 -12 -29t-29 -12h-442q-14 0 -19.5 -5.5t-5.5 -14.5v-426
q0 -9 5.5 -15t15.5 -6h565q15 0 28 -10.5t13 -27.5v-154q0 -17 -13 -29t-28 -12h-846z" />
    <glyph glyph-name="F" unicode="F" horiz-adv-x="1061" 
d="M180 0q-21 0 -32 12t-11 31v1444q0 18 13 31.5t30 13.5h801q19 0 30 -12t11 -29v-152q0 -18 -11 -29.5t-28 -11.5h-524q-21 0 -21 -18v-326q0 -22 23 -22h416q15 0 26.5 -12t11.5 -29v-150q0 -17 -11.5 -29t-26.5 -12h-414q-14 0 -19.5 -5.5t-5.5 -14.5v-639
q0 -17 -10.5 -29t-30.5 -12h-217z" />
    <glyph glyph-name="G" unicode="G" horiz-adv-x="1368" 
d="M1237 152q-53 -39 -115 -72t-129.5 -56t-138.5 -36t-143 -13q-88 0 -171 16.5t-155.5 54t-133 98t-103.5 147t-67 202t-24 263.5q0 142 23.5 267t85.5 230q38 64 89.5 119.5t118 95.5t150 63t185.5 23q101 0 186 -25t151 -72t113 -115t72 -154q1 -5 1.5 -9t0.5 -6
q0 -29 -29 -38l-194 -60q-10 -2 -15 -2q-31 0 -41 27q-12 42 -33 79t-53 64.5t-75.5 43.5t-100.5 16q-80 0 -141 -36.5t-102.5 -105t-62.5 -167.5t-21 -224q0 -278 86 -409.5t260 -131.5q69 0 132.5 17t114.5 51q15 7 15 29v262q0 22 -19 22h-206q-16 0 -28.5 12t-12.5 29
v152q0 17 12 29t31 12h469q18 0 31.5 -12.5t13.5 -32.5v-588q0 -41 -27 -59z" />
    <glyph glyph-name="H" unicode="H" horiz-adv-x="1432" 
d="M991 702q0 10 -5.5 16.5t-16.5 6.5h-508q-9 0 -16 -6.5t-7 -16.5v-661q0 -17 -11 -29t-30 -12h-219q-17 0 -29 12t-12 29v1450q0 17 12 29t29 12h219q19 0 30 -12t11 -29v-510q0 -9 7 -16t16 -7h508q11 0 16.5 7t5.5 16v510q0 17 12.5 29t30.5 12h219q17 0 29 -12t12 -29
v-1450q0 -17 -12 -29t-29 -12h-219q-18 0 -30.5 12t-12.5 29v661z" />
    <glyph glyph-name="I" unicode="I" horiz-adv-x="575" 
d="M174 0q-15 0 -26 10t-11 27v1458q0 16 11 26.5t26 10.5h227q17 0 27 -10.5t10 -26.5v-1458q0 -16 -10 -26.5t-27 -10.5h-227z" />
    <glyph glyph-name="J" unicode="J" horiz-adv-x="643" 
d="M145 -313q-91 0 -157.5 21.5t-120.5 60.5q-16 10 -16 30q0 17 10 27l71 111q13 18 34 18q13 0 24 -8q12 -10 36.5 -18.5t55.5 -8.5q121 0 121 146v1425q0 17 13 29t30 12h219q17 0 29 -12t12 -29v-1376q0 -57 -5.5 -106t-21.5 -89q-17 -59 -50.5 -102.5t-78 -72.5
t-97.5 -43.5t-108 -14.5z" />
    <glyph glyph-name="K" unicode="K" horiz-adv-x="1280" 
d="M952 0q-17 0 -26.5 8t-16.5 19l-383 655q-6 7 -13 7q-8 0 -15 -7l-47 -49q-8 -8 -10.5 -13.5t-2.5 -11.5v-567q0 -17 -11 -29t-30 -12h-219q-17 0 -29 12t-12 29v1450q0 17 12 29t29 12h219q19 0 30 -12t11 -29v-545l11 12l456 560q6 8 15 11t20 3h250q20 0 30.5 -11.5
t10.5 -27.5t-12 -31l-474 -534q-6 -8 -6 -20t4 -19l523 -828q5 -13 5 -20q0 -17 -12.5 -29t-31.5 -12h-275z" />
    <glyph glyph-name="L" unicode="L" horiz-adv-x="989" 
d="M967 41q0 -17 -12 -29t-29 -12h-740q-23 0 -36 13.5t-13 33.5v1444q0 17 12 29t29 12h219q19 0 30 -12t11 -29v-1227q0 -18 19 -18h469q17 0 29 -11t12 -28v-166z" />
    <glyph glyph-name="M" unicode="M" horiz-adv-x="1649" 
d="M1253 0q-20 0 -31.5 12t-11.5 29v993h-2l-258 -663q-6 -23 -30 -23h-191q-11 0 -18 5.5t-11 13.5l-268 667h-2v-993q0 -17 -11 -29t-30 -12h-211q-17 0 -29 11t-12 28v1452q0 17 11.5 29t29.5 12h326q17 0 26.5 -9t14.5 -22l278 -692q7 -22 13 -22q5 0 12 22l270 682
q11 25 22.5 33t28.5 8h301q17 0 29 -12t12 -29v-1450q0 -19 -12 -30t-29 -11h-217z" />
    <glyph glyph-name="N" unicode="N" horiz-adv-x="1386" 
d="M1251 41q0 -19 -12 -30t-31 -11h-264q-22 0 -35 8.5t-24 30.5l-428 899l-49 111v-1008q0 -20 -12 -30.5t-29 -10.5h-189q-17 0 -29 11t-12 30v1450q0 17 11.5 29t29.5 12h275q21 0 33.5 -9t21.5 -28l422 -879l51 -112v993q0 35 37 35h192q16 0 28.5 -9.5t12.5 -29.5
v-1452z" />
    <glyph glyph-name="O" unicode="O" horiz-adv-x="1450" 
d="M723 1315q-66 0 -119.5 -21t-95.5 -61q-68 -69 -101.5 -190.5t-33.5 -274.5q0 -167 33 -285.5t102 -187.5q43 -43 99 -61.5t122 -18.5t118.5 21t92.5 61q67 69 101 190t34 275q0 165 -33 283.5t-102 187.5q-43 43 -97 62.5t-120 19.5zM719 -25q-134 0 -247.5 35
t-201.5 117q-48 45 -87 103.5t-67 136t-43.5 174.5t-15.5 219q0 124 16.5 223t45.5 176.5t68 136t85 103.5q91 83 207.5 119t249.5 36q134 0 247 -35t204 -116q47 -45 86 -104t66.5 -136t43 -174.5t15.5 -220.5q0 -124 -16.5 -222t-45 -175.5t-68 -136t-85.5 -103.5
q-90 -84 -206.5 -120t-250.5 -36z" />
    <glyph glyph-name="P" unicode="P" horiz-adv-x="1171" 
d="M459 1298q-13 0 -17 -5t-4 -17v-475q0 -13 4 -17t17 -4h137q115 0 173 72t58 195q0 55 -14.5 101t-43.5 79.5t-72 52t-101 18.5h-137zM465 547q-27 0 -27 -27v-487q0 -14 -9 -23.5t-23 -9.5h-236q-14 0 -23.5 9.5t-9.5 23.5v1456q0 43 43 43h410q91 0 171 -11.5
t146 -45.5q111 -59 172.5 -161t61.5 -253q0 -90 -17 -161t-48.5 -125.5t-75.5 -95t-99 -69.5q-63 -34 -140.5 -48.5t-168.5 -14.5h-127z" />
    <glyph glyph-name="Q" unicode="Q" horiz-adv-x="1450" 
d="M723 1315q-66 0 -119.5 -21t-95.5 -61q-68 -69 -101.5 -190.5t-33.5 -274.5q0 -167 33 -285.5t102 -187.5q43 -43 99 -61.5t122 -18.5t118.5 21t92.5 61q67 69 101 190t34 275q0 165 -33 283.5t-102 187.5q-43 43 -97 62.5t-120 19.5zM866 -47q0 -94 92 -94
q29 0 63.5 13.5t61.5 29.5q12 9 26 9q21 0 34 -22l65 -94q7 -10 7 -23q0 -20 -15 -30q-60 -48 -136.5 -76t-164.5 -28q-90 0 -151 17t-98.5 54t-53.5 94t-16 138v45q-91 14 -169 47.5t-141 93.5q-48 45 -87 103.5t-67 136t-43.5 174.5t-15.5 219q0 124 16.5 223t45.5 176.5
t68 136t85 103.5q91 83 207.5 119t249.5 36q134 0 247 -35t204 -116q47 -45 86 -104t66.5 -136t43 -174.5t15.5 -220.5q0 -124 -16.5 -222t-45 -175.5t-68 -136t-85.5 -103.5q-63 -60 -141 -95t-169 -50v-33z" />
    <glyph glyph-name="R" unicode="R" horiz-adv-x="1241" 
d="M461 1298q-23 0 -23 -22v-377q0 -12 5 -16t16 -4h116q117 0 168.5 58.5t51.5 160.5q0 97 -49.5 148.5t-155.5 51.5h-129zM1145 47q1 -1 1 -10q0 -17 -11.5 -27t-30.5 -10h-225q-16 0 -26 9.5t-15 25.5q-4 15 -7 34.5t-5.5 40.5t-3.5 42.5t-1 40.5v210q0 57 -7.5 102
t-30.5 76t-64.5 47.5t-110.5 16.5h-149q-21 0 -21 -20v-584q0 -17 -11 -29t-30 -12h-219q-17 0 -29 12t-12 29v1458q0 14 9 23.5t26 9.5h424q106 0 193.5 -17.5t156.5 -60.5q79 -46 121.5 -127.5t42.5 -187.5q0 -60 -12.5 -113.5t-39 -97.5t-68.5 -78.5t-101 -56.5v-5
q72 -13 117.5 -45.5t71 -79.5t35 -106.5t9.5 -126.5v-199q0 -42 6 -93t17 -91z" />
    <glyph glyph-name="S" unicode="S" horiz-adv-x="1120" 
d="M510 -25q-98 0 -176 18t-140 53.5t-109.5 89.5t-84.5 126q-7 13 -7 29q0 19 27 33l195 82q18 5 20 5q20 0 31 -30q34 -79 96 -122.5t156 -43.5q55 0 98 16.5t72.5 44.5t44.5 66t15 80q0 27 -6.5 55t-24 55.5t-49 53t-80.5 47.5l-142 59q-98 40 -167 85.5t-113.5 100.5
t-65 120t-20.5 143q0 169 117 289q60 58 145 92t203 34q68 0 128.5 -12.5t112 -40.5t93.5 -73.5t73 -110.5q12 -26 12 -39q0 -23 -28 -33l-166 -69q-2 0 -4.5 -0.5t-4.5 -0.5q-10 0 -17.5 4.5t-12.5 16.5q-25 69 -69.5 99t-116.5 30q-42 0 -74.5 -13.5t-54 -35.5
t-32.5 -50.5t-11 -58.5q0 -36 8.5 -63.5t29.5 -51t55.5 -44t86.5 -41.5l141 -58q102 -41 172.5 -93t113.5 -111t62 -124.5t19 -133.5q0 -94 -34 -180t-103 -152q-73 -72 -177 -107t-237 -35z" />
    <glyph glyph-name="T" unicode="T" horiz-adv-x="1214" 
d="M455 1276q0 20 -23 20h-375q-18 0 -30.5 12t-12.5 29v154q0 17 12.5 29t30.5 12h1102q17 0 29 -12t12 -29v-154q0 -17 -12 -29t-29 -12h-383q-20 0 -20 -20v-1235q0 -17 -12 -29t-29 -12h-219q-17 0 -29 12t-12 29v1235z" />
    <glyph glyph-name="U" unicode="U" horiz-adv-x="1366" 
d="M682 -25q-272 0 -409.5 127t-137.5 387v1002q0 17 12 29t29 12h219q17 0 29 -12t12 -29v-983q0 -142 59 -216.5t197 -74.5q248 0 248 281v993q0 17 12 29t29 12h211q15 0 27 -12t12 -29v-995q0 -138 -39 -236.5t-110.5 -161.5t-173 -93t-226.5 -30z" />
    <glyph glyph-name="V" unicode="V" horiz-adv-x="1206" 
d="M784 31q-3 -14 -14 -22.5t-25 -8.5h-227q-14 0 -25 8t-14 21l-465 1450q-1 5 -1.5 8t-0.5 5q0 16 11 28t30 12h238q32 0 41 -33l301 -1042h2l252 1042q6 33 39 33h225q20 0 30 -11.5t10 -27.5q0 -11 -1 -12z" />
    <glyph glyph-name="W" unicode="W" horiz-adv-x="1776" 
d="M33 1483q-1 1 -1 11q0 15 9.5 26.5t28.5 11.5h221q17 0 28.5 -9.5t14.5 -25.5l170 -827l37 -201l43 203l174 825q3 19 15.5 27t29.5 8h192q37 0 43 -33l183 -840l36 -190l37 197l172 833q6 33 41 33h201q17 0 28 -11t11 -29q0 -2 -0.5 -6t-1.5 -9l-344 -1444
q-11 -33 -41 -33h-219q-16 0 -26 9.5t-13 25.5l-182 794l-37 175l-33 -175l-170 -794q-6 -35 -37 -35h-223q-13 0 -24.5 8t-16.5 25z" />
    <glyph glyph-name="X" unicode="X" horiz-adv-x="1257" 
d="M621 592l-297 -567q-5 -11 -15 -18t-22 -7h-250q-20 0 -30 11.5t-10 26.5q0 8 5 21l447 750l-375 664q-6 10 -6 20q0 16 12 27.5t29 11.5h245q16 0 25 -7.5t14 -17.5l240 -454l241 454q5 13 15 19t22 6h217q19 0 29.5 -11t10.5 -25q0 -13 -7 -23l-354 -629l440 -785
q6 -11 6 -22q0 -15 -11 -26t-28 -11h-260q-14 0 -23 5t-16 18z" />
    <glyph glyph-name="Y" unicode="Y" horiz-adv-x="1133" 
d="M725 33q0 -14 -9 -23.5t-22 -9.5h-239q-14 0 -22.5 9.5t-8.5 23.5v606l-416 838q-4 8 -6 14.5t-2 12.5q0 14 9.5 21t23.5 7h272q9 0 15.5 -6.5t11.5 -16.5l260 -587l250 583q5 13 13 20t22 7h239q12 0 19.5 -7.5t7.5 -18.5q0 -9 -6 -21l-412 -846v-606z" />
    <glyph glyph-name="Z" unicode="Z" horiz-adv-x="1079" 
d="M406 248h575q19 0 31 -11.5t12 -31.5v-166q0 -16 -12 -27.5t-29 -11.5h-887q-38 0 -41 37l-18 137q-1 1 -1 11q0 18 7 28l604 1075h-545q-17 0 -30 11t-13 28v166q0 14 11.5 26.5t29.5 12.5h873q15 0 25 -9.5t12 -25.5l16 -108q0 -3 0.5 -6t0.5 -6q0 -9 -2 -16.5
t-7 -17.5z" />
    <glyph glyph-name="bracketleft" unicode="[" horiz-adv-x="727" 
d="M412 -227q0 -17 16 -17h158q15 0 25 -7.5t10 -24.5v-119q0 -17 -10 -26t-25 -9h-371q-17 0 -27 12.5t-10 32.5v2054q0 14 10 25.5t27 11.5h371q15 0 25 -9t10 -26v-119q0 -17 -10 -24.5t-25 -7.5h-156q-18 0 -18 -19v-1728z" />
    <glyph glyph-name="backslash" unicode="\" horiz-adv-x="1024" 
d="M1044 -141q4 -7 4 -17q0 -25 -24 -35l-147 -59q-7 -4 -22 -4q-11 0 -20 4.5t-14 15.5l-850 1893q-3 7 -3 16q0 11 5.5 21.5t18.5 15.5l145 57q7 2 13.5 4t12.5 2q21 0 32 -20z" />
    <glyph glyph-name="bracketright" unicode="]" horiz-adv-x="727" 
d="M313 1503q0 17 -16 17h-158q-15 0 -25 7.5t-10 24.5v119q0 17 10 26t25 9h373q17 0 27 -12t10 -29v-2054q0 -17 -10 -29t-27 -12h-373q-15 0 -25 9t-10 26v119q0 17 10 24.5t25 7.5h158q16 0 16 17v1730z" />
    <glyph glyph-name="asciicircum" unicode="^" 
d="M1081 836q6 -11 6 -21q0 -27 -26 -41l-103 -51q-14 -6 -27 -6q-30 0 -46 28l-301 568l-299 -568q-14 -26 -46 -26q-13 0 -28 6l-88 49q-24 15 -24 40q0 4 5 22l365 686q16 30 51 30h146q34 0 51 -30z" />
    <glyph glyph-name="underscore" unicode="_" 
d="M27 -430q-27 0 -27 24v144q0 29 27 29h1132q29 0 29 -29v-141q0 -27 -29 -27h-1132z" />
    <glyph glyph-name="grave" unicode="`" horiz-adv-x="600" 
d="M92 1401q-25 15 -38.5 33t-13.5 38q0 33 40 72l14 15q44 44 80 44q18 0 34.5 -10t33.5 -28l217 -238q12 -12 12 -28q0 -17 -10 -27l-37 -39q-6 -6 -13.5 -10t-15.5 -4q-11 0 -22 8z" />
    <glyph glyph-name="a" unicode="a" horiz-adv-x="1133" 
d="M739 518q-12 -6 -29.5 -10t-35.5 -6l-72 -13q-81 -11 -130.5 -27.5t-77 -38t-37 -46.5t-9.5 -53q0 -66 38 -102t110 -36q60 0 105.5 21t76 53.5t46 70t15.5 70.5v117zM752 123q-51 -66 -134 -107t-186 -41q-83 0 -151.5 21t-117 62t-75.5 101.5t-27 139.5
q0 73 24.5 133.5t81.5 107.5t150.5 80.5t231.5 53.5l108 16q48 8 65 26t17 44v6q0 87 -42.5 134.5t-135.5 47.5q-39 0 -68 -10t-50.5 -27t-36 -40.5t-23.5 -51.5q-11 -29 -36 -29q-8 0 -17 3l-174 47q-23 8 -23 33q0 10 8 34q23 58 61 104t92.5 78t126.5 49t163 17
q44 0 90.5 -7t89.5 -20t80.5 -32.5t64.5 -44.5q53 -50 76 -113.5t23 -153.5v-747q0 -37 -35 -37h-185q-21 0 -28.5 7t-7.5 24v92z" />
    <glyph glyph-name="b" unicode="b" horiz-adv-x="1223" 
d="M633 918q-51 0 -94.5 -21.5t-76 -65t-51 -110t-18.5 -156.5t18.5 -156.5t50.5 -110.5t75.5 -65.5t93.5 -21.5q117 0 176 92t59 260q0 178 -59 266.5t-174 88.5zM676 -25q-45 0 -88.5 10.5t-81.5 29.5t-68.5 45.5t-50.5 58.5v-78q0 -19 -12 -30t-29 -11h-180q-17 0 -29 11
t-12 30v1538q0 15 10 25t27 10h198q37 0 37 -35v-567q48 63 124.5 103t176.5 40q103 0 178.5 -34.5t129.5 -88.5q151 -151 151 -469q0 -149 -39 -265t-121 -198q-62 -62 -139 -93.5t-182 -31.5z" />
    <glyph glyph-name="c" unicode="c" horiz-adv-x="1087" 
d="M1042 270q-25 -68 -69.5 -122.5t-104.5 -93t-133.5 -59t-156.5 -20.5q-155 0 -265.5 61.5t-173.5 176.5q-40 72 -59 161t-19 183q0 97 17.5 184t54.5 156q69 127 181 192.5t274 65.5q84 0 157 -21.5t130 -62t96.5 -100t56.5 -135.5q2 -10 2 -9v-9q0 -14 -6 -24.5
t-23 -13.5l-167 -39q-5 -1 -9 -1.5t-8 -0.5q-32 0 -41 27q-18 72 -65 113t-119 41q-51 0 -94.5 -21.5t-75.5 -65.5t-50 -110.5t-18 -155.5q0 -96 19.5 -163.5t52.5 -109.5t77.5 -61.5t94.5 -19.5q39 0 72.5 11.5t61 31t48.5 45.5t35 55q6 13 15.5 21t23.5 8q11 0 18 -4
l144 -53q30 -14 30 -40q0 -11 -4 -18z" />
    <glyph glyph-name="d" unicode="d" horiz-adv-x="1223" 
d="M592 918q-117 0 -176.5 -92.5t-59.5 -258.5q0 -354 234 -354q51 0 94.5 21.5t75.5 65t50.5 109t18.5 154.5q0 90 -18.5 156.5t-50.5 111t-75.5 66t-92.5 21.5zM825 1573q0 18 11.5 29.5t29.5 11.5h189q18 0 29.5 -11.5t11.5 -29.5v-1532q0 -19 -11 -30t-28 -11h-180
q-19 0 -30 11t-11 30v84q-20 -32 -51 -59.5t-71.5 -47.5t-89 -31.5t-102.5 -11.5q-100 0 -175.5 34.5t-129.5 88.5q-151 151 -151 467q0 152 38 266t119 195q60 62 137 95.5t187 33.5q44 0 86 -10t78.5 -27t65.5 -40.5t48 -51.5v547z" />
    <glyph glyph-name="e" unicode="e" horiz-adv-x="1161" 
d="M598 948q-59 0 -105 -24.5t-78.5 -68t-49.5 -103.5t-17 -131q0 -14 3.5 -21t16.5 -7q5 0 12 1.5t17 3.5q35 9 81.5 22.5t94.5 29t93 32t77 31.5q25 12 34 25t9 30q0 27 -11.5 58.5t-35 58.5t-58.5 45t-83 18zM1098 201q-81 -109 -203 -166.5t-287 -57.5
q-161 0 -278.5 65.5t-190.5 193.5q-38 69 -58 152t-20 177q0 88 18.5 164t49.5 139q34 65 80.5 118t106.5 90.5t133.5 58t160.5 20.5q113 0 201.5 -37.5t150 -96t93.5 -129.5t32 -138q0 -30 -6 -51.5t-19.5 -39t-36 -33t-54.5 -32.5q-42 -23 -107 -50.5t-140.5 -55t-155 -53
t-150.5 -44.5q-25 -7 -25 -25q0 -1 0.5 -4t1.5 -8q12 -35 35 -64.5t56 -51t74.5 -33.5t90.5 -12q88 0 162 36.5t137 102.5q7 8 16.5 12t18.5 4q15 0 27 -12l84 -88q9 -11 9 -26t-7 -25z" />
    <glyph glyph-name="f" unicode="f" horiz-adv-x="698" 
d="M721 1364q-14 -12 -28 -12q-17 0 -29 16q-13 16 -37.5 29.5t-55.5 13.5q-66 0 -95.5 -44.5t-29.5 -123.5v-94q0 -19 19 -19h162q17 0 28 -11.5t11 -28.5v-121q0 -17 -10.5 -29t-28.5 -12h-162q-9 0 -14 -4t-5 -15v-868q0 -19 -11.5 -30t-28.5 -11h-191q-19 0 -30 11
t-11 30v866q0 21 -18 21h-88q-19 0 -30 12t-11 29v121q0 17 11 28.5t30 11.5h88q11 0 14.5 5t3.5 14v86q0 97 26 172t75 126t118.5 77t155.5 26q43 0 83 -8.5t74 -23.5t62 -35t47 -43q15 -18 15 -33q0 -14 -13 -27z" />
    <glyph glyph-name="g" unicode="g" horiz-adv-x="1212" 
d="M584 244q51 0 93.5 20.5t73.5 62.5t48.5 105.5t17.5 149.5t-17.5 149.5t-48 105.5t-73 62.5t-92.5 20.5q-57 0 -100 -23.5t-72 -67t-43.5 -105.5t-14.5 -140q0 -172 58 -256t170 -84zM1085 8q0 -116 -36 -201t-101.5 -141t-158 -83t-205.5 -27q-108 0 -194.5 25.5
t-147.5 69.5t-94 103t-33 127q0 17 11.5 29t31.5 12h190q19 0 26.5 -8.5t12.5 -24.5q14 -59 64 -98t141 -39q112 0 167.5 63t55.5 175v155q-42 -60 -116.5 -97.5t-180.5 -37.5q-100 0 -172 33t-125 84q-77 75 -116 186.5t-39 268.5q0 143 40 256t121 194q63 60 138 91.5
t178 31.5q45 0 87.5 -10t79 -28.5t66.5 -44.5t49 -58v78q0 17 11.5 27.5t29.5 10.5h181q17 0 27.5 -10.5t10.5 -27.5v-1084z" />
    <glyph glyph-name="h" unicode="h" horiz-adv-x="1184" 
d="M829 0q-18 0 -29.5 11t-11.5 30v688q0 43 -7 78.5t-23.5 60.5t-44.5 38.5t-70 13.5q-50 0 -94.5 -21t-78.5 -55.5t-53.5 -79t-19.5 -90.5v-633q0 -19 -11 -30t-30 -11h-190q-17 0 -29 11t-12 30v1538q0 15 9 25t28 10h200q16 0 25.5 -9t9.5 -26v-563q57 63 139.5 101
t182.5 38q61 0 112 -14.5t91 -40t68.5 -61t43.5 -76.5q13 -32 19 -81.5t6 -109.5v-731q0 -19 -11 -30t-28 -11h-191z" />
    <glyph glyph-name="i" unicode="i" horiz-adv-x="522" 
d="M262 1241q-35 0 -66 13.5t-53.5 36.5t-35.5 54t-13 66q0 36 13 66.5t35.5 53t53.5 35.5t66 13q34 0 64.5 -13t53.5 -35.5t36.5 -53t13.5 -66.5q0 -35 -13.5 -66t-36.5 -54t-53.5 -36.5t-64.5 -13.5zM160 0q-16 0 -25.5 9.5t-9.5 25.5v1061q0 15 10 24.5t27 9.5h198
q19 0 28 -9.5t9 -24.5v-1061q0 -16 -9 -25.5t-26 -9.5h-202z" />
    <glyph glyph-name="j" unicode="j" horiz-adv-x="530" 
d="M270 1241q-35 0 -66 13.5t-53.5 36.5t-35.5 54t-13 66t12.5 66t35 53.5t53.5 35.5t67 13q34 0 65 -13t53.5 -35.5t36 -53.5t13.5 -66t-13.5 -66t-36.5 -54t-53.5 -36.5t-64.5 -13.5zM98 -444q-78 0 -140 23.5t-110 68.5q-12 12 -12 27t10 28l68 100q10 18 29 18
q9 0 20 -9q16 -13 36.5 -22t45.5 -9q46 0 67 35.5t21 101.5v1178q0 15 9.5 24.5t25.5 9.5h205q17 0 25 -9.5t8 -24.5v-1145q0 -40 -4 -83t-13 -81q-13 -62 -42.5 -106t-68.5 -72t-85.5 -40.5t-94.5 -12.5z" />
    <glyph glyph-name="k" unicode="k" horiz-adv-x="1049" 
d="M356 1614q19 0 30 -11.5t11 -29.5v-801l11 10l292 334q7 6 15 10t20 4h232q19 0 28.5 -10t9.5 -24q0 -17 -14 -31l-313 -313q-7 -7 -7 -19q0 -10 5 -18l371 -660q4 -7 4 -18q0 -14 -9.5 -25.5t-25.5 -11.5h-228q-20 0 -29.5 8.5t-17.5 24.5l-268 512q-5 9 -13 9
q-9 0 -16 -7l-36 -37q-7 -6 -9 -10t-2 -11v-448q0 -19 -11 -30t-30 -11h-190q-17 0 -29 11t-12 30v1532q0 18 12 29.5t31 11.5h188z" />
    <glyph glyph-name="l" unicode="l" horiz-adv-x="522" 
d="M160 0q-16 0 -25.5 9.5t-9.5 25.5v1544q0 35 37 35h200q16 0 25.5 -10t9.5 -25v-1544q0 -16 -9.5 -25.5t-25.5 -9.5h-202z" />
    <glyph glyph-name="m" unicode="m" horiz-adv-x="1821" 
d="M344 1130q19 0 30 -11.5t11 -28.5v-86q57 69 142.5 110t185.5 41q103 0 173 -39t113 -108q34 31 73.5 57.5t85.5 46.5t97.5 31.5t108.5 11.5q61 0 111 -14.5t89 -40t67 -61t44 -76.5q13 -32 19 -80.5t6 -108.5v-733q0 -19 -12 -30t-29 -11h-191q-18 0 -29.5 11t-11.5 30
v688q0 43 -6 78.5t-21.5 60.5t-42.5 38.5t-69 13.5q-50 0 -93.5 -21t-76 -55.5t-51 -79t-18.5 -90.5v-633q0 -19 -12 -30t-29 -11h-191q-17 0 -29 11t-12 30v688v11q0 40 -6.5 73.5t-22 57t-42.5 36.5t-68 13q-50 0 -93.5 -21t-76 -55.5t-51.5 -79t-19 -90.5v-633
q0 -19 -11 -30t-30 -11h-190q-17 0 -29 11t-12 30v1049q0 17 12 28.5t29 11.5h178z" />
    <glyph glyph-name="n" unicode="n" horiz-adv-x="1184" 
d="M1059 41q0 -19 -11 -30t-28 -11h-191q-18 0 -29.5 11t-11.5 30v688q0 43 -7 78.5t-23.5 60.5t-44.5 38.5t-70 13.5q-50 0 -94.5 -21t-78.5 -55.5t-53.5 -79t-19.5 -90.5v-633q0 -19 -11 -30t-30 -11h-190q-17 0 -29 11t-12 30v1049q0 17 12 28.5t29 11.5h178
q19 0 30 -11.5t11 -28.5v-86q60 69 145 110t191 41q61 0 111.5 -14.5t90 -40t67.5 -60.5t44 -77q13 -32 19 -81.5t6 -109.5v-731z" />
    <glyph glyph-name="o" unicode="o" horiz-adv-x="1204" 
d="M600 922q-97 0 -158 -64q-42 -43 -64 -118.5t-22 -172.5q0 -100 22 -173t64 -118q31 -32 69.5 -48.5t92.5 -16.5q95 0 158 63q40 42 63 117t23 172q0 201 -86 293q-32 32 -71.5 49t-90.5 17zM598 -25q-127 0 -220.5 38t-162.5 104q-34 33 -62 74.5t-48 95t-31 121
t-11 153.5q0 156 40 264t114 181q79 75 172.5 112t216.5 37q126 0 218 -37.5t161 -103.5q82 -80 119 -186.5t37 -258.5q0 -151 -39.5 -260t-114.5 -184q-78 -75 -173 -112.5t-216 -37.5z" />
    <glyph glyph-name="p" unicode="p" horiz-adv-x="1223" 
d="M633 918q-51 0 -94.5 -21.5t-76 -65t-51 -110t-18.5 -156.5t18.5 -156.5t50.5 -110.5t75.5 -65.5t93.5 -21.5q117 0 176 92t59 260q0 178 -59 266.5t-174 88.5zM397 -379q0 -18 -11 -29.5t-30 -11.5h-190q-17 0 -29 11.5t-12 29.5v1469q0 17 12 28.5t29 11.5h178
q19 0 30 -11.5t11 -28.5v-84q57 72 135 110.5t178 38.5q103 0 178.5 -34.5t129.5 -88.5q151 -151 151 -469q0 -149 -39 -265t-121 -198q-62 -62 -139 -93.5t-182 -31.5q-45 0 -87 10t-78.5 27t-65.5 40t-48 50v-481z" />
    <glyph glyph-name="q" unicode="q" horiz-adv-x="1223" 
d="M590 213q51 0 94.5 21.5t75.5 65t50.5 109t18.5 154.5q0 90 -18.5 156.5t-50.5 111t-75.5 66t-92.5 21.5q-117 0 -176.5 -92.5t-59.5 -258.5q0 -354 234 -354zM547 1155q45 0 87.5 -10t80.5 -28.5t69 -45t52 -59.5v78q0 18 11 29t30 11h180q17 0 28 -11.5t11 -28.5v-1475
q0 -16 -9 -25.5t-26 -9.5h-201q-15 0 -25 9t-10 26v502q-21 -29 -50 -55t-67 -45.5t-84.5 -30.5t-101.5 -11q-100 0 -175.5 34.5t-129.5 88.5q-151 151 -151 467q0 152 39 266t120 199q63 63 139.5 94t182.5 31z" />
    <glyph glyph-name="r" unicode="r" horiz-adv-x="877" 
d="M385 991q54 79 116.5 120.5t143.5 41.5q46 0 82 -14.5t63 -46t46 -83t30 -124.5q1 -1 1 -12q0 -25 -23 -33l-178 -58q-9 -3 -17 -3q-21 0 -22 24q-20 86 -72 86q-26 0 -53.5 -20.5t-51 -54.5t-38.5 -79t-15 -94v-600q0 -19 -11 -30t-30 -11h-190q-17 0 -29 11t-12 30
v1049q0 17 12 28.5t29 11.5h178q17 0 29 -11.5t12 -28.5v-99z" />
    <glyph glyph-name="s" unicode="s" horiz-adv-x="920" 
d="M879 346q0 -79 -31 -146.5t-89.5 -117t-142.5 -77.5t-190 -28q-80 0 -148 16.5t-121 45t-88.5 67t-50.5 82.5q-3 9 -3 18q0 26 28 36l164 61q7 4 19 4q20 0 34 -24q23 -45 69 -66.5t103 -21.5q78 0 121 35t43 89q0 25 -9 45t-29.5 38t-54.5 34t-85 33l-76 25
q-72 23 -124.5 52.5t-87 69.5t-51 91t-16.5 116q0 69 26.5 129.5t77.5 105.5t124.5 71t167.5 26q68 0 126 -15t103.5 -43t77 -66.5t47.5 -86.5q3 -8 3 -15q0 -22 -25 -32l-146 -55q-8 -3 -16 -3q-24 0 -35 23q-16 38 -46 63t-87 25q-63 0 -96 -32t-33 -78q0 -18 5 -34.5
t19.5 -31.5t40.5 -29.5t68 -27.5l74 -25q92 -28 156.5 -63.5t105.5 -78.5t59.5 -94t18.5 -110z" />
    <glyph glyph-name="t" unicode="t" horiz-adv-x="748" 
d="M174 907q0 21 -20 21h-86q-19 0 -30 12t-11 29v121q0 17 11 28.5t30 11.5h88q18 0 18 19v285q0 18 8.5 29.5t28.5 11.5h195q40 0 40 -43v-281q0 -12 4 -16.5t15 -4.5h180q17 0 29 -11.5t12 -28.5v-121q0 -17 -11 -29t-30 -12h-182q-17 0 -17 -19v-608q0 -51 19.5 -74.5
t54.5 -23.5q23 0 41.5 8.5t40.5 28.5q13 12 28 12q17 0 29 -16l66 -93q6 -8 6 -22q0 -17 -10 -27q-51 -57 -117 -87t-141 -30q-66 0 -119.5 15t-91 48t-58 84.5t-20.5 123.5v659z" />
    <glyph glyph-name="u" unicode="u" horiz-adv-x="1184" 
d="M125 1090q0 17 11 28.5t30 11.5h190q17 0 29 -11.5t12 -28.5v-689q0 -43 6.5 -78t23 -60t44.5 -38.5t72 -13.5q49 0 93.5 20.5t77.5 55t52.5 78.5t19.5 92v633q0 17 12 28.5t29 11.5h191q18 0 29.5 -11.5t11.5 -28.5v-1049q0 -19 -11.5 -30t-29.5 -11h-178q-19 0 -30 11
t-11 30v86q-57 -69 -143.5 -110.5t-192.5 -41.5q-61 0 -111.5 14.5t-90 40t-67.5 61t-44 77.5q-13 32 -19 81t-6 109v732z" />
    <glyph glyph-name="v" unicode="v" horiz-adv-x="1049" 
d="M700 29q-3 -11 -12 -20t-26 -9h-242q-30 0 -39 29l-369 1048l-1.5 6l-0.5 2v8q0 16 9.5 26.5t29.5 10.5h219q30 0 39 -28l236 -725l8 -33l6 33l201 723q5 14 14.5 22t26.5 8h198q18 0 28.5 -10.5t10.5 -27.5q0 -2 -0.5 -6t-1.5 -9z" />
    <glyph glyph-name="w" unicode="w" horiz-adv-x="1550" 
d="M1276 37q-6 -37 -41 -37h-205q-23 0 -33.5 9t-15.5 26l-197 696l-174 -698q-9 -33 -41 -33h-209q-33 0 -47 35l-286 1042q-3 9 -3 17q0 17 10.5 26.5t28.5 9.5h207q35 0 41 -32l178 -686l164 682q9 36 43 36h193q18 0 27 -8.5t14 -23.5l194 -678l136 672q6 38 40 38h187
q18 0 27.5 -11t9.5 -26q0 -1 -0.5 -4t-1.5 -8z" />
    <glyph glyph-name="x" unicode="x" horiz-adv-x="1096" 
d="M821 0q-26 0 -39 8t-28 33l-217 352l-220 -356q-7 -12 -13 -19t-13.5 -11t-17.5 -5.5t-25 -1.5h-193q-18 0 -28.5 10t-10.5 24q0 13 9 25l358 521l-320 493q-8 11 -8 23q0 14 10 24t27 10h209q29 0 42 -6.5t26 -27.5l184 -314l184 312q13 21 26.5 28.5t39.5 7.5h196
q20 0 28 -12.5t8 -25.5q0 -9 -3 -15l-330 -479l365 -537q8 -14 8 -25q0 -14 -10 -25t-29 -11h-215z" />
    <glyph glyph-name="y" unicode="y" horiz-adv-x="1057" 
d="M12 1077q-3 7 -3 16q0 15 10 26t28 11h227q30 0 39 -28l244 -707l8 -33l6 33l193 707q9 28 41 28h201q15 0 25.5 -10t10.5 -27q0 -4 -2 -14l-376 -1202q-23 -77 -56.5 -136.5t-80.5 -100.5t-108.5 -62.5t-139.5 -21.5q-79 0 -146.5 29.5t-109.5 78.5q-12 13 -12 28t12 27
l86 103q12 14 28 14q15 0 27 -12q22 -20 46 -31.5t52 -11.5q34 0 63 23t46 71l47 131z" />
    <glyph glyph-name="z" unicode="z" horiz-adv-x="1022" 
d="M397 223h514q20 0 30.5 -13t10.5 -30v-139q0 -16 -10.5 -28.5t-30.5 -12.5h-809q-21 0 -31 11.5t-12 27.5l-10 119q0 2 -0.5 5t-0.5 5q0 11 3.5 20.5t9.5 18.5l512 696h-448q-19 0 -30 12t-11 29v146q0 17 10.5 28.5t30.5 11.5h762q36 0 41 -36l12 -101v-9
q0 -12 -3.5 -23.5t-12.5 -22.5z" />
    <glyph glyph-name="braceleft" unicode="{" horiz-adv-x="762" 
d="M453 846q0 -72 -34.5 -115t-88.5 -61l-13 -4l15 -4q25 -9 47 -22t38.5 -31.5t26 -44.5t9.5 -60v-584q0 -47 4 -78.5t17 -50.5t36.5 -27t62.5 -8h60q22 0 22 -24v-148q0 -8 -6.5 -11t-15.5 -3h-66q-101 0 -168 18t-107.5 59.5t-57.5 108t-17 164.5v547q0 54 -19.5 79
t-70.5 25h-35q-11 0 -17.5 8.5t-6.5 20.5v129q0 27 22 27h35q48 0 70 24t22 86v490q0 100 19 167t61 107.5t108.5 58t161.5 17.5h66q9 0 15.5 -3t6.5 -11v-148q0 -24 -22 -24h-60q-39 0 -62.5 -8t-36.5 -27t-17 -50.5t-4 -78.5v-510z" />
    <glyph glyph-name="bar" unicode="|" horiz-adv-x="881" 
d="M553 -385q0 -23 -11 -34t-30 -11h-150q-17 0 -26.5 12.5t-9.5 32.5v2128q0 14 9.5 25.5t26.5 11.5h150q19 0 30 -10.5t11 -28.5v-2126z" />
    <glyph glyph-name="braceright" unicode="}" horiz-adv-x="762" 
d="M309 492q0 70 35 109.5t88 57.5l12 5l-12 4q-53 17 -88 56.5t-35 109.5v522q0 47 -4 78.5t-17 50.5t-37 27t-63 8h-57q-22 0 -22 24v148q0 8 6.5 11t15.5 3h64q94 0 160.5 -17.5t108.5 -58t61.5 -107.5t19.5 -167v-492q0 -57 20.5 -82.5t71.5 -25.5h35q11 0 17.5 -7.5
t6.5 -19.5v-129q0 -29 -24 -29h-35q-51 0 -71.5 -24t-20.5 -84v-543q0 -98 -17 -164.5t-57.5 -108t-107 -59.5t-166.5 -18h-66q-9 0 -15.5 3t-6.5 11v148q0 24 22 24h57q39 0 63 8t37 27t17 50.5t4 78.5v572z" />
    <glyph glyph-name="asciitilde" unicode="~" 
d="M512 1124q-25 48 -44.5 79t-37.5 49.5t-36.5 26t-41.5 7.5q-63 0 -86.5 -45.5t-23.5 -130.5q0 -26 -12 -36.5t-35 -10.5l-109 2q-45 0 -45 47q0 79 18 148t56.5 120t98 80t142.5 29q92 0 172.5 -50t143.5 -163q24 -47 43.5 -79t38 -52t37 -28.5t40.5 -8.5q36 0 58 13
t34 37t16.5 56.5t4.5 71.5q0 26 10.5 36.5t30.5 10.5h113q21 0 34 -12.5t13 -34.5q0 -69 -17 -137t-54.5 -121.5t-97.5 -87t-145 -33.5q-103 0 -179.5 52.5t-139.5 164.5z" />
    <glyph glyph-name="nonbreakingspace" unicode="&#xa0;" horiz-adv-x="532" 
 />
    <glyph glyph-name="exclamdown" unicode="&#xa1;" horiz-adv-x="600" 
d="M283 958q-38 0 -70.5 13t-56 35.5t-37 54t-13.5 69.5q0 37 13.5 68.5t37 54t56 35t70.5 12.5q37 0 69 -12.5t56 -35t37.5 -54t13.5 -68.5q0 -38 -13.5 -69.5t-37.5 -54t-56 -35.5t-69 -13zM442 -205q0 -21 -14 -35t-35 -14h-217q-21 0 -36 14.5t-15 35.5v3l39 1020
q0 17 10.5 25t24.5 8h168q15 0 24.5 -8.5t9.5 -24.5l41 -1020v-4z" />
    <glyph glyph-name="cent" unicode="&#xa2;" 
d="M731 1311q128 -24 216 -100.5t118 -206.5q1 -1 1 -15t-6.5 -26t-23.5 -17l-168 -39q-5 -1 -8.5 -1.5t-7.5 -0.5q-14 0 -24.5 6.5t-14.5 20.5q-20 72 -67 113.5t-119 41.5q-51 0 -94.5 -20.5t-75.5 -62.5t-50 -107.5t-18 -155.5q0 -96 19.5 -162t52.5 -106.5t77.5 -58
t94.5 -17.5q39 0 72.5 11.5t61 31t48.5 46t35 55.5q5 12 14.5 19.5t22.5 7.5q3 0 20 -5l144 -51q14 -5 22 -16.5t8 -24.5q0 -11 -4 -18q-42 -112 -131.5 -184t-216.5 -97v-221q0 -49 -45 -49h-127q-47 0 -47 49v219q-229 30 -336 221q-40 72 -58 159t-18 181
q0 100 16.5 184.5t53.5 153.5q113 202 344 242v211q0 49 45 49h127q47 0 47 -49v-211z" />
    <glyph glyph-name="sterling" unicode="&#xa3;" 
d="M119 0q-13 0 -21 6t-8 19v137q0 11 4 19.5t17 13.5q56 23 100 55t74 70.5t46 82t16 89.5q0 62 -25 112h-201q-17 0 -23 9.5t-6 23.5v137q0 31 31 31h123q-51 78 -71.5 152.5t-20.5 146.5q0 88 30.5 161t89 125t143.5 80.5t195 28.5q169 0 273 -72.5t157 -205.5
q4 -7 4 -20q0 -26 -24 -36l-154 -53q-7 -4 -21 -4q-26 0 -36 22q-14 39 -31.5 68.5t-41 49.5t-54 30t-70.5 10q-48 0 -82 -15t-55.5 -41t-32 -60.5t-10.5 -73.5q0 -69 26.5 -143.5t71.5 -149.5h283q9 0 16 -6.5t7 -14.5v-159q0 -10 -3.5 -15.5t-19.5 -5.5h-215
q19 -54 19 -117q0 -81 -36 -147.5t-108 -106.5h590q14 0 21.5 -7t7.5 -25v-170q0 -31 -29 -31h-946z" />
    <glyph glyph-name="currency" unicode="&#xa4;" 
d="M575 887q-42 0 -78 -15.5t-62 -45.5t-41 -73.5t-15 -99.5q0 -66 15.5 -118.5t42.5 -88.5t64.5 -55.5t82.5 -19.5q41 0 77 15.5t62.5 45.5t41.5 75t15 105q0 61 -15 111.5t-42 87t-65 56.5t-83 20zM199 135q-20 -17 -35 -17q-18 0 -35 17l-72 70q-18 18 -18 35q0 16 16 32
l158 146q-20 43 -30.5 95.5t-10.5 109.5q0 63 11 120t36 105l-160 151q-15 15 -15 36q0 20 15 34l78 76q20 17 39 17q20 0 35 -15l149 -143q48 29 103 45t121 16t127 -20t110 -58l158 156q17 14 33 14q15 0 35 -14l77 -72q17 -15 17 -33q0 -19 -17 -34l-180 -170
q23 -45 33 -94.5t10 -106.5q0 -113 -31 -191l170 -161q15 -15 15 -35q0 -22 -19 -41l-82 -76q-15 -15 -35 -15q-19 0 -34 15l-146 137q-51 -35 -111.5 -54t-129.5 -19t-131 19t-113 54z" />
    <glyph glyph-name="yen" unicode="&#xa5;" 
d="M424 354q18 0 18 23v96q0 21 -20 21h-213q-17 0 -26 9.5t-9 24.5v119q0 14 10.5 24.5t24.5 10.5h209q10 0 10 6q0 2 -0.5 3l-1.5 3l-369 725q-8 21 -8 27q0 14 9.5 21.5t23.5 7.5h266q11 0 16.5 -7t10.5 -16l229 -524l221 520q5 12 12 19.5t21 7.5h238q25 0 25 -26
q0 -9 -5 -22l-366 -731l-2 -8q0 -6 12 -6h190q14 0 23.5 -10.5t9.5 -24.5v-119q0 -15 -8 -24.5t-25 -9.5h-198q-10 0 -14.5 -4.5t-4.5 -16.5v-98q0 -11 4 -16t15 -5h198q14 0 23.5 -9t9.5 -23v-119q0 -16 -8 -25.5t-25 -9.5h-198q-19 0 -19 -21v-114q0 -14 -9 -23.5
t-22 -9.5h-229q-12 0 -21.5 9.5t-9.5 23.5v114q0 21 -20 21h-213q-17 0 -26 9.5t-9 25.5v119q0 14 10.5 23t24.5 9h215z" />
    <glyph glyph-name="brokenbar" unicode="&#xa6;" 
d="M705 -385q0 -23 -11.5 -34t-29.5 -11h-150q-17 0 -27 12.5t-10 32.5v815q0 14 10 25.5t27 11.5h150q18 0 29.5 -10t11.5 -29v-813zM705 948q0 -23 -11.5 -34t-29.5 -11h-150q-17 0 -27 12.5t-10 32.5v795q0 14 10 25.5t27 11.5h150q18 0 29.5 -10.5t11.5 -28.5v-793z" />
    <glyph glyph-name="section" unicode="&#xa7;" 
d="M784 520q0 27 -6.5 53t-22.5 49.5t-43 45t-69 39.5l-178 67q-28 -22 -45 -53.5t-17 -63.5t8.5 -56t28 -44.5t51.5 -39t80 -38.5l179 -71q34 49 34 112zM1061 549q0 -78 -27 -143.5t-78 -120.5q54 -51 78.5 -121.5t24.5 -151.5q0 -71 -27.5 -144.5t-87.5 -132.5
t-154 -96.5t-227 -37.5q-174 0 -288.5 67.5t-180.5 198.5q-9 16 -9 28q0 17 26 29l180 74q17 5 18 5q20 0 29 -28q31 -75 85.5 -115t145.5 -40q48 0 85 13.5t62.5 37t38.5 55t13 66.5q0 76 -48.5 123t-139.5 82l-134 53q-150 54 -228.5 142t-78.5 220q0 97 39 171t105 122
q-57 54 -82 123t-25 148q0 80 29.5 149t85 120t135 80t180.5 29q140 0 238 -49t153 -149q14 -23 14 -38q0 -21 -24 -28l-151 -73q-5 -1 -8 -1.5t-4 -0.5q-14 0 -21 18q-29 54 -73.5 83.5t-117.5 29.5q-41 0 -72.5 -13.5t-52.5 -34.5t-32 -48t-11 -54q0 -78 43.5 -124
t128.5 -77l132 -51q81 -29 140.5 -67t97.5 -86.5t56.5 -108.5t18.5 -133z" />
    <glyph glyph-name="dieresis" unicode="&#xa8;" horiz-adv-x="1057" 
d="M754 1548q31 0 58 -12t47 -32t32 -47t12 -58t-12 -58t-32 -47.5t-47 -32.5t-58 -12t-58 12t-47.5 32.5t-32.5 47.5t-12 58t12 58t32.5 47t47.5 32t58 12zM303 1548q31 0 58 -12t47.5 -32t32.5 -47t12 -58t-12 -58t-32.5 -47.5t-47.5 -32.5t-58 -12t-58 12t-47.5 32.5
t-32 47.5t-11.5 58t11.5 58t32 47t47.5 32t58 12z" />
    <glyph glyph-name="copyright" unicode="&#xa9;" horiz-adv-x="1876" 
d="M752 776q0 -77 15 -130t41 -86.5t60.5 -48.5t73.5 -15q31 0 58 9t48.5 25t38 36.5t27.5 43.5q6 22 28 22q7 0 15 -3l131 -47q24 -12 24 -35q0 -8 -3 -15q-20 -56 -56.5 -101t-86 -76.5t-110.5 -48.5t-130 -17q-128 0 -219 50t-142 144q-34 60 -49.5 133.5t-15.5 151.5
q0 81 14 151.5t45 127.5q57 103 149 156.5t226 53.5q70 0 130.5 -17t108 -50t79.5 -82t46 -113q1 -5 1.5 -8t0.5 -5q0 -24 -24 -34l-146 -37q-1 -1 -13 -1q-27 0 -34 24q-15 57 -52.5 89t-94.5 32q-38 0 -71.5 -17t-58.5 -51.5t-39.5 -87t-14.5 -123.5zM1577 770
q0 142 -50 264t-137 211t-203.5 140t-248.5 51q-88 0 -169 -23t-151.5 -65.5t-129 -102.5t-100 -134t-64.5 -160t-23 -181q0 -142 50.5 -264t137 -212t202.5 -141t247 -51q133 0 249.5 51t203 141t136.5 212t50 264zM1780 770q0 -119 -30 -228t-85 -203t-131.5 -170
t-170.5 -130t-201.5 -83.5t-223.5 -29.5t-223.5 29.5t-201 83.5t-170 130t-131 170t-84.5 203t-30 228t30 227.5t84.5 202t131 169.5t170 130t201 83.5t223.5 29.5t223.5 -29.5t201.5 -83.5t170.5 -130t131.5 -169.5t85 -202t30 -227.5z" />
    <glyph glyph-name="ordfeminine" unicode="&#xaa;" horiz-adv-x="825" 
d="M504 1235q-6 -5 -16 -6.5t-21 -3.5l-43 -6q-48 -7 -78 -17t-46.5 -22t-22 -26.5t-5.5 -29.5q0 -35 23 -56t65 -21q36 0 63 12t45 30t27 39t9 39v68zM516 995q-34 -42 -87 -66t-116 -24q-55 0 -100 13.5t-76.5 39t-49 63t-17.5 85.5q0 46 15.5 84t53 67.5t99.5 51
t155 34.5l64 7q28 5 37.5 16t9.5 25v4q0 48 -24 75t-81 27q-46 0 -68.5 -20.5t-33.5 -51.5q-8 -17 -25 -17q-11 0 -12 1l-125 33q-15 4 -15 21q0 4 5 22q30 68 99.5 109.5t193.5 41.5q28 0 58.5 -4t59 -12.5t54 -20t43.5 -26.5q35 -32 50 -71.5t15 -96.5v-459q0 -24 -24 -24
h-133q-14 0 -19.5 3.5t-5.5 14.5v55zM117 614q-11 0 -19 7.5t-8 19.5v119q0 12 8 18t19 6h563q12 0 19.5 -6t7.5 -18v-119q0 -12 -7.5 -19.5t-19.5 -7.5h-563z" />
    <glyph glyph-name="guillemotleft" unicode="&#xab;" horiz-adv-x="971" 
d="M457 606q-8 11 -8 26q0 14 8 25l188 351q15 27 41 27q8 0 23 -5l75 -26q21 -6 21 -31q0 -14 -6 -27l-123 -303l137 -307q5 -20 5 -26q0 -12 -5 -22.5t-16 -15.5l-86 -36q-18 -5 -22 -5q-23 0 -36 27zM78 600q-10 16 -10 34t10 34l237 395q8 14 18.5 20t22.5 6q14 0 21 -4
l82 -26q17 -6 17 -30q0 -17 -7 -30l-166 -356l170 -356q6 -15 6 -30q0 -12 -4.5 -21t-13.5 -13l-90 -37q-13 -5 -22 -5q-21 0 -36 28z" />
    <glyph glyph-name="logicalnot" unicode="&#xac;" 
d="M98 522q-15 0 -25 10t-10 25v148q0 17 10 24.5t25 7.5h973q37 0 37 -35v-454q0 -17 -10.5 -26t-26.5 -9h-147q-16 0 -25.5 9t-9.5 26v246q0 28 -27 28h-764z" />
    <glyph glyph-name="sfthyphen" unicode="&#xad;" horiz-adv-x="627" 
d="M96 520q-20 0 -31.5 11.5t-11.5 29.5v137q0 43 43 43h434q19 0 31 -11.5t12 -31.5v-137q0 -18 -12 -29.5t-31 -11.5h-434z" />
    <glyph glyph-name="registered" unicode="&#xae;" horiz-adv-x="1397" 
d="M782 1208q0 48 -24 67t-66 19h-49q-11 0 -15.5 -6t-4.5 -14v-129q0 -9 4.5 -16t15.5 -7h33q54 0 80 20t26 66zM950 1212q0 -57 -30.5 -98.5t-96.5 -56.5q49 -17 67.5 -48.5t18.5 -90.5q0 -31 7 -40.5t16 -9.5q6 0 9 1.5l9 4.5q4 3 9 3q9 0 14 -9l20 -67l1.5 -6l0.5 -2
q0 -9 -6 -15q-26 -21 -52.5 -35t-56.5 -14q-5 0 -10 0.5t-10 1.5q-45 8 -69.5 42t-24.5 106q0 67 -19 94.5t-71 27.5h-33q-20 0 -20 -20v-215q0 -11 -6.5 -16t-14.5 -5h-115q-8 0 -14 5t-6 16v618q0 31 29 31h206q121 0 184.5 -48.5t63.5 -154.5zM1110 1063
q0 91 -28.5 171.5t-82.5 140.5t-131.5 95t-175.5 35t-175.5 -35t-131 -95t-81.5 -140.5t-28 -171.5q0 -92 28 -172.5t81.5 -140.5t131 -94.5t175.5 -34.5t175.5 34.5t131.5 94.5t82.5 140.5t28.5 172.5zM1290 1063q0 -124 -45 -232.5t-125 -189.5t-189.5 -127.5
t-238.5 -46.5t-238.5 46.5t-189 127.5t-124 189.5t-44.5 232.5q0 123 44.5 231.5t124 189.5t189 128t238.5 47t238.5 -47t189.5 -128t125 -189.5t45 -231.5z" />
    <glyph glyph-name="macron" unicode="&#xaf;" horiz-adv-x="872" 
d="M125 1284q-31 0 -31 31v133q0 29 31 29h672q30 0 30 -29v-133q0 -31 -30 -31h-672z" />
    <glyph glyph-name="macron" unicode="&#x2c9;" horiz-adv-x="872" 
d="M125 1284q-31 0 -31 31v133q0 29 31 29h672q30 0 30 -29v-133q0 -31 -30 -31h-672z" />
    <glyph glyph-name="degree" unicode="&#xb0;" horiz-adv-x="711" 
d="M459 1376q0 45 -30 74t-75 29q-43 0 -73.5 -28t-30.5 -73q0 -21 8 -40t22.5 -32.5t33.5 -21.5t40 -8q22 0 41 8t33 21.5t22.5 31.5t8.5 39zM614 1378q0 -53 -20.5 -99t-56 -80.5t-83 -54.5t-100.5 -20t-100.5 20t-83.5 54t-57 80t-21 98t21 98t57 80.5t83.5 54
t100.5 19.5t100.5 -19.5t83 -53.5t56 -79.5t20.5 -97.5z" />
    <glyph glyph-name="plusminus" unicode="&#xb1;" 
d="M111 735q-19 0 -30 11t-11 28v131q0 17 11 28t30 11h331q35 0 35 35v276q0 19 12 30t29 11h150q18 0 30.5 -11t12.5 -30v-278q0 -33 32 -33h332q19 0 30 -11t11 -28v-131q0 -17 -11 -28t-30 -11h-332q-32 0 -32 -33v-284q0 -19 -12.5 -30t-30.5 -11h-150q-17 0 -29 11
t-12 30v284q0 33 -37 33h-329zM109 0q-17 0 -28 11t-11 28v125q0 17 11 28t28 11h970q17 0 28 -11t11 -28v-125q0 -17 -11 -28t-28 -11h-970z" />
    <glyph glyph-name="twosuperior" unicode="&#xb2;" horiz-adv-x="711" 
d="M49 993q50 49 96.5 84t86.5 61t73 45.5t56 38.5t36 40t13 49q0 31 -23.5 49t-58.5 18q-39 0 -60 -25.5t-32 -70.5q-3 -10 -11.5 -15.5t-17.5 -5.5q-7 0 -8 1l-140 36q-21 6 -21 24q0 7 3 13q31 100 108.5 155.5t186.5 55.5q69 0 127 -15.5t96 -47.5q35 -29 56.5 -70
t21.5 -98q0 -58 -27.5 -101.5t-70 -79t-95 -65.5t-102.5 -61h297q12 0 20.5 -7t8.5 -18v-121q0 -14 -7.5 -21t-19.5 -7h-561q-21 0 -27 18l-16 86q-2 10 -2 9v9q0 20 14 37z" />
    <glyph glyph-name="threesuperior" unicode="&#xb3;" horiz-adv-x="688" 
d="M489 1194q28 -2 53 -14.5t43.5 -33.5t29 -48.5t10.5 -59.5q0 -46 -19 -86t-56 -69.5t-92 -46.5t-126 -17q-60 0 -107.5 15t-82.5 41.5t-57.5 62t-33.5 76.5q-1 5 -1.5 9t-0.5 8q0 19 14 24l111 28q5 1 8.5 1.5t5.5 0.5q9 0 16 -3.5t9 -12.5q11 -42 39 -66t76 -24
q42 0 65 19.5t23 50.5q0 35 -26 53t-68 18h-19q-12 0 -19.5 6.5t-7.5 20.5v82q0 24 27 24h16q38 0 62.5 20t24.5 52q0 29 -20.5 46.5t-55.5 17.5t-59 -21.5t-33 -52.5q-4 -8 -11.5 -12t-16.5 -4q-10 0 -11 1l-111 35q-16 4 -16 22q0 12 4 19q26 81 92 125.5t172 44.5
q128 0 194 -48.5t66 -139.5q0 -119 -111 -162v-2z" />
    <glyph glyph-name="acute" unicode="&#xb4;" horiz-adv-x="600" 
d="M217 1227q-11 -8 -23 -8q-16 0 -28 14l-37 39q-11 14 -11 27q0 17 11 28l219 238q17 18 33.5 28t34.5 10q36 0 80 -44l14 -15q38 -38 38 -72q0 -39 -50 -71z" />
    <glyph glyph-name="mu" unicode="&#xb5;" horiz-adv-x="1231" 
d="M375 -387q0 -14 -11 -23.5t-26 -9.5h-182q-31 0 -31 43v1467q0 17 11 28.5t28 11.5h190q20 0 31.5 -11.5t11.5 -28.5v-691q0 -97 36.5 -142.5t115.5 -45.5q55 0 99 21t74.5 57t47 83.5t16.5 100.5v617q0 17 12 28.5t29 11.5h191q18 0 29.5 -11.5t11.5 -28.5v-850
q0 -28 9 -39t28 -11q8 0 16 4t16 9q10 7 21 7q17 0 27 -22l36 -100q7 -13 7 -24q0 -13 -9 -19q-35 -34 -86.5 -52t-111.5 -18q-81 0 -127.5 33.5t-63.5 108.5q-48 -66 -114 -104t-148 -38q-30 0 -59 5.5t-54 17.5t-45.5 31t-33.5 45z" />
    <glyph glyph-name="paragraph" unicode="&#xb6;" horiz-adv-x="1366" 
d="M1198 -322q0 -30 -31 -30h-149q-31 0 -31 30v1651q0 13 -8 20t-21 7h-131q-12 0 -21 -7t-9 -20v-1651q0 -30 -31 -30h-150q-30 0 -30 30v934q0 13 -7.5 19t-19.5 6q-119 0 -205 38.5t-142 103t-83 149t-27 176.5q0 86 30 163.5t88 136.5t144 93.5t197 34.5h610
q27 0 27 -27v-1827z" />
    <glyph glyph-name="glyph121" unicode="&#xb7;" 
d="M594 809q37 0 69.5 -14t56.5 -38t38 -56.5t14 -69.5q0 -38 -14 -70.5t-38 -57t-56.5 -38.5t-69.5 -14t-69.5 14t-56.5 38.5t-38 57t-14 70.5q0 37 14 69.5t38 56.5t56.5 38t69.5 14z" />
    <glyph glyph-name="cedilla" unicode="&#xb8;" horiz-adv-x="594" 
d="M211 -442q-60 0 -102 9.5t-74 26.5q-21 10 -21 27q0 12 9 27l43 67q8 11 14.5 15.5t14.5 4.5t17.5 -4t21 -9t26 -9t33.5 -4q32 0 46.5 14t14.5 35q0 11 -6 22.5t-14.5 22t-19 19.5t-19.5 16q-18 14 -28 23.5t-10 21.5q0 11 7 21l55 96h172l-35 -57q73 -48 100 -95t27 -92
q0 -42 -18 -78t-52.5 -63t-85 -42t-116.5 -15z" />
    <glyph glyph-name="onesuperior" unicode="&#xb9;" horiz-adv-x="586" 
d="M424 864q0 -11 -9 -18.5t-20 -7.5h-162q-11 0 -18.5 7.5t-7.5 18.5v467q0 19 -9 27.5t-32 13.5l-80 14q-10 2 -16.5 8.5t-6.5 15.5v3l9 96q0 23 24 23h295q14 0 23.5 -9t9.5 -22v-637z" />
    <glyph glyph-name="ordmasculine" unicode="&#xba;" horiz-adv-x="834" 
d="M410 1479q-56 0 -93 -37q-24 -25 -37.5 -68t-13.5 -100q0 -60 13.5 -102.5t37.5 -65.5q36 -39 95 -39q58 0 92 37q25 25 38 68t13 100q0 114 -51 168q-19 18 -43 28.5t-51 10.5zM408 909q-78 0 -138.5 22t-103.5 62q-45 41 -71.5 105.5t-26.5 171.5q0 97 25 163t73 111
q98 92 248 92q78 0 137 -23t102 -65q53 -48 76 -113t23 -161q0 -181 -97 -275q-51 -48 -111.5 -69t-135.5 -21zM117 616q-11 0 -19 7.5t-8 19.5v119q0 12 8 18t19 6h588q28 0 28 -24v-119q0 -12 -7 -19.5t-21 -7.5h-588z" />
    <glyph glyph-name="guillemotright" unicode="&#xbb;" horiz-adv-x="971" 
d="M514 664q7 -13 7 -26q0 -16 -7 -26l-188 -350q-16 -28 -41 -28q-11 0 -23 6l-76 26q-20 6 -20 31q0 13 6 27l123 303l-137 307q-6 12 -6 25q0 12 5.5 22.5t16.5 15.5l86 37q18 5 22 5q20 0 35 -27zM893 670q10 -16 10 -34t-10 -34l-238 -395q-17 -27 -41 -27q-13 0 -20 4
l-82 27q-17 6 -17 30q0 16 7 29l166 357l-170 356q-7 13 -7 31q0 24 19 33l90 36q12 6 22 6q11 0 19 -7t16 -21z" />
    <glyph glyph-name="onequarter" unicode="&#xbc;" horiz-adv-x="1386" 
d="M238 -12q-5 -7 -13.5 -10t-17.5 -3q-13 0 -21 5l-92 53q-20 12 -20 33q0 11 6 20l952 1456q13 15 33 15q12 0 20 -5l93 -57q9 -5 13 -14t4 -18q0 -11 -5 -19zM1001 528h-4l-149 -233h127q15 0 20.5 8t5.5 21v204zM729 121q-17 0 -24.5 5.5t-12.5 20.5l-24 99q-3 13 -3 24
q0 19 7 29l227 367q8 12 15.5 17t19.5 5h252q24 0 24 -26v-338q0 -17 6 -23t17 -8h45q12 0 20.5 -6t8.5 -17v-114q0 -14 -6.5 -24.5t-20.5 -10.5h-47q-23 0 -23 -23v-71q0 -27 -24 -27h-158q-27 0 -27 27v67q0 13 -4 20t-18 7h-250zM444 864q0 -11 -7.5 -18.5t-18.5 -7.5
h-162q-12 0 -20.5 7.5t-8.5 18.5v467q0 19 -8.5 27.5t-30.5 13.5l-79 14q-23 5 -23 24v3l6 96q3 23 25 23h295q14 0 23 -9t9 -22v-637z" />
    <glyph glyph-name="onehalf" unicode="&#xbd;" horiz-adv-x="1479" 
d="M238 -12q-5 -7 -13.5 -10t-17.5 -3q-13 0 -21 5l-92 53q-20 12 -20 33q0 11 6 20l952 1456q13 15 33 15q12 0 20 -5l93 -57q9 -5 13 -14t4 -18q0 -11 -5 -19zM752 160q50 49 96.5 84t86.5 60.5t72.5 45t56 39t36 40.5t12.5 50t-22.5 48.5t-57.5 19.5q-40 0 -61.5 -28
t-32.5 -68q-4 -22 -28 -22q-8 0 -9 1l-137 35q-12 2 -17 9.5t-5 16.5q0 10 1 11q31 100 108.5 155.5t186.5 55.5q69 0 127 -15t97 -47q35 -29 56 -70t21 -98t-27 -101t-69 -80t-94 -66t-102 -60h296q13 0 21 -7t8 -19v-121q0 -29 -26 -29h-562q-23 0 -26 18l-17 88
q-3 10 -3 20q0 20 14 34zM451 864q0 -11 -8 -18.5t-19 -7.5h-162q-12 0 -20.5 7.5t-8.5 18.5v467q0 19 -8.5 27.5t-29.5 13.5l-80 14q-23 5 -23 24v3l6 96q5 23 27 23h293q15 0 24 -9t9 -22v-637z" />
    <glyph glyph-name="threequarters" unicode="&#xbe;" horiz-adv-x="1438" 
d="M328 -12q-5 -7 -13.5 -10t-17.5 -3q-13 0 -21 5l-92 53q-20 12 -20 33q0 11 6 20l952 1456q15 15 34 15q12 0 20 -5l92 -57q9 -5 13 -14t4 -18q0 -11 -5 -19zM1073 528h-4l-147 -233h125q15 0 20.5 8t5.5 21v204zM801 121q-16 0 -23 5.5t-12 20.5l-27 99q-3 12 -3 23
q0 16 9 30l226 367q8 12 15 17t20 5h254q24 0 24 -26v-338q0 -17 5 -23t18 -8h43q12 0 20 -6t8 -17v-114q0 -14 -6 -24.5t-20 -10.5h-45q-23 0 -23 -23v-71q0 -27 -24 -27h-160q-27 0 -27 27v67q0 13 -4 20t-18 7h-250zM489 1194q28 -2 53 -14.5t43.5 -33.5t29 -48.5
t10.5 -59.5q0 -46 -19 -86t-56 -69.5t-92 -46.5t-126 -17q-60 0 -107.5 15t-82.5 41.5t-57.5 62t-33.5 76.5q-1 5 -1.5 9t-0.5 8q0 19 14 24l111 28q5 1 8.5 1.5t5.5 0.5q9 0 16 -3.5t9 -12.5q11 -42 39 -66t76 -24q42 0 65 19.5t23 50.5q0 35 -26 53t-68 18h-19
q-12 0 -19.5 6.5t-7.5 20.5v82q0 24 27 24h16q38 0 62.5 20t24.5 52q0 29 -20.5 46.5t-55.5 17.5t-59 -21.5t-33 -52.5q-4 -8 -11.5 -12t-16.5 -4q-10 0 -11 1l-111 35q-16 4 -16 22q0 12 4 19q26 81 92 125.5t172 44.5q128 0 194 -48.5t66 -139.5q0 -119 -111 -162v-2z" />
    <glyph glyph-name="questiondown" unicode="&#xbf;" horiz-adv-x="936" 
d="M473 958q-37 0 -69 13t-56 35.5t-37.5 54t-13.5 69.5q0 37 13.5 68.5t37.5 54t56 35t69 12.5t69.5 -12.5t56 -35t37 -54t13.5 -68.5q0 -38 -13.5 -69.5t-37 -54t-56 -35.5t-69.5 -13zM350 823q0 31 33 31h180q16 0 25.5 -8.5t9.5 -24.5v-166q0 -82 -21.5 -140.5t-53 -104
t-69 -81.5t-69 -72t-53 -76.5t-21.5 -94.5q0 -69 42 -109t120 -40q82 0 121 43.5t39 121.5q0 14 7.5 20.5t18.5 6.5h187q37 0 37 -27q0 -90 -26 -160t-78.5 -118.5t-132.5 -74t-187 -25.5q-108 0 -187 28.5t-130.5 75.5t-76 109t-24.5 129q0 69 13.5 118.5t35 86.5t49.5 65
t56.5 54t56.5 52.5t49.5 60.5t35 79t13.5 108v133z" />
    <glyph glyph-name="Agrave" unicode="&#xc0;" horiz-adv-x="1374" 
d="M825 641q16 0 16 13q0 9 -1 10l-158 493h-2l-166 -493q-1 -1 -1 -10q0 -13 17 -13h295zM526 1503q7 16 15.5 22.5t23.5 6.5h248q16 0 25 -8t14 -21l504 -1450q1 -4 1.5 -7t0.5 -6q0 -16 -10.5 -28t-28.5 -12h-238q-32 0 -43 29l-114 358q-5 14 -14 18.5t-21 4.5h-426
q-24 0 -35 -23l-119 -356q-7 -31 -43 -31h-211q-17 0 -28.5 12t-11.5 29q0 9 3 18zM382 1749q-68 23 -68 72q0 27 23 65l10 19q20 31 40.5 45t42.5 14q27 0 61 -22l276 -187q8 -6 13.5 -15.5t5.5 -20.5q0 -4 -5 -19l-28 -45q-6 -10 -14 -16t-19 -6q-7 0 -16 3z" />
    <glyph glyph-name="Aacute" unicode="&#xc1;" horiz-adv-x="1374" 
d="M825 641q16 0 16 13q0 9 -1 10l-158 493h-2l-166 -493q-1 -1 -1 -10q0 -13 17 -13h295zM526 1503q7 16 15.5 22.5t23.5 6.5h248q16 0 25 -8t14 -21l504 -1450q1 -4 1.5 -7t0.5 -6q0 -16 -10.5 -28t-28.5 -12h-238q-32 0 -43 29l-114 358q-5 14 -14 18.5t-21 4.5h-426
q-24 0 -35 -23l-119 -356q-7 -31 -43 -31h-211q-17 0 -28.5 12t-11.5 29q0 9 3 18zM582 1636q-9 -3 -15 -3q-11 0 -19.5 6t-14.5 16l-27 45q-4 7 -4 18q0 24 19 37l274 187q34 22 61 22q21 0 41.5 -14t40.5 -45l11 -19q22 -34 22 -64q0 -51 -67 -73z" />
    <glyph glyph-name="Acircumflex" unicode="&#xc2;" horiz-adv-x="1374" 
d="M825 641q16 0 16 13q0 9 -1 10l-158 493h-2l-166 -493q-1 -1 -1 -10q0 -13 17 -13h295zM526 1503q7 16 15.5 22.5t23.5 6.5h248q16 0 25 -8t14 -21l504 -1450q1 -4 1.5 -7t0.5 -6q0 -16 -10.5 -28t-28.5 -12h-238q-32 0 -43 29l-114 358q-5 14 -14 18.5t-21 4.5h-426
q-24 0 -35 -23l-119 -356q-7 -31 -43 -31h-211q-17 0 -28.5 12t-11.5 29q0 9 3 18zM982 1751q15 -11 15 -30q0 -13 -7 -23l-29 -43q-11 -18 -29 -18q-2 0 -20 5l-227 93l-227 -95q-18 -5 -20 -5q-19 0 -29 18l-29 41q-7 10 -7 23q0 19 15 30l233 190q34 27 63 27
q28 0 64 -27z" />
    <glyph glyph-name="Atilde" unicode="&#xc3;" horiz-adv-x="1374" 
d="M825 641q16 0 16 13q0 9 -1 10l-158 493h-2l-166 -493q-1 -1 -1 -10q0 -13 17 -13h295zM526 1503q7 16 15.5 22.5t23.5 6.5h248q16 0 25 -8t14 -21l504 -1450q1 -4 1.5 -7t0.5 -6q0 -16 -10.5 -28t-28.5 -12h-238q-32 0 -43 29l-114 358q-5 14 -14 18.5t-21 4.5h-426
q-24 0 -35 -23l-119 -356q-7 -31 -43 -31h-211q-17 0 -28.5 12t-11.5 29q0 9 3 18zM566 1724q-34 0 -56.5 -14.5t-44.5 -42.5q-15 -18 -32 -18q-14 0 -27 10l-66 43q-16 13 -16 33q0 18 10 34q42 72 104 113t134 41q52 0 83 -12t54 -27t44.5 -27t53.5 -12q34 0 56.5 15.5
t44.5 44.5q15 16 33 16q12 0 26 -8l66 -45q16 -10 16 -33q0 -19 -10 -35q-40 -72 -102.5 -112.5t-135.5 -40.5q-52 0 -83 12t-54 26.5t-44.5 26.5t-53.5 12z" />
    <glyph glyph-name="Adieresis" unicode="&#xc4;" horiz-adv-x="1374" 
d="M825 641q16 0 16 13q0 9 -1 10l-158 493h-2l-166 -493q-1 -1 -1 -10q0 -13 17 -13h295zM526 1503q7 16 15.5 22.5t23.5 6.5h248q16 0 25 -8t14 -21l504 -1450q1 -4 1.5 -7t0.5 -6q0 -16 -10.5 -28t-28.5 -12h-238q-32 0 -43 29l-114 358q-5 14 -14 18.5t-21 4.5h-426
q-24 0 -35 -23l-119 -356q-7 -31 -43 -31h-211q-17 0 -28.5 12t-11.5 29q0 9 3 18zM934 1939q30 0 57.5 -12t47.5 -32t32 -47t12 -58t-12 -58t-32 -47.5t-47.5 -32.5t-57.5 -12q-32 0 -59 12t-47.5 32.5t-32 47.5t-11.5 58t11.5 58t32 47t47.5 32t59 12zM465 1939
q30 0 57.5 -12t47.5 -32t32 -47t12 -58t-12 -58t-32 -47.5t-47.5 -32.5t-57.5 -12q-31 0 -58 12t-47.5 32.5t-32.5 47.5t-12 58t12 58t32.5 47t47.5 32t58 12z" />
    <glyph glyph-name="Aring" unicode="&#xc5;" horiz-adv-x="1374" 
d="M825 641q16 0 16 13q0 9 -1 10l-158 493h-2l-166 -493q-1 -1 -1 -10q0 -13 17 -13h295zM526 1503q7 16 15.5 22.5t23.5 6.5h248q16 0 25 -8t14 -21l504 -1450q1 -4 1.5 -7t0.5 -6q0 -16 -10.5 -28t-28.5 -12h-238q-32 0 -43 29l-114 358q-5 14 -14 18.5t-21 4.5h-426
q-24 0 -35 -23l-119 -356q-7 -31 -43 -31h-211q-17 0 -28.5 12t-11.5 29q0 9 3 18zM676 1843q-34 0 -55 -21t-21 -69q0 -51 23 -71.5t57 -20.5t55 22t21 70q0 50 -23 70t-57 20zM676 1559q-43 0 -82 10t-68.5 33t-47 59.5t-17.5 89.5q0 49 16.5 86t46 61t69.5 36t87 12
q43 0 82 -10.5t68.5 -33.5t47 -60t17.5 -89q0 -49 -16.5 -85.5t-46 -60.5t-69.5 -36t-87 -12z" />
    <glyph glyph-name="AE" unicode="&#xc6;" horiz-adv-x="1907" 
d="M903 332q-3 30 -39 30h-377q-15 0 -27.5 -4.5t-19.5 -15.5l-151 -299q-11 -20 -19 -31.5t-22 -11.5h-248q-13 0 -21 9t-8 23q0 10 6 21l758 1456q6 13 11.5 18t17.5 5h1005q23 0 36.5 -11t13.5 -34v-144q0 -23 -13.5 -34t-36.5 -11h-544q-21 0 -21 -18v-326q0 -22 23 -22
h444q17 0 29 -12t12 -29v-150q0 -17 -12 -29t-29 -12h-442q-14 0 -19.5 -5.5t-5.5 -14.5v-426q0 -9 5.5 -15t15.5 -6h555q24 0 36.5 -10t14.5 -35v-143q0 -23 -13.5 -34t-37.5 -11h-846q-17 0 -24 10.5t-7 26.5v295zM903 1253h-2l-311 -614q-6 -11 -6 -22q0 -10 5.5 -16.5
t18.5 -6.5h266q17 0 23 6t6 29v624z" />
    <glyph glyph-name="Ccedilla" unicode="&#xc7;" horiz-adv-x="1278" 
d="M563 -16q-145 21 -244 93t-159 187q-59 115 -81 234t-22 256q0 146 23 269t82 228q36 67 88 123t119.5 96t150 62t180.5 22q104 0 190 -28t152 -78t111 -121t66 -156q1 -1 1 -10q0 -32 -24 -39l-201 -61q-8 -3 -15 -3q-31 0 -38 25q-15 47 -37 86.5t-53 68t-70.5 44.5
t-89.5 16q-78 0 -138 -36.5t-100.5 -105t-61.5 -166.5t-21 -222q0 -128 18 -227t57 -166.5t100 -103t148 -35.5q55 0 102 16.5t85.5 46.5t68 71t49.5 89q12 28 39 28q12 0 19 -4l172 -75q12 -5 17.5 -15t5.5 -22q0 -8 -3 -17q-27 -80 -74 -147t-113 -116.5t-149.5 -79
t-183.5 -34.5l-20 -34q72 -48 99.5 -95t27.5 -92q0 -42 -18 -78t-53 -63t-86 -42t-116 -15q-60 0 -102 9.5t-74 26.5q-21 10 -21 27q0 12 9 27l43 67q13 22 29 22q8 0 17.5 -4.5t21 -9.5t26 -9.5t33.5 -4.5q31 0 45 14t14 35q0 11 -5.5 22.5t-14 22t-18.5 19.5t-19 16
q-18 14 -28 23.5t-10 21.5q0 8 7 21z" />
    <glyph glyph-name="Egrave" unicode="&#xc8;" horiz-adv-x="1141" 
d="M178 0q-18 0 -29.5 12t-11.5 31v1442q0 21 12 34t35 13h826q18 0 30.5 -12.5t12.5 -30.5v-150q0 -18 -11.5 -29.5t-31.5 -11.5h-551q-21 0 -21 -18v-326q0 -22 23 -22h444q17 0 29 -12t12 -29v-150q0 -17 -12 -29t-29 -12h-442q-14 0 -19.5 -5.5t-5.5 -14.5v-426
q0 -9 5.5 -15t15.5 -6h565q15 0 28 -10.5t13 -27.5v-154q0 -17 -13 -29t-28 -12h-846zM314 1749q-68 23 -68 72q0 27 23 65l10 19q20 31 40.5 45t42.5 14q27 0 61 -22l276 -187q8 -6 13.5 -15.5t5.5 -20.5q0 -4 -5 -19l-28 -45q-6 -10 -14 -16t-19 -6q-7 0 -16 3z" />
    <glyph glyph-name="Eacute" unicode="&#xc9;" horiz-adv-x="1141" 
d="M178 0q-18 0 -29.5 12t-11.5 31v1442q0 21 12 34t35 13h826q18 0 30.5 -12.5t12.5 -30.5v-150q0 -18 -11.5 -29.5t-31.5 -11.5h-551q-21 0 -21 -18v-326q0 -22 23 -22h444q17 0 29 -12t12 -29v-150q0 -17 -12 -29t-29 -12h-442q-14 0 -19.5 -5.5t-5.5 -14.5v-426
q0 -9 5.5 -15t15.5 -6h565q15 0 28 -10.5t13 -27.5v-154q0 -17 -13 -29t-28 -12h-846zM514 1636q-9 -3 -15 -3q-11 0 -19.5 6t-14.5 16l-27 45q-4 7 -4 18q0 24 19 37l274 187q34 22 61 22q21 0 41.5 -14t40.5 -45l11 -19q22 -34 22 -64q0 -51 -67 -73z" />
    <glyph glyph-name="Ecircumflex" unicode="&#xca;" horiz-adv-x="1141" 
d="M178 0q-18 0 -29.5 12t-11.5 31v1442q0 21 12 34t35 13h826q18 0 30.5 -12.5t12.5 -30.5v-150q0 -18 -11.5 -29.5t-31.5 -11.5h-551q-21 0 -21 -18v-326q0 -22 23 -22h444q17 0 29 -12t12 -29v-150q0 -17 -12 -29t-29 -12h-442q-14 0 -19.5 -5.5t-5.5 -14.5v-426
q0 -9 5.5 -15t15.5 -6h565q15 0 28 -10.5t13 -27.5v-154q0 -17 -13 -29t-28 -12h-846zM885 1751q15 -11 15 -30q0 -13 -7 -23l-29 -43q-11 -18 -29 -18q-2 0 -20 5l-227 93l-227 -95q-18 -5 -20 -5q-19 0 -29 18l-29 41q-7 10 -7 23q0 19 15 30l233 190q34 27 63 27
q28 0 64 -27z" />
    <glyph glyph-name="Edieresis" unicode="&#xcb;" horiz-adv-x="1141" 
d="M178 0q-18 0 -29.5 12t-11.5 31v1442q0 21 12 34t35 13h826q18 0 30.5 -12.5t12.5 -30.5v-150q0 -18 -11.5 -29.5t-31.5 -11.5h-551q-21 0 -21 -18v-326q0 -22 23 -22h444q17 0 29 -12t12 -29v-150q0 -17 -12 -29t-29 -12h-442q-14 0 -19.5 -5.5t-5.5 -14.5v-426
q0 -9 5.5 -15t15.5 -6h565q15 0 28 -10.5t13 -27.5v-154q0 -17 -13 -29t-28 -12h-846zM821 1939q30 0 57.5 -12t47.5 -32t32 -47t12 -58t-12 -58t-32 -47.5t-47.5 -32.5t-57.5 -12q-32 0 -59 12t-47.5 32.5t-32 47.5t-11.5 58t11.5 58t32 47t47.5 32t59 12zM352 1939
q30 0 57.5 -12t47.5 -32t32 -47t12 -58t-12 -58t-32 -47.5t-47.5 -32.5t-57.5 -12q-31 0 -58 12t-47.5 32.5t-32.5 47.5t-12 58t12 58t32.5 47t47.5 32t58 12z" />
    <glyph glyph-name="Igrave" unicode="&#xcc;" horiz-adv-x="575" 
d="M174 0q-15 0 -26 10t-11 27v1458q0 16 11 26.5t26 10.5h227q17 0 27 -10.5t10 -26.5v-1458q0 -16 -10 -26.5t-27 -10.5h-227zM68 1749q-68 23 -68 72q0 27 23 65l10 19q20 31 40.5 45t42.5 14q27 0 61 -22l276 -187q8 -6 13.5 -15.5t5.5 -20.5q0 -4 -5 -19l-28 -45
q-6 -10 -14 -16t-19 -6q-7 0 -16 3z" />
    <glyph glyph-name="Iacute" unicode="&#xcd;" horiz-adv-x="575" 
d="M174 0q-15 0 -26 10t-11 27v1458q0 16 11 26.5t26 10.5h227q17 0 27 -10.5t10 -26.5v-1458q0 -16 -10 -26.5t-27 -10.5h-227zM175 1636q-9 -3 -15 -3q-11 0 -19.5 6t-14.5 16l-27 45q-4 7 -4 18q0 24 19 37l274 187q34 22 61 22q21 0 41.5 -14t40.5 -45l11 -19
q22 -34 22 -64q0 -51 -67 -73z" />
    <glyph glyph-name="Icircumflex" unicode="&#xce;" horiz-adv-x="575" 
d="M174 0q-15 0 -26 10t-11 27v1458q0 16 11 26.5t26 10.5h227q17 0 27 -10.5t10 -26.5v-1458q0 -16 -10 -26.5t-27 -10.5h-227zM591 1751q15 -11 15 -30q0 -13 -7 -23l-29 -43q-11 -18 -29 -18q-2 0 -20 5l-227 93l-227 -95q-18 -5 -20 -5q-19 0 -29 18l-29 41q-7 10 -7 23
q0 19 15 30l233 190q34 27 63 27q28 0 64 -27z" />
    <glyph glyph-name="Idieresis" unicode="&#xcf;" horiz-adv-x="575" 
d="M174 0q-15 0 -26 10t-11 27v1458q0 16 11 26.5t26 10.5h227q17 0 27 -10.5t10 -26.5v-1458q0 -16 -10 -26.5t-27 -10.5h-227zM528 1939q31 0 58 -12t47.5 -32t32.5 -47t12 -58t-12 -58t-32.5 -47.5t-47.5 -32.5t-58 -12q-32 0 -59 12t-47 32.5t-31.5 47.5t-11.5 58
t11.5 58t31.5 47t47 32t59 12zM59 1939q31 0 58 -12t47.5 -32t32.5 -47t12 -58t-12 -58t-32.5 -47.5t-47.5 -32.5t-58 -12t-58 12t-47.5 32.5t-32 47.5t-11.5 58t11.5 58t32 47t47.5 32t58 12z" />
    <glyph glyph-name="Eth" unicode="&#xd0;" horiz-adv-x="1407" 
d="M719 913q14 0 24.5 -10t10.5 -24v-144q0 -15 -8.5 -25t-26.5 -10h-215q-16 0 -20.5 -5t-4.5 -19v-408q0 -18 5.5 -24t27.5 -6h133q103 0 178 39t123.5 109.5t72 170t23.5 219.5q0 139 -31.5 237.5t-86.5 161.5t-130.5 92t-162.5 29h-119q-22 0 -27.5 -6t-5.5 -26v-328
q0 -12 4.5 -17.5t20.5 -5.5h215zM61 700q-18 0 -26 10t-8 25v144q0 14 9.5 24t24.5 10h89q15 0 19.5 5.5t4.5 17.5v549q0 21 13.5 34t39.5 13h408q131 0 235 -27t183 -76.5t135 -118t91.5 -151.5t52 -177.5t16.5 -195.5q0 -169 -42 -313t-129 -249t-221.5 -164.5
t-318.5 -59.5h-410q-23 0 -38 13.5t-15 39.5v623q0 14 -4.5 19t-19.5 5h-89z" />
    <glyph glyph-name="Ntilde" unicode="&#xd1;" horiz-adv-x="1386" 
d="M1251 41q0 -19 -12 -30t-31 -11h-264q-22 0 -35 8.5t-24 30.5l-428 899l-49 111v-1008q0 -20 -12 -30.5t-29 -10.5h-189q-17 0 -29 11t-12 30v1450q0 17 11.5 29t29.5 12h275q21 0 33.5 -9t21.5 -28l422 -879l51 -112v993q0 35 37 35h192q16 0 28.5 -9.5t12.5 -29.5
v-1452zM576 1724q-34 0 -56.5 -14.5t-44.5 -42.5q-15 -18 -32 -18q-14 0 -27 10l-66 43q-16 13 -16 33q0 18 10 34q42 72 104 113t134 41q52 0 83 -12t54 -27t44.5 -27t53.5 -12q34 0 56.5 15.5t44.5 44.5q15 16 33 16q12 0 26 -8l66 -45q16 -10 16 -33q0 -19 -10 -35
q-40 -72 -102.5 -112.5t-135.5 -40.5q-52 0 -83 12t-54 26.5t-44.5 26.5t-53.5 12z" />
    <glyph glyph-name="Ograve" unicode="&#xd2;" horiz-adv-x="1450" 
d="M723 1315q-66 0 -119.5 -21t-95.5 -61q-68 -69 -101.5 -190.5t-33.5 -274.5q0 -167 33 -285.5t102 -187.5q43 -43 99 -61.5t122 -18.5t118.5 21t92.5 61q67 69 101 190t34 275q0 165 -33 283.5t-102 187.5q-43 43 -97 62.5t-120 19.5zM719 -25q-134 0 -247.5 35
t-201.5 117q-48 45 -87 103.5t-67 136t-43.5 174.5t-15.5 219q0 124 16.5 223t45.5 176.5t68 136t85 103.5q91 83 207.5 119t249.5 36q134 0 247 -35t204 -116q47 -45 86 -104t66.5 -136t43 -174.5t15.5 -220.5q0 -124 -16.5 -222t-45 -175.5t-68 -136t-85.5 -103.5
q-90 -84 -206.5 -120t-250.5 -36zM451 1749q-68 23 -68 72q0 27 23 65l10 19q20 31 40.5 45t42.5 14q27 0 61 -22l276 -187q8 -6 13.5 -15.5t5.5 -20.5q0 -4 -5 -19l-28 -45q-6 -10 -14 -16t-19 -6q-7 0 -16 3z" />
    <glyph glyph-name="Oacute" unicode="&#xd3;" horiz-adv-x="1450" 
d="M723 1315q-66 0 -119.5 -21t-95.5 -61q-68 -69 -101.5 -190.5t-33.5 -274.5q0 -167 33 -285.5t102 -187.5q43 -43 99 -61.5t122 -18.5t118.5 21t92.5 61q67 69 101 190t34 275q0 165 -33 283.5t-102 187.5q-43 43 -97 62.5t-120 19.5zM719 -25q-134 0 -247.5 35
t-201.5 117q-48 45 -87 103.5t-67 136t-43.5 174.5t-15.5 219q0 124 16.5 223t45.5 176.5t68 136t85 103.5q91 83 207.5 119t249.5 36q134 0 247 -35t204 -116q47 -45 86 -104t66.5 -136t43 -174.5t15.5 -220.5q0 -124 -16.5 -222t-45 -175.5t-68 -136t-85.5 -103.5
q-90 -84 -206.5 -120t-250.5 -36zM671 1636q-9 -3 -15 -3q-11 0 -19.5 6t-14.5 16l-27 45q-4 7 -4 18q0 24 19 37l274 187q34 22 61 22q21 0 41.5 -14t40.5 -45l11 -19q22 -34 22 -64q0 -51 -67 -73z" />
    <glyph glyph-name="Ocircumflex" unicode="&#xd4;" horiz-adv-x="1450" 
d="M723 1315q-66 0 -119.5 -21t-95.5 -61q-68 -69 -101.5 -190.5t-33.5 -274.5q0 -167 33 -285.5t102 -187.5q43 -43 99 -61.5t122 -18.5t118.5 21t92.5 61q67 69 101 190t34 275q0 165 -33 283.5t-102 187.5q-43 43 -97 62.5t-120 19.5zM719 -25q-134 0 -247.5 35
t-201.5 117q-48 45 -87 103.5t-67 136t-43.5 174.5t-15.5 219q0 124 16.5 223t45.5 176.5t68 136t85 103.5q91 83 207.5 119t249.5 36q134 0 247 -35t204 -116q47 -45 86 -104t66.5 -136t43 -174.5t15.5 -220.5q0 -124 -16.5 -222t-45 -175.5t-68 -136t-85.5 -103.5
q-90 -84 -206.5 -120t-250.5 -36zM1018 1751q15 -11 15 -30q0 -13 -7 -23l-29 -43q-11 -18 -29 -18q-2 0 -20 5l-227 93l-227 -95q-18 -5 -20 -5q-19 0 -29 18l-29 41q-7 10 -7 23q0 19 15 30l233 190q34 27 63 27q28 0 64 -27z" />
    <glyph glyph-name="Otilde" unicode="&#xd5;" horiz-adv-x="1450" 
d="M723 1315q-66 0 -119.5 -21t-95.5 -61q-68 -69 -101.5 -190.5t-33.5 -274.5q0 -167 33 -285.5t102 -187.5q43 -43 99 -61.5t122 -18.5t118.5 21t92.5 61q67 69 101 190t34 275q0 165 -33 283.5t-102 187.5q-43 43 -97 62.5t-120 19.5zM719 -25q-134 0 -247.5 35
t-201.5 117q-48 45 -87 103.5t-67 136t-43.5 174.5t-15.5 219q0 124 16.5 223t45.5 176.5t68 136t85 103.5q91 83 207.5 119t249.5 36q134 0 247 -35t204 -116q47 -45 86 -104t66.5 -136t43 -174.5t15.5 -220.5q0 -124 -16.5 -222t-45 -175.5t-68 -136t-85.5 -103.5
q-90 -84 -206.5 -120t-250.5 -36zM584 1724q-34 0 -56.5 -14.5t-44.5 -42.5q-15 -18 -32 -18q-14 0 -27 10l-66 43q-16 13 -16 33q0 18 10 34q42 72 104 113t134 41q52 0 83 -12t54 -27t44.5 -27t53.5 -12q34 0 56.5 15.5t44.5 44.5q15 16 33 16q12 0 26 -8l66 -45
q16 -10 16 -33q0 -19 -10 -35q-40 -72 -102.5 -112.5t-135.5 -40.5q-52 0 -83 12t-54 26.5t-44.5 26.5t-53.5 12z" />
    <glyph glyph-name="Odieresis" unicode="&#xd6;" horiz-adv-x="1450" 
d="M723 1315q-66 0 -119.5 -21t-95.5 -61q-68 -69 -101.5 -190.5t-33.5 -274.5q0 -167 33 -285.5t102 -187.5q43 -43 99 -61.5t122 -18.5t118.5 21t92.5 61q67 69 101 190t34 275q0 165 -33 283.5t-102 187.5q-43 43 -97 62.5t-120 19.5zM719 -25q-134 0 -247.5 35
t-201.5 117q-48 45 -87 103.5t-67 136t-43.5 174.5t-15.5 219q0 124 16.5 223t45.5 176.5t68 136t85 103.5q91 83 207.5 119t249.5 36q134 0 247 -35t204 -116q47 -45 86 -104t66.5 -136t43 -174.5t15.5 -220.5q0 -124 -16.5 -222t-45 -175.5t-68 -136t-85.5 -103.5
q-90 -84 -206.5 -120t-250.5 -36zM962 1939q30 0 57.5 -12t47.5 -32t32 -47t12 -58t-12 -58t-32 -47.5t-47.5 -32.5t-57.5 -12q-32 0 -59 12t-47.5 32.5t-32 47.5t-11.5 58t11.5 58t32 47t47.5 32t59 12zM493 1939q30 0 57.5 -12t47.5 -32t32 -47t12 -58t-12 -58t-32 -47.5
t-47.5 -32.5t-57.5 -12q-31 0 -58 12t-47.5 32.5t-32.5 47.5t-12 58t12 58t32.5 47t47.5 32t58 12z" />
    <glyph glyph-name="multiply" unicode="&#xd7;" 
d="M414 596q13 13 13 30q0 16 -13 29l-277 277q-15 15 -15 34q0 20 15 35l76 74q18 18 39 18q22 0 35 -16l280 -278q16 -15 33 -15q15 0 27 13l276 276q17 17 33 17q17 0 37 -17l76 -72q16 -15 16 -33t-16 -34l-275 -272q-12 -15 -12 -27q0 -14 12 -27l285 -286
q15 -15 15 -37t-17 -39l-82 -78q-16 -16 -35 -16q-20 0 -35 16l-291 289q-13 16 -28 16t-31 -16l-285 -283q-17 -17 -34 -17q-15 0 -35 17l-72 70q-18 16 -18 35q0 17 16 30z" />
    <glyph glyph-name="Oslash" unicode="&#xd8;" horiz-adv-x="1450" 
d="M895 1270q-37 26 -81 37.5t-95 11.5q-69 0 -123 -21t-96 -61q-34 -35 -59.5 -83.5t-43 -108.5t-26.5 -130t-9 -147q0 -115 18 -206t52 -161zM561 248q37 -20 76.5 -28.5t87.5 -8.5q66 0 119.5 21t95.5 61q69 69 103 191t34 278q0 209 -55 344zM1180 1399
q47 -45 85 -103.5t65 -135t41.5 -173.5t14.5 -219q0 -124 -16 -222t-44.5 -175.5t-68 -136t-86.5 -103.5q-89 -84 -205.5 -120t-250.5 -36q-75 0 -143.5 11.5t-131.5 36.5l-127 -234q-6 -11 -17 -17.5t-23 -6.5q-11 0 -23 6l-84 41q-14 5 -20.5 16.5t-6.5 23.5q0 10 4 17
l133 248q-50 45 -91 103.5t-70.5 136t-45.5 177t-16 226.5q0 124 16.5 222.5t45.5 176.5t68 136.5t85 103.5q91 83 207.5 119t249.5 36q81 0 155 -13t140 -42l119 221q12 25 40 25q12 0 23 -6l84 -41q14 -5 20.5 -16.5t6.5 -23.5q0 -11 -4 -18z" />
    <glyph glyph-name="Ugrave" unicode="&#xd9;" horiz-adv-x="1366" 
d="M682 -25q-272 0 -409.5 127t-137.5 387v1002q0 17 12 29t29 12h219q17 0 29 -12t12 -29v-983q0 -142 59 -216.5t197 -74.5q248 0 248 281v993q0 17 12 29t29 12h211q15 0 27 -12t12 -29v-995q0 -138 -39 -236.5t-110.5 -161.5t-173 -93t-226.5 -30zM356 1749
q-68 23 -68 72q0 27 23 65l10 19q20 31 40.5 45t42.5 14q27 0 61 -22l276 -187q8 -6 13.5 -15.5t5.5 -20.5q0 -4 -5 -19l-28 -45q-6 -10 -14 -16t-19 -6q-7 0 -16 3z" />
    <glyph glyph-name="Uacute" unicode="&#xda;" horiz-adv-x="1366" 
d="M682 -25q-272 0 -409.5 127t-137.5 387v1002q0 17 12 29t29 12h219q17 0 29 -12t12 -29v-983q0 -142 59 -216.5t197 -74.5q248 0 248 281v993q0 17 12 29t29 12h211q15 0 27 -12t12 -29v-995q0 -138 -39 -236.5t-110.5 -161.5t-173 -93t-226.5 -30zM694 1636
q-9 -3 -15 -3q-11 0 -19.5 6t-14.5 16l-27 45q-4 7 -4 18q0 24 19 37l274 187q34 22 61 22q21 0 41.5 -14t40.5 -45l11 -19q22 -34 22 -64q0 -51 -67 -73z" />
    <glyph glyph-name="Ucircumflex" unicode="&#xdb;" horiz-adv-x="1366" 
d="M682 -25q-272 0 -409.5 127t-137.5 387v1002q0 17 12 29t29 12h219q17 0 29 -12t12 -29v-983q0 -142 59 -216.5t197 -74.5q248 0 248 281v993q0 17 12 29t29 12h211q15 0 27 -12t12 -29v-995q0 -138 -39 -236.5t-110.5 -161.5t-173 -93t-226.5 -30zM975 1751
q15 -11 15 -30q0 -13 -7 -23l-29 -43q-11 -18 -29 -18q-2 0 -20 5l-227 93l-227 -95q-18 -5 -20 -5q-19 0 -29 18l-29 41q-7 10 -7 23q0 19 15 30l233 190q34 27 63 27q28 0 64 -27z" />
    <glyph glyph-name="Udieresis" unicode="&#xdc;" horiz-adv-x="1366" 
d="M682 -25q-272 0 -409.5 127t-137.5 387v1002q0 17 12 29t29 12h219q17 0 29 -12t12 -29v-983q0 -142 59 -216.5t197 -74.5q248 0 248 281v993q0 17 12 29t29 12h211q15 0 27 -12t12 -29v-995q0 -138 -39 -236.5t-110.5 -161.5t-173 -93t-226.5 -30zM914 1939
q30 0 57.5 -12t47.5 -32t32 -47t12 -58t-12 -58t-32 -47.5t-47.5 -32.5t-57.5 -12q-32 0 -59 12t-47.5 32.5t-32 47.5t-11.5 58t11.5 58t32 47t47.5 32t59 12zM445 1939q30 0 57.5 -12t47.5 -32t32 -47t12 -58t-12 -58t-32 -47.5t-47.5 -32.5t-57.5 -12q-31 0 -58 12
t-47.5 32.5t-32.5 47.5t-12 58t12 58t32.5 47t47.5 32t58 12z" />
    <glyph glyph-name="Yacute" unicode="&#xdd;" horiz-adv-x="1133" 
d="M725 33q0 -14 -9 -23.5t-22 -9.5h-239q-14 0 -22.5 9.5t-8.5 23.5v606l-416 838q-4 8 -6 14.5t-2 12.5q0 14 9.5 21t23.5 7h272q9 0 15.5 -6.5t11.5 -16.5l260 -587l250 583q5 13 13 20t22 7h239q12 0 19.5 -7.5t7.5 -18.5q0 -9 -6 -21l-412 -846v-606zM594 1636
q-9 -3 -15 -3q-11 0 -19.5 6t-14.5 16l-27 45q-4 7 -4 18q0 24 19 37l274 187q34 22 61 22q21 0 41.5 -14t40.5 -45l11 -19q22 -34 22 -64q0 -51 -67 -73z" />
    <glyph glyph-name="Thorn" unicode="&#xde;" horiz-adv-x="1171" 
d="M827 829q0 55 -14.5 101t-43.5 79t-72 51.5t-101 18.5h-137q-13 0 -17 -4t-4 -16v-475q0 -13 4 -17t17 -4h137q115 0 173 71.5t58 194.5zM1141 842q0 -90 -17 -161t-48.5 -125.5t-76 -94.5t-98.5 -68q-63 -34 -140.5 -49.5t-168.5 -15.5h-127q-14 0 -20.5 -5.5
t-6.5 -19.5v-270q0 -14 -9 -23.5t-23 -9.5h-236q-14 0 -23.5 9.5t-9.5 23.5v1462q0 37 37 37h234q14 0 23 -9.5t9 -23.5v-156q0 -14 9 -21t24 -7h117q91 0 171 -13t146 -47q112 -57 173 -158t61 -255z" />
    <glyph glyph-name="germandbls" unicode="&#xdf;" horiz-adv-x="1225" 
d="M856 881q0 -35 17 -60t55 -57l69 -59q41 -35 77 -71.5t62.5 -78t42 -90t15.5 -107.5q0 -79 -23.5 -148.5t-72 -121t-123 -81.5t-176.5 -30q-81 0 -139 20.5t-107 57.5q-18 13 -18 32q0 15 10 28l82 114q12 19 30 19q14 0 27 -10q25 -19 49 -30t64 -11q29 0 51.5 10t38 27
t23.5 40.5t8 49.5q0 53 -29.5 92.5t-73.5 77.5l-70 59q-41 32 -71 64t-49.5 68t-29 77t-9.5 92q0 46 11.5 82t28.5 66.5t36.5 58t36.5 58t28.5 66t11.5 81.5q0 28 -8 54.5t-25.5 46.5t-45 32t-66.5 12q-75 0 -111.5 -48.5t-36.5 -133.5v-1188q0 -19 -11.5 -30t-28.5 -11
h-191q-19 0 -30 11t-11 30v868q0 19 -16 19h-90q-19 0 -30 12t-11 29v121q0 17 11 28.5t30 11.5h84q14 0 18 5t4 14v72q0 103 33 180.5t90.5 129.5t136 78.5t170.5 26.5q103 0 181.5 -26.5t131 -72t79 -107.5t26.5 -134q0 -64 -12.5 -112t-30.5 -85t-40 -65.5t-40 -53
t-30.5 -48.5t-12.5 -51z" />
    <glyph glyph-name="agrave" unicode="&#xe0;" horiz-adv-x="1133" 
d="M739 518q-12 -6 -29.5 -10t-35.5 -6l-72 -13q-81 -11 -130.5 -27.5t-77 -38t-37 -46.5t-9.5 -53q0 -66 38 -102t110 -36q60 0 105.5 21t76 53.5t46 70t15.5 70.5v117zM752 123q-51 -66 -134 -107t-186 -41q-83 0 -151.5 21t-117 62t-75.5 101.5t-27 139.5
q0 73 24.5 133.5t81.5 107.5t150.5 80.5t231.5 53.5l108 16q48 8 65 26t17 44v6q0 87 -42.5 134.5t-135.5 47.5q-39 0 -68 -10t-50.5 -27t-36 -40.5t-23.5 -51.5q-11 -29 -36 -29q-8 0 -17 3l-174 47q-23 8 -23 33q0 10 8 34q23 58 61 104t92.5 78t126.5 49t163 17
q44 0 90.5 -7t89.5 -20t80.5 -32.5t64.5 -44.5q53 -50 76 -113.5t23 -153.5v-747q0 -37 -35 -37h-185q-21 0 -28.5 7t-7.5 24v92zM287 1401q-25 15 -38.5 33t-13.5 38q0 33 40 72l14 15q44 44 80 44q18 0 34.5 -10t33.5 -28l217 -238q12 -12 12 -28q0 -17 -10 -27l-37 -39
q-6 -6 -13.5 -10t-15.5 -4q-11 0 -22 8z" />
    <glyph glyph-name="aacute" unicode="&#xe1;" horiz-adv-x="1133" 
d="M739 518q-12 -6 -29.5 -10t-35.5 -6l-72 -13q-81 -11 -130.5 -27.5t-77 -38t-37 -46.5t-9.5 -53q0 -66 38 -102t110 -36q60 0 105.5 21t76 53.5t46 70t15.5 70.5v117zM752 123q-51 -66 -134 -107t-186 -41q-83 0 -151.5 21t-117 62t-75.5 101.5t-27 139.5
q0 73 24.5 133.5t81.5 107.5t150.5 80.5t231.5 53.5l108 16q48 8 65 26t17 44v6q0 87 -42.5 134.5t-135.5 47.5q-39 0 -68 -10t-50.5 -27t-36 -40.5t-23.5 -51.5q-11 -29 -36 -29q-8 0 -17 3l-174 47q-23 8 -23 33q0 10 8 34q23 58 61 104t92.5 78t126.5 49t163 17
q44 0 90.5 -7t89.5 -20t80.5 -32.5t64.5 -44.5q53 -50 76 -113.5t23 -153.5v-747q0 -37 -35 -37h-185q-21 0 -28.5 7t-7.5 24v92zM561 1227q-11 -8 -23 -8q-16 0 -28 14l-37 39q-11 14 -11 27q0 17 11 28l219 238q17 18 33.5 28t34.5 10q36 0 80 -44l14 -15q38 -38 38 -72
q0 -39 -50 -71z" />
    <glyph glyph-name="acircumflex" unicode="&#xe2;" horiz-adv-x="1133" 
d="M739 518q-12 -6 -29.5 -10t-35.5 -6l-72 -13q-81 -11 -130.5 -27.5t-77 -38t-37 -46.5t-9.5 -53q0 -66 38 -102t110 -36q60 0 105.5 21t76 53.5t46 70t15.5 70.5v117zM752 123q-51 -66 -134 -107t-186 -41q-83 0 -151.5 21t-117 62t-75.5 101.5t-27 139.5
q0 73 24.5 133.5t81.5 107.5t150.5 80.5t231.5 53.5l108 16q48 8 65 26t17 44v6q0 87 -42.5 134.5t-135.5 47.5q-39 0 -68 -10t-50.5 -27t-36 -40.5t-23.5 -51.5q-11 -29 -36 -29q-8 0 -17 3l-174 47q-23 8 -23 33q0 10 8 34q23 58 61 104t92.5 78t126.5 49t163 17
q44 0 90.5 -7t89.5 -20t80.5 -32.5t64.5 -44.5q53 -50 76 -113.5t23 -153.5v-747q0 -37 -35 -37h-185q-21 0 -28.5 7t-7.5 24v92zM860 1327q12 -12 12 -30q0 -15 -10 -25l-37 -37q-10 -13 -28 -13q-13 0 -23 7l-193 135l-192 -135q-10 -7 -22 -7q-17 0 -30 13l-36 37
q-10 10 -10 26q0 15 12 29l211 238q32 38 67 38q36 0 68 -38z" />
    <glyph glyph-name="atilde" unicode="&#xe3;" horiz-adv-x="1133" 
d="M739 518q-12 -6 -29.5 -10t-35.5 -6l-72 -13q-81 -11 -130.5 -27.5t-77 -38t-37 -46.5t-9.5 -53q0 -66 38 -102t110 -36q60 0 105.5 21t76 53.5t46 70t15.5 70.5v117zM752 123q-51 -66 -134 -107t-186 -41q-83 0 -151.5 21t-117 62t-75.5 101.5t-27 139.5
q0 73 24.5 133.5t81.5 107.5t150.5 80.5t231.5 53.5l108 16q48 8 65 26t17 44v6q0 87 -42.5 134.5t-135.5 47.5q-39 0 -68 -10t-50.5 -27t-36 -40.5t-23.5 -51.5q-11 -29 -36 -29q-8 0 -17 3l-174 47q-23 8 -23 33q0 10 8 34q23 58 61 104t92.5 78t126.5 49t163 17
q44 0 90.5 -7t89.5 -20t80.5 -32.5t64.5 -44.5q53 -50 76 -113.5t23 -153.5v-747q0 -37 -35 -37h-185q-21 0 -28.5 7t-7.5 24v92zM453 1331q-35 0 -57 -16.5t-44 -44.5q-12 -18 -30 -18q-14 0 -27 10l-66 43q-17 12 -17 32q0 15 11 35q20 35 46 64.5t56.5 50.5t65 33
t70.5 12q51 0 82 -13t54.5 -29t45 -29t53.5 -13q34 0 56.5 17t44.5 46q13 18 30 18q6 0 13 -2.5t14 -6.5l65 -45q18 -11 18 -33q0 -18 -11 -35q-42 -72 -103 -115t-133 -43q-52 0 -83.5 13t-55 28t-45 28t-53.5 13z" />
    <glyph glyph-name="adieresis" unicode="&#xe4;" horiz-adv-x="1133" 
d="M739 518q-12 -6 -29.5 -10t-35.5 -6l-72 -13q-81 -11 -130.5 -27.5t-77 -38t-37 -46.5t-9.5 -53q0 -66 38 -102t110 -36q60 0 105.5 21t76 53.5t46 70t15.5 70.5v117zM752 123q-51 -66 -134 -107t-186 -41q-83 0 -151.5 21t-117 62t-75.5 101.5t-27 139.5
q0 73 24.5 133.5t81.5 107.5t150.5 80.5t231.5 53.5l108 16q48 8 65 26t17 44v6q0 87 -42.5 134.5t-135.5 47.5q-39 0 -68 -10t-50.5 -27t-36 -40.5t-23.5 -51.5q-11 -29 -36 -29q-8 0 -17 3l-174 47q-23 8 -23 33q0 10 8 34q23 58 61 104t92.5 78t126.5 49t163 17
q44 0 90.5 -7t89.5 -20t80.5 -32.5t64.5 -44.5q53 -50 76 -113.5t23 -153.5v-747q0 -37 -35 -37h-185q-21 0 -28.5 7t-7.5 24v92zM820 1550q31 0 58 -12t47 -32t32 -47t12 -58t-12 -58t-32 -47.5t-47 -32.5t-58 -12t-58 12t-47.5 32.5t-32.5 47.5t-12 58t12 58t32.5 47
t47.5 32t58 12zM369 1550q31 0 58 -12t47.5 -32t32.5 -47t12 -58t-12 -58t-32.5 -47.5t-47.5 -32.5t-58 -12t-58 12t-47.5 32.5t-32 47.5t-11.5 58t11.5 58t32 47t47.5 32t58 12z" />
    <glyph glyph-name="aring" unicode="&#xe5;" horiz-adv-x="1133" 
d="M739 518q-12 -6 -29.5 -10t-35.5 -6l-72 -13q-81 -11 -130.5 -27.5t-77 -38t-37 -46.5t-9.5 -53q0 -66 38 -102t110 -36q60 0 105.5 21t76 53.5t46 70t15.5 70.5v117zM752 123q-51 -66 -134 -107t-186 -41q-83 0 -151.5 21t-117 62t-75.5 101.5t-27 139.5
q0 73 24.5 133.5t81.5 107.5t150.5 80.5t231.5 53.5l108 16q48 8 65 26t17 44v6q0 87 -42.5 134.5t-135.5 47.5q-39 0 -68 -10t-50.5 -27t-36 -40.5t-23.5 -51.5q-11 -29 -36 -29q-8 0 -17 3l-174 47q-23 8 -23 33q0 10 8 34q23 58 61 104t92.5 78t126.5 49t163 17
q44 0 90.5 -7t89.5 -20t80.5 -32.5t64.5 -44.5q53 -50 76 -113.5t23 -153.5v-747q0 -37 -35 -37h-185q-21 0 -28.5 7t-7.5 24v92zM589 1522q-38 0 -62 -24.5t-24 -78.5q0 -57 26 -80.5t65 -23.5q38 0 62 25t24 79q0 57 -26 80t-65 23zM589 1200q-48 0 -92 11.5t-77.5 37
t-53.5 67t-20 101.5q0 56 19 97.5t52 68.5t78.5 40t98.5 13q48 0 92 -11.5t77.5 -37t53.5 -67t20 -101.5q0 -56 -19 -97t-52 -68t-78.5 -40.5t-98.5 -13.5z" />
    <glyph glyph-name="ae" unicode="&#xe6;" horiz-adv-x="1823" 
d="M1260 948q-59 0 -105.5 -24.5t-79 -68t-50 -103.5t-17.5 -131q0 -14 4 -21t17 -7q1 0 8.5 1.5t21.5 3.5q35 9 81.5 22.5t94.5 29t93 32t77 31.5q25 12 33 25t8 30q0 27 -11.5 58.5t-34.5 58.5t-58 45t-82 18zM739 518q-12 -6 -29.5 -10t-35.5 -6l-72 -13
q-81 -11 -130.5 -27.5t-77 -38t-37 -46.5t-9.5 -53q0 -66 38 -102t110 -36q60 0 105.5 21t76 53.5t46 70t15.5 70.5v117zM852 166q-69 -94 -172 -142.5t-236 -48.5q-87 0 -158 21t-121 62t-77 101.5t-27 139.5q0 73 24.5 133.5t81.5 107.5t150.5 80.5t231.5 53.5l108 16
q48 8 65 26t17 44v6q0 87 -42.5 134.5t-135.5 47.5q-39 0 -68 -10t-50.5 -27t-36 -40.5t-23.5 -51.5q-11 -29 -36 -29q-8 0 -17 3l-174 47q-23 8 -23 33q0 10 8 34q23 58 61 104t92.5 78t126.5 49t163 17q50 0 99 -8t93.5 -24t82 -40t63.5 -55q130 127 350 127
q112 0 200.5 -37.5t150 -96t94 -129.5t32.5 -138q0 -30 -6 -51.5t-20 -39t-36.5 -33t-54.5 -32.5q-43 -23 -108 -50.5t-140 -55t-155 -53t-152 -44.5q-24 -8 -24 -26q0 -1 0.5 -3.5l1.5 -7.5q11 -35 34.5 -64.5t57 -51t75 -33.5t89.5 -12q91 0 164.5 36.5t136.5 102.5
q13 16 34 16q16 0 27 -12l84 -88q10 -10 10 -25q0 -8 -2.5 -14.5t-5.5 -11.5q-81 -109 -203 -166.5t-286 -57.5q-141 0 -243.5 49t-174.5 140z" />
    <glyph glyph-name="ccedilla" unicode="&#xe7;" horiz-adv-x="1087" 
d="M625 -57q73 -48 101 -95t28 -92q0 -42 -18 -78t-53.5 -63t-86.5 -42t-117 -15q-60 0 -101.5 9.5t-72.5 26.5q-22 13 -22 28q0 13 10 26l43 67q8 11 14 15.5t14 4.5t17.5 -4t21 -9t26 -9t32.5 -4q32 0 46.5 14t14.5 35q0 11 -6 22.5t-14.5 22t-19 19.5t-19.5 16
q-17 14 -26.5 23.5t-9.5 20.5q0 9 7 22l45 80q-231 34 -340 229q-40 72 -59 161t-19 183q0 97 17.5 184t54.5 156q69 127 181 192.5t274 65.5q84 0 157 -21.5t130 -62t96.5 -100t56.5 -135.5q2 -10 2 -9v-9q0 -14 -6 -24.5t-23 -13.5l-167 -39q-5 -1 -9 -1.5t-8 -0.5
q-32 0 -41 27q-18 72 -65 113t-119 41q-51 0 -94.5 -21.5t-75.5 -65.5t-50 -110.5t-18 -155.5q0 -96 19.5 -163.5t52.5 -109.5t77.5 -61.5t94.5 -19.5q39 0 72.5 11.5t61 31t48.5 45.5t35 55q6 13 15.5 21t23.5 8q11 0 18 -4l144 -53q30 -14 30 -40q0 -11 -4 -18
q-22 -60 -60 -110t-89 -87t-113.5 -60.5t-132.5 -30.5z" />
    <glyph glyph-name="egrave" unicode="&#xe8;" horiz-adv-x="1161" 
d="M598 948q-59 0 -105 -24.5t-78.5 -68t-49.5 -103.5t-17 -131q0 -14 3.5 -21t16.5 -7q5 0 12 1.5t17 3.5q35 9 81.5 22.5t94.5 29t93 32t77 31.5q25 12 34 25t9 30q0 27 -11.5 58.5t-35 58.5t-58.5 45t-83 18zM1098 201q-81 -109 -203 -166.5t-287 -57.5
q-161 0 -278.5 65.5t-190.5 193.5q-38 69 -58 152t-20 177q0 88 18.5 164t49.5 139q34 65 80.5 118t106.5 90.5t133.5 58t160.5 20.5q113 0 201.5 -37.5t150 -96t93.5 -129.5t32 -138q0 -30 -6 -51.5t-19.5 -39t-36 -33t-54.5 -32.5q-42 -23 -107 -50.5t-140.5 -55t-155 -53
t-150.5 -44.5q-25 -7 -25 -25q0 -1 0.5 -4t1.5 -8q12 -35 35 -64.5t56 -51t74.5 -33.5t90.5 -12q88 0 162 36.5t137 102.5q7 8 16.5 12t18.5 4q15 0 27 -12l84 -88q9 -11 9 -26t-7 -25zM315 1401q-25 15 -38.5 33t-13.5 38q0 33 40 72l14 15q44 44 80 44q18 0 34.5 -10
t33.5 -28l217 -238q12 -12 12 -28q0 -17 -10 -27l-37 -39q-6 -6 -13.5 -10t-15.5 -4q-11 0 -22 8z" />
    <glyph glyph-name="eacute" unicode="&#xe9;" horiz-adv-x="1161" 
d="M598 948q-59 0 -105 -24.5t-78.5 -68t-49.5 -103.5t-17 -131q0 -14 3.5 -21t16.5 -7q5 0 12 1.5t17 3.5q35 9 81.5 22.5t94.5 29t93 32t77 31.5q25 12 34 25t9 30q0 27 -11.5 58.5t-35 58.5t-58.5 45t-83 18zM1098 201q-81 -109 -203 -166.5t-287 -57.5
q-161 0 -278.5 65.5t-190.5 193.5q-38 69 -58 152t-20 177q0 88 18.5 164t49.5 139q34 65 80.5 118t106.5 90.5t133.5 58t160.5 20.5q113 0 201.5 -37.5t150 -96t93.5 -129.5t32 -138q0 -30 -6 -51.5t-19.5 -39t-36 -33t-54.5 -32.5q-42 -23 -107 -50.5t-140.5 -55t-155 -53
t-150.5 -44.5q-25 -7 -25 -25q0 -1 0.5 -4t1.5 -8q12 -35 35 -64.5t56 -51t74.5 -33.5t90.5 -12q88 0 162 36.5t137 102.5q7 8 16.5 12t18.5 4q15 0 27 -12l84 -88q9 -11 9 -26t-7 -25zM551 1227q-11 -8 -23 -8q-16 0 -28 14l-37 39q-11 14 -11 27q0 17 11 28l219 238
q17 18 33.5 28t34.5 10q36 0 80 -44l14 -15q38 -38 38 -72q0 -39 -50 -71z" />
    <glyph glyph-name="ecircumflex" unicode="&#xea;" horiz-adv-x="1161" 
d="M598 948q-59 0 -105 -24.5t-78.5 -68t-49.5 -103.5t-17 -131q0 -14 3.5 -21t16.5 -7q5 0 12 1.5t17 3.5q35 9 81.5 22.5t94.5 29t93 32t77 31.5q25 12 34 25t9 30q0 27 -11.5 58.5t-35 58.5t-58.5 45t-83 18zM1098 201q-81 -109 -203 -166.5t-287 -57.5
q-161 0 -278.5 65.5t-190.5 193.5q-38 69 -58 152t-20 177q0 88 18.5 164t49.5 139q34 65 80.5 118t106.5 90.5t133.5 58t160.5 20.5q113 0 201.5 -37.5t150 -96t93.5 -129.5t32 -138q0 -30 -6 -51.5t-19.5 -39t-36 -33t-54.5 -32.5q-42 -23 -107 -50.5t-140.5 -55t-155 -53
t-150.5 -44.5q-25 -7 -25 -25q0 -1 0.5 -4t1.5 -8q12 -35 35 -64.5t56 -51t74.5 -33.5t90.5 -12q88 0 162 36.5t137 102.5q7 8 16.5 12t18.5 4q15 0 27 -12l84 -88q9 -11 9 -26t-7 -25zM881 1327q12 -12 12 -30q0 -15 -10 -25l-37 -37q-10 -13 -28 -13q-13 0 -23 7l-193 135
l-192 -135q-10 -7 -22 -7q-17 0 -30 13l-36 37q-10 10 -10 26q0 15 12 29l211 238q32 38 67 38q36 0 68 -38z" />
    <glyph glyph-name="edieresis" unicode="&#xeb;" horiz-adv-x="1161" 
d="M598 948q-59 0 -105 -24.5t-78.5 -68t-49.5 -103.5t-17 -131q0 -14 3.5 -21t16.5 -7q5 0 12 1.5t17 3.5q35 9 81.5 22.5t94.5 29t93 32t77 31.5q25 12 34 25t9 30q0 27 -11.5 58.5t-35 58.5t-58.5 45t-83 18zM1098 201q-81 -109 -203 -166.5t-287 -57.5
q-161 0 -278.5 65.5t-190.5 193.5q-38 69 -58 152t-20 177q0 88 18.5 164t49.5 139q34 65 80.5 118t106.5 90.5t133.5 58t160.5 20.5q113 0 201.5 -37.5t150 -96t93.5 -129.5t32 -138q0 -30 -6 -51.5t-19.5 -39t-36 -33t-54.5 -32.5q-42 -23 -107 -50.5t-140.5 -55t-155 -53
t-150.5 -44.5q-25 -7 -25 -25q0 -1 0.5 -4t1.5 -8q12 -35 35 -64.5t56 -51t74.5 -33.5t90.5 -12q88 0 162 36.5t137 102.5q7 8 16.5 12t18.5 4q15 0 27 -12l84 -88q9 -11 9 -26t-7 -25zM828 1548q31 0 58 -12t47 -32t32 -47t12 -58t-12 -58t-32 -47.5t-47 -32.5t-58 -12
t-58 12t-47.5 32.5t-32.5 47.5t-12 58t12 58t32.5 47t47.5 32t58 12zM377 1548q31 0 58 -12t47.5 -32t32.5 -47t12 -58t-12 -58t-32.5 -47.5t-47.5 -32.5t-58 -12t-58 12t-47.5 32.5t-32 47.5t-11.5 58t11.5 58t32 47t47.5 32t58 12z" />
    <glyph glyph-name="igrave" unicode="&#xec;" horiz-adv-x="522" 
d="M160 0q-16 0 -25.5 9.5t-9.5 25.5v1061q0 15 10 24.5t27 9.5h198q19 0 28 -9.5t9 -24.5v-1061q0 -16 -9 -25.5t-26 -9.5h-202zM56 1401q-25 15 -38.5 33t-13.5 38q0 33 40 72l14 15q44 44 80 44q18 0 34.5 -10t33.5 -28l217 -238q12 -12 12 -28q0 -17 -10 -27l-37 -39
q-6 -6 -13.5 -10t-15.5 -4q-11 0 -22 8z" />
    <glyph glyph-name="iacute" unicode="&#xed;" horiz-adv-x="522" 
d="M160 0q-16 0 -25.5 9.5t-9.5 25.5v1061q0 15 10 24.5t27 9.5h198q19 0 28 -9.5t9 -24.5v-1061q0 -16 -9 -25.5t-26 -9.5h-202zM159 1227q-11 -8 -23 -8q-16 0 -28 14l-37 39q-11 14 -11 27q0 17 11 28l219 238q17 18 33.5 28t34.5 10q36 0 80 -44l14 -15q38 -38 38 -72
q0 -39 -50 -71z" />
    <glyph glyph-name="icircumflex" unicode="&#xee;" horiz-adv-x="522" 
d="M160 0q-16 0 -25.5 9.5t-9.5 25.5v1061q0 15 10 24.5t27 9.5h198q19 0 28 -9.5t9 -24.5v-1061q0 -16 -9 -25.5t-26 -9.5h-202zM540 1327q12 -12 12 -30q0 -15 -10 -25l-37 -37q-10 -13 -28 -13q-13 0 -23 7l-193 135l-192 -135q-10 -7 -22 -7q-17 0 -30 13l-36 37
q-10 10 -10 26q0 15 12 29l211 238q32 38 67 38q36 0 68 -38z" />
    <glyph glyph-name="idieresis" unicode="&#xef;" horiz-adv-x="522" 
d="M160 0q-16 0 -25.5 9.5t-9.5 25.5v1061q0 15 10 24.5t27 9.5h198q19 0 28 -9.5t9 -24.5v-1061q0 -16 -9 -25.5t-26 -9.5h-202zM495 1548q31 0 58 -12t47 -32t32 -47t12 -58t-12 -58t-32 -47.5t-47 -32.5t-58 -12t-58 12t-47.5 32.5t-32.5 47.5t-12 58t12 58t32.5 47
t47.5 32t58 12zM44 1548q31 0 58 -12t47.5 -32t32.5 -47t12 -58t-12 -58t-32.5 -47.5t-47.5 -32.5t-58 -12t-58 12t-47.5 32.5t-32 47.5t-11.5 58t11.5 58t32 47t47.5 32t58 12z" />
    <glyph glyph-name="eth" unicode="&#xf0;" horiz-adv-x="1227" 
d="M600 895q-96 0 -158 -59q-42 -45 -64 -117t-22 -166q0 -100 22 -170.5t64 -112.5q31 -32 69.5 -47.5t92.5 -15.5q96 0 158 59q40 45 63 115.5t23 167.5t-22 168t-64 114q-64 64 -162 64zM444 1190q-17 -5 -21 -5q-23 0 -38 25l-55 84q-7 10 -7 24q0 12 7.5 21.5
t19.5 16.5l135 65q-29 22 -58.5 40.5t-61.5 33.5q-20 11 -20 28q0 16 20 25l174 82q13 7 29 7q8 0 16 -2.5t16 -6.5q36 -19 69 -40t64 -46l182 88q13 6 25 6q23 0 37 -24l53 -86q6 -12 6 -23q0 -23 -28 -39l-127 -63q133 -155 202.5 -348.5t69.5 -423.5q0 -80 -10.5 -154.5
t-31 -140t-51.5 -120t-73 -93.5q-78 -75 -173 -110.5t-216 -35.5q-127 0 -220.5 36t-162.5 102q-34 32 -62 72.5t-48 93t-31 118.5t-11 150q0 153 42.5 262.5t127.5 187.5q63 60 145.5 93.5t188.5 33.5q66 0 121.5 -16.5t95.5 -54.5q-23 63 -60 122t-85 111z" />
    <glyph glyph-name="ntilde" unicode="&#xf1;" horiz-adv-x="1184" 
d="M1059 41q0 -19 -11 -30t-28 -11h-191q-18 0 -29.5 11t-11.5 30v688q0 43 -7 78.5t-23.5 60.5t-44.5 38.5t-70 13.5q-50 0 -94.5 -21t-78.5 -55.5t-53.5 -79t-19.5 -90.5v-633q0 -19 -11 -30t-30 -11h-190q-17 0 -29 11t-12 30v1049q0 17 12 28.5t29 11.5h178
q19 0 30 -11.5t11 -28.5v-86q60 69 145 110t191 41q61 0 111.5 -14.5t90 -40t67.5 -60.5t44 -77q13 -32 19 -81.5t6 -109.5v-731zM449 1331q-35 0 -57 -16.5t-44 -44.5q-12 -18 -30 -18q-14 0 -27 10l-66 43q-17 12 -17 32q0 15 11 35q20 35 46 64.5t56.5 50.5t65 33
t70.5 12q51 0 82 -13t54.5 -29t45 -29t53.5 -13q34 0 56.5 17t44.5 46q13 18 30 18q6 0 13 -2.5t14 -6.5l65 -45q18 -11 18 -33q0 -18 -11 -35q-42 -72 -103 -115t-133 -43q-52 0 -83.5 13t-55 28t-45 28t-53.5 13z" />
    <glyph glyph-name="ograve" unicode="&#xf2;" horiz-adv-x="1204" 
d="M600 922q-97 0 -158 -64q-42 -43 -64 -118.5t-22 -172.5q0 -100 22 -173t64 -118q31 -32 69.5 -48.5t92.5 -16.5q95 0 158 63q40 42 63 117t23 172q0 201 -86 293q-32 32 -71.5 49t-90.5 17zM598 -25q-127 0 -220.5 38t-162.5 104q-34 33 -62 74.5t-48 95t-31 121
t-11 153.5q0 156 40 264t114 181q79 75 172.5 112t216.5 37q126 0 218 -37.5t161 -103.5q82 -80 119 -186.5t37 -258.5q0 -151 -39.5 -260t-114.5 -184q-78 -75 -173 -112.5t-216 -37.5zM356 1401q-25 15 -38.5 33t-13.5 38q0 33 40 72l14 15q44 44 80 44q18 0 34.5 -10
t33.5 -28l217 -238q12 -12 12 -28q0 -17 -10 -27l-37 -39q-6 -6 -13.5 -10t-15.5 -4q-11 0 -22 8z" />
    <glyph glyph-name="oacute" unicode="&#xf3;" horiz-adv-x="1204" 
d="M600 922q-97 0 -158 -64q-42 -43 -64 -118.5t-22 -172.5q0 -100 22 -173t64 -118q31 -32 69.5 -48.5t92.5 -16.5q95 0 158 63q40 42 63 117t23 172q0 201 -86 293q-32 32 -71.5 49t-90.5 17zM598 -25q-127 0 -220.5 38t-162.5 104q-34 33 -62 74.5t-48 95t-31 121
t-11 153.5q0 156 40 264t114 181q79 75 172.5 112t216.5 37q126 0 218 -37.5t161 -103.5q82 -80 119 -186.5t37 -258.5q0 -151 -39.5 -260t-114.5 -184q-78 -75 -173 -112.5t-216 -37.5zM539 1227q-11 -8 -23 -8q-16 0 -28 14l-37 39q-11 14 -11 27q0 17 11 28l219 238
q17 18 33.5 28t34.5 10q36 0 80 -44l14 -15q38 -38 38 -72q0 -39 -50 -71z" />
    <glyph glyph-name="ocircumflex" unicode="&#xf4;" horiz-adv-x="1204" 
d="M600 922q-97 0 -158 -64q-42 -43 -64 -118.5t-22 -172.5q0 -100 22 -173t64 -118q31 -32 69.5 -48.5t92.5 -16.5q95 0 158 63q40 42 63 117t23 172q0 201 -86 293q-32 32 -71.5 49t-90.5 17zM598 -25q-127 0 -220.5 38t-162.5 104q-34 33 -62 74.5t-48 95t-31 121
t-11 153.5q0 156 40 264t114 181q79 75 172.5 112t216.5 37q126 0 218 -37.5t161 -103.5q82 -80 119 -186.5t37 -258.5q0 -151 -39.5 -260t-114.5 -184q-78 -75 -173 -112.5t-216 -37.5zM885 1327q12 -12 12 -30q0 -15 -10 -25l-37 -37q-10 -13 -28 -13q-13 0 -23 7
l-193 135l-192 -135q-10 -7 -22 -7q-17 0 -30 13l-36 37q-10 10 -10 26q0 15 12 29l211 238q32 38 67 38q36 0 68 -38z" />
    <glyph glyph-name="otilde" unicode="&#xf5;" horiz-adv-x="1204" 
d="M600 922q-97 0 -158 -64q-42 -43 -64 -118.5t-22 -172.5q0 -100 22 -173t64 -118q31 -32 69.5 -48.5t92.5 -16.5q95 0 158 63q40 42 63 117t23 172q0 201 -86 293q-32 32 -71.5 49t-90.5 17zM598 -25q-127 0 -220.5 38t-162.5 104q-34 33 -62 74.5t-48 95t-31 121
t-11 153.5q0 156 40 264t114 181q79 75 172.5 112t216.5 37q126 0 218 -37.5t161 -103.5q82 -80 119 -186.5t37 -258.5q0 -151 -39.5 -260t-114.5 -184q-78 -75 -173 -112.5t-216 -37.5zM467 1331q-35 0 -57 -16.5t-44 -44.5q-12 -18 -30 -18q-14 0 -27 10l-66 43
q-17 12 -17 32q0 15 11 35q20 35 46 64.5t56.5 50.5t65 33t70.5 12q51 0 82 -13t54.5 -29t45 -29t53.5 -13q34 0 56.5 17t44.5 46q13 18 30 18q6 0 13 -2.5t14 -6.5l65 -45q18 -11 18 -33q0 -18 -11 -35q-42 -72 -103 -115t-133 -43q-52 0 -83.5 13t-55 28t-45 28t-53.5 13z
" />
    <glyph glyph-name="odieresis" unicode="&#xf6;" horiz-adv-x="1204" 
d="M600 922q-97 0 -158 -64q-42 -43 -64 -118.5t-22 -172.5q0 -100 22 -173t64 -118q31 -32 69.5 -48.5t92.5 -16.5q95 0 158 63q40 42 63 117t23 172q0 201 -86 293q-32 32 -71.5 49t-90.5 17zM598 -25q-127 0 -220.5 38t-162.5 104q-34 33 -62 74.5t-48 95t-31 121
t-11 153.5q0 156 40 264t114 181q79 75 172.5 112t216.5 37q126 0 218 -37.5t161 -103.5q82 -80 119 -186.5t37 -258.5q0 -151 -39.5 -260t-114.5 -184q-78 -75 -173 -112.5t-216 -37.5zM820 1548q31 0 58 -12t47 -32t32 -47t12 -58t-12 -58t-32 -47.5t-47 -32.5t-58 -12
t-58 12t-47.5 32.5t-32.5 47.5t-12 58t12 58t32.5 47t47.5 32t58 12zM369 1548q31 0 58 -12t47.5 -32t32.5 -47t12 -58t-12 -58t-32.5 -47.5t-47.5 -32.5t-58 -12t-58 12t-47.5 32.5t-32 47.5t-11.5 58t11.5 58t32 47t47.5 32t58 12z" />
    <glyph glyph-name="divide" unicode="&#xf7;" 
d="M592 1163q35 0 66.5 -13.5t55 -36.5t37 -54t13.5 -66q0 -36 -13.5 -67.5t-37 -54.5t-55 -36.5t-66.5 -13.5t-66.5 13.5t-55 36.5t-37 54.5t-13.5 67.5q0 35 13.5 66t37 54t55 36.5t66.5 13.5zM594 422q35 0 66.5 -13.5t55 -37t37 -55t13.5 -66.5t-13.5 -66.5t-37 -55
t-55 -37t-66.5 -13.5t-66.5 13.5t-55 37t-37 55t-13.5 66.5t13.5 66.5t37 55t55 37t66.5 13.5zM100 522q-15 0 -26 10t-11 27v139q0 17 10 28t27 11h981q20 0 30.5 -11t10.5 -28v-139q0 -17 -11 -27t-30 -10h-981z" />
    <glyph glyph-name="oslash" unicode="&#xf8;" horiz-adv-x="1204" 
d="M522 215q39 -14 82 -14q101 0 166 65q43 45 66.5 121t23.5 176q0 136 -37 213zM682 913q-37 19 -82 19q-100 0 -166 -66q-43 -43 -67.5 -121t-24.5 -178q0 -66 11.5 -119t31.5 -92zM244 92q-92 76 -136.5 188t-44.5 281q0 156 40 264t114 181q79 75 172.5 112t216.5 37
q101 0 191 -29l102 193q12 23 39 23q14 0 27 -7l82 -39q13 -5 19.5 -17t6.5 -24q0 -11 -4 -18l-108 -203q45 -37 78.5 -83t56 -103t34 -126.5t11.5 -152.5q0 -151 -39.5 -260t-114.5 -184q-78 -75 -173 -112.5t-216 -37.5q-54 0 -99.5 7.5t-88.5 21.5l-117 -219
q-12 -24 -40 -24q-12 0 -24 6l-84 40q-13 6 -19.5 17t-6.5 23q0 11 4 18z" />
    <glyph glyph-name="ugrave" unicode="&#xf9;" horiz-adv-x="1184" 
d="M125 1090q0 17 11 28.5t30 11.5h190q17 0 29 -11.5t12 -28.5v-689q0 -43 6.5 -78t23 -60t44.5 -38.5t72 -13.5q49 0 93.5 20.5t77.5 55t52.5 78.5t19.5 92v633q0 17 12 28.5t29 11.5h191q18 0 29.5 -11.5t11.5 -28.5v-1049q0 -19 -11.5 -30t-29.5 -11h-178q-19 0 -30 11
t-11 30v86q-57 -69 -143.5 -110.5t-192.5 -41.5q-61 0 -111.5 14.5t-90 40t-67.5 61t-44 77.5q-13 32 -19 81t-6 109v732zM299 1401q-25 15 -38.5 33t-13.5 38q0 33 40 72l14 15q44 44 80 44q18 0 34.5 -10t33.5 -28l217 -238q12 -12 12 -28q0 -17 -10 -27l-37 -39
q-6 -6 -13.5 -10t-15.5 -4q-11 0 -22 8z" />
    <glyph glyph-name="uacute" unicode="&#xfa;" horiz-adv-x="1184" 
d="M125 1090q0 17 11 28.5t30 11.5h190q17 0 29 -11.5t12 -28.5v-689q0 -43 6.5 -78t23 -60t44.5 -38.5t72 -13.5q49 0 93.5 20.5t77.5 55t52.5 78.5t19.5 92v633q0 17 12 28.5t29 11.5h191q18 0 29.5 -11.5t11.5 -28.5v-1049q0 -19 -11.5 -30t-29.5 -11h-178q-19 0 -30 11
t-11 30v86q-57 -69 -143.5 -110.5t-192.5 -41.5q-61 0 -111.5 14.5t-90 40t-67.5 61t-44 77.5q-13 32 -19 81t-6 109v732zM598 1227q-11 -8 -23 -8q-16 0 -28 14l-37 39q-11 14 -11 27q0 17 11 28l219 238q17 18 33.5 28t34.5 10q36 0 80 -44l14 -15q38 -38 38 -72
q0 -39 -50 -71z" />
    <glyph glyph-name="ucircumflex" unicode="&#xfb;" horiz-adv-x="1184" 
d="M125 1090q0 17 11 28.5t30 11.5h190q17 0 29 -11.5t12 -28.5v-689q0 -43 6.5 -78t23 -60t44.5 -38.5t72 -13.5q49 0 93.5 20.5t77.5 55t52.5 78.5t19.5 92v633q0 17 12 28.5t29 11.5h191q18 0 29.5 -11.5t11.5 -28.5v-1049q0 -19 -11.5 -30t-29.5 -11h-178q-19 0 -30 11
t-11 30v86q-57 -69 -143.5 -110.5t-192.5 -41.5q-61 0 -111.5 14.5t-90 40t-67.5 61t-44 77.5q-13 32 -19 81t-6 109v732zM867 1327q12 -12 12 -30q0 -15 -10 -25l-37 -37q-10 -13 -28 -13q-13 0 -23 7l-193 135l-192 -135q-10 -7 -22 -7q-17 0 -30 13l-36 37q-10 10 -10 26
q0 15 12 29l211 238q32 38 67 38q36 0 68 -38z" />
    <glyph glyph-name="udieresis" unicode="&#xfc;" horiz-adv-x="1184" 
d="M125 1090q0 17 11 28.5t30 11.5h190q17 0 29 -11.5t12 -28.5v-689q0 -43 6.5 -78t23 -60t44.5 -38.5t72 -13.5q49 0 93.5 20.5t77.5 55t52.5 78.5t19.5 92v633q0 17 12 28.5t29 11.5h191q18 0 29.5 -11.5t11.5 -28.5v-1049q0 -19 -11.5 -30t-29.5 -11h-178q-19 0 -30 11
t-11 30v86q-57 -69 -143.5 -110.5t-192.5 -41.5q-61 0 -111.5 14.5t-90 40t-67.5 61t-44 77.5q-13 32 -19 81t-6 109v732zM805 1548q31 0 58 -12t47 -32t32 -47t12 -58t-12 -58t-32 -47.5t-47 -32.5t-58 -12t-58 12t-47.5 32.5t-32.5 47.5t-12 58t12 58t32.5 47t47.5 32
t58 12zM354 1548q31 0 58 -12t47.5 -32t32.5 -47t12 -58t-12 -58t-32.5 -47.5t-47.5 -32.5t-58 -12t-58 12t-47.5 32.5t-32 47.5t-11.5 58t11.5 58t32 47t47.5 32t58 12z" />
    <glyph glyph-name="yacute" unicode="&#xfd;" horiz-adv-x="1057" 
d="M12 1077q-3 7 -3 16q0 15 10 26t28 11h227q30 0 39 -28l244 -707l8 -33l6 33l193 707q9 28 41 28h201q15 0 25.5 -10t10.5 -27q0 -4 -2 -14l-376 -1202q-23 -77 -56.5 -136.5t-80.5 -100.5t-108.5 -62.5t-139.5 -21.5q-79 0 -146.5 29.5t-109.5 78.5q-12 13 -12 28t12 27
l86 103q12 14 28 14q15 0 27 -12q22 -20 46 -31.5t52 -11.5q34 0 63 23t46 71l47 131zM549 1227q-11 -8 -23 -8q-16 0 -28 14l-37 39q-11 14 -11 27q0 17 11 28l219 238q17 18 33.5 28t34.5 10q36 0 80 -44l14 -15q38 -38 38 -72q0 -39 -50 -71z" />
    <glyph glyph-name="thorn" unicode="&#xfe;" horiz-adv-x="1223" 
d="M633 918q-51 0 -94.5 -21.5t-76 -65t-51 -110t-18.5 -156.5t18.5 -156.5t50.5 -110.5t75.5 -65.5t93.5 -21.5q117 0 176 92t59 260q0 178 -59 266.5t-174 88.5zM125 1540q0 16 10 25.5t27 9.5h198q17 0 27 -9.5t10 -25.5v-522q54 66 129 101.5t172 35.5
q103 0 178.5 -34.5t129.5 -88.5q151 -151 151 -469q0 -149 -39 -265t-121 -198q-62 -62 -139 -93.5t-182 -31.5q-45 0 -87 10t-78.5 27t-65.5 40t-48 50v-481q0 -18 -11 -29.5t-30 -11.5h-190q-17 0 -29 11.5t-12 29.5v1919z" />
    <glyph glyph-name="ydieresis" unicode="&#xff;" horiz-adv-x="1057" 
d="M12 1077q-3 7 -3 16q0 15 10 26t28 11h227q30 0 39 -28l244 -707l8 -33l6 33l193 707q9 28 41 28h201q15 0 25.5 -10t10.5 -27q0 -4 -2 -14l-376 -1202q-23 -77 -56.5 -136.5t-80.5 -100.5t-108.5 -62.5t-139.5 -21.5q-79 0 -146.5 29.5t-109.5 78.5q-12 13 -12 28t12 27
l86 103q12 14 28 14q15 0 27 -12q22 -20 46 -31.5t52 -11.5q34 0 63 23t46 71l47 131zM762 1548q31 0 58 -12t47 -32t32 -47t12 -58t-12 -58t-32 -47.5t-47 -32.5t-58 -12t-58 12t-47.5 32.5t-32.5 47.5t-12 58t12 58t32.5 47t47.5 32t58 12zM311 1548q31 0 58 -12t47.5 -32
t32.5 -47t12 -58t-12 -58t-32.5 -47.5t-47.5 -32.5t-58 -12t-58 12t-47.5 32.5t-32 47.5t-11.5 58t11.5 58t32 47t47.5 32t58 12z" />
    <glyph glyph-name="dotlessi" unicode="&#x131;" horiz-adv-x="522" 
d="M160 0q-16 0 -25.5 9.5t-9.5 25.5v1061q0 15 10 24.5t27 9.5h198q19 0 28 -9.5t9 -24.5v-1061q0 -16 -9 -25.5t-26 -9.5h-202z" />
    <glyph glyph-name="Lslash" unicode="&#x141;" horiz-adv-x="1042" 
d="M143 637q-20 -14 -37 -14q-22 0 -34 24l-52 109q-8 21 -8 30q0 24 25 39l151 99v567q0 17 12 29t29 12h222q17 0 29 -12t12 -29v-373l176 117q16 10 31 10q11 0 21.5 -6t16.5 -20l51 -107q9 -20 9 -34q0 -21 -21 -34l-284 -184v-596q0 -18 18 -18h469q17 0 29 -11t12 -28
v-166q0 -17 -12 -29t-29 -12h-741q-23 0 -36.5 13.5t-13.5 33.5v619z" />
    <glyph glyph-name="lslash" unicode="&#x142;" horiz-adv-x="643" 
d="M461 39q0 -17 -11 -28t-26 -11h-197q-17 0 -27 11.5t-10 27.5v666l-36 -25q-21 -12 -35 -12q-19 0 -31 24l-53 113q-8 19 -8 30q0 22 24 39l139 91v614q0 17 10 26t25 9h203q14 0 23.5 -10t9.5 -25v-438l37 24q19 12 34 12q20 0 31 -24l53 -113q9 -17 9 -30
q0 -24 -25 -39l-139 -90v-842z" />
    <glyph glyph-name="OE" unicode="&#x152;" horiz-adv-x="1997" 
d="M991 1184q-23 33 -53.5 57t-65.5 39.5t-73 23t-76 7.5q-66 0 -119.5 -19t-95.5 -61q-34 -35 -59 -83t-42 -107t-25.5 -128t-8.5 -145q0 -167 33 -284.5t102 -186.5q43 -43 99 -60.5t122 -17.5q88 0 156 36t106 93v836zM999 66q-55 -45 -134.5 -65.5t-170.5 -20.5
q-121 0 -228.5 33.5t-195.5 115.5q-48 45 -87 103.5t-67 135t-43.5 173.5t-15.5 219q0 124 16.5 222.5t46 175.5t68.5 135.5t84 103.5q91 83 201 118t232 35q88 0 164 -20t130 -62v17q0 21 13 34t35 13h819q18 0 30.5 -12.5t12.5 -30.5v-150q0 -18 -12.5 -29.5t-32.5 -11.5
h-549q-9 0 -15 -5t-6 -13v-326q0 -22 21 -22h444q17 0 30 -12t13 -29v-150q0 -17 -13 -29t-30 -12h-442q-23 0 -23 -20v-426q0 -9 5.5 -15t13.5 -6h565q17 0 29 -10.5t12 -27.5v-154q0 -17 -12 -29t-29 -12h-838q-18 0 -29.5 12t-11.5 31v23z" />
    <glyph glyph-name="oe" unicode="&#x153;" horiz-adv-x="1946" 
d="M1382 948q-58 0 -104 -24.5t-78.5 -68t-49.5 -103.5t-17 -131q0 -14 3.5 -21t16.5 -7q5 0 12 1.5t17 3.5q36 9 82.5 22.5t94.5 29t92.5 32t76.5 31.5q25 12 34 25t9 30q0 27 -11.5 58.5t-35 58.5t-59 45t-83.5 18zM600 922q-97 0 -158 -64q-42 -43 -64 -118.5t-22 -172.5
q0 -100 22 -173t64 -118q31 -32 69.5 -48.5t92.5 -16.5q95 0 158 63q40 42 63 117t23 172q0 201 -86 293q-32 32 -71.5 49t-90.5 17zM997 154q-32 -39 -71.5 -71.5t-88.5 -56.5t-108.5 -37.5t-130.5 -13.5q-127 0 -220.5 38t-162.5 104q-34 33 -62 74.5t-48 95t-31 121
t-11 153.5q0 156 40 264t114 181q79 75 172.5 112t216.5 37q72 0 131 -13t107.5 -36.5t87.5 -56t69 -70.5q69 88 166 132t230 44q112 0 200.5 -37.5t149.5 -96t93 -129.5t32 -138q0 -29 -6 -51t-19.5 -39.5t-36 -33t-55.5 -32.5q-42 -23 -107 -50.5t-140 -55t-154.5 -53
t-151.5 -44.5q-24 -8 -24 -25q0 -1 0.5 -4t1.5 -8q11 -35 34.5 -64.5t56.5 -51t75 -33.5t90 -12q88 0 162 36.5t137 102.5q13 16 34 16q16 0 27 -12l84 -88q11 -11 11 -26t-9 -25q-81 -109 -202.5 -166.5t-286.5 -57.5q-128 0 -227 43t-169 134z" />
    <glyph glyph-name="Scaron" unicode="&#x160;" horiz-adv-x="1120" 
d="M510 -25q-98 0 -176 18t-140 53.5t-109.5 89.5t-84.5 126q-7 13 -7 29q0 19 27 33l195 82q18 5 20 5q20 0 31 -30q34 -79 96 -122.5t156 -43.5q55 0 98 16.5t72.5 44.5t44.5 66t15 80q0 27 -6.5 55t-24 55.5t-49 53t-80.5 47.5l-142 59q-98 40 -167 85.5t-113.5 100.5
t-65 120t-20.5 143q0 169 117 289q60 58 145 92t203 34q68 0 128.5 -12.5t112 -40.5t93.5 -73.5t73 -110.5q12 -26 12 -39q0 -23 -28 -33l-166 -69q-2 0 -4.5 -0.5t-4.5 -0.5q-10 0 -17.5 4.5t-12.5 16.5q-25 69 -69.5 99t-116.5 30q-42 0 -74.5 -13.5t-54 -35.5
t-32.5 -50.5t-11 -58.5q0 -36 8.5 -63.5t29.5 -51t55.5 -44t86.5 -41.5l141 -58q102 -41 172.5 -93t113.5 -111t62 -124.5t19 -133.5q0 -94 -34 -180t-103 -152q-73 -72 -177 -107t-237 -35zM241 1849q-15 13 -15 33q0 13 7 23l29 41q10 16 28 16q14 0 21 -4l227 -94l227 92
q18 5 21 5q17 0 28 -17l29 -43q7 -10 7 -23q0 -19 -15 -31l-234 -186q-36 -27 -64 -27q-29 0 -63 27z" />
    <glyph glyph-name="scaron" unicode="&#x161;" horiz-adv-x="920" 
d="M879 346q0 -79 -31 -146.5t-89.5 -117t-142.5 -77.5t-190 -28q-80 0 -148 16.5t-121 45t-88.5 67t-50.5 82.5q-3 9 -3 18q0 26 28 36l164 61q7 4 19 4q20 0 34 -24q23 -45 69 -66.5t103 -21.5q78 0 121 35t43 89q0 25 -9 45t-29.5 38t-54.5 34t-85 33l-76 25
q-72 23 -124.5 52.5t-87 69.5t-51 91t-16.5 116q0 69 26.5 129.5t77.5 105.5t124.5 71t167.5 26q68 0 126 -15t103.5 -43t77 -66.5t47.5 -86.5q3 -8 3 -15q0 -22 -25 -32l-146 -55q-8 -3 -16 -3q-24 0 -35 23q-16 38 -46 63t-87 25q-63 0 -96 -32t-33 -78q0 -18 5 -34.5
t19.5 -31.5t40.5 -29.5t68 -27.5l74 -25q92 -28 156.5 -63.5t105.5 -78.5t59.5 -94t18.5 -110zM172 1499q-11 11 -11 28q0 14 11 25l37 39q11 14 28 14q9 0 23 -8l190 -135l193 135q11 8 23 8q18 0 30 -14l35 -39q11 -11 11 -24q0 -15 -11 -29l-211 -239q-34 -37 -69 -37
q-37 0 -68 37z" />
    <glyph glyph-name="Ydieresis" unicode="&#x178;" horiz-adv-x="1133" 
d="M725 33q0 -14 -9 -23.5t-22 -9.5h-239q-14 0 -22.5 9.5t-8.5 23.5v606l-416 838q-4 8 -6 14.5t-2 12.5q0 14 9.5 21t23.5 7h272q9 0 15.5 -6.5t11.5 -16.5l260 -587l250 583q5 13 13 20t22 7h239q12 0 19.5 -7.5t7.5 -18.5q0 -9 -6 -21l-412 -846v-606zM811 1939
q30 0 57.5 -12t47.5 -32t32 -47t12 -58t-12 -58t-32 -47.5t-47.5 -32.5t-57.5 -12q-32 0 -59 12t-47.5 32.5t-32 47.5t-11.5 58t11.5 58t32 47t47.5 32t59 12zM342 1939q30 0 57.5 -12t47.5 -32t32 -47t12 -58t-12 -58t-32 -47.5t-47.5 -32.5t-57.5 -12q-31 0 -58 12
t-47.5 32.5t-32.5 47.5t-12 58t12 58t32.5 47t47.5 32t58 12z" />
    <glyph glyph-name="Zcaron" unicode="&#x17d;" horiz-adv-x="1079" 
d="M406 248h575q19 0 31 -11.5t12 -31.5v-166q0 -16 -12 -27.5t-29 -11.5h-887q-38 0 -41 37l-18 137q-1 1 -1 11q0 18 7 28l604 1075h-545q-17 0 -30 11t-13 28v166q0 14 11.5 26.5t29.5 12.5h873q15 0 25 -9.5t12 -25.5l16 -108q0 -3 0.5 -6t0.5 -6q0 -9 -2 -16.5
t-7 -17.5zM259 1849q-15 13 -15 33q0 13 7 23l29 41q10 16 28 16q14 0 21 -4l227 -94l227 92q18 5 21 5q17 0 28 -17l29 -43q7 -10 7 -23q0 -19 -15 -31l-234 -186q-36 -27 -64 -27q-29 0 -63 27z" />
    <glyph glyph-name="zcaron" unicode="&#x17e;" horiz-adv-x="1022" 
d="M397 223h514q20 0 30.5 -13t10.5 -30v-139q0 -16 -10.5 -28.5t-30.5 -12.5h-809q-21 0 -31 11.5t-12 27.5l-10 119q0 2 -0.5 5t-0.5 5q0 11 3.5 20.5t9.5 18.5l512 696h-448q-19 0 -30 12t-11 29v146q0 17 10.5 28.5t30.5 11.5h762q36 0 41 -36l12 -101v-9
q0 -12 -3.5 -23.5t-12.5 -22.5zM234 1499q-11 11 -11 28q0 14 11 25l37 39q11 14 28 14q9 0 23 -8l190 -135l193 135q11 8 23 8q18 0 30 -14l35 -39q11 -11 11 -24q0 -15 -11 -29l-211 -239q-34 -37 -69 -37q-37 0 -68 37z" />
    <glyph glyph-name="florin" unicode="&#x192;" 
d="M506 51q-31 -192 -131.5 -296.5t-272.5 -104.5q-100 0 -171.5 36t-114.5 93q-9 13 -9 27q0 20 17 32l108 94q14 11 29 11q20 0 31 -17q15 -20 40.5 -35.5t57.5 -15.5q63 0 95.5 44t47.5 138l109 652q0 10 -8 10h-180q-17 0 -27 12t-10 29v117q0 21 12 33t31 12h205
q6 0 8 2.5t4 7.5l43 260q29 192 129 296.5t266 104.5q50 0 95.5 -10.5t84 -28t67.5 -41t46 -49.5q9 -14 9 -28q0 -19 -17 -31l-109 -96q-13 -10 -26 -10q-20 0 -33 18q-14 20 -39 35.5t-59 15.5q-57 0 -93 -44.5t-49 -125.5l-43 -264q0 -2 -0.5 -3t-0.5 -2q0 -7 9 -7h269
q17 0 27 -12t10 -29v-121q0 -17 -13.5 -29t-31.5 -12h-293q-10 0 -13 -10z" />
    <glyph glyph-name="circumflex" unicode="&#x2c6;" horiz-adv-x="819" 
d="M586 1327q12 -12 12 -30q0 -15 -10 -25l-37 -37q-10 -13 -28 -13q-13 0 -23 7l-193 135l-192 -135q-10 -7 -22 -7q-17 0 -30 13l-36 37q-10 10 -10 26q0 15 12 29l211 238q32 38 67 38q36 0 68 -38z" />
    <glyph glyph-name="caron" unicode="&#x2c7;" horiz-adv-x="819" 
d="M29 1499q-11 11 -11 28q0 14 11 25l37 39q11 14 28 14q9 0 23 -8l190 -135l193 135q11 8 23 8q18 0 30 -14l35 -39q11 -11 11 -24q0 -15 -11 -29l-211 -239q-34 -37 -69 -37q-37 0 -68 37z" />
    <glyph glyph-name="breve" unicode="&#x2d8;" horiz-adv-x="731" 
d="M367 1200q-70 0 -129.5 22.5t-102.5 61t-67.5 88.5t-24.5 105q0 12 7.5 18t17.5 6h141q8 0 11.5 -5t6.5 -13q16 -42 52.5 -68t87.5 -26t87 26t52 68q3 8 6.5 13t11.5 5h142q9 0 16.5 -6t7.5 -18q0 -55 -23.5 -105t-66 -88.5t-102 -61t-131.5 -22.5z" />
    <glyph glyph-name="dotaccent" unicode="&#x2d9;" horiz-adv-x="567" 
d="M281 1235q-36 0 -66.5 13.5t-53 36.5t-35.5 54t-13 66t13 66t35.5 53.5t53 35.5t66.5 13q34 0 64.5 -13t53.5 -35.5t36.5 -53.5t13.5 -66t-13.5 -66t-36.5 -54t-53.5 -36.5t-64.5 -13.5z" />
    <glyph glyph-name="ring" unicode="&#x2da;" horiz-adv-x="635" 
d="M317 1522q-38 0 -62 -24.5t-24 -78.5q0 -57 26 -80.5t65 -23.5q38 0 62 25t24 79q0 57 -26 80t-65 23zM317 1200q-48 0 -92 11.5t-77.5 37t-53.5 67t-20 101.5q0 56 19 97.5t52 68.5t78.5 40t98.5 13q48 0 92 -11.5t77.5 -37t53.5 -67t20 -101.5q0 -56 -19 -97t-52 -68
t-78.5 -40.5t-98.5 -13.5z" />
    <glyph glyph-name="ogonek" unicode="&#x2db;" horiz-adv-x="819" 
d="M692 -350q-43 -42 -104.5 -68t-143.5 -26q-143 0 -214.5 52t-71.5 161q0 33 12.5 67t35 65.5t53.5 57t69 41.5h209q-63 -37 -99.5 -85t-36.5 -93q0 -38 22.5 -59t65.5 -21q32 0 55.5 8.5t45.5 28.5q10 10 24 10q13 0 21 -12l55 -80q9 -12 9 -27q0 -13 -7 -20z" />
    <glyph glyph-name="tilde" unicode="&#x2dc;" horiz-adv-x="1057" 
d="M406 1331q-35 0 -57 -16.5t-44 -44.5q-12 -18 -30 -18q-14 0 -27 10l-66 43q-17 12 -17 32q0 15 11 35q20 35 46 64.5t56.5 50.5t65 33t70.5 12q51 0 82 -13t54.5 -29t45 -29t53.5 -13q34 0 56.5 17t44.5 46q13 18 30 18q6 0 13 -2.5t14 -6.5l65 -45q18 -11 18 -33
q0 -18 -11 -35q-42 -72 -103 -115t-133 -43q-52 0 -83.5 13t-55 28t-45 28t-53.5 13z" />
    <glyph glyph-name="hungarumlaut" unicode="&#x2dd;" horiz-adv-x="1079" 
d="M651 1214q-13 -7 -24 -7q-9 0 -16 4t-13 10l-45 36q-14 11 -14 24q0 16 14 30l221 237q42 48 81 48q34 0 77 -40l16 -12q42 -39 42 -71q0 -38 -54 -72zM195 1214q-10 -7 -22 -7q-19 0 -38 16l-39 30q-11 11 -11 24q0 15 13 34l183 241q39 54 84 54q35 0 77 -33l15 -10
q45 -36 45 -71q0 -37 -51 -77z" />
    <glyph glyph-name="Delta" unicode="&#x394;" horiz-adv-x="1503" 
d="M57 0q-20 0 -28.5 7.5t-8.5 20.5q0 7 2 14.5t5 16.5l581 1446q6 16 18 21.5t21 5.5h197q14 0 26.5 -5.5t18.5 -21.5l586 -1446q6 -14 6 -27q0 -14 -8.5 -23t-28.5 -9h-1387zM1065 242q23 0 23 19q0 5 -3 11l-362 959l-379 -959q-5 -15 -5 -16q0 -14 15 -14h711z" />
    <glyph glyph-name="Omega" unicode="&#x3a9;" horiz-adv-x="1456" 
d="M854 227q54 34 96 87t70 120.5t42.5 148.5t14.5 171q0 134 -23 238.5t-68 176t-110.5 109t-150.5 37.5q-87 0 -152.5 -38.5t-109 -109.5t-65 -171t-21.5 -222q0 -197 56 -336.5t159 -208.5q11 -8 14.5 -16.5t3.5 -19.5v-166q0 -16 -7 -21.5t-19 -5.5h-478q-30 0 -30 31
v147q0 33 33 33h174q-53 51 -95 107.5t-70.5 122.5t-43.5 143.5t-15 171.5q0 193 47 341.5t134.5 250t211.5 154t279 52.5q144 0 265.5 -44.5t209.5 -139t137.5 -242t49.5 -354.5q0 -94 -13 -172.5t-39.5 -146t-67.5 -127.5t-97 -117h167q16 0 26.5 -8.5t10.5 -24.5v-147
q0 -31 -32 -31h-484q-14 0 -20 5.5t-6 21.5v161q0 11 2.5 21t13.5 18z" />
    <glyph glyph-name="pi" unicode="&#x3c0;" horiz-adv-x="1235" 
d="M154 899q0 9 -6 15t-17 6h-65q-17 0 -28 10.5t-11 27.5v134q0 38 39 38h1054q17 0 28 -10.5t11 -27.5v-134q0 -17 -11 -27.5t-28 -10.5h-69q-21 0 -21 -23v-664q0 -20 11 -27t26 -7q8 0 16 2.5t13 5.5l12 8q10 7 22 7q17 0 25 -17l37 -109q7 -13 7 -27q0 -13 -11 -24
q-45 -37 -99.5 -53.5t-111.5 -16.5q-43 0 -83 11.5t-63 31.5q-40 31 -56.5 76t-16.5 111v694q0 9 -6 15t-17 6h-289q-20 0 -20 -21v-868q0 -14 -9.5 -22.5t-23.5 -8.5h-209q-30 0 -30 31v868z" />
    <glyph glyph-name="endash" unicode="&#x2013;" 
d="M35 522q-14 0 -24.5 10t-10.5 27v141q0 37 37 37h1110q41 0 41 -37v-141q0 -17 -11.5 -27t-29.5 -10h-1112z" />
    <glyph glyph-name="emdash" unicode="&#x2014;" horiz-adv-x="2048" 
d="M195 522q-14 0 -24.5 10t-10.5 27v141q0 37 37 37h1650q41 0 41 -37v-141q0 -17 -11 -27t-30 -10h-1652z" />
    <glyph glyph-name="quoteleft" unicode="&#x2018;" horiz-adv-x="530" 
d="M434 1661q23 0 32 -11.5t15 -33.5q5 -18 5 -30q0 -34 -33 -40q-69 -14 -101.5 -53t-32.5 -84q0 -23 8.5 -39t21 -29t27 -26t27 -31t21 -42t8.5 -60q0 -32 -12.5 -60.5t-34 -50t-50.5 -34.5t-63 -13q-36 0 -68.5 14.5t-57.5 44t-39.5 74t-14.5 103.5q0 106 33.5 181.5
t84 124.5t110.5 72t114 23z" />
    <glyph glyph-name="quoteright" unicode="&#x2019;" horiz-adv-x="530" 
d="M96 1024q-23 0 -32 11t-17 34q-4 12 -4 27q0 35 35 43q66 14 98.5 53t32.5 84q0 23 -8 38.5t-20.5 29t-27 26t-27 30t-20.5 41.5t-8 60q0 32 12.5 61t33.5 51t50 35t62 13q36 0 69 -14.5t58 -44t40 -74t15 -103.5q0 -107 -33.5 -182.5t-84.5 -124.5t-111 -71.5
t-113 -22.5z" />
    <glyph glyph-name="quotesinglbase" unicode="&#x201a;" horiz-adv-x="530" 
d="M96 -317q-23 0 -32 11.5t-17 33.5q-4 12 -4 28q0 35 35 43q33 7 57.5 21t41 32t24.5 39.5t8 42.5q0 36 -17.5 56t-38 40t-38 49t-17.5 83q0 32 12.5 61t33.5 51t50 35t62 13q36 0 69 -14.5t58 -44t40 -74t15 -103.5q0 -107 -33.5 -183.5t-84.5 -125t-111 -71.5t-113 -23z
" />
    <glyph glyph-name="quotedblleft" unicode="&#x201c;" horiz-adv-x="930" 
d="M420 1661q23 0 32 -10.5t15 -32.5q4 -9 4 -26q0 -36 -33 -40q-65 -14 -96 -53.5t-31 -83.5q0 -33 16.5 -52t37 -38.5t37 -47.5t16.5 -79q0 -31 -12 -58.5t-32.5 -48t-48.5 -32.5t-59 -12q-35 0 -66.5 14t-55.5 41.5t-38 70t-14 99.5q0 101 32 174.5t80.5 121t106.5 70.5
t109 23zM836 1661q21 0 30.5 -10.5t16.5 -32.5q4 -12 4 -28q0 -34 -33 -38q-65 -14 -97 -53.5t-32 -83.5q0 -23 8 -38t20 -28t26.5 -25t26.5 -28.5t20 -40t8 -57.5q0 -31 -12 -58.5t-32.5 -48t-48.5 -32.5t-59 -12q-35 0 -67 14t-56 41.5t-38.5 70t-14.5 99.5
q0 101 32 174.5t81 121t107 70.5t110 23z" />
    <glyph glyph-name="quotedblright" unicode="&#x201d;" horiz-adv-x="930" 
d="M510 1047q-23 0 -32 9.5t-15 30.5q-4 11 -4 29q0 33 33 39q32 7 56 21.5t39.5 32.5t23 39t7.5 42q0 22 -8 37.5t-19.5 28.5t-25.5 25.5t-25.5 29t-19.5 39.5t-8 57q0 31 12 59t32.5 49t48 33.5t59.5 12.5q34 0 65.5 -14t55.5 -42.5t38.5 -71t14.5 -99.5q0 -102 -32 -175
t-80.5 -120t-106.5 -69.5t-109 -22.5zM94 1047q-21 0 -31 9.5t-16 30.5q-4 11 -4 29q0 33 33 39q32 7 56 21.5t39.5 32.5t23.5 39t8 42q0 22 -8 37.5t-20 28.5t-25.5 25.5t-25.5 29t-20 39.5t-8 57q0 31 11.5 59t32 49t48.5 33.5t60 12.5q35 0 66.5 -14t55.5 -42.5t38 -71
t14 -99.5q0 -102 -32 -175t-80.5 -120t-106.5 -69.5t-109 -22.5z" />
    <glyph glyph-name="quotedblbase" unicode="&#x201e;" horiz-adv-x="930" 
d="M510 -301q-23 0 -32 10t-15 33q-4 12 -4 28q0 32 33 37q32 7 56 21.5t39.5 33t23 40t7.5 43.5t-8 37t-19.5 28t-25.5 25.5t-25.5 29t-19.5 40t-8 57.5q0 30 12 57.5t32.5 48t48 33t59.5 12.5q34 0 65.5 -14t55.5 -41.5t38.5 -70t14.5 -99.5q0 -102 -32 -175.5t-80.5 -121
t-106.5 -70t-109 -22.5zM94 -301q-21 0 -31 10t-16 33q-4 12 -4 28q0 32 33 37q32 7 56 21.5t39.5 33t23.5 40t8 43.5t-8 37t-20 28t-25.5 25.5t-25.5 29t-20 40t-8 57.5q0 30 11.5 57.5t32 48t48.5 33t60 12.5q35 0 66.5 -14t55.5 -41.5t38 -70t14 -99.5q0 -102 -32 -175.5
t-80.5 -121t-106.5 -70t-109 -22.5z" />
    <glyph glyph-name="dagger" unicode="&#x2020;" 
d="M692 248q0 -22 -14.5 -35.5t-36.5 -13.5h-98q-22 0 -35.5 13.5t-13.5 35.5l-27 461l33 174v6q0 11 -5.5 16.5t-19.5 5.5h-6l-309 -34q-2 0 -3.5 -0.5t-3.5 -0.5q-19 0 -30.5 15.5t-11.5 36.5v141q0 20 11.5 33t30.5 13q2 0 3.5 -0.5t3.5 -0.5l311 -33q15 0 21 4t6 16v7
l-29 162l27 149q3 19 14 30t33 11h98q42 0 51 -45l25 -145l-27 -164v-7q0 -11 5.5 -14.5t19.5 -3.5l319 33q2 0 3.5 0.5t3.5 0.5q19 0 30.5 -13t11.5 -33v-141q0 -21 -11.5 -36.5t-30.5 -15.5q-2 0 -3.5 0.5t-3.5 0.5l-311 34h-6q-28 0 -28 -25q0 -11 1 -12l29 -167z" />
    <glyph glyph-name="daggerdbl" unicode="&#x2021;" 
d="M498 883v7q0 11 -4.5 16t-18.5 5h-6l-309 -34q-2 0 -3.5 -0.5t-3.5 -0.5q-19 0 -30.5 15.5t-11.5 36.5v141q0 20 11.5 33t30.5 13q2 0 3.5 -0.5t3.5 -0.5l311 -33q14 0 19.5 4.5t5.5 15.5v7l-27 162l25 168q6 43 47 43h98q23 0 34.5 -12t16.5 -33l25 -166l-27 -164
q0 -16 5.5 -20.5t19.5 -4.5l321 33q2 0 3.5 0.5t3.5 0.5q19 0 30.5 -13t11.5 -33v-141q0 -21 -11.5 -36.5t-30.5 -15.5q-2 0 -3.5 0.5t-3.5 0.5l-311 34h-6q-30 0 -30 -25v-6q0 -5 1 -6l23 -137l-23 -135q-1 -1 -1 -7v-5q0 -25 30 -25h6l311 35h6q20 0 31.5 -14.5
t11.5 -36.5v-141q0 -20 -11.5 -33t-30.5 -13h-7l-321 33q-14 0 -19.5 -4.5t-5.5 -19.5l27 -164l-25 -166q-5 -22 -16.5 -33.5t-34.5 -11.5h-98q-41 0 -47 43l-25 168l27 162v7q0 11 -5.5 15t-19.5 4l-311 -33h-7q-19 0 -30.5 13t-11.5 33v141q0 22 11.5 36.5t31.5 14.5h6
l309 -35h6q24 0 24 20q0 8 -1 9l-25 143z" />
    <glyph glyph-name="bullet" unicode="&#x2022;" 
d="M594 1067q89 0 167.5 -34t137.5 -93t93 -137.5t34 -167.5t-34 -168t-93 -137.5t-137.5 -92.5t-167.5 -34t-168 34t-137.5 92.5t-92.5 137.5t-34 168t34 167.5t92.5 137.5t137.5 93t168 34z" />
    <glyph glyph-name="ellipsis" unicode="&#x2026;" horiz-adv-x="1919" 
d="M1677 322q36 0 67 -13.5t54 -37t36 -55t13 -66.5q0 -36 -13 -67t-36 -54t-54 -36t-67 -13t-67.5 13t-54.5 36t-36.5 54t-13.5 67q0 35 13.5 66.5t36.5 55t54.5 37t67.5 13.5zM963 322q35 0 66.5 -13.5t55 -37t37 -55t13.5 -66.5q0 -36 -13.5 -67t-37 -54t-55 -36
t-66.5 -13q-36 0 -67 13t-54.5 36t-37 54t-13.5 67q0 35 13.5 66.5t37 55t54.5 37t67 13.5zM248 322q36 0 67.5 -13.5t54.5 -37t36.5 -55t13.5 -66.5q0 -36 -13.5 -67t-36.5 -54t-54.5 -36t-67.5 -13q-35 0 -66 13t-54 36t-36.5 54t-13.5 67q0 35 13.5 66.5t36.5 55t54 37
t66 13.5z" />
    <glyph glyph-name="perthousand" unicode="&#x2030;" horiz-adv-x="2314" 
d="M1884 535q-26 0 -47 -8.5t-41 -28.5t-32.5 -59.5t-12.5 -90.5q0 -57 12 -95.5t29 -55.5q23 -25 46.5 -32t49.5 -7q28 0 49 9.5t41 29.5q19 18 30 56.5t11 92.5q0 109 -41 150q-20 20 -41.5 29.5t-52.5 9.5zM1882 -25q-66 0 -131 19.5t-113 68.5q-52 54 -76 120.5
t-24 160.5q0 55 8 99t21.5 78t31 59.5t35.5 44.5q51 51 118 71.5t136 20.5q33 0 67 -5t65.5 -15.5t60 -26.5t49.5 -37t39.5 -46.5t32.5 -59t22 -77.5t8 -102q0 -57 -8.5 -101.5t-22.5 -78t-32 -58.5t-37 -44q-22 -23 -51 -40.5t-61.5 -28.5t-68 -16.5t-69.5 -5.5zM416 1372
q-26 0 -47 -8.5t-41 -28.5t-32.5 -59t-12.5 -90q0 -57 12 -96t29 -56q23 -25 46.5 -32t49.5 -7q28 0 49 9.5t41 27.5q19 20 30 59t11 93q0 107 -41 151q-20 19 -41.5 28t-52.5 9zM414 813q-66 0 -131 19.5t-113 68.5q-54 54 -77 120.5t-23 160.5q0 55 8 99t21 78t30.5 59.5
t36.5 43.5q49 51 117 71.5t137 20.5q33 0 67 -5t66 -15.5t60 -26t49 -37.5q21 -21 40 -46.5t32.5 -59t21.5 -77t8 -101.5t-8 -102t-22 -78t-32 -59t-38 -44q-45 -46 -113 -68t-137 -22zM1128 535q-26 0 -47 -8.5t-41 -28.5t-32.5 -59.5t-12.5 -90.5q0 -57 12 -95.5t29 -55.5
q23 -25 47 -32t50 -7q27 0 48.5 9.5t41.5 29.5q18 18 29.5 56.5t11.5 92.5q0 57 -11 93t-29.5 57t-43 29.5t-52.5 9.5zM1126 -25q-66 0 -130.5 19.5t-112.5 68.5q-53 53 -77 120t-24 161q0 55 8 99t21.5 78t31 59.5t36.5 44.5q49 50 116.5 71t137.5 21q33 0 67 -5.5t66 -16
t59.5 -26t48.5 -36.5t39.5 -46.5t33 -59t22.5 -77.5t8 -102q0 -57 -8.5 -101.5t-23 -78t-32.5 -58.5t-37 -44q-45 -47 -112.5 -69t-137.5 -22zM375 -12q-10 -13 -30 -13q-13 0 -21 5l-93 53q-20 12 -20 33q0 11 6 20l952 1456q15 15 34 15q12 0 20 -5l92 -57q9 -5 13 -14
t4 -18q0 -11 -5 -19z" />
    <glyph glyph-name="guilsinglleft" unicode="&#x2039;" horiz-adv-x="643" 
d="M82 600q-10 16 -10 34t10 34l231 395q8 14 18.5 20t22.5 6q14 0 21 -4l82 -26q17 -6 17 -30q0 -17 -7 -30l-160 -356l164 -356q6 -15 6 -30q0 -12 -4.5 -21t-13.5 -13l-90 -37q-13 -5 -22 -5q-21 0 -36 28z" />
    <glyph glyph-name="guilsinglright" unicode="&#x203a;" horiz-adv-x="643" 
d="M561 670q8 -22 8 -33q0 -19 -10 -35l-229 -395q-17 -27 -43 -27q-14 0 -21 4l-82 27q-16 6 -16 31q0 14 6 28l162 357l-164 356q-7 13 -7 30q0 25 17 34l90 36q12 6 22 6q22 0 38 -28z" />
    <glyph glyph-name="fraction" unicode="&#x2044;" horiz-adv-x="819" 
d="M788 1575q12 16 30 16q12 0 26 -8l96 -57q8 -5 11.5 -13.5t3.5 -17.5q0 -5 -5 -20l-934 -1487q-8 -14 -26 -14q-14 0 -23 6l-96 55q-18 12 -18 34q0 10 6 19z" />
    <glyph glyph-name="eurocurrency" unicode="&#x20a0;" 
d="M838 991q14 0 23 -9.5t9 -23.5v-118q0 -16 -7.5 -25.5t-24.5 -9.5h-396q-1 -10 -1.5 -20.5t-0.5 -21.5v-32v-44q0 -10 0.5 -20.5t1.5 -21.5h396q14 0 23 -10.5t9 -24.5v-118q0 -16 -7.5 -25.5t-24.5 -9.5h-367q31 -127 99.5 -187.5t183.5 -60.5q86 0 145.5 26t104.5 72
q17 14 30 14t27 -14l88 -106q11 -17 11 -30q0 -18 -17 -38q-28 -33 -66.5 -62t-88 -50t-111 -33.5t-136.5 -12.5q-90 0 -166 20t-139 57t-111.5 90t-82.5 118q-25 48 -41 100t-27 97h-135q-19 0 -27 9.5t-8 25.5v118q0 14 9.5 24.5t25.5 10.5h111q-2 20 -2.5 39t-0.5 41
q0 11 0.5 34t2.5 46h-111q-19 0 -27 9.5t-8 25.5v118q0 14 9.5 23.5t25.5 9.5h135q11 54 28.5 111t45.5 108q35 64 83.5 117.5t110 91.5t136 59t161.5 21q73 0 133 -12.5t107.5 -34.5t83.5 -51t61 -62q17 -14 17 -29t-17 -32l-114 -109q-15 -15 -32 -15q-13 0 -24 11
q-41 58 -88.5 81.5t-117.5 23.5q-113 0 -180 -72.5t-99 -206.5h369z" />
    <glyph glyph-name="Euro" unicode="&#x20ac;" 
d="M838 991q14 0 23 -9.5t9 -23.5v-118q0 -16 -7.5 -25.5t-24.5 -9.5h-396q-1 -10 -1.5 -20.5t-0.5 -21.5v-32v-44q0 -10 0.5 -20.5t1.5 -21.5h396q14 0 23 -10.5t9 -24.5v-118q0 -16 -7.5 -25.5t-24.5 -9.5h-367q31 -127 99.5 -187.5t183.5 -60.5q86 0 145.5 26t104.5 72
q17 14 30 14t27 -14l88 -106q11 -17 11 -30q0 -18 -17 -38q-28 -33 -66.5 -62t-88 -50t-111 -33.5t-136.5 -12.5q-90 0 -166 20t-139 57t-111.5 90t-82.5 118q-25 48 -41 100t-27 97h-135q-19 0 -27 9.5t-8 25.5v118q0 14 9.5 24.5t25.5 10.5h111q-2 20 -2.5 39t-0.5 41
q0 11 0.5 34t2.5 46h-111q-19 0 -27 9.5t-8 25.5v118q0 14 9.5 23.5t25.5 9.5h135q11 54 28.5 111t45.5 108q35 64 83.5 117.5t110 91.5t136 59t161.5 21q73 0 133 -12.5t107.5 -34.5t83.5 -51t61 -62q17 -14 17 -29t-17 -32l-114 -109q-15 -15 -32 -15q-13 0 -24 11
q-41 58 -88.5 81.5t-117.5 23.5q-113 0 -180 -72.5t-99 -206.5h369z" />
    <glyph glyph-name="trademark" unicode="&#x2122;" horiz-adv-x="1489" 
d="M1184 879q-23 0 -23 20v401h-2l-108 -274q-5 -11 -10.5 -14.5t-14.5 -3.5h-51q-8 0 -11.5 4t-7.5 10l-125 283h-2v-406q0 -8 -4.5 -14t-15.5 -6h-127q-20 0 -20 20v612q0 21 20 21h184q16 0 23 -19l112 -253q3 -8 8 -8q4 0 7 8l100 247q9 17 14.5 21t16.5 4h174
q22 0 22 -19v-614q0 -9 -6.5 -14.5t-15.5 -5.5h-137zM553 1532q14 0 20.5 -7.5t6.5 -17.5v-104q0 -13 -6.5 -21t-20.5 -8h-117q-14 0 -18 -5t-4 -19v-445q0 -12 -8 -19t-17 -7h-119q-11 0 -19.5 7t-8.5 19v443q0 15 -5.5 20.5t-19.5 5.5h-119q-14 0 -20 8t-6 21v104
q0 10 6 17.5t20 7.5h455z" />
    <glyph glyph-name="partialdiff" unicode="&#x2202;" horiz-adv-x="1194" 
d="M602 895q-94 0 -162 -59q-28 -27 -49 -64.5t-35 -83t-21 -97t-7 -106.5q0 -75 16.5 -129t44.5 -86q31 -32 67 -47.5t93 -15.5q46 0 87 15t73 44q55 54 84.5 145.5t29.5 209.5q0 138 -63 210q-58 64 -158 64zM803 1053q-20 67 -58 126t-88 110t-110.5 93t-124.5 74
q-21 10 -21 28q0 14 15 29l88 107q14 14 33 14q14 0 28 -6q130 -52 235.5 -141.5t180.5 -205.5t115.5 -254.5t40.5 -289.5q0 -111 -17 -206.5t-46 -173.5t-68.5 -137.5t-85.5 -98.5q-87 -74 -183 -110t-217 -36q-127 0 -216 35t-152 101q-63 63 -91 147t-28 199
q0 178 50.5 311.5t162.5 230.5q69 60 154.5 92.5t191.5 32.5q66 0 120 -16.5t91 -54.5z" />
    <glyph glyph-name="product" unicode="&#x220f;" horiz-adv-x="1270" 
d="M809 1274q0 26 -27 26h-290q-29 0 -29 -26v-1448q0 -25 -15.5 -39t-39.5 -14h-154q-22 0 -36.5 14t-14.5 39v1448q0 26 -27 26h-80q-43 0 -43 43v148q0 41 43 41h1080q20 0 32.5 -10.5t12.5 -30.5v-148q0 -20 -12.5 -31.5t-32.5 -11.5h-80q-16 0 -21.5 -6t-5.5 -20v-1448
q0 -25 -14 -39t-39 -14h-154q-23 0 -38 14t-15 39v1448z" />
    <glyph glyph-name="summation" unicode="&#x2211;" 
d="M438 1300l412 -583q5 -9 8.5 -19t3.5 -20q0 -14 -8 -25l-448 -645h628q22 0 35.5 -13t13.5 -38v-135q0 -22 -13.5 -35.5t-35.5 -13.5h-895q-17 0 -30 11t-13 30v129q0 14 5.5 30.5t15.5 28.5l442 608q11 14 11 27t-9 25l-444 626q-10 13 -15.5 29.5t-5.5 32.5v149
q0 19 10 26t25 7h903q22 0 35.5 -12t13.5 -35v-131q0 -23 -13.5 -38.5t-35.5 -15.5h-596z" />
    <glyph glyph-name="minus" unicode="&#x2212;" 
d="M100 522q-15 0 -26 10t-11 27v139q0 17 10 28t27 11h981q20 0 30.5 -11t10.5 -28v-139q0 -17 -11 -27t-30 -10h-981z" />
    <glyph glyph-name="periodcentered" unicode="&#x2219;" 
d="M594 809q37 0 69.5 -14t56.5 -38t38 -56.5t14 -69.5q0 -38 -14 -70.5t-38 -57t-56.5 -38.5t-69.5 -14t-69.5 14t-56.5 38.5t-38 57t-14 70.5q0 37 14 69.5t38 56.5t56.5 38t69.5 14z" />
    <glyph glyph-name="radical" unicode="&#x221a;" horiz-adv-x="1303" 
d="M70 811q-23 0 -36.5 13.5t-13.5 35.5v129q0 22 13.5 35.5t36.5 13.5h290q16 0 26 -10.5t15 -26.5l211 -671l412 1280q7 22 36 22q14 0 34 -6l127 -43q23 -9 23 -38q0 -23 -7 -36l-498 -1482q-5 -16 -17 -21.5t-20 -5.5h-198q-16 0 -28 5.5t-17 21.5l-250 739
q-6 19 -18 30.5t-27 14.5h-94z" />
    <glyph glyph-name="infinity" unicode="&#x221e;" horiz-adv-x="1530" 
d="M911 623q28 -26 51 -47t47.5 -35.5t52 -22.5t64.5 -8q57 0 90 32t33 83q0 24 -8.5 45.5t-24.5 37.5t-39 25.5t-51 9.5q-36 0 -64 -8t-52.5 -23.5t-48 -38t-50.5 -50.5zM741 518q-44 -42 -87 -75t-87 -55.5t-92 -34t-102 -11.5q-73 0 -131 20t-98 58t-61.5 93t-21.5 126
q0 62 25 115.5t67.5 92.5t99 61t120.5 22q57 0 106.5 -13t94.5 -37.5t86 -59.5t81 -79q44 42 86.5 75t87.5 55.5t93 34.5t102 12q150 0 230.5 -76t80.5 -221q0 -62 -24.5 -115.5t-67 -92.5t-99 -61t-120.5 -22q-113 0 -201 49.5t-168 138.5zM618 637q-27 26 -50.5 47
t-48 35.5t-53 22.5t-65.5 8q-27 0 -49 -9t-38.5 -24.5t-25.5 -36.5t-9 -45q0 -25 9 -46.5t25.5 -37.5t38.5 -25.5t49 -9.5q36 0 64.5 8t53.5 23.5t48.5 38t50.5 51.5z" />
    <glyph glyph-name="integral" unicode="&#x222b;" horiz-adv-x="756" 
d="M215 1126q0 103 29.5 182t83 132t127 80.5t161.5 27.5q85 0 153 -32.5t105 -83.5q11 -17 11 -32q0 -16 -13 -28l-110 -102q-14 -11 -25 -11q-18 0 -30 17q-14 18 -37.5 31.5t-57.5 13.5q-66 0 -98.5 -48.5t-32.5 -129.5v-1151q0 -103 -30 -182t-83 -132t-127 -80.5
t-161 -27.5q-42 0 -80.5 8.5t-72.5 24.5t-60.5 37t-44.5 47q-11 17 -11 32t13 27l110 102q14 11 25 11q17 0 31 -17q14 -18 37 -31.5t57 -13.5q66 0 98.5 48.5t32.5 129.5v1151z" />
    <glyph glyph-name="approxequal" unicode="&#x2248;" 
d="M795 236q-48 0 -86.5 10t-71 25.5t-61.5 33t-57.5 33t-58 25.5t-63.5 10q-55 0 -106 -28.5t-86 -70.5q-16 -16 -32 -16q-18 0 -34 18l-57 72q-13 13 -13 31q0 8 2.5 16.5t6.5 16.5q21 35 52 66.5t71.5 55.5t89 38t104.5 14q48 0 88 -10t74 -25.5t63 -33t57 -33t55 -25.5
t56 -10q60 0 109 27t86 69q16 19 32 19t34 -19l59 -78q11 -14 11 -28q0 -15 -9 -31q-21 -36 -52 -67t-71.5 -54.5t-89 -37t-102.5 -13.5zM795 649q-48 0 -86.5 10t-71 25.5t-61.5 33t-57.5 33t-58 25.5t-63.5 10q-55 0 -106 -27t-86 -69q-17 -17 -33 -17q-15 0 -33 19
l-57 72q-13 13 -13 30q0 8 2.5 16t6.5 15q21 36 52 68t71.5 56t89 38t104.5 14q48 0 88 -10t74 -25.5t63 -33t57 -33t55 -25.5t56 -10q60 0 109 26t86 71q15 18 32 18q16 0 34 -18l59 -78q11 -17 11 -30q0 -15 -9 -30q-21 -35 -52.5 -66.5t-71.5 -55.5t-88 -38t-103 -14z
" />
    <glyph glyph-name="notequal" unicode="&#x2260;" 
d="M838 1182q11 17 31 17q14 0 28 -9l74 -49q22 -12 22 -36q0 -12 -6 -24l-78 -127h168q39 0 39 -36v-130q0 -36 -39 -36h-293l-143 -238h436q19 0 29 -10.5t10 -26.5v-131q0 -35 -39 -35h-559l-141 -233q-10 -16 -32 -16q-15 0 -26 8l-75 47q-13 6 -18.5 17t-5.5 22
q0 12 5 20l82 135h-201q-15 0 -24.5 9t-9.5 26v131q0 16 9 26.5t28 10.5h323l143 238h-469q-15 0 -24.5 9.5t-9.5 26.5v130q0 36 37 36h589z" />
    <glyph glyph-name="lessequal" unicode="&#x2264;" 
d="M119 709q-31 13 -31 53v145q0 34 31 47l885 355q9 3 19 3q13 0 25 -5.5t17 -18.5l39 -92q5 -15 5 -26q0 -15 -6.5 -27t-19.5 -17l-733 -286l735 -289q15 -5 21.5 -19t6.5 -29q0 -12 -3 -22l-43 -104q-5 -12 -15 -17.5t-21 -5.5q-13 0 -25 6zM106 0q-17 0 -27.5 11
t-10.5 28v125q0 17 10.5 28t27.5 11h971q17 0 28 -11t11 -28v-125q0 -17 -11 -28t-28 -11h-971z" />
    <glyph glyph-name="greaterequal" unicode="&#x2265;" 
d="M1079 958q33 -14 33 -51v-145q0 -36 -33 -49l-882 -353q-18 -5 -23 -5q-28 0 -39 26l-39 92q-3 6 -4 13t-1 13q0 14 6.5 26t19.5 18l733 286l-735 289q-15 5 -22 18.5t-7 28.5q0 16 4 23l43 102q5 13 15 18t22 5q18 0 25 -4zM106 0q-17 0 -27.5 11t-10.5 28v125
q0 17 10.5 28t27.5 11h973q17 0 27 -11t10 -28v-125q0 -17 -10 -28t-27 -11h-973z" />
    <glyph glyph-name="lozenge" unicode="&#x25ca;" horiz-adv-x="1260" 
d="M690 -25q-6 -8 -13 -13t-18 -5h-92q-11 0 -17.5 4.5t-12.5 13.5l-512 768q-8 11 -8 22q0 9 6 17l542 770q6 8 14 13.5t19 5.5h90q11 0 18 -4.5t15 -14.5l512 -764q8 -11 8 -22q0 -9 -6 -16zM625 285l321 450q6 10 6 19q0 7 -4 14l-315 477l-322 -448q-5 -15 -5 -17
q0 -8 5 -16z" />
    <glyph glyph-name="fi" unicode="&#xf001;" horiz-adv-x="1223" 
d="M963 1241q-36 0 -67 13.5t-54 36.5t-36 54t-13 66q0 36 13 66.5t36 53t54 35.5t67 13q34 0 64 -13t52.5 -35.5t35.5 -53t13 -66.5q0 -35 -13 -66t-35.5 -54t-52.5 -36.5t-64 -13.5zM727 1589q14 -7 20 -16.5t6 -20.5q0 -9 -3 -16l-50 -123q-11 -26 -34 -26q-9 0 -19 6
q-17 9 -38.5 13.5t-41.5 4.5q-63 0 -92 -43t-29 -121v-98q0 -19 19 -19h588q20 0 32.5 -13t12.5 -32v-1046q0 -17 -12 -28t-29 -11h-191q-18 0 -29.5 11t-11.5 30v866q0 21 -18 21h-342q-9 0 -14 -4t-5 -15v-868q0 -19 -11.5 -30t-28.5 -11h-191q-19 0 -30 11t-11 30v866
q0 21 -18 21h-88q-19 0 -30 12t-11 29v121q0 17 11 28.5t30 11.5h88q11 0 14.5 5t3.5 14v86q0 98 26 173t74 125.5t116.5 76.5t154.5 26q49 0 98 -12.5t84 -34.5z" />
    <glyph glyph-name="fi" unicode="&#xfb01;" horiz-adv-x="1223" 
d="M963 1241q-36 0 -67 13.5t-54 36.5t-36 54t-13 66q0 36 13 66.5t36 53t54 35.5t67 13q34 0 64 -13t52.5 -35.5t35.5 -53t13 -66.5q0 -35 -13 -66t-35.5 -54t-52.5 -36.5t-64 -13.5zM727 1589q14 -7 20 -16.5t6 -20.5q0 -9 -3 -16l-50 -123q-11 -26 -34 -26q-9 0 -19 6
q-17 9 -38.5 13.5t-41.5 4.5q-63 0 -92 -43t-29 -121v-98q0 -19 19 -19h588q20 0 32.5 -13t12.5 -32v-1046q0 -17 -12 -28t-29 -11h-191q-18 0 -29.5 11t-11.5 30v866q0 21 -18 21h-342q-9 0 -14 -4t-5 -15v-868q0 -19 -11.5 -30t-28.5 -11h-191q-19 0 -30 11t-11 30v866
q0 21 -18 21h-88q-19 0 -30 12t-11 29v121q0 17 11 28.5t30 11.5h88q11 0 14.5 5t3.5 14v86q0 98 26 173t74 125.5t116.5 76.5t154.5 26q49 0 98 -12.5t84 -34.5z" />
    <glyph glyph-name="fl" unicode="&#xf002;" horiz-adv-x="1223" 
d="M1057 1589q18 -3 29.5 -14t11.5 -39v-1497q0 -17 -12 -28t-29 -11h-191q-18 0 -29.5 11t-11.5 30v1321q0 28 -20 31q-38 9 -81.5 13.5t-80.5 4.5q-60 0 -98.5 -13.5t-60 -38t-30 -59t-8.5 -77.5v-74q0 -19 19 -19h127q20 0 31.5 -12.5t11.5 -34.5v-114q0 -17 -11 -29
t-28 -12h-131q-9 0 -14 -4t-5 -15v-868q0 -19 -11.5 -30t-28.5 -11h-191q-19 0 -30 11t-11 30v866q0 21 -18 21h-88q-19 0 -30 11t-11 30v121q0 18 11 29t30 11h88q11 0 14.5 5t3.5 14v70q0 107 34.5 185.5t97.5 129.5t151.5 75.5t195.5 24.5q100 0 206.5 -12.5t197.5 -32.5
z" />
    <glyph glyph-name="fl" unicode="&#xfb02;" horiz-adv-x="1223" 
d="M1057 1589q18 -3 29.5 -14t11.5 -39v-1497q0 -17 -12 -28t-29 -11h-191q-18 0 -29.5 11t-11.5 30v1321q0 28 -20 31q-38 9 -81.5 13.5t-80.5 4.5q-60 0 -98.5 -13.5t-60 -38t-30 -59t-8.5 -77.5v-74q0 -19 19 -19h127q20 0 31.5 -12.5t11.5 -34.5v-114q0 -17 -11 -29
t-28 -12h-131q-9 0 -14 -4t-5 -15v-868q0 -19 -11.5 -30t-28.5 -11h-191q-19 0 -30 11t-11 30v866q0 21 -18 21h-88q-19 0 -30 11t-11 30v121q0 18 11 29t30 11h88q11 0 14.5 5t3.5 14v70q0 107 34.5 185.5t97.5 129.5t151.5 75.5t195.5 24.5q100 0 206.5 -12.5t197.5 -32.5
z" />
    <glyph glyph-name="Acute" unicode="&#xf6c9;" horiz-adv-x="1057" 
d="M299 1636q-9 -3 -15 -3q-11 0 -19.5 6t-14.5 16l-27 45q-4 7 -4 18q0 24 19 37l274 187q34 22 61 22q21 0 41.5 -14t40.5 -45l11 -19q22 -34 22 -64q0 -51 -67 -73z" />
    <glyph glyph-name="Caron" unicode="&#xf6ca;" horiz-adv-x="1057" 
d="M129 1849q-15 13 -15 33q0 13 7 23l29 41q10 16 28 16q14 0 21 -4l227 -94l227 92q18 5 21 5q17 0 28 -17l29 -43q7 -10 7 -23q0 -19 -15 -31l-234 -186q-36 -27 -64 -27q-29 0 -63 27z" />
    <glyph glyph-name="Dieresis" unicode="&#xf6cb;" horiz-adv-x="1057" 
d="M705 1939q30 0 57.5 -12t47.5 -32t32 -47t12 -58t-12 -58t-32 -47.5t-47.5 -32.5t-57.5 -12q-32 0 -59 12t-47.5 32.5t-32 47.5t-11.5 58t11.5 58t32 47t47.5 32t59 12zM236 1939q30 0 57.5 -12t47.5 -32t32 -47t12 -58t-12 -58t-32 -47.5t-47.5 -32.5t-57.5 -12
q-31 0 -58 12t-47.5 32.5t-32.5 47.5t-12 58t12 58t32.5 47t47.5 32t58 12z" />
    <glyph glyph-name="Grave" unicode="&#xf6ce;" horiz-adv-x="1057" 
d="M174 1749q-68 23 -68 72q0 27 23 65l10 19q20 31 40.5 45t42.5 14q27 0 61 -22l276 -187q8 -6 13.5 -15.5t5.5 -20.5q0 -4 -5 -19l-28 -45q-6 -10 -14 -16t-19 -6q-7 0 -16 3z" />
    <glyph glyph-name="zerooldstyle" unicode="&#xf730;" horiz-adv-x="1321" 
d="M659 987q-63 0 -116.5 -25.5t-92.5 -75t-61 -121.5t-22 -165q0 -92 20.5 -165t59.5 -123t94.5 -76.5t124.5 -26.5q63 0 116 25.5t92 74.5t60.5 121t21.5 164q0 93 -20.5 166t-58.5 123.5t-93.5 77t-124.5 26.5zM657 -25q-149 0 -259.5 44.5t-183 125.5t-108.5 195
t-36 254q0 141 38.5 256.5t114 198t186.5 127.5t257 45q150 0 260 -44.5t183 -125.5t108.5 -195.5t35.5 -253.5q0 -141 -38.5 -256.5t-114 -198t-187 -127.5t-256.5 -45z" />
    <glyph glyph-name="oneoldstyle" unicode="&#xf731;" horiz-adv-x="690" 
d="M541 41q0 -17 -10.5 -29t-30.5 -12h-205q-20 0 -31.5 12t-11.5 29v920q0 22 -21 22h-137q-17 0 -29 11t-12 30v131q0 19 12 30t29 11h406q18 0 29.5 -12t11.5 -29v-1114z" />
    <glyph glyph-name="twooldstyle" unicode="&#xf732;" horiz-adv-x="1090" 
d="M82 229q81 88 158 154t144.5 118t123.5 94.5t96.5 83t63 84t22.5 97.5q0 75 -41 111.5t-119 36.5t-124.5 -48t-65.5 -133q-4 -15 -15.5 -24.5t-25.5 -9.5q-1 0 -4 0.5t-8 1.5l-164 39q-34 10 -34 39q0 9 3 18q22 78 62.5 139t98.5 103.5t133 65t165 22.5q209 0 321 -97
q54 -45 80.5 -109t26.5 -143q0 -78 -25 -139.5t-67 -113.5t-98 -97t-118.5 -89t-127.5 -90.5t-125 -100.5h555q17 0 29 -11t12 -28v-162q0 -19 -10.5 -30t-28.5 -11h-838q-33 0 -39 27l-30 127q-6 19 -6 33q0 13 5 22.5t15 19.5z" />
    <glyph glyph-name="threeoldstyle" unicode="&#xf733;" horiz-adv-x="1128" 
d="M547 1221q100 0 180 -25t135.5 -71.5t85 -111.5t29.5 -145q0 -236 -213 -321v-2q76 -18 132 -55.5t92 -88t53.5 -111t17.5 -124.5q0 -105 -38 -190.5t-109 -146t-172 -93.5t-226 -33q-95 0 -170.5 20t-135.5 56t-105 85t-78 107q-7 13 -7 24q0 23 27 38l168 84q7 4 15 4
q23 0 38 -29q20 -35 44.5 -64.5t55.5 -52t69 -35t85 -12.5q112 0 175 59.5t63 168.5q0 64 -20 110t-56 76t-85.5 44.5t-107.5 14.5h-81q-20 0 -31.5 12t-11.5 29v142q0 17 10.5 29t32.5 12h65q45 0 86.5 12t73 37.5t50.5 66t19 97.5q0 85 -46 129.5t-121 44.5q-49 0 -82 -12
t-55 -33.5t-36.5 -51.5t-25.5 -65q-8 -26 -38 -26q-8 0 -17 3l-158 47q-29 9 -29 38q0 12 6 26q28 68 67.5 121t94 89t125 54.5t160.5 18.5z" />
    <glyph glyph-name="fouroldstyle" unicode="&#xf734;" horiz-adv-x="1249" 
d="M698 934h-4l-364 -694h344q15 2 19.5 9t4.5 21v664zM121 0q-31 0 -39 29l-37 153q-3 10 -3 20q0 15 5 23l506 944q8 16 17.5 21.5t25.5 5.5h346q19 0 30 -11t11 -30v-874q0 -25 6 -32t23 -9h129q20 0 31.5 -11t11.5 -28v-156q0 -15 -10.5 -30t-28.5 -15h-133
q-13 0 -21 -5t-8 -24v-202q0 -19 -11 -29t-28 -10h-203q-43 0 -43 39v196q0 16 -5 25.5t-23 9.5h-549z" />
    <glyph glyph-name="fiveoldstyle" unicode="&#xf735;" horiz-adv-x="1145" 
d="M520 -305q-90 0 -167 22t-138 60.5t-104.5 90.5t-67.5 112q-4 7 -4 18q0 29 31 39l182 61q3 1 5.5 1.5t5.5 0.5q25 0 36 -26q29 -69 87 -112.5t146 -43.5q117 0 175.5 71.5t58.5 196.5q0 131 -54 200t-171 69q-57 0 -96.5 -15.5t-67.5 -34t-47 -34t-35 -15.5t-33 11
l-123 73q-11 9 -15 16.5t-4 20.5v8q0 8 1 9l92 661q3 22 14.5 31.5t34.5 9.5h627q17 0 29 -10t12 -29v-168q0 -41 -41 -41h-449q-17 0 -20 -16l-41 -307q42 24 98 38.5t125 14.5q106 0 191.5 -30t148.5 -93q66 -63 95.5 -151t29.5 -203q0 -236 -143 -367q-82 -75 -187 -107
t-217 -32z" />
    <glyph glyph-name="sixoldstyle" unicode="&#xf736;" horiz-adv-x="1221" 
d="M623 756q-58 0 -101.5 -19.5t-73 -54.5t-44.5 -84.5t-15 -110.5q0 -77 16 -131.5t46 -89t72 -50t95 -15.5q52 0 94 15t71.5 48t45 85.5t15.5 127.5q0 279 -221 279zM606 -25q-100 0 -190.5 29t-165.5 98q-43 40 -75 91.5t-53 117.5t-31.5 148t-10.5 184q0 230 50.5 396.5
t166.5 273.5q88 78 193 115.5t233 37.5q91 0 166.5 -14.5t126.5 -34.5q12 -5 16.5 -14.5t4.5 -20.5q0 -12 -3 -22l-41 -119q-10 -25 -39 -25q-10 0 -20 3q-37 14 -84.5 23t-99.5 9q-81 0 -137 -20.5t-99 -59.5q-57 -51 -85.5 -130.5t-37.5 -176.5q16 23 44 45t67 39t88 27
t108 10q100 0 176 -28t136 -85q69 -66 102 -154t33 -214q0 -125 -38 -223.5t-108.5 -166.5t-170 -103.5t-222.5 -35.5z" />
    <glyph glyph-name="sevenoldstyle" unicode="&#xf737;" horiz-adv-x="1092" 
d="M584 -229q0 -17 -11 -29t-26 -12h-219q-41 0 -41 39v6q7 180 40 343t89.5 310t135.5 277t177 243h-10h-621q-18 0 -29.5 12t-11.5 29v166q0 17 11.5 29t29.5 12h854q19 0 28.5 -9.5t14.5 -23.5l41 -170q4 -9 4 -25q0 -20 -16 -36q-118 -132 -201.5 -267t-136.5 -277.5
t-77.5 -295.5t-24.5 -321z" />
    <glyph glyph-name="eightoldstyle" unicode="&#xf738;" horiz-adv-x="1169" 
d="M596 905q34 20 63.5 41.5t52 46.5t35.5 53.5t13 63.5t-13 63t-36 47.5t-55 29.5t-70 10q-76 0 -122 -39.5t-46 -108.5q0 -38 14 -68t38 -55t56.5 -45.5t69.5 -38.5zM563 635q-41 -23 -78.5 -48.5t-65.5 -56t-44.5 -67.5t-16.5 -84q0 -52 16.5 -89t46.5 -60.5t72 -34.5
t93 -11q112 0 166.5 51.5t54.5 139.5q0 51 -20.5 89t-54 68t-77.5 54.5t-92 48.5zM799 797q58 -30 114 -66.5t100.5 -85.5t71.5 -114t27 -152q0 -79 -27.5 -147t-78.5 -119q-66 -66 -172 -102t-252 -36q-77 0 -140 7.5t-114.5 23t-92.5 39t-75 55.5q-51 48 -76 117t-25 150
q0 75 26 135t69.5 108t98.5 86.5t114 71.5q-45 27 -86.5 59.5t-73 73.5t-50 92.5t-18.5 116.5q0 66 23 128t71 110q57 55 143.5 86.5t217.5 31.5q125 0 210.5 -30t139.5 -82q45 -45 66.5 -103t21.5 -121q0 -60 -19 -109t-51 -89.5t-74.5 -73.5t-88.5 -61z" />
    <glyph glyph-name="nineoldstyle" unicode="&#xf739;" horiz-adv-x="1221" 
d="M600 430q59 0 103 19.5t73 55t43.5 85.5t14.5 112q0 75 -16 130.5t-46 91.5t-72 53.5t-94 17.5t-94 -16.5t-71.5 -51t-45.5 -87t-16 -125.5q0 -144 56 -214.5t165 -70.5zM618 1221q103 0 192.5 -28t164.5 -97q88 -80 129 -212t41 -335q0 -117 -11.5 -219.5t-38 -190
t-69 -160t-104.5 -129.5q-44 -41 -92.5 -68.5t-99.5 -44.5t-103 -24.5t-103 -7.5q-121 0 -218.5 25t-172.5 67q-11 5 -16.5 16t-5.5 22t4 18l55 120q13 27 38 27q11 0 25 -6q57 -28 121 -49t140 -21q61 0 115 18.5t96 53.5q30 28 52.5 64.5t37.5 78.5t24.5 87.5t14.5 92.5
q-36 -52 -114.5 -86t-193.5 -34q-100 0 -175.5 28.5t-135.5 85.5q-69 66 -103 156t-34 219q0 124 38 222.5t108.5 167.5t170.5 106t223 37z" />
    <glyph glyph-name="apple" unicode="&#xf8ff;" horiz-adv-x="1913" 
d="M1206 1032h566q37 0 60 -19t23 -55q0 -21 -10.5 -39t-36.5 -36l-448 -326l172 -526q3 -10 6.5 -22t3.5 -23q0 -35 -24 -53.5t-52 -18.5q-32 0 -63 25l-447 325l-446 -325q-17 -13 -32 -19t-32 -6q-27 0 -51 18.5t-24 53.5q0 11 3.5 23t6.5 22l172 526l-449 326
q-26 18 -36.5 36t-10.5 39q0 36 23.5 55t60.5 19h566l172 531q4 10 9.5 22t14.5 22t22 16.5t31 6.5q19 0 31.5 -5.5t21.5 -15t14.5 -21.5t10.5 -25zM766 950h-614l495 -360v-2l-190 -588l499 365l500 -365l-190 588v2l495 360h-614l-191 588z" />
    <glyph glyph-name="Euro" 
d="M838 991q14 0 23 -9.5t9 -23.5v-118q0 -16 -7.5 -25.5t-24.5 -9.5h-396q-1 -10 -1.5 -20.5t-0.5 -21.5v-32v-44q0 -10 0.5 -20.5t1.5 -21.5h396q14 0 23 -10.5t9 -24.5v-118q0 -16 -7.5 -25.5t-24.5 -9.5h-367q31 -127 99.5 -187.5t183.5 -60.5q86 0 145.5 26t104.5 72
q17 14 30 14t27 -14l88 -106q11 -17 11 -30q0 -18 -17 -38q-28 -33 -66.5 -62t-88 -50t-111 -33.5t-136.5 -12.5q-90 0 -166 20t-139 57t-111.5 90t-82.5 118q-25 48 -41 100t-27 97h-135q-19 0 -27 9.5t-8 25.5v118q0 14 9.5 24.5t25.5 10.5h111q-2 20 -2.5 39t-0.5 41
q0 11 0.5 34t2.5 46h-111q-19 0 -27 9.5t-8 25.5v118q0 14 9.5 23.5t25.5 9.5h135q11 54 28.5 111t45.5 108q35 64 83.5 117.5t110 91.5t136 59t161.5 21q73 0 133 -12.5t107.5 -34.5t83.5 -51t61 -62q17 -14 17 -29t-17 -32l-114 -109q-15 -15 -32 -15q-13 0 -24 11
q-41 58 -88.5 81.5t-117.5 23.5q-113 0 -180 -72.5t-99 -206.5h369z" />
    <glyph glyph-name="Circumflex" horiz-adv-x="1057" 
d="M723 1751q15 -11 15 -30q0 -13 -7 -23l-29 -43q-11 -18 -29 -18q-2 0 -20 5l-227 93l-227 -95q-18 -5 -20 -5q-19 0 -29 18l-29 41q-7 10 -7 23q0 19 15 30l233 190q34 27 63 27q28 0 64 -27z" />
    <glyph glyph-name="Tilde" horiz-adv-x="1057" 
d="M332 1724q-34 0 -56.5 -14.5t-44.5 -42.5q-15 -18 -32 -18q-14 0 -27 10l-66 43q-16 13 -16 33q0 18 10 34q42 72 104 113t134 41q52 0 83 -12t54 -27t44.5 -27t53.5 -12q34 0 56.5 15.5t44.5 44.5q15 16 33 16q12 0 26 -8l66 -45q16 -10 16 -33q0 -19 -10 -35
q-40 -72 -102.5 -112.5t-135.5 -40.5q-52 0 -83 12t-54 26.5t-44.5 26.5t-53.5 12z" />
    <glyph glyph-name="Ring" horiz-adv-x="1374" 
d="M676 1843q-34 0 -55 -21t-21 -69q0 -51 23 -71.5t57 -20.5t55 22t21 70q0 50 -23 70t-57 20zM676 1559q-43 0 -82 10t-68.5 33t-47 59.5t-17.5 89.5q0 49 16.5 86t46 61t69.5 36t87 12q43 0 82 -10.5t68.5 -33.5t47 -60t17.5 -89q0 -49 -16.5 -85.5t-46 -60.5t-69.5 -36
t-87 -12z" />
    <glyph glyph-name="Dieresiscondensed" horiz-adv-x="575" 
d="M528 1939q31 0 58 -12t47.5 -32t32.5 -47t12 -58t-12 -58t-32.5 -47.5t-47.5 -32.5t-58 -12q-32 0 -59 12t-47 32.5t-31.5 47.5t-11.5 58t11.5 58t31.5 47t47 32t59 12zM59 1939q31 0 58 -12t47.5 -32t32.5 -47t12 -58t-12 -58t-32.5 -47.5t-47.5 -32.5t-58 -12t-58 12
t-47.5 32.5t-32 47.5t-11.5 58t11.5 58t32 47t47.5 32t58 12z" />
    <glyph glyph-name="DEL" horiz-adv-x="1024" 
 />
    <glyph glyph-name="uniE004" horiz-adv-x="1024" 
 />
    <glyph glyph-name="foundryicon" horiz-adv-x="0" 
 />
    </font>
</defs>
</svg>
